<?xml version="1.0" encoding="UTF-8" standalone="no"?>
<!DOCTYPE svg PUBLIC "-//W3C//DTD SVG 1.1//EN"
 "http://www.w3.org/Graphics/SVG/1.1/DTD/svg11.dtd">
<!-- Generated by graphviz version 2.40.1 (0)
 -->
<!-- Title: prtx::MaterialBuilder Pages: 1 -->
<svg width="467pt" height="127pt"
 viewBox="0.00 0.00 467.00 127.00" xmlns="http://www.w3.org/2000/svg" xmlns:xlink="http://www.w3.org/1999/xlink">
<g id="graph0" class="graph" transform="scale(1 1) rotate(0) translate(4 123)">
<title>prtx::MaterialBuilder</title>
<!-- Node0 -->
<g id="node1" class="node">
<title>Node0</title>
<polygon fill="#bfbfbf" stroke="#000000" points="355,-50 355,-69 459,-69 459,-50 355,-50"/>
<text text-anchor="middle" x="407" y="-57" font-family="Helvetica,sans-Serif" font-size="10.00" fill="#000000">prtx::MaterialBuilder</text>
</g>
<!-- Node1 -->
<g id="node2" class="node">
<title>Node1</title>
<g id="a_node2"><a xlink:href="classprtx_1_1_shared_ptr_builder.html" target="_top" xlink:title="prtx::SharedPtrBuilder\l\&lt; Material \&gt;">
<polygon fill="none" stroke="#000000" points="191,-88.5 191,-118.5 304,-118.5 304,-88.5 191,-88.5"/>
<text text-anchor="start" x="199" y="-106.5" font-family="Helvetica,sans-Serif" font-size="10.00" fill="#000000">prtx::SharedPtrBuilder</text>
<text text-anchor="middle" x="247.5" y="-95.5" font-family="Helvetica,sans-Serif" font-size="10.00" fill="#000000">&lt; Material &gt;</text>
</a>
</g>
</g>
<!-- Node1&#45;&gt;Node0 -->
<g id="edge1" class="edge">
<title>Node1&#45;&gt;Node0</title>
<path fill="none" stroke="#191970" d="M311.6513,-85.8031C332.3616,-80.0899 354.5326,-73.9738 372.2787,-69.0783"/>
<polygon fill="#191970" stroke="#191970" points="310.6539,-82.4474 301.9447,-88.4808 312.5155,-89.1954 310.6539,-82.4474"/>
</g>
<!-- Node2 -->
<g id="node3" class="node">
<title>Node2</title>
<g id="a_node3"><a xlink:href="classprtx_1_1_attributable_setter.html" target="_top" xlink:title="prtx::AttributableSetter">
<polygon fill="none" stroke="#000000" points="190,-50 190,-69 305,-69 305,-50 190,-50"/>
<text text-anchor="middle" x="247.5" y="-57" font-family="Helvetica,sans-Serif" font-size="10.00" fill="#000000">prtx::AttributableSetter</text>
</a>
</g>
</g>
<!-- Node2&#45;&gt;Node0 -->
<g id="edge2" class="edge">
<title>Node2&#45;&gt;Node0</title>
<path fill="none" stroke="#191970" d="M315.1193,-59.5C328.3934,-59.5 342.1267,-59.5 354.8013,-59.5"/>
<polygon fill="#191970" stroke="#191970" points="315.0832,-56.0001 305.0832,-59.5 315.0831,-63.0001 315.0832,-56.0001"/>
</g>
<!-- Node3 -->
<g id="node4" class="node">
<title>Node3</title>
<g id="a_node4"><a xlink:href="classprtx_1_1_builtin_material_attributes_builder.html" target="_top" xlink:title="prtx::BuiltinMaterialAttributes\lBuilder">
<polygon fill="none" stroke="#000000" points="176,-.5 176,-30.5 319,-30.5 319,-.5 176,-.5"/>
<text text-anchor="start" x="184" y="-18.5" font-family="Helvetica,sans-Serif" font-size="10.00" fill="#000000">prtx::BuiltinMaterialAttributes</text>
<text text-anchor="middle" x="247.5" y="-7.5" font-family="Helvetica,sans-Serif" font-size="10.00" fill="#000000">Builder</text>
</a>
</g>
</g>
<!-- Node3&#45;&gt;Node0 -->
<g id="edge3" class="edge">
<title>Node3&#45;&gt;Node0</title>
<path fill="none" stroke="#191970" d="M311.6513,-33.1969C332.3616,-38.9101 354.5326,-45.0262 372.2787,-49.9217"/>
<polygon fill="#191970" stroke="#191970" points="312.5155,-29.8046 301.9447,-30.5192 310.6539,-36.5526 312.5155,-29.8046"/>
</g>
<!-- Node4 -->
<g id="node5" class="node">
<title>Node4</title>
<g id="a_node5"><a xlink:href="classprtx_1_1_builtin_attributes_setters.html" target="_top" xlink:title="prtx::BuiltinAttributesSetters">
<polygon fill="none" stroke="#000000" points="0,-6 0,-25 140,-25 140,-6 0,-6"/>
<text text-anchor="middle" x="70" y="-13" font-family="Helvetica,sans-Serif" font-size="10.00" fill="#000000">prtx::BuiltinAttributesSetters</text>
</a>
</g>
</g>
<!-- Node4&#45;&gt;Node3 -->
<g id="edge4" class="edge">
<title>Node4&#45;&gt;Node3</title>
<path fill="none" stroke="#191970" d="M150.4134,-15.5C158.884,-15.5 167.4569,-15.5 175.8196,-15.5"/>
<polygon fill="#191970" stroke="#191970" points="150.1527,-12.0001 140.1527,-15.5 150.1527,-19.0001 150.1527,-12.0001"/>
</g>
</g>
</svg>
