<?xml version="1.0" encoding="UTF-8" standalone="no"?>
<!DOCTYPE svg PUBLIC "-//W3C//DTD SVG 1.1//EN"
 "http://www.w3.org/Graphics/SVG/1.1/DTD/svg11.dtd">
<!-- Generated by graphviz version 2.26.0 (20091210.2329)
 -->
<!-- Title: prtx::Material Pages: 1 -->
<svg width="400pt" height="204pt"
 viewBox="0.00 0.00 400.00 204.00" xmlns="http://www.w3.org/2000/svg" xmlns:xlink="http://www.w3.org/1999/xlink">
<g id="graph1" class="graph" transform="scale(1 1) rotate(0) translate(4 200)">
<title>prtx::Material</title>
<!-- Node1 -->
<g id="node1" class="node"><title>Node1</title>
<polygon fill="#bfbfbf" stroke="black" points="132,-0.5 132,-21.5 206,-21.5 206,-0.5 132,-0.5"/>
<text text-anchor="middle" x="169" y="-8.5" font-family="Helvetica,sans-Serif" font-size="10.00">prtx::Material</text>
</g>
<!-- Node2 -->
<g id="node2" class="node"><title>Node2</title>
<a xlink:href="classprtx_1_1_attributable.html" target="_top" xlink:title="prtx::Attributable">
<polygon fill="none" stroke="black" points="-0.5,-58.5 -0.5,-79.5 88.5,-79.5 88.5,-58.5 -0.5,-58.5"/>
<text text-anchor="middle" x="44" y="-66.5" font-family="Helvetica,sans-Serif" font-size="10.00">prtx::Attributable</text>
</a>
</g>
<!-- Node2&#45;&gt;Node1 -->
<g id="edge2" class="edge"><title>Node2&#45;&gt;Node1</title>
<path fill="none" stroke="midnightblue" d="M75.8828,-54.2064C97.8125,-44.031 126.421,-30.7567 146.109,-21.6212"/>
<polygon fill="midnightblue" stroke="midnightblue" points="74.2345,-51.1127 66.6366,-58.4966 77.1808,-57.4625 74.2345,-51.1127"/>
</g>
<!-- Node3 -->
<g id="node4" class="node"><title>Node3</title>
<a xlink:href="classprtx_1_1_comparable_content.html" target="_top" xlink:title="prtx::ComparableContent">
<polygon fill="none" stroke="black" points="106,-58.5 106,-79.5 232,-79.5 232,-58.5 106,-58.5"/>
<text text-anchor="middle" x="169" y="-66.5" font-family="Helvetica,sans-Serif" font-size="10.00">prtx::ComparableContent</text>
</a>
</g>
<!-- Node3&#45;&gt;Node1 -->
<g id="edge4" class="edge"><title>Node3&#45;&gt;Node1</title>
<path fill="none" stroke="midnightblue" d="M169,-48.1906C169,-39.1684 169,-28.9941 169,-21.5707"/>
<polygon fill="midnightblue" stroke="midnightblue" points="165.5,-48.3619 169,-58.3619 172.5,-48.3619 165.5,-48.3619"/>
</g>
<!-- Node4 -->
<g id="node6" class="node"><title>Node4</title>
<a xlink:href="classprtx_1_1_content.html" target="_top" xlink:title="prtx::Content">
<polygon fill="none" stroke="black" points="132,-116.5 132,-137.5 206,-137.5 206,-116.5 132,-116.5"/>
<text text-anchor="middle" x="169" y="-124.5" font-family="Helvetica,sans-Serif" font-size="10.00">prtx::Content</text>
</a>
</g>
<!-- Node4&#45;&gt;Node3 -->
<g id="edge6" class="edge"><title>Node4&#45;&gt;Node3</title>
<path fill="none" stroke="midnightblue" d="M169,-106.191C169,-97.1684 169,-86.9941 169,-79.5707"/>
<polygon fill="midnightblue" stroke="midnightblue" points="165.5,-106.362 169,-116.362 172.5,-106.362 165.5,-106.362"/>
</g>
<!-- Node5 -->
<g id="node8" class="node"><title>Node5</title>
<a xlink:href="classprtx_1_1_builtin_material_attributes.html" target="_top" xlink:title="prtx::BuiltinMaterialAttributes">
<polygon fill="none" stroke="black" points="249.5,-58.5 249.5,-79.5 392.5,-79.5 392.5,-58.5 249.5,-58.5"/>
<text text-anchor="middle" x="321" y="-66.5" font-family="Helvetica,sans-Serif" font-size="10.00">prtx::BuiltinMaterialAttributes</text>
</a>
</g>
<!-- Node5&#45;&gt;Node1 -->
<g id="edge8" class="edge"><title>Node5&#45;&gt;Node1</title>
<path fill="none" stroke="midnightblue" d="M283.981,-54.8742C257.008,-44.5819 221.052,-30.862 196.578,-21.5231"/>
<polygon fill="midnightblue" stroke="midnightblue" points="282.883,-58.2015 293.474,-58.4966 285.379,-51.6615 282.883,-58.2015"/>
</g>
<!-- Node6 -->
<g id="node10" class="node"><title>Node6</title>
<a xlink:href="classprtx_1_1_builtin_attributes_getters.html" target="_top" xlink:title="prtx::BuiltinAttributesGetters">
<polygon fill="none" stroke="black" points="251,-116.5 251,-137.5 391,-137.5 391,-116.5 251,-116.5"/>
<text text-anchor="middle" x="321" y="-124.5" font-family="Helvetica,sans-Serif" font-size="10.00">prtx::BuiltinAttributesGetters</text>
</a>
</g>
<!-- Node6&#45;&gt;Node5 -->
<g id="edge10" class="edge"><title>Node6&#45;&gt;Node5</title>
<path fill="none" stroke="midnightblue" d="M321,-106.191C321,-97.1684 321,-86.9941 321,-79.5707"/>
<polygon fill="midnightblue" stroke="midnightblue" points="317.5,-106.362 321,-116.362 324.5,-106.362 317.5,-106.362"/>
</g>
<!-- Node7 -->
<g id="node12" class="node"><title>Node7</title>
<a xlink:href="classprtx_1_1_builtin_attributes.html" target="_top" xlink:title="prtx::BuiltinAttributes">
<polygon fill="none" stroke="black" points="267,-174.5 267,-195.5 375,-195.5 375,-174.5 267,-174.5"/>
<text text-anchor="middle" x="321" y="-182.5" font-family="Helvetica,sans-Serif" font-size="10.00">prtx::BuiltinAttributes</text>
</a>
</g>
<!-- Node7&#45;&gt;Node6 -->
<g id="edge12" class="edge"><title>Node7&#45;&gt;Node6</title>
<path fill="none" stroke="midnightblue" d="M321,-164.191C321,-155.168 321,-144.994 321,-137.571"/>
<polygon fill="midnightblue" stroke="midnightblue" points="317.5,-164.362 321,-174.362 324.5,-164.362 317.5,-164.362"/>
</g>
</g>
</svg>
