<?xml version="1.0" encoding="UTF-8" standalone="no"?>
<!DOCTYPE svg PUBLIC "-//W3C//DTD SVG 1.1//EN"
 "http://www.w3.org/Graphics/SVG/1.1/DTD/svg11.dtd">
<!-- Generated by graphviz version 2.26.0 (20091210.2329)
 -->
<!-- Title: prt::MemoryOutputCallbacks Pages: 1 -->
<svg width="224pt" height="146pt"
 viewBox="0.00 0.00 224.00 146.00" xmlns="http://www.w3.org/2000/svg" xmlns:xlink="http://www.w3.org/1999/xlink">
<g id="graph1" class="graph" transform="scale(1 1) rotate(0) translate(4 142)">
<title>prt::MemoryOutputCallbacks</title>
<!-- Node1 -->
<g id="node1" class="node"><title>Node1</title>
<polygon fill="#bfbfbf" stroke="black" points="55,-0.5 55,-21.5 197,-21.5 197,-0.5 55,-0.5"/>
<text text-anchor="middle" x="126" y="-8.5" font-family="Helvetica,sans-Serif" font-size="10.00">prt::MemoryOutputCallbacks</text>
</g>
<!-- Node2 -->
<g id="node2" class="node"><title>Node2</title>
<a xlink:href="classprt_1_1_simple_output_callbacks.html" target="_top" xlink:title="prt::SimpleOutputCallbacks">
<polygon fill="none" stroke="black" points="-0.5,-58.5 -0.5,-79.5 136.5,-79.5 136.5,-58.5 -0.5,-58.5"/>
<text text-anchor="middle" x="68" y="-66.5" font-family="Helvetica,sans-Serif" font-size="10.00">prt::SimpleOutputCallbacks</text>
</a>
</g>
<!-- Node2&#45;&gt;Node1 -->
<g id="edge2" class="edge"><title>Node2&#45;&gt;Node1</title>
<path fill="none" stroke="midnightblue" d="M85.882,-51.118C95.5623,-41.4377 107.19,-29.8098 115.429,-21.5707"/>
<polygon fill="midnightblue" stroke="midnightblue" points="83.2343,-48.8159 78.6381,-58.3619 88.1841,-53.7657 83.2343,-48.8159"/>
</g>
<!-- Node3 -->
<g id="node4" class="node"><title>Node3</title>
<a xlink:href="classprt_1_1_callbacks.html" target="_top" xlink:title="prt::Callbacks">
<polygon fill="none" stroke="black" points="29.5,-116.5 29.5,-137.5 106.5,-137.5 106.5,-116.5 29.5,-116.5"/>
<text text-anchor="middle" x="68" y="-124.5" font-family="Helvetica,sans-Serif" font-size="10.00">prt::Callbacks</text>
</a>
</g>
<!-- Node3&#45;&gt;Node2 -->
<g id="edge4" class="edge"><title>Node3&#45;&gt;Node2</title>
<path fill="none" stroke="midnightblue" d="M68,-106.191C68,-97.1684 68,-86.9941 68,-79.5707"/>
<polygon fill="midnightblue" stroke="midnightblue" points="64.5001,-106.362 68,-116.362 71.5001,-106.362 64.5001,-106.362"/>
</g>
<!-- Node4 -->
<g id="node6" class="node"><title>Node4</title>
<a xlink:href="classprt_1_1_object.html" target="_top" xlink:title="prt::Object">
<polygon fill="none" stroke="black" points="154,-58.5 154,-79.5 216,-79.5 216,-58.5 154,-58.5"/>
<text text-anchor="middle" x="185" y="-66.5" font-family="Helvetica,sans-Serif" font-size="10.00">prt::Object</text>
</a>
</g>
<!-- Node4&#45;&gt;Node1 -->
<g id="edge6" class="edge"><title>Node4&#45;&gt;Node1</title>
<path fill="none" stroke="midnightblue" d="M166.81,-51.118C156.963,-41.4377 145.134,-29.8098 136.753,-21.5707"/>
<polygon fill="midnightblue" stroke="midnightblue" points="164.594,-53.8474 174.178,-58.3619 169.501,-48.8556 164.594,-53.8474"/>
</g>
</g>
</svg>
