<?xml version="1.0" encoding="UTF-8" standalone="no"?>
<!DOCTYPE svg PUBLIC "-//W3C//DTD SVG 1.1//EN"
 "http://www.w3.org/Graphics/SVG/1.1/DTD/svg11.dtd">
<!-- Generated by graphviz version 2.30.1 (20170916.1124)
 -->
<!-- Title: prtx::ReportsAccumulator Pages: 1 -->
<svg width="428pt" height="152pt"
 viewBox="0.00 0.00 428.00 152.00" xmlns="http://www.w3.org/2000/svg" xmlns:xlink="http://www.w3.org/1999/xlink">
<g id="graph0" class="graph" transform="scale(1 1) rotate(0) translate(4 148)">
<title>prtx::ReportsAccumulator</title>
<!-- Node1 -->
<g id="node1" class="node"><title>Node1</title>
<polygon fill="#bfbfbf" stroke="black" points="175,-124.5 175,-143.5 303,-143.5 303,-124.5 175,-124.5"/>
<text text-anchor="middle" x="239" y="-131.5" font-family="Helvetica,sans-Serif" font-size="10.00">prtx::ReportsAccumulator</text>
</g>
<!-- Node2 -->
<g id="node2" class="node"><title>Node2</title>
<g id="a_node2"><a xlink:href="classprtx_1_1_appending_reports_accumulator.html" target="_top" xlink:title="prtx::AppendingReportsAccumulator">
<polygon fill="none" stroke="black" points="57,-68.5 57,-87.5 231,-87.5 231,-68.5 57,-68.5"/>
<text text-anchor="middle" x="144" y="-75.5" font-family="Helvetica,sans-Serif" font-size="10.00">prtx::AppendingReportsAccumulator</text>
</a>
</g>
</g>
<!-- Node1&#45;&gt;Node2 -->
<g id="edge1" class="edge"><title>Node1&#45;&gt;Node2</title>
<path fill="none" stroke="midnightblue" d="M214.682,-119.177C197.201,-109.241 174.17,-96.1492 159.226,-87.6545"/>
<polygon fill="midnightblue" stroke="midnightblue" points="213.313,-122.425 223.737,-124.324 216.773,-116.339 213.313,-122.425"/>
</g>
<!-- Node5 -->
<g id="node5" class="node"><title>Node5</title>
<g id="a_node5"><a xlink:href="classprtx_1_1_write_first_reports_accumulator.html" target="_top" xlink:title="prtx::WriteFirstReportsAccumulator">
<polygon fill="none" stroke="black" points="249.5,-68.5 249.5,-87.5 420.5,-87.5 420.5,-68.5 249.5,-68.5"/>
<text text-anchor="middle" x="335" y="-75.5" font-family="Helvetica,sans-Serif" font-size="10.00">prtx::WriteFirstReportsAccumulator</text>
</a>
</g>
</g>
<!-- Node1&#45;&gt;Node5 -->
<g id="edge4" class="edge"><title>Node1&#45;&gt;Node5</title>
<path fill="none" stroke="midnightblue" d="M263.574,-119.177C281.239,-109.241 304.513,-96.1492 319.614,-87.6545"/>
<polygon fill="midnightblue" stroke="midnightblue" points="261.424,-116.371 254.424,-124.324 264.856,-122.472 261.424,-116.371"/>
</g>
<!-- Node3 -->
<g id="node3" class="node"><title>Node3</title>
<g id="a_node3"><a xlink:href="classprtx_1_1_summarizing_reports_accumulator.html" target="_top" xlink:title="prtx::SummarizingReports\lAccumulator">
<polygon fill="none" stroke="black" points="-0.5,-1 -0.5,-31 130.5,-31 130.5,-1 -0.5,-1"/>
<text text-anchor="start" x="7.5" y="-19" font-family="Helvetica,sans-Serif" font-size="10.00">prtx::SummarizingReports</text>
<text text-anchor="middle" x="65" y="-8" font-family="Helvetica,sans-Serif" font-size="10.00">Accumulator</text>
</a>
</g>
</g>
<!-- Node2&#45;&gt;Node3 -->
<g id="edge2" class="edge"><title>Node2&#45;&gt;Node3</title>
<path fill="none" stroke="midnightblue" d="M124.705,-62.3459C112.197,-52.8461 95.9903,-40.5369 83.6187,-31.1408"/>
<polygon fill="midnightblue" stroke="midnightblue" points="122.601,-65.1424 132.681,-68.4035 126.835,-59.5679 122.601,-65.1424"/>
</g>
<!-- Node4 -->
<g id="node4" class="node"><title>Node4</title>
<g id="a_node4"><a xlink:href="classprtx_1_1_sum_reports_accumulator.html" target="_top" xlink:title="prtx::SumReportsAccumulator">
<polygon fill="none" stroke="black" points="148.5,-6.5 148.5,-25.5 297.5,-25.5 297.5,-6.5 148.5,-6.5"/>
<text text-anchor="middle" x="223" y="-13.5" font-family="Helvetica,sans-Serif" font-size="10.00">prtx::SumReportsAccumulator</text>
</a>
</g>
</g>
<!-- Node2&#45;&gt;Node4 -->
<g id="edge3" class="edge"><title>Node2&#45;&gt;Node4</title>
<path fill="none" stroke="midnightblue" d="M163.526,-62.1702C178.68,-50.6608 199.157,-35.1086 211.702,-25.5806"/>
<polygon fill="midnightblue" stroke="midnightblue" points="161.165,-59.5679 155.319,-68.4035 165.399,-65.1424 161.165,-59.5679"/>
</g>
</g>
</svg>
