<?xml version="1.0" encoding="UTF-8" standalone="no"?>
<!DOCTYPE svg PUBLIC "-//W3C//DTD SVG 1.1//EN"
 "http://www.w3.org/Graphics/SVG/1.1/DTD/svg11.dtd">
<!-- Generated by graphviz version 2.26.0 (20091210.2329)
 -->
<!-- Title: prt::LogHandler Pages: 1 -->
<svg width="242pt" height="88pt"
 viewBox="0.00 0.00 242.00 88.00" xmlns="http://www.w3.org/2000/svg" xmlns:xlink="http://www.w3.org/1999/xlink">
<g id="graph1" class="graph" transform="scale(1 1) rotate(0) translate(4 84)">
<title>prt::LogHandler</title>
<!-- Node1 -->
<g id="node1" class="node"><title>Node1</title>
<polygon fill="#bfbfbf" stroke="black" points="80.5,-58.5 80.5,-79.5 163.5,-79.5 163.5,-58.5 80.5,-58.5"/>
<text text-anchor="middle" x="122" y="-66.5" font-family="Helvetica,sans-Serif" font-size="10.00">prt::LogHandler</text>
</g>
<!-- Node2 -->
<g id="node3" class="node"><title>Node2</title>
<a xlink:href="classprt_1_1_console_log_handler.html" target="_top" xlink:title="prt::ConsoleLogHandler">
<polygon fill="none" stroke="black" points="-0.5,-0.5 -0.5,-21.5 118.5,-21.5 118.5,-0.5 -0.5,-0.5"/>
<text text-anchor="middle" x="59" y="-8.5" font-family="Helvetica,sans-Serif" font-size="10.00">prt::ConsoleLogHandler</text>
</a>
</g>
<!-- Node1&#45;&gt;Node2 -->
<g id="edge2" class="edge"><title>Node1&#45;&gt;Node2</title>
<path fill="none" stroke="midnightblue" d="M102.888,-51.405C92.3122,-41.6683 79.52,-29.8914 70.4819,-21.5707"/>
<polygon fill="midnightblue" stroke="midnightblue" points="100.717,-54.1637 110.445,-58.3619 105.458,-49.0138 100.717,-54.1637"/>
</g>
<!-- Node3 -->
<g id="node5" class="node"><title>Node3</title>
<a xlink:href="classprt_1_1_file_log_handler.html" target="_top" xlink:title="prt::FileLogHandler">
<polygon fill="none" stroke="black" points="135.5,-0.5 135.5,-21.5 234.5,-21.5 234.5,-0.5 135.5,-0.5"/>
<text text-anchor="middle" x="185" y="-8.5" font-family="Helvetica,sans-Serif" font-size="10.00">prt::FileLogHandler</text>
</a>
</g>
<!-- Node1&#45;&gt;Node3 -->
<g id="edge4" class="edge"><title>Node1&#45;&gt;Node3</title>
<path fill="none" stroke="midnightblue" d="M141.112,-51.405C151.688,-41.6683 164.48,-29.8914 173.518,-21.5707"/>
<polygon fill="midnightblue" stroke="midnightblue" points="138.542,-49.0138 133.555,-58.3619 143.283,-54.1637 138.542,-49.0138"/>
</g>
</g>
</svg>
