<?xml version="1.0" encoding="UTF-8" standalone="no"?>
<!DOCTYPE svg PUBLIC "-//W3C//DTD SVG 1.1//EN"
 "http://www.w3.org/Graphics/SVG/1.1/DTD/svg11.dtd">
<!-- Generated by graphviz version 2.30.1 (20140821.0912)
 -->
<!-- Title: prtx::ExtensionFactory Pages: 1 -->
<svg width="368pt" height="84pt"
 viewBox="0.00 0.00 368.00 84.00" xmlns="http://www.w3.org/2000/svg" xmlns:xlink="http://www.w3.org/1999/xlink">
<g id="graph0" class="graph" transform="scale(1 1) rotate(0) translate(4 80)">
<title>prtx::ExtensionFactory</title>
<!-- Node1 -->
<g id="node1" class="node"><title>Node1</title>
<polygon fill="#bfbfbf" stroke="black" points="121,-56.5 121,-75.5 237,-75.5 237,-56.5 121,-56.5"/>
<text text-anchor="middle" x="179" y="-63.5" font-family="Helvetica,sans-Serif" font-size="10.00">prtx::ExtensionFactory</text>
</g>
<!-- Node2 -->
<g id="node2" class="node"><title>Node2</title>
<g id="a_node2"><a xlink:href="classprtx_1_1_adaptor_factory.html" target="_top" xlink:title="prtx::AdaptorFactory">
<polygon fill="none" stroke="black" points="0,-0.5 0,-19.5 106,-19.5 106,-0.5 0,-0.5"/>
<text text-anchor="middle" x="53" y="-7.5" font-family="Helvetica,sans-Serif" font-size="10.00">prtx::AdaptorFactory</text>
</a>
</g>
</g>
<!-- Node1&#45;&gt;Node2 -->
<g id="edge1" class="edge"><title>Node1&#45;&gt;Node2</title>
<path fill="none" stroke="midnightblue" d="M149.84,-52.503C126.219,-42.3795 93.572,-28.388 72.8717,-19.5164"/>
<polygon fill="midnightblue" stroke="midnightblue" points="148.465,-55.7213 159.035,-56.4435 151.222,-49.2873 148.465,-55.7213"/>
</g>
<!-- Node3 -->
<g id="node3" class="node"><title>Node3</title>
<g id="a_node3"><a xlink:href="classprtx_1_1_decoder_factory.html" target="_top" xlink:title="prtx::DecoderFactory">
<polygon fill="none" stroke="black" points="124.5,-0.5 124.5,-19.5 233.5,-19.5 233.5,-0.5 124.5,-0.5"/>
<text text-anchor="middle" x="179" y="-7.5" font-family="Helvetica,sans-Serif" font-size="10.00">prtx::DecoderFactory</text>
</a>
</g>
</g>
<!-- Node1&#45;&gt;Node3 -->
<g id="edge2" class="edge"><title>Node1&#45;&gt;Node3</title>
<path fill="none" stroke="midnightblue" d="M179,-45.8045C179,-36.9102 179,-26.7798 179,-19.7511"/>
<polygon fill="midnightblue" stroke="midnightblue" points="175.5,-46.083 179,-56.083 182.5,-46.083 175.5,-46.083"/>
</g>
<!-- Node4 -->
<g id="node4" class="node"><title>Node4</title>
<g id="a_node4"><a xlink:href="classprtx_1_1_encoder_factory.html" target="_top" xlink:title="prtx::EncoderFactory">
<polygon fill="none" stroke="black" points="252,-0.5 252,-19.5 360,-19.5 360,-0.5 252,-0.5"/>
<text text-anchor="middle" x="306" y="-7.5" font-family="Helvetica,sans-Serif" font-size="10.00">prtx::EncoderFactory</text>
</a>
</g>
</g>
<!-- Node1&#45;&gt;Node4 -->
<g id="edge3" class="edge"><title>Node1&#45;&gt;Node4</title>
<path fill="none" stroke="midnightblue" d="M208.391,-52.503C232.2,-42.3795 265.106,-28.388 285.971,-19.5164"/>
<polygon fill="midnightblue" stroke="midnightblue" points="206.957,-49.3096 199.124,-56.4435 209.696,-55.7515 206.957,-49.3096"/>
</g>
</g>
</svg>
