<?xml version="1.0" encoding="UTF-8" standalone="no"?>
<!DOCTYPE svg PUBLIC "-//W3C//DTD SVG 1.1//EN"
 "http://www.w3.org/Graphics/SVG/1.1/DTD/svg11.dtd">
<!-- Generated by graphviz version 2.26.0 (20091210.2329)
 -->
<!-- Title: prtx::Content Pages: 1 -->
<svg width="392pt" height="204pt"
 viewBox="0.00 0.00 392.00 204.00" xmlns="http://www.w3.org/2000/svg" xmlns:xlink="http://www.w3.org/1999/xlink">
<g id="graph1" class="graph" transform="scale(1 1) rotate(0) translate(4 200)">
<title>prtx::Content</title>
<!-- Node1 -->
<g id="node1" class="node"><title>Node1</title>
<polygon fill="#bfbfbf" stroke="black" points="165,-116.5 165,-137.5 239,-137.5 239,-116.5 165,-116.5"/>
<text text-anchor="middle" x="202" y="-124.5" font-family="Helvetica,sans-Serif" font-size="10.00">prtx::Content</text>
</g>
<!-- Node3 -->
<g id="node5" class="node"><title>Node3</title>
<a xlink:href="classprtx_1_1_c_g_b.html" target="_top" xlink:title="prtx::CGB">
<polygon fill="none" stroke="black" points="-0.5,-58.5 -0.5,-79.5 60.5,-79.5 60.5,-58.5 -0.5,-58.5"/>
<text text-anchor="middle" x="30" y="-66.5" font-family="Helvetica,sans-Serif" font-size="10.00">prtx::CGB</text>
</a>
</g>
<!-- Node1&#45;&gt;Node3 -->
<g id="edge4" class="edge"><title>Node1&#45;&gt;Node3</title>
<path fill="none" stroke="midnightblue" d="M161.247,-113.258C130.393,-102.853 88.6745,-88.7856 60.627,-79.3277"/>
<polygon fill="midnightblue" stroke="midnightblue" points="160.258,-116.618 170.852,-116.497 162.495,-109.985 160.258,-116.618"/>
</g>
<!-- Node4 -->
<g id="node7" class="node"><title>Node4</title>
<a xlink:href="classprtx_1_1_comparable_content.html" target="_top" xlink:title="prtx::ComparableContent">
<polygon fill="none" stroke="black" points="78,-58.5 78,-79.5 204,-79.5 204,-58.5 78,-58.5"/>
<text text-anchor="middle" x="141" y="-66.5" font-family="Helvetica,sans-Serif" font-size="10.00">prtx::ComparableContent</text>
</a>
</g>
<!-- Node1&#45;&gt;Node4 -->
<g id="edge6" class="edge"><title>Node1&#45;&gt;Node4</title>
<path fill="none" stroke="midnightblue" d="M183.495,-109.405C173.255,-99.6683 160.869,-87.8914 152.117,-79.5707"/>
<polygon fill="midnightblue" stroke="midnightblue" points="181.153,-112.008 190.812,-116.362 185.976,-106.935 181.153,-112.008"/>
</g>
<!-- Node8 -->
<g id="node15" class="node"><title>Node8</title>
<a xlink:href="classprtx_1_1_geometry.html" target="_top" xlink:title="prtx::Geometry">
<polygon fill="none" stroke="black" points="222,-58.5 222,-79.5 304,-79.5 304,-58.5 222,-58.5"/>
<text text-anchor="middle" x="263" y="-66.5" font-family="Helvetica,sans-Serif" font-size="10.00">prtx::Geometry</text>
</a>
</g>
<!-- Node1&#45;&gt;Node8 -->
<g id="edge14" class="edge"><title>Node1&#45;&gt;Node8</title>
<path fill="none" stroke="midnightblue" d="M220.505,-109.405C230.745,-99.6683 243.131,-87.8914 251.883,-79.5707"/>
<polygon fill="midnightblue" stroke="midnightblue" points="218.024,-106.935 213.188,-116.362 222.847,-112.008 218.024,-106.935"/>
</g>
<!-- Node9 -->
<g id="node17" class="node"><title>Node9</title>
<a xlink:href="classprtx_1_1_mesh.html" target="_top" xlink:title="prtx::Mesh">
<polygon fill="none" stroke="black" points="321.5,-58.5 321.5,-79.5 384.5,-79.5 384.5,-58.5 321.5,-58.5"/>
<text text-anchor="middle" x="353" y="-66.5" font-family="Helvetica,sans-Serif" font-size="10.00">prtx::Mesh</text>
</a>
</g>
<!-- Node1&#45;&gt;Node9 -->
<g id="edge16" class="edge"><title>Node1&#45;&gt;Node9</title>
<path fill="none" stroke="midnightblue" d="M238.776,-112.874C265.571,-102.582 301.29,-88.862 325.604,-79.5231"/>
<polygon fill="midnightblue" stroke="midnightblue" points="237.425,-109.644 229.345,-116.497 239.935,-116.178 237.425,-109.644"/>
</g>
<!-- Node2 -->
<g id="node2" class="node"><title>Node2</title>
<polygon fill="none" stroke="#bfbfbf" points="166.5,-174.5 166.5,-195.5 237.5,-195.5 237.5,-174.5 166.5,-174.5"/>
<text text-anchor="middle" x="202" y="-182.5" font-family="Helvetica,sans-Serif" font-size="10.00">noncopyable</text>
</g>
<!-- Node2&#45;&gt;Node1 -->
<g id="edge2" class="edge"><title>Node2&#45;&gt;Node1</title>
<path fill="none" stroke="#8b1a1a" d="M202,-164.191C202,-155.168 202,-144.994 202,-137.571"/>
<polygon fill="#8b1a1a" stroke="#8b1a1a" points="198.5,-164.362 202,-174.362 205.5,-164.362 198.5,-164.362"/>
</g>
<!-- Node5 -->
<g id="node9" class="node"><title>Node5</title>
<a xlink:href="classprtx_1_1_material.html" target="_top" xlink:title="prtx::Material">
<polygon fill="none" stroke="black" points="14,-0.5 14,-21.5 88,-21.5 88,-0.5 14,-0.5"/>
<text text-anchor="middle" x="51" y="-8.5" font-family="Helvetica,sans-Serif" font-size="10.00">prtx::Material</text>
</a>
</g>
<!-- Node4&#45;&gt;Node5 -->
<g id="edge8" class="edge"><title>Node4&#45;&gt;Node5</title>
<path fill="none" stroke="midnightblue" d="M115.895,-52.8215C100.393,-42.8312 80.9471,-30.2993 67.4027,-21.5707"/>
<polygon fill="midnightblue" stroke="midnightblue" points="114.191,-55.8869 124.493,-58.3619 117.983,-50.0028 114.191,-55.8869"/>
</g>
<!-- Node6 -->
<g id="node11" class="node"><title>Node6</title>
<a xlink:href="classprtx_1_1_shader.html" target="_top" xlink:title="prtx::Shader">
<polygon fill="none" stroke="black" points="106,-0.5 106,-21.5 176,-21.5 176,-0.5 106,-0.5"/>
<text text-anchor="middle" x="141" y="-8.5" font-family="Helvetica,sans-Serif" font-size="10.00">prtx::Shader</text>
</a>
</g>
<!-- Node4&#45;&gt;Node6 -->
<g id="edge10" class="edge"><title>Node4&#45;&gt;Node6</title>
<path fill="none" stroke="midnightblue" d="M141,-48.1906C141,-39.1684 141,-28.9941 141,-21.5707"/>
<polygon fill="midnightblue" stroke="midnightblue" points="137.5,-48.3619 141,-58.3619 144.5,-48.3619 137.5,-48.3619"/>
</g>
<!-- Node7 -->
<g id="node13" class="node"><title>Node7</title>
<a xlink:href="classprtx_1_1_texture.html" target="_top" xlink:title="prtx::Texture">
<polygon fill="none" stroke="black" points="194,-0.5 194,-21.5 266,-21.5 266,-0.5 194,-0.5"/>
<text text-anchor="middle" x="230" y="-8.5" font-family="Helvetica,sans-Serif" font-size="10.00">prtx::Texture</text>
</a>
</g>
<!-- Node4&#45;&gt;Node7 -->
<g id="edge12" class="edge"><title>Node4&#45;&gt;Node7</title>
<path fill="none" stroke="midnightblue" d="M165.826,-52.8215C181.156,-42.8312 200.386,-30.2993 213.78,-21.5707"/>
<polygon fill="midnightblue" stroke="midnightblue" points="163.791,-49.9698 157.324,-58.3619 167.613,-55.8344 163.791,-49.9698"/>
</g>
</g>
</svg>
