<?xml version="1.0" encoding="UTF-8" standalone="no"?>
<!DOCTYPE svg PUBLIC "-//W3C//DTD SVG 1.1//EN"
 "http://www.w3.org/Graphics/SVG/1.1/DTD/svg11.dtd">
<!-- Generated by graphviz version 2.26.0 (20091210.2329)
 -->
<!-- Title: prtx::Geometry Pages: 1 -->
<svg width="188pt" height="146pt"
 viewBox="0.00 0.00 188.00 146.00" xmlns="http://www.w3.org/2000/svg" xmlns:xlink="http://www.w3.org/1999/xlink">
<g id="graph1" class="graph" transform="scale(1 1) rotate(0) translate(4 142)">
<title>prtx::Geometry</title>
<!-- Node1 -->
<g id="node1" class="node"><title>Node1</title>
<polygon fill="#bfbfbf" stroke="black" points="45,-0.5 45,-21.5 127,-21.5 127,-0.5 45,-0.5"/>
<text text-anchor="middle" x="86" y="-8.5" font-family="Helvetica,sans-Serif" font-size="10.00">prtx::Geometry</text>
</g>
<!-- Node2 -->
<g id="node2" class="node"><title>Node2</title>
<a xlink:href="classprtx_1_1_content.html" target="_top" xlink:title="prtx::Content">
<polygon fill="none" stroke="black" points="0,-58.5 0,-79.5 74,-79.5 74,-58.5 0,-58.5"/>
<text text-anchor="middle" x="37" y="-66.5" font-family="Helvetica,sans-Serif" font-size="10.00">prtx::Content</text>
</a>
</g>
<!-- Node2&#45;&gt;Node1 -->
<g id="edge2" class="edge"><title>Node2&#45;&gt;Node1</title>
<path fill="none" stroke="midnightblue" d="M52.5949,-50.5407C60.6733,-40.9786 70.2468,-29.6467 77.0696,-21.5707"/>
<polygon fill="midnightblue" stroke="midnightblue" points="49.7673,-48.4643 45.9874,-58.3619 55.1145,-52.9818 49.7673,-48.4643"/>
</g>
<!-- Node3 -->
<g id="node4" class="node"><title>Node3</title>
<polygon fill="none" stroke="#bfbfbf" points="1.5,-116.5 1.5,-137.5 72.5,-137.5 72.5,-116.5 1.5,-116.5"/>
<text text-anchor="middle" x="37" y="-124.5" font-family="Helvetica,sans-Serif" font-size="10.00">noncopyable</text>
</g>
<!-- Node3&#45;&gt;Node2 -->
<g id="edge4" class="edge"><title>Node3&#45;&gt;Node2</title>
<path fill="none" stroke="#8b1a1a" d="M37,-106.191C37,-97.1684 37,-86.9941 37,-79.5707"/>
<polygon fill="#8b1a1a" stroke="#8b1a1a" points="33.5001,-106.362 37,-116.362 40.5001,-106.362 33.5001,-106.362"/>
</g>
<!-- Node4 -->
<g id="node6" class="node"><title>Node4</title>
<a xlink:href="classprtx_1_1_attributable.html" target="_top" xlink:title="prtx::Attributable">
<polygon fill="none" stroke="black" points="91.5,-58.5 91.5,-79.5 180.5,-79.5 180.5,-58.5 91.5,-58.5"/>
<text text-anchor="middle" x="136" y="-66.5" font-family="Helvetica,sans-Serif" font-size="10.00">prtx::Attributable</text>
</a>
</g>
<!-- Node4&#45;&gt;Node1 -->
<g id="edge6" class="edge"><title>Node4&#45;&gt;Node1</title>
<path fill="none" stroke="midnightblue" d="M120.087,-50.5407C111.844,-40.9786 102.075,-29.6467 95.1126,-21.5707"/>
<polygon fill="midnightblue" stroke="midnightblue" points="117.649,-53.0731 126.829,-58.3619 122.951,-48.5025 117.649,-53.0731"/>
</g>
</g>
</svg>
