<?xml version="1.0" encoding="UTF-8" standalone="no"?>
<!DOCTYPE svg PUBLIC "-//W3C//DTD SVG 1.1//EN"
 "http://www.w3.org/Graphics/SVG/1.1/DTD/svg11.dtd">
<!-- Generated by graphviz version 2.40.1 (0)
 -->
<!-- Title: prtx::Extension Pages: 1 -->
<svg width="412pt" height="351pt"
 viewBox="0.00 0.00 412.00 351.00" xmlns="http://www.w3.org/2000/svg" xmlns:xlink="http://www.w3.org/1999/xlink">
<g id="graph0" class="graph" transform="scale(1 1) rotate(0) translate(4 347)">
<title>prtx::Extension</title>
<!-- Node0 -->
<g id="node1" class="node">
<title>Node0</title>
<polygon fill="#bfbfbf" stroke="#000000" points="0,-57.5 0,-76.5 83,-76.5 83,-57.5 0,-57.5"/>
<text text-anchor="middle" x="41.5" y="-64.5" font-family="Helvetica,sans-Serif" font-size="10.00" fill="#000000">prtx::Extension</text>
</g>
<!-- Node1 -->
<g id="node2" class="node">
<title>Node1</title>
<g id="a_node2"><a xlink:href="classprtx_1_1_decoder.html" target="_top" xlink:title="prtx::Decoder">
<polygon fill="none" stroke="#000000" points="146,-209.5 146,-228.5 222,-228.5 222,-209.5 146,-209.5"/>
<text text-anchor="middle" x="184" y="-216.5" font-family="Helvetica,sans-Serif" font-size="10.00" fill="#000000">prtx::Decoder</text>
</a>
</g>
</g>
<!-- Node0&#45;&gt;Node1 -->
<g id="edge1" class="edge">
<title>Node0&#45;&gt;Node1</title>
<path fill="none" stroke="#191970" d="M57.626,-84.2011C87.7409,-116.3236 151.6014,-184.4415 175.0894,-209.4953"/>
<polygon fill="#191970" stroke="#191970" points="59.8068,-81.4099 50.414,-76.5083 54.7001,-86.1975 59.8068,-81.4099"/>
</g>
<!-- Node8 -->
<g id="node9" class="node">
<title>Node8</title>
<g id="a_node9"><a xlink:href="classprtx_1_1_encoder.html" target="_top" xlink:title="prtx::Encoder">
<polygon fill="none" stroke="#000000" points="146.5,-76.5 146.5,-95.5 221.5,-95.5 221.5,-76.5 146.5,-76.5"/>
<text text-anchor="middle" x="184" y="-83.5" font-family="Helvetica,sans-Serif" font-size="10.00" fill="#000000">prtx::Encoder</text>
</a>
</g>
</g>
<!-- Node0&#45;&gt;Node8 -->
<g id="edge8" class="edge">
<title>Node0&#45;&gt;Node8</title>
<path fill="none" stroke="#191970" d="M93.2372,-73.8983C110.8543,-76.2472 130.1959,-78.8261 146.4812,-80.9975"/>
<polygon fill="#191970" stroke="#191970" points="93.4749,-70.3991 83.1,-72.5467 92.5496,-77.3377 93.4749,-70.3991"/>
</g>
<!-- Node12 -->
<g id="node13" class="node">
<title>Node12</title>
<g id="a_node13"><a xlink:href="classprtx_1_1_resolve_map_provider.html" target="_top" xlink:title="prtx::ResolveMapProvider">
<polygon fill="none" stroke="#000000" points="119,-38.5 119,-57.5 249,-57.5 249,-38.5 119,-38.5"/>
<text text-anchor="middle" x="184" y="-45.5" font-family="Helvetica,sans-Serif" font-size="10.00" fill="#000000">prtx::ResolveMapProvider</text>
</a>
</g>
</g>
<!-- Node0&#45;&gt;Node12 -->
<g id="edge12" class="edge">
<title>Node0&#45;&gt;Node12</title>
<path fill="none" stroke="#191970" d="M93.0511,-60.1265C101.3963,-59.0138 110.1329,-57.8489 118.7515,-56.6998"/>
<polygon fill="#191970" stroke="#191970" points="92.5496,-56.6623 83.1,-61.4533 93.4749,-63.6009 92.5496,-56.6623"/>
</g>
<!-- Node13 -->
<g id="node14" class="node">
<title>Node13</title>
<g id="a_node14"><a xlink:href="classprtx_1_1_stream_adaptor.html" target="_top" xlink:title="prtx::StreamAdaptor">
<polygon fill="none" stroke="#000000" points="132,-.5 132,-19.5 236,-19.5 236,-.5 132,-.5"/>
<text text-anchor="middle" x="184" y="-7.5" font-family="Helvetica,sans-Serif" font-size="10.00" fill="#000000">prtx::StreamAdaptor</text>
</a>
</g>
</g>
<!-- Node0&#45;&gt;Node13 -->
<g id="edge13" class="edge">
<title>Node0&#45;&gt;Node13</title>
<path fill="none" stroke="#191970" d="M68.0044,-52.5976C82.7447,-44.9485 101.5806,-35.7589 119,-29 127.9878,-25.5126 137.8868,-22.3099 147.1911,-19.5674"/>
<polygon fill="#191970" stroke="#191970" points="66.1807,-49.6023 58.9654,-57.3606 69.444,-55.7952 66.1807,-49.6023"/>
</g>
<!-- Node2 -->
<g id="node3" class="node">
<title>Node2</title>
<g id="a_node3"><a xlink:href="classprtx_1_1_c_g_b_decoder.html" target="_top" xlink:title="prtx::CGBDecoder">
<polygon fill="none" stroke="#000000" points="295.5,-323.5 295.5,-342.5 393.5,-342.5 393.5,-323.5 295.5,-323.5"/>
<text text-anchor="middle" x="344.5" y="-330.5" font-family="Helvetica,sans-Serif" font-size="10.00" fill="#000000">prtx::CGBDecoder</text>
</a>
</g>
</g>
<!-- Node1&#45;&gt;Node2 -->
<g id="edge2" class="edge">
<title>Node1&#45;&gt;Node2</title>
<path fill="none" stroke="#191970" d="M198.1543,-236.416C216.2273,-257.5878 249.4437,-293.074 285,-314 291.4483,-317.795 298.7431,-320.9246 305.9596,-323.4717"/>
<polygon fill="#191970" stroke="#191970" points="200.6804,-233.9808 191.5799,-228.5557 195.3109,-238.4719 200.6804,-233.9808"/>
</g>
<!-- Node3 -->
<g id="node4" class="node">
<title>Node3</title>
<g id="a_node4"><a xlink:href="classprtx_1_1_geometry_decoder.html" target="_top" xlink:title="prtx::GeometryDecoder">
<polygon fill="none" stroke="#000000" points="285,-285.5 285,-304.5 404,-304.5 404,-285.5 285,-285.5"/>
<text text-anchor="middle" x="344.5" y="-292.5" font-family="Helvetica,sans-Serif" font-size="10.00" fill="#000000">prtx::GeometryDecoder</text>
</a>
</g>
</g>
<!-- Node1&#45;&gt;Node3 -->
<g id="edge3" class="edge">
<title>Node1&#45;&gt;Node3</title>
<path fill="none" stroke="#191970" d="M207.633,-234.1744C227.6612,-246.58 257.4393,-263.9739 285,-276 293.0504,-279.5128 301.9631,-282.7048 310.3865,-285.4273"/>
<polygon fill="#191970" stroke="#191970" points="209.2299,-231.0446 198.8985,-228.6968 205.5109,-236.9749 209.2299,-231.0446"/>
</g>
<!-- Node4 -->
<g id="node5" class="node">
<title>Node4</title>
<g id="a_node5"><a xlink:href="classprtx_1_1_material_decoder.html" target="_top" xlink:title="prtx::MaterialDecoder">
<polygon fill="none" stroke="#000000" points="289.5,-247.5 289.5,-266.5 399.5,-266.5 399.5,-247.5 289.5,-247.5"/>
<text text-anchor="middle" x="344.5" y="-254.5" font-family="Helvetica,sans-Serif" font-size="10.00" fill="#000000">prtx::MaterialDecoder</text>
</a>
</g>
</g>
<!-- Node1&#45;&gt;Node4 -->
<g id="edge4" class="edge">
<title>Node1&#45;&gt;Node4</title>
<path fill="none" stroke="#191970" d="M231.95,-230.3527C254.9816,-235.8056 282.2738,-242.2673 304.2143,-247.462"/>
<polygon fill="#191970" stroke="#191970" points="232.5736,-226.9036 222.0363,-228.0055 230.9608,-233.7153 232.5736,-226.9036"/>
</g>
<!-- Node5 -->
<g id="node6" class="node">
<title>Node5</title>
<g id="a_node6"><a xlink:href="classprtx_1_1_string_decoder.html" target="_top" xlink:title="prtx::StringDecoder">
<polygon fill="none" stroke="#000000" points="294,-209.5 294,-228.5 395,-228.5 395,-209.5 294,-209.5"/>
<text text-anchor="middle" x="344.5" y="-216.5" font-family="Helvetica,sans-Serif" font-size="10.00" fill="#000000">prtx::StringDecoder</text>
</a>
</g>
</g>
<!-- Node1&#45;&gt;Node5 -->
<g id="edge5" class="edge">
<title>Node1&#45;&gt;Node5</title>
<path fill="none" stroke="#191970" d="M232.2252,-219C251.7278,-219 274.2491,-219 293.9784,-219"/>
<polygon fill="#191970" stroke="#191970" points="232.0363,-215.5001 222.0363,-219 232.0362,-222.5001 232.0363,-215.5001"/>
</g>
<!-- Node6 -->
<g id="node7" class="node">
<title>Node6</title>
<g id="a_node7"><a xlink:href="classprtx_1_1_table_decoder.html" target="_top" xlink:title="prtx::TableDecoder">
<polygon fill="none" stroke="#000000" points="295,-171.5 295,-190.5 394,-190.5 394,-171.5 295,-171.5"/>
<text text-anchor="middle" x="344.5" y="-178.5" font-family="Helvetica,sans-Serif" font-size="10.00" fill="#000000">prtx::TableDecoder</text>
</a>
</g>
</g>
<!-- Node1&#45;&gt;Node6 -->
<g id="edge6" class="edge">
<title>Node1&#45;&gt;Node6</title>
<path fill="none" stroke="#191970" d="M231.95,-207.6473C254.9816,-202.1944 282.2738,-195.7327 304.2143,-190.538"/>
<polygon fill="#191970" stroke="#191970" points="230.9608,-204.2847 222.0363,-209.9945 232.5736,-211.0964 230.9608,-204.2847"/>
</g>
<!-- Node7 -->
<g id="node8" class="node">
<title>Node7</title>
<g id="a_node8"><a xlink:href="classprtx_1_1_texture_decoder.html" target="_top" xlink:title="prtx::TextureDecoder">
<polygon fill="none" stroke="#000000" points="290.5,-133.5 290.5,-152.5 398.5,-152.5 398.5,-133.5 290.5,-133.5"/>
<text text-anchor="middle" x="344.5" y="-140.5" font-family="Helvetica,sans-Serif" font-size="10.00" fill="#000000">prtx::TextureDecoder</text>
</a>
</g>
</g>
<!-- Node1&#45;&gt;Node7 -->
<g id="edge7" class="edge">
<title>Node1&#45;&gt;Node7</title>
<path fill="none" stroke="#191970" d="M207.633,-203.8256C227.6612,-191.42 257.4393,-174.0261 285,-162 293.0504,-158.4872 301.9631,-155.2952 310.3865,-152.5727"/>
<polygon fill="#191970" stroke="#191970" points="205.5109,-201.0251 198.8985,-209.3032 209.2299,-206.9554 205.5109,-201.0251"/>
</g>
<!-- Node9 -->
<g id="node10" class="node">
<title>Node9</title>
<g id="a_node10"><a xlink:href="classprtx_1_1_geometry_encoder.html" target="_top" xlink:title="prtx::GeometryEncoder">
<polygon fill="none" stroke="#000000" points="285.5,-95.5 285.5,-114.5 403.5,-114.5 403.5,-95.5 285.5,-95.5"/>
<text text-anchor="middle" x="344.5" y="-102.5" font-family="Helvetica,sans-Serif" font-size="10.00" fill="#000000">prtx::GeometryEncoder</text>
</a>
</g>
</g>
<!-- Node8&#45;&gt;Node9 -->
<g id="edge9" class="edge">
<title>Node8&#45;&gt;Node9</title>
<path fill="none" stroke="#191970" d="M231.7879,-91.6571C248.6325,-93.6512 267.772,-95.9169 285.4364,-98.008"/>
<polygon fill="#191970" stroke="#191970" points="231.9723,-88.1546 221.6301,-90.4547 231.1493,-95.1061 231.9723,-88.1546"/>
</g>
<!-- Node10 -->
<g id="node11" class="node">
<title>Node10</title>
<g id="a_node11"><a xlink:href="classprtx_1_1_material_encoder.html" target="_top" xlink:title="prtx::MaterialEncoder">
<polygon fill="none" stroke="#000000" points="289.5,-57.5 289.5,-76.5 399.5,-76.5 399.5,-57.5 289.5,-57.5"/>
<text text-anchor="middle" x="344.5" y="-64.5" font-family="Helvetica,sans-Serif" font-size="10.00" fill="#000000">prtx::MaterialEncoder</text>
</a>
</g>
</g>
<!-- Node8&#45;&gt;Node10 -->
<g id="edge10" class="edge">
<title>Node8&#45;&gt;Node10</title>
<path fill="none" stroke="#191970" d="M231.6926,-80.3541C249.8495,-78.2047 270.6839,-75.7384 289.4668,-73.5148"/>
<polygon fill="#191970" stroke="#191970" points="231.1493,-76.8939 221.6301,-81.5453 231.9723,-83.8454 231.1493,-76.8939"/>
</g>
<!-- Node11 -->
<g id="node12" class="node">
<title>Node11</title>
<g id="a_node12"><a xlink:href="classprtx_1_1_texture_encoder.html" target="_top" xlink:title="prtx::TextureEncoder">
<polygon fill="none" stroke="#000000" points="291,-19.5 291,-38.5 398,-38.5 398,-19.5 291,-19.5"/>
<text text-anchor="middle" x="344.5" y="-26.5" font-family="Helvetica,sans-Serif" font-size="10.00" fill="#000000">prtx::TextureEncoder</text>
</a>
</g>
</g>
<!-- Node8&#45;&gt;Node11 -->
<g id="edge11" class="edge">
<title>Node8&#45;&gt;Node11</title>
<path fill="none" stroke="#191970" d="M231.5111,-73.3223C237.4621,-71.3813 243.4156,-69.2629 249,-67 265.7673,-60.2054 268.3179,-55.0012 285,-48 293.2991,-44.517 302.4712,-41.2953 311.0779,-38.5316"/>
<polygon fill="#191970" stroke="#191970" points="230.0735,-70.1039 221.5638,-76.4155 232.1521,-76.7882 230.0735,-70.1039"/>
</g>
</g>
</svg>
