<?xml version="1.0" encoding="UTF-8" standalone="no"?>
<!DOCTYPE svg PUBLIC "-//W3C//DTD SVG 1.1//EN"
 "http://www.w3.org/Graphics/SVG/1.1/DTD/svg11.dtd">
<!-- Generated by graphviz version 2.40.1 (0)
 -->
<!-- Title: prtx::BuiltinAttributesGetters Pages: 1 -->
<svg width="306pt" height="196pt"
 viewBox="0.00 0.00 305.50 196.00" xmlns="http://www.w3.org/2000/svg" xmlns:xlink="http://www.w3.org/1999/xlink">
<g id="graph0" class="graph" transform="scale(1 1) rotate(0) translate(4 192)">
<title>prtx::BuiltinAttributesGetters</title>
<!-- Node0 -->
<g id="node1" class="node">
<title>Node0</title>
<polygon fill="#bfbfbf" stroke="#000000" points="80.5,-112.5 80.5,-131.5 220.5,-131.5 220.5,-112.5 80.5,-112.5"/>
<text text-anchor="middle" x="150.5" y="-119.5" font-family="Helvetica,sans-Serif" font-size="10.00" fill="#000000">prtx::BuiltinAttributesGetters</text>
</g>
<!-- Node2 -->
<g id="node3" class="node">
<title>Node2</title>
<g id="a_node3"><a xlink:href="classprtx_1_1_builtin_material_attributes.html" target="_top" xlink:title="prtx::BuiltinMaterialAttributes">
<polygon fill="none" stroke="#000000" points="0,-56.5 0,-75.5 143,-75.5 143,-56.5 0,-56.5"/>
<text text-anchor="middle" x="71.5" y="-63.5" font-family="Helvetica,sans-Serif" font-size="10.00" fill="#000000">prtx::BuiltinMaterialAttributes</text>
</a>
</g>
</g>
<!-- Node0&#45;&gt;Node2 -->
<g id="edge2" class="edge">
<title>Node0&#45;&gt;Node2</title>
<path fill="none" stroke="#191970" d="M128.2244,-106.2097C114.3495,-96.3743 96.9485,-84.0394 85.1031,-75.6427"/>
<polygon fill="#191970" stroke="#191970" points="126.5569,-109.3178 136.7393,-112.2455 130.6051,-103.6071 126.5569,-109.3178"/>
</g>
<!-- Node4 -->
<g id="node5" class="node">
<title>Node4</title>
<g id="a_node5"><a xlink:href="classprtx_1_1_builtin_shape_attributes.html" target="_top" xlink:title="prtx::BuiltinShapeAttributes">
<polygon fill="none" stroke="#000000" points="161.5,-56.5 161.5,-75.5 297.5,-75.5 297.5,-56.5 161.5,-56.5"/>
<text text-anchor="middle" x="229.5" y="-63.5" font-family="Helvetica,sans-Serif" font-size="10.00" fill="#000000">prtx::BuiltinShapeAttributes</text>
</a>
</g>
</g>
<!-- Node0&#45;&gt;Node4 -->
<g id="edge4" class="edge">
<title>Node0&#45;&gt;Node4</title>
<path fill="none" stroke="#191970" d="M172.7756,-106.2097C186.6505,-96.3743 204.0515,-84.0394 215.8969,-75.6427"/>
<polygon fill="#191970" stroke="#191970" points="170.3949,-103.6071 164.2607,-112.2455 174.4431,-109.3178 170.3949,-103.6071"/>
</g>
<!-- Node1 -->
<g id="node2" class="node">
<title>Node1</title>
<g id="a_node2"><a xlink:href="classprtx_1_1_builtin_attributes.html" target="_top" xlink:title="prtx::BuiltinAttributes">
<polygon fill="none" stroke="#000000" points="96.5,-168.5 96.5,-187.5 204.5,-187.5 204.5,-168.5 96.5,-168.5"/>
<text text-anchor="middle" x="150.5" y="-175.5" font-family="Helvetica,sans-Serif" font-size="10.00" fill="#000000">prtx::BuiltinAttributes</text>
</a>
</g>
</g>
<!-- Node1&#45;&gt;Node0 -->
<g id="edge1" class="edge">
<title>Node1&#45;&gt;Node0</title>
<path fill="none" stroke="#191970" d="M150.5,-158.1575C150.5,-149.155 150.5,-138.9199 150.5,-131.6427"/>
<polygon fill="#191970" stroke="#191970" points="147.0001,-158.2455 150.5,-168.2455 154.0001,-158.2456 147.0001,-158.2455"/>
</g>
<!-- Node3 -->
<g id="node4" class="node">
<title>Node3</title>
<g id="a_node4"><a xlink:href="classprtx_1_1_material.html" target="_top" xlink:title="prtx::Material">
<polygon fill="none" stroke="#000000" points="34.5,-.5 34.5,-19.5 108.5,-19.5 108.5,-.5 34.5,-.5"/>
<text text-anchor="middle" x="71.5" y="-7.5" font-family="Helvetica,sans-Serif" font-size="10.00" fill="#000000">prtx::Material</text>
</a>
</g>
</g>
<!-- Node2&#45;&gt;Node3 -->
<g id="edge3" class="edge">
<title>Node2&#45;&gt;Node3</title>
<path fill="none" stroke="#191970" d="M71.5,-46.1575C71.5,-37.155 71.5,-26.9199 71.5,-19.6427"/>
<polygon fill="#191970" stroke="#191970" points="68.0001,-46.2455 71.5,-56.2455 75.0001,-46.2456 68.0001,-46.2455"/>
</g>
<!-- Node5 -->
<g id="node6" class="node">
<title>Node5</title>
<g id="a_node6"><a xlink:href="classprtx_1_1_shape.html" target="_top" xlink:title="prtx::Shape">
<polygon fill="none" stroke="#000000" points="196,-.5 196,-19.5 263,-19.5 263,-.5 196,-.5"/>
<text text-anchor="middle" x="229.5" y="-7.5" font-family="Helvetica,sans-Serif" font-size="10.00" fill="#000000">prtx::Shape</text>
</a>
</g>
</g>
<!-- Node4&#45;&gt;Node5 -->
<g id="edge5" class="edge">
<title>Node4&#45;&gt;Node5</title>
<path fill="none" stroke="#191970" d="M229.5,-46.1575C229.5,-37.155 229.5,-26.9199 229.5,-19.6427"/>
<polygon fill="#191970" stroke="#191970" points="226.0001,-46.2455 229.5,-56.2455 233.0001,-46.2456 226.0001,-46.2455"/>
</g>
</g>
</svg>
