<?xml version="1.0" encoding="UTF-8" standalone="no"?>
<!DOCTYPE svg PUBLIC "-//W3C//DTD SVG 1.1//EN"
 "http://www.w3.org/Graphics/SVG/1.1/DTD/svg11.dtd">
<!-- Generated by graphviz version 2.26.0 (20091210.2329)
 -->
<!-- Title: prtx::AllShapesReportingStrategy Pages: 1 -->
<svg width="132pt" height="160pt"
 viewBox="0.00 0.00 132.00 160.00" xmlns="http://www.w3.org/2000/svg" xmlns:xlink="http://www.w3.org/1999/xlink">
<g id="graph1" class="graph" transform="scale(1 1) rotate(0) translate(4 156)">
<title>prtx::AllShapesReportingStrategy</title>
<!-- Node1 -->
<g id="node1" class="node"><title>Node1</title>
<polygon fill="#bfbfbf" stroke="black" points="-0.5,-1 -0.5,-35 124.5,-35 124.5,-1 -0.5,-1"/>
<text text-anchor="start" x="7.5" y="-22" font-family="Helvetica,sans-Serif" font-size="10.00">prtx::AllShapesReporting</text>
<text text-anchor="middle" x="62" y="-9" font-family="Helvetica,sans-Serif" font-size="10.00">Strategy</text>
</g>
<!-- Node2 -->
<g id="node2" class="node"><title>Node2</title>
<a xlink:href="classprtx_1_1_reporting_strategy.html" target="_top" xlink:title="prtx::ReportingStrategy">
<polygon fill="none" stroke="black" points="3,-72.5 3,-93.5 121,-93.5 121,-72.5 3,-72.5"/>
<text text-anchor="middle" x="62" y="-80.5" font-family="Helvetica,sans-Serif" font-size="10.00">prtx::ReportingStrategy</text>
</a>
</g>
<!-- Node2&#45;&gt;Node1 -->
<g id="edge2" class="edge"><title>Node2&#45;&gt;Node1</title>
<path fill="none" stroke="midnightblue" d="M62,-62.1306C62,-53.4049 62,-43.3908 62,-35.1099"/>
<polygon fill="midnightblue" stroke="midnightblue" points="58.5001,-62.2665 62,-72.2666 65.5001,-62.2666 58.5001,-62.2665"/>
</g>
<!-- Node3 -->
<g id="node4" class="node"><title>Node3</title>
<polygon fill="none" stroke="#bfbfbf" points="26.5,-130.5 26.5,-151.5 97.5,-151.5 97.5,-130.5 26.5,-130.5"/>
<text text-anchor="middle" x="62" y="-138.5" font-family="Helvetica,sans-Serif" font-size="10.00">noncopyable</text>
</g>
<!-- Node3&#45;&gt;Node2 -->
<g id="edge4" class="edge"><title>Node3&#45;&gt;Node2</title>
<path fill="none" stroke="#8b1a1a" d="M62,-120.191C62,-111.168 62,-100.994 62,-93.5707"/>
<polygon fill="#8b1a1a" stroke="#8b1a1a" points="58.5001,-120.362 62,-130.362 65.5001,-120.362 58.5001,-120.362"/>
</g>
</g>
</svg>
