<?xml version="1.0" encoding="UTF-8" standalone="no"?>
<!DOCTYPE svg PUBLIC "-//W3C//DTD SVG 1.1//EN"
 "http://www.w3.org/Graphics/SVG/1.1/DTD/svg11.dtd">
<!-- Generated by graphviz version 2.26.0 (20091210.2329)
 -->
<!-- Title: prtx::CGBDecoder Pages: 1 -->
<svg width="106pt" height="204pt"
 viewBox="0.00 0.00 106.00 204.00" xmlns="http://www.w3.org/2000/svg" xmlns:xlink="http://www.w3.org/1999/xlink">
<g id="graph1" class="graph" transform="scale(1 1) rotate(0) translate(4 200)">
<title>prtx::CGBDecoder</title>
<!-- Node1 -->
<g id="node1" class="node"><title>Node1</title>
<polygon fill="#bfbfbf" stroke="black" points="0,-0.5 0,-21.5 98,-21.5 98,-0.5 0,-0.5"/>
<text text-anchor="middle" x="49" y="-8.5" font-family="Helvetica,sans-Serif" font-size="10.00">prtx::CGBDecoder</text>
</g>
<!-- Node2 -->
<g id="node2" class="node"><title>Node2</title>
<a xlink:href="classprtx_1_1_decoder.html" target="_top" xlink:title="prtx::Decoder">
<polygon fill="none" stroke="black" points="11,-58.5 11,-79.5 87,-79.5 87,-58.5 11,-58.5"/>
<text text-anchor="middle" x="49" y="-66.5" font-family="Helvetica,sans-Serif" font-size="10.00">prtx::Decoder</text>
</a>
</g>
<!-- Node2&#45;&gt;Node1 -->
<g id="edge2" class="edge"><title>Node2&#45;&gt;Node1</title>
<path fill="none" stroke="midnightblue" d="M49,-48.1906C49,-39.1684 49,-28.9941 49,-21.5707"/>
<polygon fill="midnightblue" stroke="midnightblue" points="45.5001,-48.3619 49,-58.3619 52.5001,-48.3619 45.5001,-48.3619"/>
</g>
<!-- Node3 -->
<g id="node4" class="node"><title>Node3</title>
<a xlink:href="classprtx_1_1_extension.html" target="_top" xlink:title="prtx::Extension">
<polygon fill="none" stroke="black" points="7.5,-116.5 7.5,-137.5 90.5,-137.5 90.5,-116.5 7.5,-116.5"/>
<text text-anchor="middle" x="49" y="-124.5" font-family="Helvetica,sans-Serif" font-size="10.00">prtx::Extension</text>
</a>
</g>
<!-- Node3&#45;&gt;Node2 -->
<g id="edge4" class="edge"><title>Node3&#45;&gt;Node2</title>
<path fill="none" stroke="midnightblue" d="M49,-106.191C49,-97.1684 49,-86.9941 49,-79.5707"/>
<polygon fill="midnightblue" stroke="midnightblue" points="45.5001,-106.362 49,-116.362 52.5001,-106.362 45.5001,-106.362"/>
</g>
<!-- Node4 -->
<g id="node6" class="node"><title>Node4</title>
<polygon fill="none" stroke="#bfbfbf" points="13.5,-174.5 13.5,-195.5 84.5,-195.5 84.5,-174.5 13.5,-174.5"/>
<text text-anchor="middle" x="49" y="-182.5" font-family="Helvetica,sans-Serif" font-size="10.00">noncopyable</text>
</g>
<!-- Node4&#45;&gt;Node3 -->
<g id="edge6" class="edge"><title>Node4&#45;&gt;Node3</title>
<path fill="none" stroke="#8b1a1a" d="M49,-164.191C49,-155.168 49,-144.994 49,-137.571"/>
<polygon fill="#8b1a1a" stroke="#8b1a1a" points="45.5001,-164.362 49,-174.362 52.5001,-164.362 45.5001,-164.362"/>
</g>
</g>
</svg>
