<?xml version="1.0" encoding="UTF-8" standalone="no"?>
<!DOCTYPE svg PUBLIC "-//W3C//DTD SVG 1.1//EN"
 "http://www.w3.org/Graphics/SVG/1.1/DTD/svg11.dtd">
<!-- Generated by graphviz version 2.26.0 (20091210.2329)
 -->
<!-- Title: prtx::Decoder Pages: 1 -->
<svg width="360pt" height="190pt"
 viewBox="0.00 0.00 360.00 190.00" xmlns="http://www.w3.org/2000/svg" xmlns:xlink="http://www.w3.org/1999/xlink">
<g id="graph1" class="graph" transform="scale(1 1) rotate(0) translate(4 186)">
<title>prtx::Decoder</title>
<!-- Node1 -->
<g id="node1" class="node"><title>Node1</title>
<polygon fill="#bfbfbf" stroke="black" points="120,-80.5 120,-101.5 196,-101.5 196,-80.5 120,-80.5"/>
<text text-anchor="middle" x="158" y="-88.5" font-family="Helvetica,sans-Serif" font-size="10.00">prtx::Decoder</text>
</g>
<!-- Node3 -->
<g id="node5" class="node"><title>Node3</title>
<a xlink:href="classprtx_1_1_c_g_b_decoder.html" target="_top" xlink:title="prtx::CGBDecoder">
<polygon fill="none" stroke="black" points="243,-160.5 243,-181.5 341,-181.5 341,-160.5 243,-160.5"/>
<text text-anchor="middle" x="292" y="-168.5" font-family="Helvetica,sans-Serif" font-size="10.00">prtx::CGBDecoder</text>
</a>
</g>
<!-- Node1&#45;&gt;Node3 -->
<g id="edge4" class="edge"><title>Node1&#45;&gt;Node3</title>
<path fill="none" stroke="midnightblue" d="M176.171,-108.889C190.376,-122.05 211.148,-139.567 232,-151 238.643,-154.642 246.064,-157.774 253.361,-160.406"/>
<polygon fill="midnightblue" stroke="midnightblue" points="178.28,-106.066 168.616,-101.723 173.463,-111.144 178.28,-106.066"/>
</g>
<!-- Node4 -->
<g id="node7" class="node"><title>Node4</title>
<a xlink:href="classprtx_1_1_geometry_decoder.html" target="_top" xlink:title="prtx::GeometryDecoder">
<polygon fill="none" stroke="black" points="232.5,-120.5 232.5,-141.5 351.5,-141.5 351.5,-120.5 232.5,-120.5"/>
<text text-anchor="middle" x="292" y="-128.5" font-family="Helvetica,sans-Serif" font-size="10.00">prtx::GeometryDecoder</text>
</a>
</g>
<!-- Node1&#45;&gt;Node4 -->
<g id="edge6" class="edge"><title>Node1&#45;&gt;Node4</title>
<path fill="none" stroke="midnightblue" d="M203.163,-104.481C220.575,-109.679 240.197,-115.537 256.563,-120.422"/>
<polygon fill="midnightblue" stroke="midnightblue" points="203.79,-101.016 193.207,-101.51 201.788,-107.724 203.79,-101.016"/>
</g>
<!-- Node5 -->
<g id="node9" class="node"><title>Node5</title>
<a xlink:href="classprtx_1_1_material_decoder.html" target="_top" xlink:title="prtx::MaterialDecoder">
<polygon fill="none" stroke="black" points="237,-80.5 237,-101.5 347,-101.5 347,-80.5 237,-80.5"/>
<text text-anchor="middle" x="292" y="-88.5" font-family="Helvetica,sans-Serif" font-size="10.00">prtx::MaterialDecoder</text>
</a>
</g>
<!-- Node1&#45;&gt;Node5 -->
<g id="edge8" class="edge"><title>Node1&#45;&gt;Node5</title>
<path fill="none" stroke="midnightblue" d="M206.156,-91C216.113,-91 226.673,-91 236.857,-91"/>
<polygon fill="midnightblue" stroke="midnightblue" points="206.041,-87.5001 196.041,-91 206.041,-94.5001 206.041,-87.5001"/>
</g>
<!-- Node6 -->
<g id="node11" class="node"><title>Node6</title>
<a xlink:href="classprtx_1_1_shader_decoder.html" target="_top" xlink:title="prtx::ShaderDecoder">
<polygon fill="none" stroke="black" points="238.5,-40.5 238.5,-61.5 345.5,-61.5 345.5,-40.5 238.5,-40.5"/>
<text text-anchor="middle" x="292" y="-48.5" font-family="Helvetica,sans-Serif" font-size="10.00">prtx::ShaderDecoder</text>
</a>
</g>
<!-- Node1&#45;&gt;Node6 -->
<g id="edge10" class="edge"><title>Node1&#45;&gt;Node6</title>
<path fill="none" stroke="midnightblue" d="M203.163,-77.5186C220.575,-72.3208 240.197,-66.4635 256.563,-61.5782"/>
<polygon fill="midnightblue" stroke="midnightblue" points="201.788,-74.2763 193.207,-80.4905 203.79,-80.9838 201.788,-74.2763"/>
</g>
<!-- Node7 -->
<g id="node13" class="node"><title>Node7</title>
<a xlink:href="classprtx_1_1_texture_decoder.html" target="_top" xlink:title="prtx::TextureDecoder">
<polygon fill="none" stroke="black" points="237.5,-0.5 237.5,-21.5 346.5,-21.5 346.5,-0.5 237.5,-0.5"/>
<text text-anchor="middle" x="292" y="-8.5" font-family="Helvetica,sans-Serif" font-size="10.00">prtx::TextureDecoder</text>
</a>
</g>
<!-- Node1&#45;&gt;Node7 -->
<g id="edge12" class="edge"><title>Node1&#45;&gt;Node7</title>
<path fill="none" stroke="midnightblue" d="M176.171,-73.1107C190.376,-59.9501 211.148,-42.4329 232,-31 238.643,-27.3576 246.064,-24.2257 253.361,-21.5938"/>
<polygon fill="midnightblue" stroke="midnightblue" points="173.463,-70.8557 168.616,-80.277 178.28,-75.9345 173.463,-70.8557"/>
</g>
<!-- Node2 -->
<g id="node2" class="node"><title>Node2</title>
<a xlink:href="classprtx_1_1_extension.html" target="_top" xlink:title="prtx::Extension">
<polygon fill="none" stroke="black" points="0.5,-80.5 0.5,-101.5 83.5,-101.5 83.5,-80.5 0.5,-80.5"/>
<text text-anchor="middle" x="42" y="-88.5" font-family="Helvetica,sans-Serif" font-size="10.00">prtx::Extension</text>
</a>
</g>
<!-- Node2&#45;&gt;Node1 -->
<g id="edge2" class="edge"><title>Node2&#45;&gt;Node1</title>
<path fill="none" stroke="midnightblue" d="M93.7213,-91C102.503,-91 111.478,-91 119.83,-91"/>
<polygon fill="midnightblue" stroke="midnightblue" points="93.5511,-87.5001 83.551,-91 93.551,-94.5001 93.5511,-87.5001"/>
</g>
</g>
</svg>
