<?xml version="1.0" encoding="UTF-8" standalone="no"?>
<!DOCTYPE svg PUBLIC "-//W3C//DTD SVG 1.1//EN"
 "http://www.w3.org/Graphics/SVG/1.1/DTD/svg11.dtd">
<!-- Generated by graphviz version 2.30.1 (20170916.1124)
 -->
<!-- Title: prtx::Extension Pages: 1 -->
<svg width="414pt" height="351pt"
 viewBox="0.00 0.00 414.00 351.00" xmlns="http://www.w3.org/2000/svg" xmlns:xlink="http://www.w3.org/1999/xlink">
<g id="graph0" class="graph" transform="scale(1 1) rotate(0) translate(4 347)">
<title>prtx::Extension</title>
<!-- Node1 -->
<g id="node1" class="node"><title>Node1</title>
<polygon fill="#bfbfbf" stroke="black" points="0.5,-57.5 0.5,-76.5 83.5,-76.5 83.5,-57.5 0.5,-57.5"/>
<text text-anchor="middle" x="42" y="-64.5" font-family="Helvetica,sans-Serif" font-size="10.00">prtx::Extension</text>
</g>
<!-- Node2 -->
<g id="node2" class="node"><title>Node2</title>
<g id="a_node2"><a xlink:href="classprtx_1_1_decoder.html" target="_top" xlink:title="prtx::Decoder">
<polygon fill="none" stroke="black" points="147,-209.5 147,-228.5 223,-228.5 223,-209.5 147,-209.5"/>
<text text-anchor="middle" x="185" y="-216.5" font-family="Helvetica,sans-Serif" font-size="10.00">prtx::Decoder</text>
</a>
</g>
</g>
<!-- Node1&#45;&gt;Node2 -->
<g id="edge1" class="edge"><title>Node1&#45;&gt;Node2</title>
<path fill="none" stroke="midnightblue" d="M58.9563,-84.2011C88.7541,-116.324 151.942,-184.442 175.183,-209.495"/>
<polygon fill="midnightblue" stroke="midnightblue" points="61.187,-81.4594 51.8202,-76.5083 56.055,-86.22 61.187,-81.4594"/>
</g>
<!-- Node9 -->
<g id="node9" class="node"><title>Node9</title>
<g id="a_node9"><a xlink:href="classprtx_1_1_encoder.html" target="_top" xlink:title="prtx::Encoder">
<polygon fill="none" stroke="black" points="147.5,-76.5 147.5,-95.5 222.5,-95.5 222.5,-76.5 147.5,-76.5"/>
<text text-anchor="middle" x="185" y="-83.5" font-family="Helvetica,sans-Serif" font-size="10.00">prtx::Encoder</text>
</a>
</g>
</g>
<!-- Node1&#45;&gt;Node9 -->
<g id="edge8" class="edge"><title>Node1&#45;&gt;Node9</title>
<path fill="none" stroke="midnightblue" d="M93.9094,-73.8601C111.518,-76.233 130.899,-78.8445 147.158,-81.0355"/>
<polygon fill="midnightblue" stroke="midnightblue" points="94.1609,-70.3625 83.783,-72.4956 93.226,-77.2998 94.1609,-70.3625"/>
</g>
<!-- Node13 -->
<g id="node13" class="node"><title>Node13</title>
<g id="a_node13"><a xlink:href="classprtx_1_1_resolve_map_provider.html" target="_top" xlink:title="prtx::ResolveMapProvider">
<polygon fill="none" stroke="black" points="120,-38.5 120,-57.5 250,-57.5 250,-38.5 120,-38.5"/>
<text text-anchor="middle" x="185" y="-45.5" font-family="Helvetica,sans-Serif" font-size="10.00">prtx::ResolveMapProvider</text>
</a>
</g>
</g>
<!-- Node1&#45;&gt;Node13 -->
<g id="edge12" class="edge"><title>Node1&#45;&gt;Node13</title>
<path fill="none" stroke="midnightblue" d="M93.8632,-60.1461C102.324,-59.006 111.194,-57.8107 119.932,-56.6333"/>
<polygon fill="midnightblue" stroke="midnightblue" points="93.226,-56.7002 83.783,-61.5044 94.1609,-63.6375 93.226,-56.7002"/>
</g>
<!-- Node14 -->
<g id="node14" class="node"><title>Node14</title>
<g id="a_node14"><a xlink:href="classprtx_1_1_stream_adaptor.html" target="_top" xlink:title="prtx::StreamAdaptor">
<polygon fill="none" stroke="black" points="133,-0.5 133,-19.5 237,-19.5 237,-0.5 133,-0.5"/>
<text text-anchor="middle" x="185" y="-7.5" font-family="Helvetica,sans-Serif" font-size="10.00">prtx::StreamAdaptor</text>
</a>
</g>
</g>
<!-- Node1&#45;&gt;Node14 -->
<g id="edge13" class="edge"><title>Node1&#45;&gt;Node14</title>
<path fill="none" stroke="midnightblue" d="M69.3342,-52.6161C83.9796,-44.9726 102.694,-35.7824 120,-29 128.849,-25.532 138.595,-22.3363 147.756,-19.5943"/>
<polygon fill="midnightblue" stroke="midnightblue" points="67.5508,-49.6 60.3534,-57.3748 70.8283,-55.7854 67.5508,-49.6"/>
</g>
<!-- Node3 -->
<g id="node3" class="node"><title>Node3</title>
<g id="a_node3"><a xlink:href="classprtx_1_1_c_g_b_decoder.html" target="_top" xlink:title="prtx::CGBDecoder">
<polygon fill="none" stroke="black" points="297,-323.5 297,-342.5 395,-342.5 395,-323.5 297,-323.5"/>
<text text-anchor="middle" x="346" y="-330.5" font-family="Helvetica,sans-Serif" font-size="10.00">prtx::CGBDecoder</text>
</a>
</g>
</g>
<!-- Node2&#45;&gt;Node3 -->
<g id="edge2" class="edge"><title>Node2&#45;&gt;Node3</title>
<path fill="none" stroke="midnightblue" d="M199.985,-236.409C217.85,-257.574 250.707,-293.053 286,-314 292.385,-317.79 299.614,-320.917 306.769,-323.463"/>
<polygon fill="midnightblue" stroke="midnightblue" points="202.558,-234.028 193.488,-228.552 197.163,-238.488 202.558,-234.028"/>
</g>
<!-- Node4 -->
<g id="node4" class="node"><title>Node4</title>
<g id="a_node4"><a xlink:href="classprtx_1_1_geometry_decoder.html" target="_top" xlink:title="prtx::GeometryDecoder">
<polygon fill="none" stroke="black" points="286.5,-285.5 286.5,-304.5 405.5,-304.5 405.5,-285.5 286.5,-285.5"/>
<text text-anchor="middle" x="346" y="-292.5" font-family="Helvetica,sans-Serif" font-size="10.00">prtx::GeometryDecoder</text>
</a>
</g>
</g>
<!-- Node2&#45;&gt;Node4 -->
<g id="edge3" class="edge"><title>Node2&#45;&gt;Node4</title>
<path fill="none" stroke="midnightblue" d="M209.386,-234.174C229.207,-246.579 258.686,-263.972 286,-276 293.977,-279.513 302.813,-282.705 311.166,-285.427"/>
<polygon fill="midnightblue" stroke="midnightblue" points="211.062,-231.092 200.742,-228.696 207.315,-237.005 211.062,-231.092"/>
</g>
<!-- Node5 -->
<g id="node5" class="node"><title>Node5</title>
<g id="a_node5"><a xlink:href="classprtx_1_1_material_decoder.html" target="_top" xlink:title="prtx::MaterialDecoder">
<polygon fill="none" stroke="black" points="291,-247.5 291,-266.5 401,-266.5 401,-247.5 291,-247.5"/>
<text text-anchor="middle" x="346" y="-254.5" font-family="Helvetica,sans-Serif" font-size="10.00">prtx::MaterialDecoder</text>
</a>
</g>
</g>
<!-- Node2&#45;&gt;Node5 -->
<g id="edge4" class="edge"><title>Node2&#45;&gt;Node5</title>
<path fill="none" stroke="midnightblue" d="M233.139,-230.266C256.061,-235.744 283.31,-242.257 305.176,-247.482"/>
<polygon fill="midnightblue" stroke="midnightblue" points="233.818,-226.83 223.278,-227.909 232.191,-233.638 233.818,-226.83"/>
</g>
<!-- Node6 -->
<g id="node6" class="node"><title>Node6</title>
<g id="a_node6"><a xlink:href="classprtx_1_1_string_decoder.html" target="_top" xlink:title="prtx::StringDecoder">
<polygon fill="none" stroke="black" points="295.5,-209.5 295.5,-228.5 396.5,-228.5 396.5,-209.5 295.5,-209.5"/>
<text text-anchor="middle" x="346" y="-216.5" font-family="Helvetica,sans-Serif" font-size="10.00">prtx::StringDecoder</text>
</a>
</g>
</g>
<!-- Node2&#45;&gt;Node6 -->
<g id="edge5" class="edge"><title>Node2&#45;&gt;Node6</title>
<path fill="none" stroke="midnightblue" d="M233.463,-219C252.973,-219 275.574,-219 295.31,-219"/>
<polygon fill="midnightblue" stroke="midnightblue" points="233.278,-215.5 223.278,-219 233.278,-222.5 233.278,-215.5"/>
</g>
<!-- Node7 -->
<g id="node7" class="node"><title>Node7</title>
<g id="a_node7"><a xlink:href="classprtx_1_1_table_decoder.html" target="_top" xlink:title="prtx::TableDecoder">
<polygon fill="none" stroke="black" points="296,-171.5 296,-190.5 396,-190.5 396,-171.5 296,-171.5"/>
<text text-anchor="middle" x="346" y="-178.5" font-family="Helvetica,sans-Serif" font-size="10.00">prtx::TableDecoder</text>
</a>
</g>
</g>
<!-- Node2&#45;&gt;Node7 -->
<g id="edge6" class="edge"><title>Node2&#45;&gt;Node7</title>
<path fill="none" stroke="midnightblue" d="M233.139,-207.734C256.061,-202.256 283.31,-195.743 305.176,-190.518"/>
<polygon fill="midnightblue" stroke="midnightblue" points="232.191,-204.362 223.278,-210.091 233.818,-211.17 232.191,-204.362"/>
</g>
<!-- Node8 -->
<g id="node8" class="node"><title>Node8</title>
<g id="a_node8"><a xlink:href="classprtx_1_1_texture_decoder.html" target="_top" xlink:title="prtx::TextureDecoder">
<polygon fill="none" stroke="black" points="291.5,-133.5 291.5,-152.5 400.5,-152.5 400.5,-133.5 291.5,-133.5"/>
<text text-anchor="middle" x="346" y="-140.5" font-family="Helvetica,sans-Serif" font-size="10.00">prtx::TextureDecoder</text>
</a>
</g>
</g>
<!-- Node2&#45;&gt;Node8 -->
<g id="edge7" class="edge"><title>Node2&#45;&gt;Node8</title>
<path fill="none" stroke="midnightblue" d="M209.386,-203.826C229.207,-191.421 258.686,-174.028 286,-162 293.977,-158.487 302.813,-155.295 311.166,-152.573"/>
<polygon fill="midnightblue" stroke="midnightblue" points="207.315,-200.995 200.742,-209.304 211.062,-206.908 207.315,-200.995"/>
</g>
<!-- Node10 -->
<g id="node10" class="node"><title>Node10</title>
<g id="a_node10"><a xlink:href="classprtx_1_1_geometry_encoder.html" target="_top" xlink:title="prtx::GeometryEncoder">
<polygon fill="none" stroke="black" points="287,-95.5 287,-114.5 405,-114.5 405,-95.5 287,-95.5"/>
<text text-anchor="middle" x="346" y="-102.5" font-family="Helvetica,sans-Serif" font-size="10.00">prtx::GeometryEncoder</text>
</a>
</g>
</g>
<!-- Node9&#45;&gt;Node10 -->
<g id="edge9" class="edge"><title>Node9&#45;&gt;Node10</title>
<path fill="none" stroke="midnightblue" d="M233.043,-91.6215C249.913,-93.6374 269.137,-95.9347 286.838,-98.0498"/>
<polygon fill="midnightblue" stroke="midnightblue" points="233.222,-88.1181 222.877,-90.4067 232.391,-95.0686 233.222,-88.1181"/>
</g>
<!-- Node11 -->
<g id="node11" class="node"><title>Node11</title>
<g id="a_node11"><a xlink:href="classprtx_1_1_material_encoder.html" target="_top" xlink:title="prtx::MaterialEncoder">
<polygon fill="none" stroke="black" points="291,-57.5 291,-76.5 401,-76.5 401,-57.5 291,-57.5"/>
<text text-anchor="middle" x="346" y="-64.5" font-family="Helvetica,sans-Serif" font-size="10.00">prtx::MaterialEncoder</text>
</a>
</g>
</g>
<!-- Node9&#45;&gt;Node11 -->
<g id="edge10" class="edge"><title>Node9&#45;&gt;Node11</title>
<path fill="none" stroke="midnightblue" d="M232.941,-80.3907C251.115,-78.219 272.032,-75.7195 290.837,-73.4723"/>
<polygon fill="midnightblue" stroke="midnightblue" points="232.391,-76.9314 222.877,-81.5933 233.222,-83.8819 232.391,-76.9314"/>
</g>
<!-- Node12 -->
<g id="node12" class="node"><title>Node12</title>
<g id="a_node12"><a xlink:href="classprtx_1_1_texture_encoder.html" target="_top" xlink:title="prtx::TextureEncoder">
<polygon fill="none" stroke="black" points="292,-19.5 292,-38.5 400,-38.5 400,-19.5 292,-19.5"/>
<text text-anchor="middle" x="346" y="-26.5" font-family="Helvetica,sans-Serif" font-size="10.00">prtx::TextureEncoder</text>
</a>
</g>
</g>
<!-- Node9&#45;&gt;Node12 -->
<g id="edge11" class="edge"><title>Node9&#45;&gt;Node12</title>
<path fill="none" stroke="midnightblue" d="M232.556,-73.3554C238.49,-71.4011 244.431,-69.2705 250,-67 266.753,-60.1702 269.327,-55.0216 286,-48 294.232,-44.5335 303.327,-41.3175 311.862,-38.5541"/>
<polygon fill="midnightblue" stroke="midnightblue" points="231.135,-70.1332 222.645,-76.4713 233.235,-76.8109 231.135,-70.1332"/>
</g>
</g>
</svg>
