<?xml version="1.0" encoding="UTF-8" standalone="no"?>
<!DOCTYPE svg PUBLIC "-//W3C//DTD SVG 1.1//EN"
 "http://www.w3.org/Graphics/SVG/1.1/DTD/svg11.dtd">
<!-- Generated by graphviz version 2.26.0 (20091210.2329)
 -->
<!-- Title: prt::AttributeMapBuilder Pages: 1 -->
<svg width="198pt" height="88pt"
 viewBox="0.00 0.00 198.00 88.00" xmlns="http://www.w3.org/2000/svg" xmlns:xlink="http://www.w3.org/1999/xlink">
<g id="graph1" class="graph" transform="scale(1 1) rotate(0) translate(4 84)">
<title>prt::AttributeMapBuilder</title>
<!-- Node1 -->
<g id="node1" class="node"><title>Node1</title>
<polygon fill="#bfbfbf" stroke="black" points="47.5,-0.5 47.5,-21.5 166.5,-21.5 166.5,-0.5 47.5,-0.5"/>
<text text-anchor="middle" x="107" y="-8.5" font-family="Helvetica,sans-Serif" font-size="10.00">prt::AttributeMapBuilder</text>
</g>
<!-- Node2 -->
<g id="node2" class="node"><title>Node2</title>
<a xlink:href="classprt_1_1_attributable_setter.html" target="_top" xlink:title="prt::AttributableSetter">
<polygon fill="none" stroke="black" points="0,-58.5 0,-79.5 110,-79.5 110,-58.5 0,-58.5"/>
<text text-anchor="middle" x="55" y="-66.5" font-family="Helvetica,sans-Serif" font-size="10.00">prt::AttributableSetter</text>
</a>
</g>
<!-- Node2&#45;&gt;Node1 -->
<g id="edge2" class="edge"><title>Node2&#45;&gt;Node1</title>
<path fill="none" stroke="midnightblue" d="M71.2904,-50.8299C79.9171,-41.2078 90.2092,-29.7282 97.5229,-21.5707"/>
<polygon fill="midnightblue" stroke="midnightblue" points="68.6071,-48.5798 64.5376,-58.3619 73.8191,-53.2526 68.6071,-48.5798"/>
</g>
<!-- Node3 -->
<g id="node4" class="node"><title>Node3</title>
<a xlink:href="classprt_1_1_object.html" target="_top" xlink:title="prt::Object">
<polygon fill="none" stroke="black" points="128,-58.5 128,-79.5 190,-79.5 190,-58.5 128,-58.5"/>
<text text-anchor="middle" x="159" y="-66.5" font-family="Helvetica,sans-Serif" font-size="10.00">prt::Object</text>
</a>
</g>
<!-- Node3&#45;&gt;Node1 -->
<g id="edge4" class="edge"><title>Node3&#45;&gt;Node1</title>
<path fill="none" stroke="midnightblue" d="M142.71,-50.8299C134.083,-41.2078 123.791,-29.7282 116.477,-21.5707"/>
<polygon fill="midnightblue" stroke="midnightblue" points="140.181,-53.2526 149.462,-58.3619 145.393,-48.5798 140.181,-53.2526"/>
</g>
</g>
</svg>
