<?xml version="1.0" encoding="UTF-8" standalone="no"?>
<!DOCTYPE svg PUBLIC "-//W3C//DTD SVG 1.1//EN"
 "http://www.w3.org/Graphics/SVG/1.1/DTD/svg11.dtd">
<!-- Generated by graphviz version 2.30.1 (20140821.0912)
 -->
<!-- Title: prtx::ShapeIterator Pages: 1 -->
<svg width="284pt" height="294pt"
 viewBox="0.00 0.00 284.00 294.00" xmlns="http://www.w3.org/2000/svg" xmlns:xlink="http://www.w3.org/1999/xlink">
<g id="graph0" class="graph" transform="scale(1 1) rotate(0) translate(4 290)">
<title>prtx::ShapeIterator</title>
<!-- Node1 -->
<g id="node1" class="node"><title>Node1</title>
<polygon fill="#bfbfbf" stroke="black" points="0,-133.5 0,-152.5 98,-152.5 98,-133.5 0,-133.5"/>
<text text-anchor="middle" x="49" y="-140.5" font-family="Helvetica,sans-Serif" font-size="10.00">prtx::ShapeIterator</text>
</g>
<!-- Node2 -->
<g id="node2" class="node"><title>Node2</title>
<g id="a_node2"><a xlink:href="classprtx_1_1_breadth_first_iterator.html" target="_top" xlink:title="prtx::BreadthFirstIterator">
<polygon fill="none" stroke="black" points="143.5,-266.5 143.5,-285.5 266.5,-285.5 266.5,-266.5 143.5,-266.5"/>
<text text-anchor="middle" x="205" y="-273.5" font-family="Helvetica,sans-Serif" font-size="10.00">prtx::BreadthFirstIterator</text>
</a>
</g>
</g>
<!-- Node1&#45;&gt;Node2 -->
<g id="edge1" class="edge"><title>Node1&#45;&gt;Node2</title>
<path fill="none" stroke="midnightblue" d="M58.7066,-161.653C71.5523,-187.103 98.0059,-232.354 134,-257 139.715,-260.913 146.205,-264.022 152.873,-266.491"/>
<polygon fill="midnightblue" stroke="midnightblue" points="61.8495,-160.113 54.3199,-152.659 55.558,-163.181 61.8495,-160.113"/>
</g>
<!-- Node3 -->
<g id="node3" class="node"><title>Node3</title>
<g id="a_node3"><a xlink:href="classprtx_1_1_c_g_a_error_iterator.html" target="_top" xlink:title="prtx::CGAErrorIterator">
<polygon fill="none" stroke="black" points="148.5,-228.5 148.5,-247.5 261.5,-247.5 261.5,-228.5 148.5,-228.5"/>
<text text-anchor="middle" x="205" y="-235.5" font-family="Helvetica,sans-Serif" font-size="10.00">prtx::CGAErrorIterator</text>
</a>
</g>
</g>
<!-- Node1&#45;&gt;Node3 -->
<g id="edge2" class="edge"><title>Node1&#45;&gt;Node3</title>
<path fill="none" stroke="midnightblue" d="M64.7255,-160.452C80.2519,-177.765 106.268,-203.841 134,-219 141.072,-222.865 148.983,-225.986 156.871,-228.492"/>
<polygon fill="midnightblue" stroke="midnightblue" points="67.202,-157.967 57.9846,-152.743 61.9324,-162.575 67.202,-157.967"/>
</g>
<!-- Node4 -->
<g id="node4" class="node"><title>Node4</title>
<g id="a_node4"><a xlink:href="classprtx_1_1_c_g_a_print_iterator.html" target="_top" xlink:title="prtx::CGAPrintIterator">
<polygon fill="none" stroke="black" points="149,-190.5 149,-209.5 261,-209.5 261,-190.5 149,-190.5"/>
<text text-anchor="middle" x="205" y="-197.5" font-family="Helvetica,sans-Serif" font-size="10.00">prtx::CGAPrintIterator</text>
</a>
</g>
</g>
<!-- Node1&#45;&gt;Node4 -->
<g id="edge3" class="edge"><title>Node1&#45;&gt;Node4</title>
<path fill="none" stroke="midnightblue" d="M78.349,-157.193C94.4157,-164.887 115.039,-174.187 134,-181 143.718,-184.492 154.392,-187.696 164.413,-190.438"/>
<polygon fill="midnightblue" stroke="midnightblue" points="79.5138,-153.867 68.9896,-152.646 76.455,-160.164 79.5138,-153.867"/>
</g>
<!-- Node5 -->
<g id="node5" class="node"><title>Node5</title>
<g id="a_node5"><a xlink:href="classprtx_1_1_c_g_a_report_iterator.html" target="_top" xlink:title="prtx::CGAReportIterator">
<polygon fill="none" stroke="black" points="144.5,-152.5 144.5,-171.5 265.5,-171.5 265.5,-152.5 144.5,-152.5"/>
<text text-anchor="middle" x="205" y="-159.5" font-family="Helvetica,sans-Serif" font-size="10.00">prtx::CGAReportIterator</text>
</a>
</g>
</g>
<!-- Node1&#45;&gt;Node5 -->
<g id="edge4" class="edge"><title>Node1&#45;&gt;Node5</title>
<path fill="none" stroke="midnightblue" d="M108.475,-150.214C120.264,-151.669 132.669,-153.199 144.492,-154.658"/>
<polygon fill="midnightblue" stroke="midnightblue" points="108.657,-146.71 98.304,-148.96 107.8,-153.658 108.657,-146.71"/>
</g>
<!-- Node6 -->
<g id="node6" class="node"><title>Node6</title>
<g id="a_node6"><a xlink:href="classprtx_1_1_depth_first_iterator.html" target="_top" xlink:title="prtx::DepthFirstIterator">
<polygon fill="none" stroke="black" points="147,-114.5 147,-133.5 263,-133.5 263,-114.5 147,-114.5"/>
<text text-anchor="middle" x="205" y="-121.5" font-family="Helvetica,sans-Serif" font-size="10.00">prtx::DepthFirstIterator</text>
</a>
</g>
</g>
<!-- Node1&#45;&gt;Node6 -->
<g id="edge5" class="edge"><title>Node1&#45;&gt;Node6</title>
<path fill="none" stroke="midnightblue" d="M108.284,-135.809C120.956,-134.246 134.347,-132.594 146.97,-131.036"/>
<polygon fill="midnightblue" stroke="midnightblue" points="107.8,-132.342 98.304,-137.04 108.657,-139.29 107.8,-132.342"/>
</g>
<!-- Node7 -->
<g id="node7" class="node"><title>Node7</title>
<g id="a_node7"><a xlink:href="classprtx_1_1_initial_shape_iterator.html" target="_top" xlink:title="prtx::InitialShapeIterator">
<polygon fill="none" stroke="black" points="144.5,-76.5 144.5,-95.5 265.5,-95.5 265.5,-76.5 144.5,-76.5"/>
<text text-anchor="middle" x="205" y="-83.5" font-family="Helvetica,sans-Serif" font-size="10.00">prtx::InitialShapeIterator</text>
</a>
</g>
</g>
<!-- Node1&#45;&gt;Node7 -->
<g id="edge6" class="edge"><title>Node1&#45;&gt;Node7</title>
<path fill="none" stroke="midnightblue" d="M78.349,-128.807C94.4157,-121.113 115.039,-111.813 134,-105 143.718,-101.508 154.392,-98.3043 164.413,-95.5616"/>
<polygon fill="midnightblue" stroke="midnightblue" points="76.455,-125.836 68.9896,-133.354 79.5138,-132.133 76.455,-125.836"/>
</g>
<!-- Node8 -->
<g id="node8" class="node"><title>Node8</title>
<g id="a_node8"><a xlink:href="classprtx_1_1_leaf_iterator.html" target="_top" xlink:title="prtx::LeafIterator">
<polygon fill="none" stroke="black" points="160.5,-38.5 160.5,-57.5 249.5,-57.5 249.5,-38.5 160.5,-38.5"/>
<text text-anchor="middle" x="205" y="-45.5" font-family="Helvetica,sans-Serif" font-size="10.00">prtx::LeafIterator</text>
</a>
</g>
</g>
<!-- Node1&#45;&gt;Node8 -->
<g id="edge7" class="edge"><title>Node1&#45;&gt;Node8</title>
<path fill="none" stroke="midnightblue" d="M64.7255,-125.548C80.2519,-108.235 106.268,-82.1587 134,-67 142.066,-62.5909 151.224,-59.1514 160.195,-56.4871"/>
<polygon fill="midnightblue" stroke="midnightblue" points="61.9324,-123.425 57.9846,-133.257 67.202,-128.033 61.9324,-123.425"/>
</g>
<!-- Node9 -->
<g id="node9" class="node"><title>Node9</title>
<g id="a_node9"><a xlink:href="classprtx_1_1_selected_shapes_iterator.html" target="_top" xlink:title="prtx::SelectedShapesIterator">
<polygon fill="none" stroke="black" points="134.5,-0.5 134.5,-19.5 275.5,-19.5 275.5,-0.5 134.5,-0.5"/>
<text text-anchor="middle" x="205" y="-7.5" font-family="Helvetica,sans-Serif" font-size="10.00">prtx::SelectedShapesIterator</text>
</a>
</g>
</g>
<!-- Node1&#45;&gt;Node9 -->
<g id="edge8" class="edge"><title>Node1&#45;&gt;Node9</title>
<path fill="none" stroke="midnightblue" d="M58.7066,-124.347C71.5523,-98.8971 98.0059,-53.6463 134,-29 139.715,-25.087 146.205,-21.9784 152.873,-19.5092"/>
<polygon fill="midnightblue" stroke="midnightblue" points="55.558,-122.819 54.3199,-133.341 61.8495,-125.887 55.558,-122.819"/>
</g>
</g>
</svg>
