<?xml version="1.0" encoding="UTF-8" standalone="no"?>
<!DOCTYPE svg PUBLIC "-//W3C//DTD SVG 1.1//EN"
 "http://www.w3.org/Graphics/SVG/1.1/DTD/svg11.dtd">
<!-- Generated by graphviz version 2.30.1 (20140821.0912)
 -->
<!-- Title: prt::FileOutputCallbacks Pages: 1 -->
<svg width="225pt" height="140pt"
 viewBox="0.00 0.00 225.00 140.00" xmlns="http://www.w3.org/2000/svg" xmlns:xlink="http://www.w3.org/1999/xlink">
<g id="graph0" class="graph" transform="scale(1 1) rotate(0) translate(4 136)">
<title>prt::FileOutputCallbacks</title>
<!-- Node1 -->
<g id="node1" class="node"><title>Node1</title>
<polygon fill="#bfbfbf" stroke="black" points="66,-0.5 66,-19.5 188,-19.5 188,-0.5 66,-0.5"/>
<text text-anchor="middle" x="127" y="-7.5" font-family="Helvetica,sans-Serif" font-size="10.00">prt::FileOutputCallbacks</text>
</g>
<!-- Node2 -->
<g id="node2" class="node"><title>Node2</title>
<g id="a_node2"><a xlink:href="classprt_1_1_simple_output_callbacks.html" target="_top" xlink:title="prt::SimpleOutputCallbacks">
<polygon fill="none" stroke="black" points="-0.5,-56.5 -0.5,-75.5 136.5,-75.5 136.5,-56.5 -0.5,-56.5"/>
<text text-anchor="middle" x="68" y="-63.5" font-family="Helvetica,sans-Serif" font-size="10.00">prt::SimpleOutputCallbacks</text>
</a>
</g>
</g>
<!-- Node2&#45;&gt;Node1 -->
<g id="edge1" class="edge"><title>Node2&#45;&gt;Node1</title>
<path fill="none" stroke="midnightblue" d="M84.8945,-49.5372C95.4145,-39.9087 108.569,-27.8694 117.348,-19.8339"/>
<polygon fill="midnightblue" stroke="midnightblue" points="82.4931,-46.9905 77.4794,-56.324 87.2192,-52.1542 82.4931,-46.9905"/>
</g>
<!-- Node3 -->
<g id="node3" class="node"><title>Node3</title>
<g id="a_node3"><a xlink:href="classprt_1_1_callbacks.html" target="_top" xlink:title="prt::Callbacks">
<polygon fill="none" stroke="black" points="29.5,-112.5 29.5,-131.5 106.5,-131.5 106.5,-112.5 29.5,-112.5"/>
<text text-anchor="middle" x="68" y="-119.5" font-family="Helvetica,sans-Serif" font-size="10.00">prt::Callbacks</text>
</a>
</g>
</g>
<!-- Node3&#45;&gt;Node2 -->
<g id="edge2" class="edge"><title>Node3&#45;&gt;Node2</title>
<path fill="none" stroke="midnightblue" d="M68,-101.805C68,-92.9102 68,-82.7798 68,-75.7511"/>
<polygon fill="midnightblue" stroke="midnightblue" points="64.5001,-102.083 68,-112.083 71.5001,-102.083 64.5001,-102.083"/>
</g>
<!-- Node4 -->
<g id="node4" class="node"><title>Node4</title>
<g id="a_node4"><a xlink:href="classprt_1_1_object.html" target="_top" xlink:title="prt::Object">
<polygon fill="none" stroke="black" points="155,-56.5 155,-75.5 217,-75.5 217,-56.5 155,-56.5"/>
<text text-anchor="middle" x="186" y="-63.5" font-family="Helvetica,sans-Serif" font-size="10.00">prt::Object</text>
</a>
</g>
</g>
<!-- Node4&#45;&gt;Node1 -->
<g id="edge3" class="edge"><title>Node4&#45;&gt;Node1</title>
<path fill="none" stroke="midnightblue" d="M169.105,-49.5372C158.585,-39.9087 145.431,-27.8694 136.652,-19.8339"/>
<polygon fill="midnightblue" stroke="midnightblue" points="166.781,-52.1542 176.521,-56.324 171.507,-46.9905 166.781,-52.1542"/>
</g>
</g>
</svg>
