<?xml version="1.0" encoding="UTF-8" standalone="no"?>
<!DOCTYPE svg PUBLIC "-//W3C//DTD SVG 1.1//EN"
 "http://www.w3.org/Graphics/SVG/1.1/DTD/svg11.dtd">
<!-- Generated by graphviz version 2.26.0 (20091210.2329)
 -->
<!-- Title: prtx::AttributableSetter Pages: 1 -->
<svg width="362pt" height="88pt"
 viewBox="0.00 0.00 362.00 88.00" xmlns="http://www.w3.org/2000/svg" xmlns:xlink="http://www.w3.org/1999/xlink">
<g id="graph1" class="graph" transform="scale(1 1) rotate(0) translate(4 84)">
<title>prtx::AttributableSetter</title>
<!-- Node1 -->
<g id="node1" class="node"><title>Node1</title>
<polygon fill="#bfbfbf" stroke="black" points="124.5,-58.5 124.5,-79.5 239.5,-79.5 239.5,-58.5 124.5,-58.5"/>
<text text-anchor="middle" x="182" y="-66.5" font-family="Helvetica,sans-Serif" font-size="10.00">prtx::AttributableSetter</text>
</g>
<!-- Node2 -->
<g id="node3" class="node"><title>Node2</title>
<a xlink:href="classprtx_1_1_geometry_builder.html" target="_top" xlink:title="prtx::GeometryBuilder">
<polygon fill="none" stroke="black" points="0,-0.5 0,-21.5 112,-21.5 112,-0.5 0,-0.5"/>
<text text-anchor="middle" x="56" y="-8.5" font-family="Helvetica,sans-Serif" font-size="10.00">prtx::GeometryBuilder</text>
</a>
</g>
<!-- Node1&#45;&gt;Node2 -->
<g id="edge2" class="edge"><title>Node1&#45;&gt;Node2</title>
<path fill="none" stroke="midnightblue" d="M149.862,-54.2064C127.757,-44.031 98.9197,-30.7567 79.0737,-21.6212"/>
<polygon fill="midnightblue" stroke="midnightblue" points="148.635,-57.4945 159.182,-58.4966 151.562,-51.1358 148.635,-57.4945"/>
</g>
<!-- Node3 -->
<g id="node5" class="node"><title>Node3</title>
<a xlink:href="classprtx_1_1_material_builder.html" target="_top" xlink:title="prtx::MaterialBuilder">
<polygon fill="none" stroke="black" points="130,-0.5 130,-21.5 234,-21.5 234,-0.5 130,-0.5"/>
<text text-anchor="middle" x="182" y="-8.5" font-family="Helvetica,sans-Serif" font-size="10.00">prtx::MaterialBuilder</text>
</a>
</g>
<!-- Node1&#45;&gt;Node3 -->
<g id="edge4" class="edge"><title>Node1&#45;&gt;Node3</title>
<path fill="none" stroke="midnightblue" d="M182,-48.1906C182,-39.1684 182,-28.9941 182,-21.5707"/>
<polygon fill="midnightblue" stroke="midnightblue" points="178.5,-48.3619 182,-58.3619 185.5,-48.3619 178.5,-48.3619"/>
</g>
<!-- Node4 -->
<g id="node7" class="node"><title>Node4</title>
<a xlink:href="classprtx_1_1_texture_builder.html" target="_top" xlink:title="prtx::TextureBuilder">
<polygon fill="none" stroke="black" points="252,-0.5 252,-21.5 354,-21.5 354,-0.5 252,-0.5"/>
<text text-anchor="middle" x="303" y="-8.5" font-family="Helvetica,sans-Serif" font-size="10.00">prtx::TextureBuilder</text>
</a>
</g>
<!-- Node1&#45;&gt;Node4 -->
<g id="edge6" class="edge"><title>Node1&#45;&gt;Node4</title>
<path fill="none" stroke="midnightblue" d="M213.149,-54.0693C234.339,-43.9121 261.869,-30.7157 280.842,-21.6212"/>
<polygon fill="midnightblue" stroke="midnightblue" points="211.417,-51.018 203.912,-58.4966 214.443,-57.3303 211.417,-51.018"/>
</g>
</g>
</svg>
