<?xml version="1.0" encoding="UTF-8" standalone="no"?>
<!DOCTYPE svg PUBLIC "-//W3C//DTD SVG 1.1//EN"
 "http://www.w3.org/Graphics/SVG/1.1/DTD/svg11.dtd">
<!-- Generated by graphviz version 2.26.0 (20091210.2329)
 -->
<!-- Title: prtx::Encoder Pages: 1 -->
<svg width="380pt" height="204pt"
 viewBox="0.00 0.00 380.00 204.00" xmlns="http://www.w3.org/2000/svg" xmlns:xlink="http://www.w3.org/1999/xlink">
<g id="graph1" class="graph" transform="scale(1 1) rotate(0) translate(4 200)">
<title>prtx::Encoder</title>
<!-- Node1 -->
<g id="node1" class="node"><title>Node1</title>
<polygon fill="#bfbfbf" stroke="black" points="153.5,-58.5 153.5,-79.5 228.5,-79.5 228.5,-58.5 153.5,-58.5"/>
<text text-anchor="middle" x="191" y="-66.5" font-family="Helvetica,sans-Serif" font-size="10.00">prtx::Encoder</text>
</g>
<!-- Node4 -->
<g id="node7" class="node"><title>Node4</title>
<a xlink:href="classprtx_1_1_geometry_encoder.html" target="_top" xlink:title="prtx::GeometryEncoder">
<polygon fill="none" stroke="black" points="0,-0.5 0,-21.5 118,-21.5 118,-0.5 0,-0.5"/>
<text text-anchor="middle" x="59" y="-8.5" font-family="Helvetica,sans-Serif" font-size="10.00">prtx::GeometryEncoder</text>
</a>
</g>
<!-- Node1&#45;&gt;Node4 -->
<g id="edge6" class="edge"><title>Node1&#45;&gt;Node4</title>
<path fill="none" stroke="midnightblue" d="M157.643,-54.3431C134.445,-44.1502 104.057,-30.7977 83.1724,-21.6212"/>
<polygon fill="midnightblue" stroke="midnightblue" points="156.533,-57.6782 167.096,-58.4966 159.349,-51.2695 156.533,-57.6782"/>
</g>
<!-- Node5 -->
<g id="node9" class="node"><title>Node5</title>
<a xlink:href="classprtx_1_1_material_encoder.html" target="_top" xlink:title="prtx::MaterialEncoder">
<polygon fill="none" stroke="black" points="136,-0.5 136,-21.5 246,-21.5 246,-0.5 136,-0.5"/>
<text text-anchor="middle" x="191" y="-8.5" font-family="Helvetica,sans-Serif" font-size="10.00">prtx::MaterialEncoder</text>
</a>
</g>
<!-- Node1&#45;&gt;Node5 -->
<g id="edge8" class="edge"><title>Node1&#45;&gt;Node5</title>
<path fill="none" stroke="midnightblue" d="M191,-48.1906C191,-39.1684 191,-28.9941 191,-21.5707"/>
<polygon fill="midnightblue" stroke="midnightblue" points="187.5,-48.3619 191,-58.3619 194.5,-48.3619 187.5,-48.3619"/>
</g>
<!-- Node6 -->
<g id="node11" class="node"><title>Node6</title>
<a xlink:href="classprtx_1_1_texture_encoder.html" target="_top" xlink:title="prtx::TextureEncoder">
<polygon fill="none" stroke="black" points="264,-0.5 264,-21.5 372,-21.5 372,-0.5 264,-0.5"/>
<text text-anchor="middle" x="318" y="-8.5" font-family="Helvetica,sans-Serif" font-size="10.00">prtx::TextureEncoder</text>
</a>
</g>
<!-- Node1&#45;&gt;Node6 -->
<g id="edge10" class="edge"><title>Node1&#45;&gt;Node6</title>
<path fill="none" stroke="midnightblue" d="M223.393,-54.2064C245.673,-44.031 274.74,-30.7567 294.743,-21.6212"/>
<polygon fill="midnightblue" stroke="midnightblue" points="221.641,-51.1587 213.999,-58.4966 224.549,-57.5261 221.641,-51.1587"/>
</g>
<!-- Node2 -->
<g id="node2" class="node"><title>Node2</title>
<a xlink:href="classprtx_1_1_extension.html" target="_top" xlink:title="prtx::Extension">
<polygon fill="none" stroke="black" points="149.5,-116.5 149.5,-137.5 232.5,-137.5 232.5,-116.5 149.5,-116.5"/>
<text text-anchor="middle" x="191" y="-124.5" font-family="Helvetica,sans-Serif" font-size="10.00">prtx::Extension</text>
</a>
</g>
<!-- Node2&#45;&gt;Node1 -->
<g id="edge2" class="edge"><title>Node2&#45;&gt;Node1</title>
<path fill="none" stroke="midnightblue" d="M191,-106.191C191,-97.1684 191,-86.9941 191,-79.5707"/>
<polygon fill="midnightblue" stroke="midnightblue" points="187.5,-106.362 191,-116.362 194.5,-106.362 187.5,-106.362"/>
</g>
<!-- Node3 -->
<g id="node4" class="node"><title>Node3</title>
<polygon fill="none" stroke="#bfbfbf" points="155.5,-174.5 155.5,-195.5 226.5,-195.5 226.5,-174.5 155.5,-174.5"/>
<text text-anchor="middle" x="191" y="-182.5" font-family="Helvetica,sans-Serif" font-size="10.00">noncopyable</text>
</g>
<!-- Node3&#45;&gt;Node2 -->
<g id="edge4" class="edge"><title>Node3&#45;&gt;Node2</title>
<path fill="none" stroke="#8b1a1a" d="M191,-164.191C191,-155.168 191,-144.994 191,-137.571"/>
<polygon fill="#8b1a1a" stroke="#8b1a1a" points="187.5,-164.362 191,-174.362 194.5,-164.362 187.5,-164.362"/>
</g>
</g>
</svg>
