<?xml version="1.0" encoding="UTF-8" standalone="no"?>
<!DOCTYPE svg PUBLIC "-//W3C//DTD SVG 1.1//EN"
 "http://www.w3.org/Graphics/SVG/1.1/DTD/svg11.dtd">
<!-- Generated by graphviz version 2.40.1 (0)
 -->
<!-- Title: prt::ResolveMap Pages: 1 -->
<svg width="172pt" height="140pt"
 viewBox="0.00 0.00 171.50 140.00" xmlns="http://www.w3.org/2000/svg" xmlns:xlink="http://www.w3.org/1999/xlink">
<g id="graph0" class="graph" transform="scale(1 1) rotate(0) translate(4 136)">
<title>prt::ResolveMap</title>
<!-- Node0 -->
<g id="node1" class="node">
<title>Node0</title>
<polygon fill="#bfbfbf" stroke="#000000" points="42,-56.5 42,-75.5 131,-75.5 131,-56.5 42,-56.5"/>
<text text-anchor="middle" x="86.5" y="-63.5" font-family="Helvetica,sans-Serif" font-size="10.00" fill="#000000">prt::ResolveMap</text>
</g>
<!-- Node3 -->
<g id="node4" class="node">
<title>Node3</title>
<g id="a_node4"><a xlink:href="classprtx_1_1_resolve_map.html" target="_top" xlink:title="prtx::ResolveMap">
<polygon fill="none" stroke="#000000" points="39.5,-.5 39.5,-19.5 133.5,-19.5 133.5,-.5 39.5,-.5"/>
<text text-anchor="middle" x="86.5" y="-7.5" font-family="Helvetica,sans-Serif" font-size="10.00" fill="#000000">prtx::ResolveMap</text>
</a>
</g>
</g>
<!-- Node0&#45;&gt;Node3 -->
<g id="edge3" class="edge">
<title>Node0&#45;&gt;Node3</title>
<path fill="none" stroke="#191970" d="M86.5,-46.1575C86.5,-37.155 86.5,-26.9199 86.5,-19.6427"/>
<polygon fill="#191970" stroke="#191970" points="83.0001,-46.2455 86.5,-56.2455 90.0001,-46.2456 83.0001,-46.2455"/>
</g>
<!-- Node1 -->
<g id="node2" class="node">
<title>Node1</title>
<g id="a_node2"><a xlink:href="classprt_1_1_attributable.html" target="_top" xlink:title="prt::Attributable">
<polygon fill="none" stroke="#000000" points="0,-112.5 0,-131.5 83,-131.5 83,-112.5 0,-112.5"/>
<text text-anchor="middle" x="41.5" y="-119.5" font-family="Helvetica,sans-Serif" font-size="10.00" fill="#000000">prt::Attributable</text>
</a>
</g>
</g>
<!-- Node1&#45;&gt;Node0 -->
<g id="edge1" class="edge">
<title>Node1&#45;&gt;Node0</title>
<path fill="none" stroke="#191970" d="M55.7946,-104.2112C63.3996,-94.7472 72.4538,-83.4797 78.7514,-75.6427"/>
<polygon fill="#191970" stroke="#191970" points="52.8741,-102.2581 49.3384,-112.2455 58.3306,-106.6428 52.8741,-102.2581"/>
</g>
<!-- Node2 -->
<g id="node3" class="node">
<title>Node2</title>
<g id="a_node3"><a xlink:href="classprt_1_1_object.html" target="_top" xlink:title="prt::Object">
<polygon fill="none" stroke="#000000" points="101.5,-112.5 101.5,-131.5 163.5,-131.5 163.5,-112.5 101.5,-112.5"/>
<text text-anchor="middle" x="132.5" y="-119.5" font-family="Helvetica,sans-Serif" font-size="10.00" fill="#000000">prt::Object</text>
</a>
</g>
</g>
<!-- Node2&#45;&gt;Node0 -->
<g id="edge2" class="edge">
<title>Node2&#45;&gt;Node0</title>
<path fill="none" stroke="#191970" d="M118.1253,-104.5004C110.3029,-94.9775 100.924,-83.5596 94.4208,-75.6427"/>
<polygon fill="#191970" stroke="#191970" points="115.4354,-106.7399 124.4874,-112.2455 120.8445,-102.2967 115.4354,-106.7399"/>
</g>
</g>
</svg>
