<?xml version="1.0" encoding="UTF-8" standalone="no"?>
<!DOCTYPE svg PUBLIC "-//W3C//DTD SVG 1.1//EN"
 "http://www.w3.org/Graphics/SVG/1.1/DTD/svg11.dtd">
<!-- Generated by graphviz version 2.26.0 (20091210.2329)
 -->
<!-- Title: prtx::TextureBuilder Pages: 1 -->
<svg width="210pt" height="88pt"
 viewBox="0.00 0.00 210.00 88.00" xmlns="http://www.w3.org/2000/svg" xmlns:xlink="http://www.w3.org/1999/xlink">
<g id="graph1" class="graph" transform="scale(1 1) rotate(0) translate(4 84)">
<title>prtx::TextureBuilder</title>
<!-- Node1 -->
<g id="node1" class="node"><title>Node1</title>
<polygon fill="#bfbfbf" stroke="black" points="61,-0.5 61,-21.5 163,-21.5 163,-0.5 61,-0.5"/>
<text text-anchor="middle" x="112" y="-8.5" font-family="Helvetica,sans-Serif" font-size="10.00">prtx::TextureBuilder</text>
</g>
<!-- Node2 -->
<g id="node2" class="node"><title>Node2</title>
<a xlink:href="classprtx_1_1_attributable_setter.html" target="_top" xlink:title="prtx::AttributableSetter">
<polygon fill="none" stroke="black" points="-0.5,-58.5 -0.5,-79.5 114.5,-79.5 114.5,-58.5 -0.5,-58.5"/>
<text text-anchor="middle" x="57" y="-66.5" font-family="Helvetica,sans-Serif" font-size="10.00">prtx::AttributableSetter</text>
</a>
</g>
<!-- Node2&#45;&gt;Node1 -->
<g id="edge2" class="edge"><title>Node2&#45;&gt;Node1</title>
<path fill="none" stroke="midnightblue" d="M74.2302,-50.8299C83.3546,-41.2078 94.2405,-29.7282 101.976,-21.5707"/>
<polygon fill="midnightblue" stroke="midnightblue" points="71.4291,-48.6973 67.0878,-58.3619 76.5085,-53.514 71.4291,-48.6973"/>
</g>
<!-- Node3 -->
<g id="node4" class="node"><title>Node3</title>
<polygon fill="none" stroke="#bfbfbf" points="131.5,-58.5 131.5,-79.5 202.5,-79.5 202.5,-58.5 131.5,-58.5"/>
<text text-anchor="middle" x="167" y="-66.5" font-family="Helvetica,sans-Serif" font-size="10.00">noncopyable</text>
</g>
<!-- Node3&#45;&gt;Node1 -->
<g id="edge4" class="edge"><title>Node3&#45;&gt;Node1</title>
<path fill="none" stroke="#8b1a1a" d="M149.77,-50.8299C140.645,-41.2078 129.76,-29.7282 122.024,-21.5707"/>
<polygon fill="#8b1a1a" stroke="#8b1a1a" points="147.492,-53.514 156.912,-58.3619 152.571,-48.6973 147.492,-53.514"/>
</g>
</g>
</svg>
