<?xml version="1.0" encoding="UTF-8" standalone="no"?>
<!DOCTYPE svg PUBLIC "-//W3C//DTD SVG 1.1//EN"
 "http://www.w3.org/Graphics/SVG/1.1/DTD/svg11.dtd">
<!-- Generated by graphviz version 2.40.1 (0)
 -->
<!-- Title: prt::Attributable Pages: 1 -->
<svg width="207pt" height="140pt"
 viewBox="0.00 0.00 206.50 140.00" xmlns="http://www.w3.org/2000/svg" xmlns:xlink="http://www.w3.org/1999/xlink">
<g id="graph0" class="graph" transform="scale(1 1) rotate(0) translate(4 136)">
<title>prt::Attributable</title>
<!-- Node0 -->
<g id="node1" class="node">
<title>Node0</title>
<polygon fill="#bfbfbf" stroke="#000000" points="56,-112.5 56,-131.5 139,-131.5 139,-112.5 56,-112.5"/>
<text text-anchor="middle" x="97.5" y="-119.5" font-family="Helvetica,sans-Serif" font-size="10.00" fill="#000000">prt::Attributable</text>
</g>
<!-- Node1 -->
<g id="node2" class="node">
<title>Node1</title>
<g id="a_node2"><a xlink:href="classprt_1_1_attribute_map.html" target="_top" xlink:title="prt::AttributeMap">
<polygon fill="none" stroke="#000000" points="0,-56.5 0,-75.5 89,-75.5 89,-56.5 0,-56.5"/>
<text text-anchor="middle" x="44.5" y="-63.5" font-family="Helvetica,sans-Serif" font-size="10.00" fill="#000000">prt::AttributeMap</text>
</a>
</g>
</g>
<!-- Node0&#45;&gt;Node1 -->
<g id="edge1" class="edge">
<title>Node0&#45;&gt;Node1</title>
<path fill="none" stroke="#191970" d="M81.2104,-104.7884C72.1438,-95.2085 61.1946,-83.6396 53.6261,-75.6427"/>
<polygon fill="#191970" stroke="#191970" points="78.8522,-107.3884 88.2681,-112.2455 83.9363,-102.5767 78.8522,-107.3884"/>
</g>
<!-- Node2 -->
<g id="node3" class="node">
<title>Node2</title>
<g id="a_node3"><a xlink:href="classprt_1_1_resolve_map.html" target="_top" xlink:title="prt::ResolveMap">
<polygon fill="none" stroke="#000000" points="107,-56.5 107,-75.5 196,-75.5 196,-56.5 107,-56.5"/>
<text text-anchor="middle" x="151.5" y="-63.5" font-family="Helvetica,sans-Serif" font-size="10.00" fill="#000000">prt::ResolveMap</text>
</a>
</g>
</g>
<!-- Node0&#45;&gt;Node2 -->
<g id="edge2" class="edge">
<title>Node0&#45;&gt;Node2</title>
<path fill="none" stroke="#191970" d="M114.0969,-104.7884C123.3347,-95.2085 134.4904,-83.6396 142.2017,-75.6427"/>
<polygon fill="#191970" stroke="#191970" points="111.328,-102.6176 106.9061,-112.2455 116.3669,-107.4766 111.328,-102.6176"/>
</g>
<!-- Node3 -->
<g id="node4" class="node">
<title>Node3</title>
<g id="a_node4"><a xlink:href="classprtx_1_1_resolve_map.html" target="_top" xlink:title="prtx::ResolveMap">
<polygon fill="none" stroke="#000000" points="104.5,-.5 104.5,-19.5 198.5,-19.5 198.5,-.5 104.5,-.5"/>
<text text-anchor="middle" x="151.5" y="-7.5" font-family="Helvetica,sans-Serif" font-size="10.00" fill="#000000">prtx::ResolveMap</text>
</a>
</g>
</g>
<!-- Node2&#45;&gt;Node3 -->
<g id="edge3" class="edge">
<title>Node2&#45;&gt;Node3</title>
<path fill="none" stroke="#191970" d="M151.5,-46.1575C151.5,-37.155 151.5,-26.9199 151.5,-19.6427"/>
<polygon fill="#191970" stroke="#191970" points="148.0001,-46.2455 151.5,-56.2455 155.0001,-46.2456 148.0001,-46.2455"/>
</g>
</g>
</svg>
