<?xml version="1.0" encoding="UTF-8" standalone="no"?>
<!DOCTYPE svg PUBLIC "-//W3C//DTD SVG 1.1//EN"
 "http://www.w3.org/Graphics/SVG/1.1/DTD/svg11.dtd">
<!-- Generated by graphviz version 2.40.1 (0)
 -->
<!-- Title: prtx::ExtensionFactory Pages: 1 -->
<svg width="297pt" height="154pt"
 viewBox="0.00 0.00 297.00 154.00" xmlns="http://www.w3.org/2000/svg" xmlns:xlink="http://www.w3.org/1999/xlink">
<g id="graph0" class="graph" transform="scale(1 1) rotate(0) translate(4 150)">
<title>prtx::ExtensionFactory</title>
<!-- Node0 -->
<g id="node1" class="node">
<title>Node0</title>
<polygon fill="#bfbfbf" stroke="#000000" points="0,-66.5 0,-85.5 116,-85.5 116,-66.5 0,-66.5"/>
<text text-anchor="middle" x="58" y="-73.5" font-family="Helvetica,sans-Serif" font-size="10.00" fill="#000000">prtx::ExtensionFactory</text>
</g>
<!-- Node1 -->
<g id="node2" class="node">
<title>Node1</title>
<g id="a_node2"><a xlink:href="classprtx_1_1_decoder_factory.html" target="_top" xlink:title="prtx::DecoderFactory">
<polygon fill="none" stroke="#000000" points="166,-126.5 166,-145.5 275,-145.5 275,-126.5 166,-126.5"/>
<text text-anchor="middle" x="220.5" y="-133.5" font-family="Helvetica,sans-Serif" font-size="10.00" fill="#000000">prtx::DecoderFactory</text>
</a>
</g>
</g>
<!-- Node0&#45;&gt;Node1 -->
<g id="edge1" class="edge">
<title>Node0&#45;&gt;Node1</title>
<path fill="none" stroke="#191970" d="M87.1103,-89.9632C105.4652,-98.449 129.8117,-109.1279 152,-117 161.7701,-120.4663 172.5036,-123.7035 182.5165,-126.4887"/>
<polygon fill="#191970" stroke="#191970" points="88.3829,-86.6946 77.8417,-85.6295 85.4179,-93.0357 88.3829,-86.6946"/>
</g>
<!-- Node2 -->
<g id="node3" class="node">
<title>Node2</title>
<g id="a_node3"><a xlink:href="classprtx_1_1_encoder_factory.html" target="_top" xlink:title="prtx::EncoderFactory">
<polygon fill="none" stroke="#000000" points="166.5,-88.5 166.5,-107.5 274.5,-107.5 274.5,-88.5 166.5,-88.5"/>
<text text-anchor="middle" x="220.5" y="-95.5" font-family="Helvetica,sans-Serif" font-size="10.00" fill="#000000">prtx::EncoderFactory</text>
</a>
</g>
</g>
<!-- Node0&#45;&gt;Node2 -->
<g id="edge2" class="edge">
<title>Node0&#45;&gt;Node2</title>
<path fill="none" stroke="#191970" d="M126.3403,-85.2522C139.7466,-87.0672 153.6341,-88.9474 166.4922,-90.6882"/>
<polygon fill="#191970" stroke="#191970" points="126.5864,-81.7537 116.2072,-83.8804 125.6472,-88.6904 126.5864,-81.7537"/>
</g>
<!-- Node3 -->
<g id="node4" class="node">
<title>Node3</title>
<g id="a_node4"><a xlink:href="classprtx_1_1_resolve_map_provider_factory.html" target="_top" xlink:title="prtx::ResolveMapProvider\lFactory">
<polygon fill="none" stroke="#000000" points="155.5,-39 155.5,-69 285.5,-69 285.5,-39 155.5,-39"/>
<text text-anchor="start" x="163.5" y="-57" font-family="Helvetica,sans-Serif" font-size="10.00" fill="#000000">prtx::ResolveMapProvider</text>
<text text-anchor="middle" x="220.5" y="-46" font-family="Helvetica,sans-Serif" font-size="10.00" fill="#000000">Factory</text>
</a>
</g>
</g>
<!-- Node0&#45;&gt;Node3 -->
<g id="edge3" class="edge">
<title>Node0&#45;&gt;Node3</title>
<path fill="none" stroke="#191970" d="M126.1366,-66.7754C135.7752,-65.4704 145.6667,-64.1313 155.2491,-62.834"/>
<polygon fill="#191970" stroke="#191970" points="125.6472,-63.3096 116.2072,-68.1196 126.5864,-70.2463 125.6472,-63.3096"/>
</g>
<!-- Node4 -->
<g id="node5" class="node">
<title>Node4</title>
<g id="a_node5"><a xlink:href="classprtx_1_1_stream_adaptor_factory.html" target="_top" xlink:title="prtx::StreamAdaptorFactory">
<polygon fill="none" stroke="#000000" points="152,-.5 152,-19.5 289,-19.5 289,-.5 152,-.5"/>
<text text-anchor="middle" x="220.5" y="-7.5" font-family="Helvetica,sans-Serif" font-size="10.00" fill="#000000">prtx::StreamAdaptorFactory</text>
</a>
</g>
</g>
<!-- Node0&#45;&gt;Node4 -->
<g id="edge4" class="edge">
<title>Node0&#45;&gt;Node4</title>
<path fill="none" stroke="#191970" d="M84.2779,-61.6329C102.8341,-51.8643 128.4839,-39.1099 152,-30 162.0505,-26.1065 173.1812,-22.5495 183.497,-19.55"/>
<polygon fill="#191970" stroke="#191970" points="82.4484,-58.6419 75.2697,-66.434 85.7407,-64.8193 82.4484,-58.6419"/>
</g>
</g>
</svg>
