<?xml version="1.0" encoding="UTF-8" standalone="no"?>
<!DOCTYPE svg PUBLIC "-//W3C//DTD SVG 1.1//EN"
 "http://www.w3.org/Graphics/SVG/1.1/DTD/svg11.dtd">
<!-- Generated by graphviz version 2.40.1 (0)
 -->
<!-- Title: prtx::AppendingReportsAccumulator Pages: 1 -->
<svg width="306pt" height="151pt"
 viewBox="0.00 0.00 306.00 151.00" xmlns="http://www.w3.org/2000/svg" xmlns:xlink="http://www.w3.org/1999/xlink">
<g id="graph0" class="graph" transform="scale(1 1) rotate(0) translate(4 147)">
<title>prtx::AppendingReportsAccumulator</title>
<!-- Node0 -->
<g id="node1" class="node">
<title>Node0</title>
<polygon fill="#bfbfbf" stroke="#000000" points="57.5,-67.5 57.5,-86.5 231.5,-86.5 231.5,-67.5 57.5,-67.5"/>
<text text-anchor="middle" x="144.5" y="-74.5" font-family="Helvetica,sans-Serif" font-size="10.00" fill="#000000">prtx::AppendingReportsAccumulator</text>
</g>
<!-- Node2 -->
<g id="node3" class="node">
<title>Node2</title>
<g id="a_node3"><a xlink:href="classprtx_1_1_summarizing_reports_accumulator.html" target="_top" xlink:title="prtx::SummarizingReports\lAccumulator">
<polygon fill="none" stroke="#000000" points="0,-.5 0,-30.5 131,-30.5 131,-.5 0,-.5"/>
<text text-anchor="start" x="8" y="-18.5" font-family="Helvetica,sans-Serif" font-size="10.00" fill="#000000">prtx::SummarizingReports</text>
<text text-anchor="middle" x="65.5" y="-7.5" font-family="Helvetica,sans-Serif" font-size="10.00" fill="#000000">Accumulator</text>
</a>
</g>
</g>
<!-- Node0&#45;&gt;Node2 -->
<g id="edge2" class="edge">
<title>Node0&#45;&gt;Node2</title>
<path fill="none" stroke="#191970" d="M123.9965,-61.0385C111.9078,-51.6276 96.7033,-39.7911 84.8256,-30.5446"/>
<polygon fill="#191970" stroke="#191970" points="122.1154,-64.0095 132.1563,-67.3906 126.4154,-58.4859 122.1154,-64.0095"/>
</g>
<!-- Node3 -->
<g id="node4" class="node">
<title>Node3</title>
<g id="a_node4"><a xlink:href="classprtx_1_1_sum_reports_accumulator.html" target="_top" xlink:title="prtx::SumReportsAccumulator">
<polygon fill="none" stroke="#000000" points="149,-6 149,-25 298,-25 298,-6 149,-6"/>
<text text-anchor="middle" x="223.5" y="-13" font-family="Helvetica,sans-Serif" font-size="10.00" fill="#000000">prtx::SumReportsAccumulator</text>
</a>
</g>
</g>
<!-- Node0&#45;&gt;Node3 -->
<g id="edge3" class="edge">
<title>Node0&#45;&gt;Node3</title>
<path fill="none" stroke="#191970" d="M164.8613,-61.1491C179.54,-49.722 198.8688,-34.6749 211.2429,-25.0419"/>
<polygon fill="#191970" stroke="#191970" points="162.5846,-58.4859 156.8438,-67.3906 166.8846,-64.0095 162.5846,-58.4859"/>
</g>
<!-- Node1 -->
<g id="node2" class="node">
<title>Node1</title>
<g id="a_node2"><a xlink:href="classprtx_1_1_reports_accumulator.html" target="_top" xlink:title="prtx::ReportsAccumulator">
<polygon fill="none" stroke="#000000" points="80.5,-123.5 80.5,-142.5 208.5,-142.5 208.5,-123.5 80.5,-123.5"/>
<text text-anchor="middle" x="144.5" y="-130.5" font-family="Helvetica,sans-Serif" font-size="10.00" fill="#000000">prtx::ReportsAccumulator</text>
</a>
</g>
</g>
<!-- Node1&#45;&gt;Node0 -->
<g id="edge1" class="edge">
<title>Node1&#45;&gt;Node0</title>
<path fill="none" stroke="#191970" d="M144.5,-113.1575C144.5,-104.155 144.5,-93.9199 144.5,-86.6427"/>
<polygon fill="#191970" stroke="#191970" points="141.0001,-113.2455 144.5,-123.2455 148.0001,-113.2456 141.0001,-113.2455"/>
</g>
</g>
</svg>
