<?xml version="1.0" encoding="UTF-8" standalone="no"?>
<!DOCTYPE svg PUBLIC "-//W3C//DTD SVG 1.1//EN"
 "http://www.w3.org/Graphics/SVG/1.1/DTD/svg11.dtd">
<!-- Generated by graphviz version 2.26.0 (20091210.2329)
 -->
<!-- Title: prtx::Extension Pages: 1 -->
<svg width="468pt" height="350pt"
 viewBox="0.00 0.00 468.00 350.00" xmlns="http://www.w3.org/2000/svg" xmlns:xlink="http://www.w3.org/1999/xlink">
<g id="graph1" class="graph" transform="scale(1 1) rotate(0) translate(4 346)">
<title>prtx::Extension</title>
<!-- Node1 -->
<g id="node1" class="node"><title>Node1</title>
<polygon fill="#bfbfbf" stroke="black" points="108.5,-200.5 108.5,-221.5 191.5,-221.5 191.5,-200.5 108.5,-200.5"/>
<text text-anchor="middle" x="150" y="-208.5" font-family="Helvetica,sans-Serif" font-size="10.00">prtx::Extension</text>
</g>
<!-- Node3 -->
<g id="node5" class="node"><title>Node3</title>
<a xlink:href="classprtx_1_1_adaptor.html" target="_top" xlink:title="prtx::Adaptor">
<polygon fill="none" stroke="black" points="229.5,-280.5 229.5,-301.5 302.5,-301.5 302.5,-280.5 229.5,-280.5"/>
<text text-anchor="middle" x="266" y="-288.5" font-family="Helvetica,sans-Serif" font-size="10.00">prtx::Adaptor</text>
</a>
</g>
<!-- Node1&#45;&gt;Node3 -->
<g id="edge4" class="edge"><title>Node1&#45;&gt;Node3</title>
<path fill="none" stroke="midnightblue" d="M174.166,-227.666C197.163,-243.526 231.07,-266.911 250.604,-280.382"/>
<polygon fill="midnightblue" stroke="midnightblue" points="175.864,-224.585 165.644,-221.789 171.889,-230.348 175.864,-224.585"/>
</g>
<!-- Node5 -->
<g id="node9" class="node"><title>Node5</title>
<a xlink:href="classprtx_1_1_decoder.html" target="_top" xlink:title="prtx::Decoder">
<polygon fill="none" stroke="black" points="228,-200.5 228,-221.5 304,-221.5 304,-200.5 228,-200.5"/>
<text text-anchor="middle" x="266" y="-208.5" font-family="Helvetica,sans-Serif" font-size="10.00">prtx::Decoder</text>
</a>
</g>
<!-- Node1&#45;&gt;Node5 -->
<g id="edge8" class="edge"><title>Node1&#45;&gt;Node5</title>
<path fill="none" stroke="midnightblue" d="M201.721,-211C210.503,-211 219.478,-211 227.83,-211"/>
<polygon fill="midnightblue" stroke="midnightblue" points="201.551,-207.5 191.551,-211 201.551,-214.5 201.551,-207.5"/>
</g>
<!-- Node11 -->
<g id="node21" class="node"><title>Node11</title>
<a xlink:href="classprtx_1_1_encoder.html" target="_top" xlink:title="prtx::Encoder">
<polygon fill="none" stroke="black" points="228.5,-60.5 228.5,-81.5 303.5,-81.5 303.5,-60.5 228.5,-60.5"/>
<text text-anchor="middle" x="266" y="-68.5" font-family="Helvetica,sans-Serif" font-size="10.00">prtx::Encoder</text>
</a>
</g>
<!-- Node1&#45;&gt;Node11 -->
<g id="edge20" class="edge"><title>Node1&#45;&gt;Node11</title>
<path fill="none" stroke="midnightblue" d="M165.284,-192.554C189.891,-162.855 237.518,-105.375 257.18,-81.6449"/>
<polygon fill="midnightblue" stroke="midnightblue" points="162.404,-190.544 158.719,-200.477 167.794,-195.01 162.404,-190.544"/>
</g>
<!-- Node2 -->
<g id="node2" class="node"><title>Node2</title>
<polygon fill="none" stroke="#bfbfbf" points="0.5,-200.5 0.5,-221.5 71.5,-221.5 71.5,-200.5 0.5,-200.5"/>
<text text-anchor="middle" x="36" y="-208.5" font-family="Helvetica,sans-Serif" font-size="10.00">noncopyable</text>
</g>
<!-- Node2&#45;&gt;Node1 -->
<g id="edge2" class="edge"><title>Node2&#45;&gt;Node1</title>
<path fill="none" stroke="#8b1a1a" d="M81.8382,-211C90.614,-211 99.7572,-211 108.391,-211"/>
<polygon fill="#8b1a1a" stroke="#8b1a1a" points="81.7576,-207.5 71.7575,-211 81.7575,-214.5 81.7576,-207.5"/>
</g>
<!-- Node4 -->
<g id="node7" class="node"><title>Node4</title>
<a xlink:href="classprtx_1_1_stream_adaptor.html" target="_top" xlink:title="prtx::StreamAdaptor">
<polygon fill="none" stroke="black" points="348,-320.5 348,-341.5 452,-341.5 452,-320.5 348,-320.5"/>
<text text-anchor="middle" x="400" y="-328.5" font-family="Helvetica,sans-Serif" font-size="10.00">prtx::StreamAdaptor</text>
</a>
</g>
<!-- Node3&#45;&gt;Node4 -->
<g id="edge6" class="edge"><title>Node3&#45;&gt;Node4</title>
<path fill="none" stroke="midnightblue" d="M311.163,-304.481C328.575,-309.679 348.197,-315.537 364.563,-320.422"/>
<polygon fill="midnightblue" stroke="midnightblue" points="311.79,-301.016 301.207,-301.51 309.788,-307.724 311.79,-301.016"/>
</g>
<!-- Node6 -->
<g id="node11" class="node"><title>Node6</title>
<a xlink:href="classprtx_1_1_c_g_b_decoder.html" target="_top" xlink:title="prtx::CGBDecoder">
<polygon fill="none" stroke="black" points="351,-280.5 351,-301.5 449,-301.5 449,-280.5 351,-280.5"/>
<text text-anchor="middle" x="400" y="-288.5" font-family="Helvetica,sans-Serif" font-size="10.00">prtx::CGBDecoder</text>
</a>
</g>
<!-- Node5&#45;&gt;Node6 -->
<g id="edge10" class="edge"><title>Node5&#45;&gt;Node6</title>
<path fill="none" stroke="midnightblue" d="M284.171,-228.889C298.376,-242.05 319.148,-259.567 340,-271 346.643,-274.642 354.064,-277.774 361.361,-280.406"/>
<polygon fill="midnightblue" stroke="midnightblue" points="286.28,-226.066 276.616,-221.723 281.463,-231.144 286.28,-226.066"/>
</g>
<!-- Node7 -->
<g id="node13" class="node"><title>Node7</title>
<a xlink:href="classprtx_1_1_geometry_decoder.html" target="_top" xlink:title="prtx::GeometryDecoder">
<polygon fill="none" stroke="black" points="340.5,-240.5 340.5,-261.5 459.5,-261.5 459.5,-240.5 340.5,-240.5"/>
<text text-anchor="middle" x="400" y="-248.5" font-family="Helvetica,sans-Serif" font-size="10.00">prtx::GeometryDecoder</text>
</a>
</g>
<!-- Node5&#45;&gt;Node7 -->
<g id="edge12" class="edge"><title>Node5&#45;&gt;Node7</title>
<path fill="none" stroke="midnightblue" d="M311.163,-224.481C328.575,-229.679 348.197,-235.537 364.563,-240.422"/>
<polygon fill="midnightblue" stroke="midnightblue" points="311.79,-221.016 301.207,-221.51 309.788,-227.724 311.79,-221.016"/>
</g>
<!-- Node8 -->
<g id="node15" class="node"><title>Node8</title>
<a xlink:href="classprtx_1_1_material_decoder.html" target="_top" xlink:title="prtx::MaterialDecoder">
<polygon fill="none" stroke="black" points="345,-200.5 345,-221.5 455,-221.5 455,-200.5 345,-200.5"/>
<text text-anchor="middle" x="400" y="-208.5" font-family="Helvetica,sans-Serif" font-size="10.00">prtx::MaterialDecoder</text>
</a>
</g>
<!-- Node5&#45;&gt;Node8 -->
<g id="edge14" class="edge"><title>Node5&#45;&gt;Node8</title>
<path fill="none" stroke="midnightblue" d="M314.156,-211C324.113,-211 334.673,-211 344.857,-211"/>
<polygon fill="midnightblue" stroke="midnightblue" points="314.041,-207.5 304.041,-211 314.041,-214.5 314.041,-207.5"/>
</g>
<!-- Node9 -->
<g id="node17" class="node"><title>Node9</title>
<a xlink:href="classprtx_1_1_shader_decoder.html" target="_top" xlink:title="prtx::ShaderDecoder">
<polygon fill="none" stroke="black" points="346.5,-160.5 346.5,-181.5 453.5,-181.5 453.5,-160.5 346.5,-160.5"/>
<text text-anchor="middle" x="400" y="-168.5" font-family="Helvetica,sans-Serif" font-size="10.00">prtx::ShaderDecoder</text>
</a>
</g>
<!-- Node5&#45;&gt;Node9 -->
<g id="edge16" class="edge"><title>Node5&#45;&gt;Node9</title>
<path fill="none" stroke="midnightblue" d="M311.163,-197.519C328.575,-192.321 348.197,-186.463 364.563,-181.578"/>
<polygon fill="midnightblue" stroke="midnightblue" points="309.788,-194.276 301.207,-200.49 311.79,-200.984 309.788,-194.276"/>
</g>
<!-- Node10 -->
<g id="node19" class="node"><title>Node10</title>
<a xlink:href="classprtx_1_1_texture_decoder.html" target="_top" xlink:title="prtx::TextureDecoder">
<polygon fill="none" stroke="black" points="345.5,-120.5 345.5,-141.5 454.5,-141.5 454.5,-120.5 345.5,-120.5"/>
<text text-anchor="middle" x="400" y="-128.5" font-family="Helvetica,sans-Serif" font-size="10.00">prtx::TextureDecoder</text>
</a>
</g>
<!-- Node5&#45;&gt;Node10 -->
<g id="edge18" class="edge"><title>Node5&#45;&gt;Node10</title>
<path fill="none" stroke="midnightblue" d="M284.171,-193.111C298.376,-179.95 319.148,-162.433 340,-151 346.643,-147.358 354.064,-144.226 361.361,-141.594"/>
<polygon fill="midnightblue" stroke="midnightblue" points="281.463,-190.856 276.616,-200.277 286.28,-195.934 281.463,-190.856"/>
</g>
<!-- Node12 -->
<g id="node23" class="node"><title>Node12</title>
<a xlink:href="classprtx_1_1_geometry_encoder.html" target="_top" xlink:title="prtx::GeometryEncoder">
<polygon fill="none" stroke="black" points="341,-80.5 341,-101.5 459,-101.5 459,-80.5 341,-80.5"/>
<text text-anchor="middle" x="400" y="-88.5" font-family="Helvetica,sans-Serif" font-size="10.00">prtx::GeometryEncoder</text>
</a>
</g>
<!-- Node11&#45;&gt;Node12 -->
<g id="edge22" class="edge"><title>Node11&#45;&gt;Node12</title>
<path fill="none" stroke="midnightblue" d="M313.717,-78.122C322.488,-79.431 331.74,-80.812 340.8,-82.1641"/>
<polygon fill="midnightblue" stroke="midnightblue" points="314.09,-74.639 303.683,-76.6243 313.057,-81.5623 314.09,-74.639"/>
</g>
<!-- Node13 -->
<g id="node25" class="node"><title>Node13</title>
<a xlink:href="classprtx_1_1_material_encoder.html" target="_top" xlink:title="prtx::MaterialEncoder">
<polygon fill="none" stroke="black" points="345,-40.5 345,-61.5 455,-61.5 455,-40.5 345,-40.5"/>
<text text-anchor="middle" x="400" y="-48.5" font-family="Helvetica,sans-Serif" font-size="10.00">prtx::MaterialEncoder</text>
</a>
</g>
<!-- Node11&#45;&gt;Node13 -->
<g id="edge24" class="edge"><title>Node11&#45;&gt;Node13</title>
<path fill="none" stroke="midnightblue" d="M313.873,-63.8548C323.908,-62.357 334.569,-60.7659 344.845,-59.2321"/>
<polygon fill="midnightblue" stroke="midnightblue" points="313.057,-60.4377 303.683,-65.3757 314.09,-67.361 313.057,-60.4377"/>
</g>
<!-- Node14 -->
<g id="node27" class="node"><title>Node14</title>
<a xlink:href="classprtx_1_1_texture_encoder.html" target="_top" xlink:title="prtx::TextureEncoder">
<polygon fill="none" stroke="black" points="346,-0.5 346,-21.5 454,-21.5 454,-0.5 346,-0.5"/>
<text text-anchor="middle" x="400" y="-8.5" font-family="Helvetica,sans-Serif" font-size="10.00">prtx::TextureEncoder</text>
</a>
</g>
<!-- Node11&#45;&gt;Node14 -->
<g id="edge26" class="edge"><title>Node11&#45;&gt;Node14</title>
<path fill="none" stroke="midnightblue" d="M292.482,-55.2314C306.348,-47.3517 323.776,-38.0255 340,-31 347.96,-27.5531 356.721,-24.3289 365.031,-21.5184"/>
<polygon fill="midnightblue" stroke="midnightblue" points="290.422,-52.3792 283.511,-60.4094 293.922,-58.4418 290.422,-52.3792"/>
</g>
</g>
</svg>
