<?xml version="1.0" encoding="UTF-8" standalone="no"?>
<!DOCTYPE svg PUBLIC "-//W3C//DTD SVG 1.1//EN"
 "http://www.w3.org/Graphics/SVG/1.1/DTD/svg11.dtd">
<!-- Generated by graphviz version 2.40.1 (0)
 -->
<!-- Title: prt::Object Pages: 1 -->
<svg width="378pt" height="636pt"
 viewBox="0.00 0.00 378.00 636.00" xmlns="http://www.w3.org/2000/svg" xmlns:xlink="http://www.w3.org/1999/xlink">
<g id="graph0" class="graph" transform="scale(1 1) rotate(0) translate(4 632)">
<title>prt::Object</title>
<!-- Node0 -->
<g id="node1" class="node">
<title>Node0</title>
<polygon fill="#bfbfbf" stroke="#000000" points="0,-304.5 0,-323.5 62,-323.5 62,-304.5 0,-304.5"/>
<text text-anchor="middle" x="31" y="-311.5" font-family="Helvetica,sans-Serif" font-size="10.00" fill="#000000">prt::Object</text>
</g>
<!-- Node1 -->
<g id="node2" class="node">
<title>Node1</title>
<g id="a_node2"><a xlink:href="classprt_1_1_annotation.html" target="_top" xlink:title="prt::Annotation">
<polygon fill="none" stroke="#000000" points="129,-608.5 129,-627.5 209,-627.5 209,-608.5 129,-608.5"/>
<text text-anchor="middle" x="169" y="-615.5" font-family="Helvetica,sans-Serif" font-size="10.00" fill="#000000">prt::Annotation</text>
</a>
</g>
</g>
<!-- Node0&#45;&gt;Node1 -->
<g id="edge1" class="edge">
<title>Node0&#45;&gt;Node1</title>
<path fill="none" stroke="#191970" d="M33.0278,-333.8062C39.3721,-391.9563 60.6777,-560.5184 98,-599 106.173,-607.4269 117.6414,-612.2508 128.981,-614.9731"/>
<polygon fill="#191970" stroke="#191970" points="36.4933,-333.2947 31.9582,-323.7196 29.5323,-334.033 36.4933,-333.2947"/>
</g>
<!-- Node2 -->
<g id="node3" class="node">
<title>Node2</title>
<g id="a_node3"><a xlink:href="classprt_1_1_annotation_argument.html" target="_top" xlink:title="prt::AnnotationArgument">
<polygon fill="none" stroke="#000000" points="108,-570.5 108,-589.5 230,-589.5 230,-570.5 108,-570.5"/>
<text text-anchor="middle" x="169" y="-577.5" font-family="Helvetica,sans-Serif" font-size="10.00" fill="#000000">prt::AnnotationArgument</text>
</a>
</g>
</g>
<!-- Node0&#45;&gt;Node2 -->
<g id="edge2" class="edge">
<title>Node0&#45;&gt;Node2</title>
<path fill="none" stroke="#191970" d="M33.7585,-333.5389C41.5516,-386.0441 65.3083,-528.4194 98,-561 101.8864,-564.8732 106.4703,-567.9813 111.4079,-570.472"/>
<polygon fill="#191970" stroke="#191970" points="37.2033,-332.9054 32.3037,-323.5116 30.2759,-333.9105 37.2033,-332.9054"/>
</g>
<!-- Node3 -->
<g id="node4" class="node">
<title>Node3</title>
<g id="a_node4"><a xlink:href="classprt_1_1_attribute_map.html" target="_top" xlink:title="prt::AttributeMap">
<polygon fill="none" stroke="#000000" points="124.5,-532.5 124.5,-551.5 213.5,-551.5 213.5,-532.5 124.5,-532.5"/>
<text text-anchor="middle" x="169" y="-539.5" font-family="Helvetica,sans-Serif" font-size="10.00" fill="#000000">prt::AttributeMap</text>
</a>
</g>
</g>
<!-- Node0&#45;&gt;Node3 -->
<g id="edge3" class="edge">
<title>Node0&#45;&gt;Node3</title>
<path fill="none" stroke="#191970" d="M34.7913,-333.5682C44.2129,-380.2603 69.9608,-496.2953 98,-523 105.2072,-529.8642 114.6137,-534.3093 124.2103,-537.1723"/>
<polygon fill="#191970" stroke="#191970" points="38.1777,-332.6513 32.8016,-323.5218 31.3111,-334.0113 38.1777,-332.6513"/>
</g>
<!-- Node4 -->
<g id="node5" class="node">
<title>Node4</title>
<g id="a_node5"><a xlink:href="classprt_1_1_attribute_map_builder.html" target="_top" xlink:title="prt::AttributeMapBuilder">
<polygon fill="none" stroke="#000000" points="109.5,-494.5 109.5,-513.5 228.5,-513.5 228.5,-494.5 109.5,-494.5"/>
<text text-anchor="middle" x="169" y="-501.5" font-family="Helvetica,sans-Serif" font-size="10.00" fill="#000000">prt::AttributeMapBuilder</text>
</a>
</g>
</g>
<!-- Node0&#45;&gt;Node4 -->
<g id="edge4" class="edge">
<title>Node0&#45;&gt;Node4</title>
<path fill="none" stroke="#191970" d="M33.0279,-333.964C37.742,-369.6781 52.7392,-444.5423 98,-485 102.281,-488.8267 107.2509,-491.8952 112.535,-494.3538"/>
<polygon fill="#191970" stroke="#191970" points="36.4808,-333.3585 31.8333,-323.8375 29.529,-334.1787 36.4808,-333.3585"/>
</g>
<!-- Node5 -->
<g id="node6" class="node">
<title>Node5</title>
<g id="a_node6"><a xlink:href="classprt_1_1_cache_object.html" target="_top" xlink:title="prt::CacheObject">
<polygon fill="none" stroke="#000000" points="123.5,-456.5 123.5,-475.5 214.5,-475.5 214.5,-456.5 123.5,-456.5"/>
<text text-anchor="middle" x="169" y="-463.5" font-family="Helvetica,sans-Serif" font-size="10.00" fill="#000000">prt::CacheObject</text>
</a>
</g>
</g>
<!-- Node0&#45;&gt;Node5 -->
<g id="edge5" class="edge">
<title>Node0&#45;&gt;Node5</title>
<path fill="none" stroke="#191970" d="M35.4355,-333.5789C43.0764,-362.7463 61.539,-417.3454 98,-447 105.3255,-452.958 114.3485,-457.0591 123.4755,-459.879"/>
<polygon fill="#191970" stroke="#191970" points="38.8059,-332.6273 33.022,-323.7505 32.0079,-334.2967 38.8059,-332.6273"/>
</g>
<!-- Node6 -->
<g id="node7" class="node">
<title>Node6</title>
<g id="a_node7"><a xlink:href="classprt_1_1_console_log_handler.html" target="_top" xlink:title="prt::ConsoleLogHandler">
<polygon fill="none" stroke="#000000" points="109.5,-418.5 109.5,-437.5 228.5,-437.5 228.5,-418.5 109.5,-418.5"/>
<text text-anchor="middle" x="169" y="-425.5" font-family="Helvetica,sans-Serif" font-size="10.00" fill="#000000">prt::ConsoleLogHandler</text>
</a>
</g>
</g>
<!-- Node0&#45;&gt;Node6 -->
<g id="edge6" class="edge">
<title>Node0&#45;&gt;Node6</title>
<path fill="none" stroke="#191970" d="M39.3854,-332.952C49.9444,-354.6109 70.1335,-389.5645 98,-409 103.547,-412.8688 109.8404,-415.95 116.3334,-418.4039"/>
<polygon fill="#191970" stroke="#191970" points="42.5033,-331.3565 35.1011,-323.7764 36.1606,-334.3181 42.5033,-331.3565"/>
</g>
<!-- Node7 -->
<g id="node8" class="node">
<title>Node7</title>
<g id="a_node8"><a xlink:href="classprt_1_1_decoder_info.html" target="_top" xlink:title="prt::DecoderInfo">
<polygon fill="none" stroke="#000000" points="125.5,-380.5 125.5,-399.5 212.5,-399.5 212.5,-380.5 125.5,-380.5"/>
<text text-anchor="middle" x="169" y="-387.5" font-family="Helvetica,sans-Serif" font-size="10.00" fill="#000000">prt::DecoderInfo</text>
</a>
</g>
</g>
<!-- Node0&#45;&gt;Node7 -->
<g id="edge7" class="edge">
<title>Node0&#45;&gt;Node7</title>
<path fill="none" stroke="#191970" d="M46.6093,-330.8554C59.3053,-343.6161 78.2896,-360.6582 98,-371 106.4744,-375.4464 116.0773,-378.9183 125.4202,-381.605"/>
<polygon fill="#191970" stroke="#191970" points="49.0306,-328.3243 39.5665,-323.5616 43.9948,-333.1866 49.0306,-328.3243"/>
</g>
<!-- Node8 -->
<g id="node9" class="node">
<title>Node8</title>
<g id="a_node9"><a xlink:href="classprt_1_1_encoder_info.html" target="_top" xlink:title="prt::EncoderInfo">
<polygon fill="none" stroke="#000000" points="126,-342.5 126,-361.5 212,-361.5 212,-342.5 126,-342.5"/>
<text text-anchor="middle" x="169" y="-349.5" font-family="Helvetica,sans-Serif" font-size="10.00" fill="#000000">prt::EncoderInfo</text>
</a>
</g>
</g>
<!-- Node0&#45;&gt;Node8 -->
<g id="edge8" class="edge">
<title>Node0&#45;&gt;Node8</title>
<path fill="none" stroke="#191970" d="M72.1197,-325.7649C80.6673,-328.1812 89.6222,-330.6913 98,-333 109.3174,-336.1188 121.6701,-339.4499 132.8524,-342.4378"/>
<polygon fill="#191970" stroke="#191970" points="72.9073,-322.3503 62.3318,-322.9891 70.9974,-329.0847 72.9073,-322.3503"/>
</g>
<!-- Node9 -->
<g id="node10" class="node">
<title>Node9</title>
<g id="a_node10"><a xlink:href="classprt_1_1_file_log_handler.html" target="_top" xlink:title="prt::FileLogHandler">
<polygon fill="none" stroke="#000000" points="119.5,-304.5 119.5,-323.5 218.5,-323.5 218.5,-304.5 119.5,-304.5"/>
<text text-anchor="middle" x="169" y="-311.5" font-family="Helvetica,sans-Serif" font-size="10.00" fill="#000000">prt::FileLogHandler</text>
</a>
</g>
</g>
<!-- Node0&#45;&gt;Node9 -->
<g id="edge9" class="edge">
<title>Node0&#45;&gt;Node9</title>
<path fill="none" stroke="#191970" d="M72.6398,-314C87.3682,-314 104.0811,-314 119.4043,-314"/>
<polygon fill="#191970" stroke="#191970" points="72.3144,-310.5001 62.3143,-314 72.3143,-317.5001 72.3144,-310.5001"/>
</g>
<!-- Node10 -->
<g id="node11" class="node">
<title>Node10</title>
<g id="a_node11"><a xlink:href="classprt_1_1_file_output_callbacks.html" target="_top" xlink:title="prt::FileOutputCallbacks">
<polygon fill="none" stroke="#000000" points="108,-266.5 108,-285.5 230,-285.5 230,-266.5 108,-266.5"/>
<text text-anchor="middle" x="169" y="-273.5" font-family="Helvetica,sans-Serif" font-size="10.00" fill="#000000">prt::FileOutputCallbacks</text>
</a>
</g>
</g>
<!-- Node0&#45;&gt;Node10 -->
<g id="edge10" class="edge">
<title>Node0&#45;&gt;Node10</title>
<path fill="none" stroke="#191970" d="M72.1197,-302.2351C80.6673,-299.8188 89.6222,-297.3087 98,-295 109.3174,-291.8812 121.6701,-288.5501 132.8524,-285.5622"/>
<polygon fill="#191970" stroke="#191970" points="70.9974,-298.9153 62.3318,-305.0109 72.9073,-305.6497 70.9974,-298.9153"/>
</g>
<!-- Node11 -->
<g id="node12" class="node">
<title>Node11</title>
<g id="a_node12"><a xlink:href="classprt_1_1_initial_shape.html" target="_top" xlink:title="prt::InitialShape">
<polygon fill="none" stroke="#000000" points="126.5,-228.5 126.5,-247.5 211.5,-247.5 211.5,-228.5 126.5,-228.5"/>
<text text-anchor="middle" x="169" y="-235.5" font-family="Helvetica,sans-Serif" font-size="10.00" fill="#000000">prt::InitialShape</text>
</a>
</g>
</g>
<!-- Node0&#45;&gt;Node11 -->
<g id="edge11" class="edge">
<title>Node0&#45;&gt;Node11</title>
<path fill="none" stroke="#191970" d="M46.6093,-297.1446C59.3053,-284.3839 78.2896,-267.3418 98,-257 106.7004,-252.435 116.5903,-248.8972 126.167,-246.1817"/>
<polygon fill="#191970" stroke="#191970" points="43.9948,-294.8134 39.5665,-304.4384 49.0306,-299.6757 43.9948,-294.8134"/>
</g>
<!-- Node13 -->
<g id="node14" class="node">
<title>Node13</title>
<g id="a_node14"><a xlink:href="classprt_1_1_initial_shape_builder.html" target="_top" xlink:title="prt::InitialShapeBuilder">
<polygon fill="none" stroke="#000000" points="111.5,-190.5 111.5,-209.5 226.5,-209.5 226.5,-190.5 111.5,-190.5"/>
<text text-anchor="middle" x="169" y="-197.5" font-family="Helvetica,sans-Serif" font-size="10.00" fill="#000000">prt::InitialShapeBuilder</text>
</a>
</g>
</g>
<!-- Node0&#45;&gt;Node13 -->
<g id="edge13" class="edge">
<title>Node0&#45;&gt;Node13</title>
<path fill="none" stroke="#191970" d="M39.3854,-295.048C49.9444,-273.3891 70.1335,-238.4355 98,-219 103.547,-215.1312 109.8404,-212.05 116.3334,-209.5961"/>
<polygon fill="#191970" stroke="#191970" points="36.1606,-293.6819 35.1011,-304.2236 42.5033,-296.6435 36.1606,-293.6819"/>
</g>
<!-- Node14 -->
<g id="node15" class="node">
<title>Node14</title>
<g id="a_node15"><a xlink:href="classprt_1_1_memory_output_callbacks.html" target="_top" xlink:title="prt::MemoryOutputCallbacks">
<polygon fill="none" stroke="#000000" points="98,-152.5 98,-171.5 240,-171.5 240,-152.5 98,-152.5"/>
<text text-anchor="middle" x="169" y="-159.5" font-family="Helvetica,sans-Serif" font-size="10.00" fill="#000000">prt::MemoryOutputCallbacks</text>
</a>
</g>
</g>
<!-- Node0&#45;&gt;Node14 -->
<g id="edge14" class="edge">
<title>Node0&#45;&gt;Node14</title>
<path fill="none" stroke="#191970" d="M35.4355,-294.4211C43.0764,-265.2537 61.539,-210.6546 98,-181 102.7517,-177.1354 108.2176,-174.052 113.9628,-171.5928"/>
<polygon fill="#191970" stroke="#191970" points="32.0079,-293.7033 33.022,-304.2495 38.8059,-295.3727 32.0079,-293.7033"/>
</g>
<!-- Node15 -->
<g id="node16" class="node">
<title>Node15</title>
<g id="a_node16"><a xlink:href="classprt_1_1_occlusion_set.html" target="_top" xlink:title="prt::OcclusionSet">
<polygon fill="none" stroke="#000000" points="123,-114.5 123,-133.5 215,-133.5 215,-114.5 123,-114.5"/>
<text text-anchor="middle" x="169" y="-121.5" font-family="Helvetica,sans-Serif" font-size="10.00" fill="#000000">prt::OcclusionSet</text>
</a>
</g>
</g>
<!-- Node0&#45;&gt;Node15 -->
<g id="edge15" class="edge">
<title>Node0&#45;&gt;Node15</title>
<path fill="none" stroke="#191970" d="M33.0279,-294.036C37.742,-258.3219 52.7392,-183.4577 98,-143 104.9448,-136.7922 113.7022,-132.5798 122.6737,-129.7296"/>
<polygon fill="#191970" stroke="#191970" points="29.529,-293.8213 31.8333,-304.1625 36.4808,-294.6415 29.529,-293.8213"/>
</g>
<!-- Node16 -->
<g id="node17" class="node">
<title>Node16</title>
<g id="a_node17"><a xlink:href="classprt_1_1_resolve_map.html" target="_top" xlink:title="prt::ResolveMap">
<polygon fill="none" stroke="#000000" points="124.5,-76.5 124.5,-95.5 213.5,-95.5 213.5,-76.5 124.5,-76.5"/>
<text text-anchor="middle" x="169" y="-83.5" font-family="Helvetica,sans-Serif" font-size="10.00" fill="#000000">prt::ResolveMap</text>
</a>
</g>
</g>
<!-- Node0&#45;&gt;Node16 -->
<g id="edge16" class="edge">
<title>Node0&#45;&gt;Node16</title>
<path fill="none" stroke="#191970" d="M34.7913,-294.4318C44.2129,-247.7397 69.9608,-131.7047 98,-105 105.2072,-98.1358 114.6137,-93.6907 124.2103,-90.8277"/>
<polygon fill="#191970" stroke="#191970" points="31.3111,-293.9887 32.8016,-304.4782 38.1777,-295.3487 31.3111,-293.9887"/>
</g>
<!-- Node18 -->
<g id="node19" class="node">
<title>Node18</title>
<g id="a_node19"><a xlink:href="classprt_1_1_resolve_map_builder.html" target="_top" xlink:title="prt::ResolveMapBuilder">
<polygon fill="none" stroke="#000000" points="109.5,-38.5 109.5,-57.5 228.5,-57.5 228.5,-38.5 109.5,-38.5"/>
<text text-anchor="middle" x="169" y="-45.5" font-family="Helvetica,sans-Serif" font-size="10.00" fill="#000000">prt::ResolveMapBuilder</text>
</a>
</g>
</g>
<!-- Node0&#45;&gt;Node18 -->
<g id="edge18" class="edge">
<title>Node0&#45;&gt;Node18</title>
<path fill="none" stroke="#191970" d="M33.7585,-294.4611C41.5516,-241.9559 65.3083,-99.5806 98,-67 101.8864,-63.1268 106.4703,-60.0187 111.4079,-57.528"/>
<polygon fill="#191970" stroke="#191970" points="30.2759,-294.0895 32.3037,-304.4884 37.2033,-295.0946 30.2759,-294.0895"/>
</g>
<!-- Node19 -->
<g id="node20" class="node">
<title>Node19</title>
<g id="a_node20"><a xlink:href="classprt_1_1_rule_file_info.html" target="_top" xlink:title="prt::RuleFileInfo">
<polygon fill="none" stroke="#000000" points="126,-.5 126,-19.5 212,-19.5 212,-.5 126,-.5"/>
<text text-anchor="middle" x="169" y="-7.5" font-family="Helvetica,sans-Serif" font-size="10.00" fill="#000000">prt::RuleFileInfo</text>
</a>
</g>
</g>
<!-- Node0&#45;&gt;Node19 -->
<g id="edge19" class="edge">
<title>Node0&#45;&gt;Node19</title>
<path fill="none" stroke="#191970" d="M33.0278,-294.1938C39.3721,-236.0437 60.6777,-67.4816 98,-29 105.3735,-21.3975 115.4291,-16.7275 125.6526,-13.8876"/>
<polygon fill="#191970" stroke="#191970" points="29.5323,-293.967 31.9582,-304.2804 36.4933,-294.7053 29.5323,-293.967"/>
</g>
<!-- Node12 -->
<g id="node13" class="node">
<title>Node12</title>
<g id="a_node13"><a xlink:href="classprtx_1_1_initial_shape.html" target="_top" xlink:title="prtx::InitialShape">
<polygon fill="none" stroke="#000000" points="278,-228.5 278,-247.5 368,-247.5 368,-228.5 278,-228.5"/>
<text text-anchor="middle" x="323" y="-235.5" font-family="Helvetica,sans-Serif" font-size="10.00" fill="#000000">prtx::InitialShape</text>
</a>
</g>
</g>
<!-- Node11&#45;&gt;Node12 -->
<g id="edge12" class="edge">
<title>Node11&#45;&gt;Node12</title>
<path fill="none" stroke="#191970" d="M222.0559,-238C240.2463,-238 260.4165,-238 277.9149,-238"/>
<polygon fill="#191970" stroke="#191970" points="221.8976,-234.5001 211.8976,-238 221.8976,-241.5001 221.8976,-234.5001"/>
</g>
<!-- Node17 -->
<g id="node18" class="node">
<title>Node17</title>
<g id="a_node18"><a xlink:href="classprtx_1_1_resolve_map.html" target="_top" xlink:title="prtx::ResolveMap">
<polygon fill="none" stroke="#000000" points="276,-76.5 276,-95.5 370,-95.5 370,-76.5 276,-76.5"/>
<text text-anchor="middle" x="323" y="-83.5" font-family="Helvetica,sans-Serif" font-size="10.00" fill="#000000">prtx::ResolveMap</text>
</a>
</g>
</g>
<!-- Node16&#45;&gt;Node17 -->
<g id="edge17" class="edge">
<title>Node16&#45;&gt;Node17</title>
<path fill="none" stroke="#191970" d="M223.8894,-86C240.8855,-86 259.4518,-86 275.8729,-86"/>
<polygon fill="#191970" stroke="#191970" points="223.5432,-82.5001 213.5432,-86 223.5431,-89.5001 223.5432,-82.5001"/>
</g>
</g>
</svg>
