<?xml version="1.0" encoding="UTF-8" standalone="no"?>
<!DOCTYPE svg PUBLIC "-//W3C//DTD SVG 1.1//EN"
 "http://www.w3.org/Graphics/SVG/1.1/DTD/svg11.dtd">
<!-- Generated by graphviz version 2.30.1 (20170916.1124)
 -->
<!-- Title: prtx::Texture Pages: 1 -->
<svg width="241pt" height="140pt"
 viewBox="0.00 0.00 241.00 140.00" xmlns="http://www.w3.org/2000/svg" xmlns:xlink="http://www.w3.org/1999/xlink">
<g id="graph0" class="graph" transform="scale(1 1) rotate(0) translate(4 136)">
<title>prtx::Texture</title>
<!-- Node1 -->
<g id="node1" class="node"><title>Node1</title>
<polygon fill="#bfbfbf" stroke="black" points="71,-0.5 71,-19.5 143,-19.5 143,-0.5 71,-0.5"/>
<text text-anchor="middle" x="107" y="-7.5" font-family="Helvetica,sans-Serif" font-size="10.00">prtx::Texture</text>
</g>
<!-- Node2 -->
<g id="node2" class="node"><title>Node2</title>
<g id="a_node2"><a xlink:href="classprtx_1_1_attributable.html" target="_top" xlink:title="prtx::Attributable">
<polygon fill="none" stroke="black" points="-0.5,-56.5 -0.5,-75.5 88.5,-75.5 88.5,-56.5 -0.5,-56.5"/>
<text text-anchor="middle" x="44" y="-63.5" font-family="Helvetica,sans-Serif" font-size="10.00">prtx::Attributable</text>
</a>
</g>
</g>
<!-- Node2&#45;&gt;Node1 -->
<g id="edge1" class="edge"><title>Node2&#45;&gt;Node1</title>
<path fill="none" stroke="midnightblue" d="M62.0399,-49.5372C73.2731,-39.9087 87.3191,-27.8694 96.6938,-19.8339"/>
<polygon fill="midnightblue" stroke="midnightblue" points="59.4368,-47.1586 54.122,-56.324 63.9924,-52.4734 59.4368,-47.1586"/>
</g>
<!-- Node3 -->
<g id="node3" class="node"><title>Node3</title>
<g id="a_node3"><a xlink:href="classprtx_1_1_comparable_content.html" target="_top" xlink:title="prtx::ComparableContent">
<polygon fill="none" stroke="black" points="107,-56.5 107,-75.5 233,-75.5 233,-56.5 107,-56.5"/>
<text text-anchor="middle" x="170" y="-63.5" font-family="Helvetica,sans-Serif" font-size="10.00">prtx::ComparableContent</text>
</a>
</g>
</g>
<!-- Node3&#45;&gt;Node1 -->
<g id="edge2" class="edge"><title>Node3&#45;&gt;Node1</title>
<path fill="none" stroke="midnightblue" d="M151.96,-49.5372C140.727,-39.9087 126.681,-27.8694 117.306,-19.8339"/>
<polygon fill="midnightblue" stroke="midnightblue" points="150.008,-52.4734 159.878,-56.324 154.563,-47.1586 150.008,-52.4734"/>
</g>
<!-- Node4 -->
<g id="node4" class="node"><title>Node4</title>
<g id="a_node4"><a xlink:href="classprtx_1_1_content.html" target="_top" xlink:title="prtx::Content">
<polygon fill="none" stroke="black" points="133,-112.5 133,-131.5 207,-131.5 207,-112.5 133,-112.5"/>
<text text-anchor="middle" x="170" y="-119.5" font-family="Helvetica,sans-Serif" font-size="10.00">prtx::Content</text>
</a>
</g>
</g>
<!-- Node4&#45;&gt;Node3 -->
<g id="edge3" class="edge"><title>Node4&#45;&gt;Node3</title>
<path fill="none" stroke="midnightblue" d="M170,-101.805C170,-92.9102 170,-82.7798 170,-75.7511"/>
<polygon fill="midnightblue" stroke="midnightblue" points="166.5,-102.083 170,-112.083 173.5,-102.083 166.5,-102.083"/>
</g>
</g>
</svg>
