<?xml version="1.0" encoding="UTF-8" standalone="no"?>
<!DOCTYPE svg PUBLIC "-//W3C//DTD SVG 1.1//EN"
 "http://www.w3.org/Graphics/SVG/1.1/DTD/svg11.dtd">
<!-- Generated by graphviz version 2.26.0 (20091210.2329)
 -->
<!-- Title: prtx::Texture Pages: 1 -->
<svg width="240pt" height="146pt"
 viewBox="0.00 0.00 240.00 146.00" xmlns="http://www.w3.org/2000/svg" xmlns:xlink="http://www.w3.org/1999/xlink">
<g id="graph1" class="graph" transform="scale(1 1) rotate(0) translate(4 142)">
<title>prtx::Texture</title>
<!-- Node1 -->
<g id="node1" class="node"><title>Node1</title>
<polygon fill="#bfbfbf" stroke="black" points="70,-0.5 70,-21.5 142,-21.5 142,-0.5 70,-0.5"/>
<text text-anchor="middle" x="106" y="-8.5" font-family="Helvetica,sans-Serif" font-size="10.00">prtx::Texture</text>
</g>
<!-- Node2 -->
<g id="node2" class="node"><title>Node2</title>
<a xlink:href="classprtx_1_1_attributable.html" target="_top" xlink:title="prtx::Attributable">
<polygon fill="none" stroke="black" points="-0.5,-58.5 -0.5,-79.5 88.5,-79.5 88.5,-58.5 -0.5,-58.5"/>
<text text-anchor="middle" x="44" y="-66.5" font-family="Helvetica,sans-Serif" font-size="10.00">prtx::Attributable</text>
</a>
</g>
<!-- Node2&#45;&gt;Node1 -->
<g id="edge2" class="edge"><title>Node2&#45;&gt;Node1</title>
<path fill="none" stroke="midnightblue" d="M62.8085,-51.405C73.2166,-41.6683 85.8058,-29.8914 94.7003,-21.5707"/>
<polygon fill="midnightblue" stroke="midnightblue" points="60.2834,-48.9743 55.3718,-58.3619 65.0656,-54.0863 60.2834,-48.9743"/>
</g>
<!-- Node3 -->
<g id="node4" class="node"><title>Node3</title>
<a xlink:href="classprtx_1_1_comparable_content.html" target="_top" xlink:title="prtx::ComparableContent">
<polygon fill="none" stroke="black" points="106,-58.5 106,-79.5 232,-79.5 232,-58.5 106,-58.5"/>
<text text-anchor="middle" x="169" y="-66.5" font-family="Helvetica,sans-Serif" font-size="10.00">prtx::ComparableContent</text>
</a>
</g>
<!-- Node3&#45;&gt;Node1 -->
<g id="edge4" class="edge"><title>Node3&#45;&gt;Node1</title>
<path fill="none" stroke="midnightblue" d="M149.888,-51.405C139.312,-41.6683 126.52,-29.8914 117.482,-21.5707"/>
<polygon fill="midnightblue" stroke="midnightblue" points="147.717,-54.1637 157.445,-58.3619 152.458,-49.0138 147.717,-54.1637"/>
</g>
<!-- Node4 -->
<g id="node6" class="node"><title>Node4</title>
<a xlink:href="classprtx_1_1_content.html" target="_top" xlink:title="prtx::Content">
<polygon fill="none" stroke="black" points="132,-116.5 132,-137.5 206,-137.5 206,-116.5 132,-116.5"/>
<text text-anchor="middle" x="169" y="-124.5" font-family="Helvetica,sans-Serif" font-size="10.00">prtx::Content</text>
</a>
</g>
<!-- Node4&#45;&gt;Node3 -->
<g id="edge6" class="edge"><title>Node4&#45;&gt;Node3</title>
<path fill="none" stroke="midnightblue" d="M169,-106.191C169,-97.1684 169,-86.9941 169,-79.5707"/>
<polygon fill="midnightblue" stroke="midnightblue" points="165.5,-106.362 169,-116.362 172.5,-106.362 165.5,-106.362"/>
</g>
</g>
</svg>
