<?xml version="1.0" encoding="UTF-8" standalone="no"?>
<!DOCTYPE svg PUBLIC "-//W3C//DTD SVG 1.1//EN"
 "http://www.w3.org/Graphics/SVG/1.1/DTD/svg11.dtd">
<!-- Generated by graphviz version 2.30.1 (20170916.1124)
 -->
<!-- Title: prtx::BuiltinAttributesSetters Pages: 1 -->
<svg width="150pt" height="152pt"
 viewBox="0.00 0.00 150.00 152.00" xmlns="http://www.w3.org/2000/svg" xmlns:xlink="http://www.w3.org/1999/xlink">
<g id="graph0" class="graph" transform="scale(1 1) rotate(0) translate(4 148)">
<title>prtx::BuiltinAttributesSetters</title>
<!-- Node1 -->
<g id="node1" class="node"><title>Node1</title>
<polygon fill="#bfbfbf" stroke="black" points="1,-124.5 1,-143.5 141,-143.5 141,-124.5 1,-124.5"/>
<text text-anchor="middle" x="71" y="-131.5" font-family="Helvetica,sans-Serif" font-size="10.00">prtx::BuiltinAttributesSetters</text>
</g>
<!-- Node2 -->
<g id="node2" class="node"><title>Node2</title>
<g id="a_node2"><a xlink:href="classprtx_1_1_builtin_material_attributes_builder.html" target="_top" xlink:title="prtx::BuiltinMaterialAttributes\lBuilder">
<polygon fill="none" stroke="black" points="-0.5,-57 -0.5,-87 142.5,-87 142.5,-57 -0.5,-57"/>
<text text-anchor="start" x="7.5" y="-75" font-family="Helvetica,sans-Serif" font-size="10.00">prtx::BuiltinMaterialAttributes</text>
<text text-anchor="middle" x="71" y="-64" font-family="Helvetica,sans-Serif" font-size="10.00">Builder</text>
</a>
</g>
</g>
<!-- Node1&#45;&gt;Node2 -->
<g id="edge1" class="edge"><title>Node1&#45;&gt;Node2</title>
<path fill="none" stroke="midnightblue" d="M71,-114.371C71,-105.585 71,-95.2721 71,-87.1408"/>
<polygon fill="midnightblue" stroke="midnightblue" points="67.5001,-114.403 71,-124.403 74.5001,-114.403 67.5001,-114.403"/>
</g>
<!-- Node3 -->
<g id="node3" class="node"><title>Node3</title>
<g id="a_node3"><a xlink:href="classprtx_1_1_material_builder.html" target="_top" xlink:title="prtx::MaterialBuilder">
<polygon fill="none" stroke="black" points="19,-0.5 19,-19.5 123,-19.5 123,-0.5 19,-0.5"/>
<text text-anchor="middle" x="71" y="-7.5" font-family="Helvetica,sans-Serif" font-size="10.00">prtx::MaterialBuilder</text>
</a>
</g>
</g>
<!-- Node2&#45;&gt;Node3 -->
<g id="edge2" class="edge"><title>Node2&#45;&gt;Node3</title>
<path fill="none" stroke="midnightblue" d="M71,-46.5858C71,-37.0743 71,-26.7864 71,-19.7305"/>
<polygon fill="midnightblue" stroke="midnightblue" points="67.5001,-46.7808 71,-56.7808 74.5001,-46.7809 67.5001,-46.7808"/>
</g>
</g>
</svg>
