<?xml version="1.0" encoding="UTF-8" standalone="no"?>
<!DOCTYPE svg PUBLIC "-//W3C//DTD SVG 1.1//EN"
 "http://www.w3.org/Graphics/SVG/1.1/DTD/svg11.dtd">
<!-- Generated by graphviz version 2.26.0 (20091210.2329)
 -->
<!-- Title: prtx::BuiltinMaterialAttributesBuilder Pages: 1 -->
<svg width="150pt" height="218pt"
 viewBox="0.00 0.00 150.00 218.00" xmlns="http://www.w3.org/2000/svg" xmlns:xlink="http://www.w3.org/1999/xlink">
<g id="graph1" class="graph" transform="scale(1 1) rotate(0) translate(4 214)">
<title>prtx::BuiltinMaterialAttributesBuilder</title>
<!-- Node1 -->
<g id="node1" class="node"><title>Node1</title>
<polygon fill="#bfbfbf" stroke="black" points="-0.5,-59 -0.5,-93 142.5,-93 142.5,-59 -0.5,-59"/>
<text text-anchor="start" x="7.5" y="-80" font-family="Helvetica,sans-Serif" font-size="10.00">prtx::BuiltinMaterialAttributes</text>
<text text-anchor="middle" x="71" y="-67" font-family="Helvetica,sans-Serif" font-size="10.00">Builder</text>
</g>
<!-- Node4 -->
<g id="node7" class="node"><title>Node4</title>
<a xlink:href="classprtx_1_1_material_builder.html" target="_top" xlink:title="prtx::MaterialBuilder">
<polygon fill="none" stroke="black" points="19,-0.5 19,-21.5 123,-21.5 123,-0.5 19,-0.5"/>
<text text-anchor="middle" x="71" y="-8.5" font-family="Helvetica,sans-Serif" font-size="10.00">prtx::MaterialBuilder</text>
</a>
</g>
<!-- Node1&#45;&gt;Node4 -->
<g id="edge6" class="edge"><title>Node1&#45;&gt;Node4</title>
<path fill="none" stroke="midnightblue" d="M71,-48.6879C71,-39.2415 71,-29.1949 71,-21.8521"/>
<polygon fill="midnightblue" stroke="midnightblue" points="67.5001,-48.922 71,-58.922 74.5001,-48.922 67.5001,-48.922"/>
</g>
<!-- Node2 -->
<g id="node2" class="node"><title>Node2</title>
<a xlink:href="classprtx_1_1_builtin_attributes_setters.html" target="_top" xlink:title="prtx::BuiltinAttributesSetters">
<polygon fill="none" stroke="black" points="1,-130.5 1,-151.5 141,-151.5 141,-130.5 1,-130.5"/>
<text text-anchor="middle" x="71" y="-138.5" font-family="Helvetica,sans-Serif" font-size="10.00">prtx::BuiltinAttributesSetters</text>
</a>
</g>
<!-- Node2&#45;&gt;Node1 -->
<g id="edge2" class="edge"><title>Node2&#45;&gt;Node1</title>
<path fill="none" stroke="midnightblue" d="M71,-120.131C71,-111.405 71,-101.391 71,-93.1099"/>
<polygon fill="midnightblue" stroke="midnightblue" points="67.5001,-120.267 71,-130.267 74.5001,-120.267 67.5001,-120.267"/>
</g>
<!-- Node3 -->
<g id="node4" class="node"><title>Node3</title>
<a xlink:href="classprtx_1_1_builtin_attributes.html" target="_top" xlink:title="prtx::BuiltinAttributes">
<polygon fill="none" stroke="black" points="17,-188.5 17,-209.5 125,-209.5 125,-188.5 17,-188.5"/>
<text text-anchor="middle" x="71" y="-196.5" font-family="Helvetica,sans-Serif" font-size="10.00">prtx::BuiltinAttributes</text>
</a>
</g>
<!-- Node3&#45;&gt;Node2 -->
<g id="edge4" class="edge"><title>Node3&#45;&gt;Node2</title>
<path fill="none" stroke="midnightblue" d="M71,-178.191C71,-169.168 71,-158.994 71,-151.571"/>
<polygon fill="midnightblue" stroke="midnightblue" points="67.5001,-178.362 71,-188.362 74.5001,-178.362 67.5001,-178.362"/>
</g>
</g>
</svg>
