<?xml version="1.0" encoding="UTF-8" standalone="no"?>
<!DOCTYPE svg PUBLIC "-//W3C//DTD SVG 1.1//EN"
 "http://www.w3.org/Graphics/SVG/1.1/DTD/svg11.dtd">
<!-- Generated by graphviz version 2.30.1 (20170916.1124)
 -->
<!-- Title: prt::Object Pages: 1 -->
<!--zoomable 636 -->
<svg id="main" version="1.1" xmlns="http://www.w3.org/2000/svg" xmlns:xlink="http://www.w3.org/1999/xlink" xml:space="preserve" onload="init(evt)">
<style type="text/css"><![CDATA[
.edge:hover path { stroke: red; }
.edge:hover polygon { stroke: red; fill: red; }
]]></style>
<script type="text/javascript"><![CDATA[
var edges = document.getElementsByTagName('g');
if (edges && edges.length) {
  for (var i=0;i<edges.length;i++) {
    if (edges[i].id.substr(0,4)=='edge') {
      edges[i].setAttribute('class','edge');
    }
  }
}
]]></script>
        <defs>
                <circle id="rim" cx="0" cy="0" r="7"/>
                <circle id="rim2" cx="0" cy="0" r="3.5"/>
                <g id="zoomPlus">
                        <use xlink:href="#rim" fill="#404040">
                                <set attributeName="fill" to="#808080" begin="zoomplus.mouseover" end="zoomplus.mouseout"/>
                        </use>
                        <path d="M-4,0h8M0,-4v8" fill="none" stroke="white" stroke-width="1.5" pointer-events="none"/>
                </g>
                <g id="zoomMin">
                        <use xlink:href="#rim" fill="#404040">
                                <set attributeName="fill" to="#808080" begin="zoomminus.mouseover" end="zoomminus.mouseout"/>
                        </use>
                        <path d="M-4,0h8" fill="none" stroke="white" stroke-width="1.5" pointer-events="none"/>
                </g>
                <g id="dirArrow">
                        <path fill="none" stroke="white" stroke-width="1.5" d="M0,-3.0v7 M-2.5,-0.5L0,-3.0L2.5,-0.5"/>
                </g>
               <g id="resetDef">
                       <use xlink:href="#rim2" fill="#404040">
                               <set attributeName="fill" to="#808080" begin="reset.mouseover" end="reset.mouseout"/>
                       </use>
               </g>
        </defs>

<script type="text/javascript">
var viewWidth = 378;
var viewHeight = 636;
var sectionId = 'dynsection-0';
</script>
<script xlink:href="svgpan.js"/>
<svg id="graph" class="graph">
<g id="viewport">
<title>prt::Object</title>
<!-- Node1 -->
<g id="node1" class="node"><title>Node1</title>
<polygon fill="#bfbfbf" stroke="black" points="0,-304.5 0,-323.5 62,-323.5 62,-304.5 0,-304.5"/>
<text text-anchor="middle" x="31" y="-311.5" font-family="Helvetica,sans-Serif" font-size="10.00">prt::Object</text>
</g>
<!-- Node2 -->
<g id="node2" class="node"><title>Node2</title>
<g id="a_node2"><a xlink:href="classprt_1_1_annotation.html" target="_top" xlink:title="prt::Annotation">
<polygon fill="none" stroke="black" points="129,-608.5 129,-627.5 209,-627.5 209,-608.5 129,-608.5"/>
<text text-anchor="middle" x="169" y="-615.5" font-family="Helvetica,sans-Serif" font-size="10.00">prt::Annotation</text>
</a>
</g>
</g>
<!-- Node1&#45;&gt;Node2 -->
<g id="edge1" class="edge"><title>Node1&#45;&gt;Node2</title>
<path fill="none" stroke="midnightblue" d="M33.9608,-333.797C40.1079,-391.922 60.8394,-560.42 98,-599 106.124,-607.435 117.584,-612.248 128.883,-614.959"/>
<polygon fill="midnightblue" stroke="midnightblue" points="37.4288,-333.305 32.9253,-323.715 30.4654,-334.02 37.4288,-333.305"/>
</g>
<!-- Node3 -->
<g id="node3" class="node"><title>Node3</title>
<g id="a_node3"><a xlink:href="classprt_1_1_annotation_argument.html" target="_top" xlink:title="prt::AnnotationArgument">
<polygon fill="none" stroke="black" points="108,-570.5 108,-589.5 230,-589.5 230,-570.5 108,-570.5"/>
<text text-anchor="middle" x="169" y="-577.5" font-family="Helvetica,sans-Serif" font-size="10.00">prt::AnnotationArgument</text>
</a>
</g>
</g>
<!-- Node1&#45;&gt;Node3 -->
<g id="edge2" class="edge"><title>Node1&#45;&gt;Node3</title>
<path fill="none" stroke="midnightblue" d="M31.1234,-333.93C30.218,-380.54 34.7596,-497.51 98,-561 101.821,-564.836 106.334,-567.92 111.198,-570.396"/>
<polygon fill="midnightblue" stroke="midnightblue" points="34.6298,-333.774 31.4385,-323.672 27.6331,-333.559 34.6298,-333.774"/>
</g>
<!-- Node4 -->
<g id="node4" class="node"><title>Node4</title>
<g id="a_node4"><a xlink:href="classprt_1_1_attribute_map.html" target="_top" xlink:title="prt::AttributeMap">
<polygon fill="none" stroke="black" points="124.5,-532.5 124.5,-551.5 213.5,-551.5 213.5,-532.5 124.5,-532.5"/>
<text text-anchor="middle" x="169" y="-539.5" font-family="Helvetica,sans-Serif" font-size="10.00">prt::AttributeMap</text>
</a>
</g>
</g>
<!-- Node1&#45;&gt;Node4 -->
<g id="edge3" class="edge"><title>Node1&#45;&gt;Node4</title>
<path fill="none" stroke="midnightblue" d="M32.2729,-333.64C33.9466,-374.881 43.8038,-470.973 98,-523 105.176,-529.889 114.59,-534.336 124.176,-537.191"/>
<polygon fill="midnightblue" stroke="midnightblue" points="35.7688,-333.441 31.9878,-323.544 28.7716,-333.639 35.7688,-333.441"/>
</g>
<!-- Node5 -->
<g id="node5" class="node"><title>Node5</title>
<g id="a_node5"><a xlink:href="classprt_1_1_attribute_map_builder.html" target="_top" xlink:title="prt::AttributeMapBuilder">
<polygon fill="none" stroke="black" points="109.5,-494.5 109.5,-513.5 228.5,-513.5 228.5,-494.5 109.5,-494.5"/>
<text text-anchor="middle" x="169" y="-501.5" font-family="Helvetica,sans-Serif" font-size="10.00">prt::AttributeMapBuilder</text>
</a>
</g>
</g>
<!-- Node1&#45;&gt;Node5 -->
<g id="edge4" class="edge"><title>Node1&#45;&gt;Node5</title>
<path fill="none" stroke="midnightblue" d="M33.9166,-333.941C38.4306,-369.619 53.0035,-444.427 98,-485 102.302,-488.879 107.318,-491.977 112.653,-494.451"/>
<polygon fill="midnightblue" stroke="midnightblue" points="37.3746,-333.372 32.7786,-323.826 30.4185,-334.154 37.3746,-333.372"/>
</g>
<!-- Node6 -->
<g id="node6" class="node"><title>Node6</title>
<g id="a_node6"><a xlink:href="classprt_1_1_cache_object.html" target="_top" xlink:title="prt::CacheObject">
<polygon fill="none" stroke="black" points="123.5,-456.5 123.5,-475.5 214.5,-475.5 214.5,-456.5 123.5,-456.5"/>
<text text-anchor="middle" x="169" y="-463.5" font-family="Helvetica,sans-Serif" font-size="10.00">prt::CacheObject</text>
</a>
</g>
</g>
<!-- Node1&#45;&gt;Node6 -->
<g id="edge5" class="edge"><title>Node1&#45;&gt;Node6</title>
<path fill="none" stroke="midnightblue" d="M36.2955,-333.558C43.7264,-362.697 61.7905,-417.261 98,-447 105.298,-452.994 114.328,-457.107 123.449,-459.926"/>
<polygon fill="midnightblue" stroke="midnightblue" points="39.6782,-332.654 33.9525,-323.739 32.8694,-334.278 39.6782,-332.654"/>
</g>
<!-- Node7 -->
<g id="node7" class="node"><title>Node7</title>
<g id="a_node7"><a xlink:href="classprt_1_1_console_log_handler.html" target="_top" xlink:title="prt::ConsoleLogHandler">
<polygon fill="none" stroke="black" points="109.5,-418.5 109.5,-437.5 228.5,-437.5 228.5,-418.5 109.5,-418.5"/>
<text text-anchor="middle" x="169" y="-425.5" font-family="Helvetica,sans-Serif" font-size="10.00">prt::ConsoleLogHandler</text>
</a>
</g>
</g>
<!-- Node1&#45;&gt;Node7 -->
<g id="edge6" class="edge"><title>Node1&#45;&gt;Node7</title>
<path fill="none" stroke="midnightblue" d="M40.1986,-332.934C50.5416,-354.576 70.3741,-389.513 98,-409 103.454,-412.847 109.65,-415.915 116.047,-418.363"/>
<polygon fill="midnightblue" stroke="midnightblue" points="43.3478,-331.404 36.0053,-323.766 36.9821,-334.316 43.3478,-331.404"/>
</g>
<!-- Node8 -->
<g id="node8" class="node"><title>Node8</title>
<g id="a_node8"><a xlink:href="classprt_1_1_decoder_info.html" target="_top" xlink:title="prt::DecoderInfo">
<polygon fill="none" stroke="black" points="125.5,-380.5 125.5,-399.5 212.5,-399.5 212.5,-380.5 125.5,-380.5"/>
<text text-anchor="middle" x="169" y="-387.5" font-family="Helvetica,sans-Serif" font-size="10.00">prt::DecoderInfo</text>
</a>
</g>
</g>
<!-- Node1&#45;&gt;Node8 -->
<g id="edge7" class="edge"><title>Node1&#45;&gt;Node8</title>
<path fill="none" stroke="midnightblue" d="M47.3388,-330.845C59.8248,-343.601 78.5164,-360.64 98,-371 106.45,-375.493 116.052,-378.993 125.378,-381.693"/>
<polygon fill="midnightblue" stroke="midnightblue" points="49.8393,-328.396 40.4148,-323.555 44.7636,-333.216 49.8393,-328.396"/>
</g>
<!-- Node9 -->
<g id="node9" class="node"><title>Node9</title>
<g id="a_node9"><a xlink:href="classprt_1_1_encoder_info.html" target="_top" xlink:title="prt::EncoderInfo">
<polygon fill="none" stroke="black" points="126,-342.5 126,-361.5 212,-361.5 212,-342.5 126,-342.5"/>
<text text-anchor="middle" x="169" y="-349.5" font-family="Helvetica,sans-Serif" font-size="10.00">prt::EncoderInfo</text>
</a>
</g>
</g>
<!-- Node1&#45;&gt;Node9 -->
<g id="edge8" class="edge"><title>Node1&#45;&gt;Node9</title>
<path fill="none" stroke="midnightblue" d="M72.0002,-325.621C80.5718,-328.082 89.5814,-330.646 98,-333 109.157,-336.12 121.336,-339.451 132.36,-342.439"/>
<polygon fill="midnightblue" stroke="midnightblue" points="72.7787,-322.203 62.2006,-322.799 70.8413,-328.93 72.7787,-322.203"/>
</g>
<!-- Node10 -->
<g id="node10" class="node"><title>Node10</title>
<g id="a_node10"><a xlink:href="classprt_1_1_file_log_handler.html" target="_top" xlink:title="prt::FileLogHandler">
<polygon fill="none" stroke="black" points="119.5,-304.5 119.5,-323.5 218.5,-323.5 218.5,-304.5 119.5,-304.5"/>
<text text-anchor="middle" x="169" y="-311.5" font-family="Helvetica,sans-Serif" font-size="10.00">prt::FileLogHandler</text>
</a>
</g>
</g>
<!-- Node1&#45;&gt;Node10 -->
<g id="edge9" class="edge"><title>Node1&#45;&gt;Node10</title>
<path fill="none" stroke="midnightblue" d="M72.509,-314C87.2635,-314 104.094,-314 119.474,-314"/>
<polygon fill="midnightblue" stroke="midnightblue" points="72.1828,-310.5 62.1828,-314 72.1828,-317.5 72.1828,-310.5"/>
</g>
<!-- Node11 -->
<g id="node11" class="node"><title>Node11</title>
<g id="a_node11"><a xlink:href="classprt_1_1_file_output_callbacks.html" target="_top" xlink:title="prt::FileOutputCallbacks">
<polygon fill="none" stroke="black" points="108,-266.5 108,-285.5 230,-285.5 230,-266.5 108,-266.5"/>
<text text-anchor="middle" x="169" y="-273.5" font-family="Helvetica,sans-Serif" font-size="10.00">prt::FileOutputCallbacks</text>
</a>
</g>
</g>
<!-- Node1&#45;&gt;Node11 -->
<g id="edge10" class="edge"><title>Node1&#45;&gt;Node11</title>
<path fill="none" stroke="midnightblue" d="M72.0002,-302.379C80.5718,-299.918 89.5814,-297.354 98,-295 109.157,-291.88 121.336,-288.549 132.36,-285.561"/>
<polygon fill="midnightblue" stroke="midnightblue" points="70.8413,-299.07 62.2006,-305.201 72.7787,-305.797 70.8413,-299.07"/>
</g>
<!-- Node12 -->
<g id="node12" class="node"><title>Node12</title>
<g id="a_node12"><a xlink:href="classprt_1_1_initial_shape.html" target="_top" xlink:title="prt::InitialShape">
<polygon fill="none" stroke="black" points="126.5,-228.5 126.5,-247.5 211.5,-247.5 211.5,-228.5 126.5,-228.5"/>
<text text-anchor="middle" x="169" y="-235.5" font-family="Helvetica,sans-Serif" font-size="10.00">prt::InitialShape</text>
</a>
</g>
</g>
<!-- Node1&#45;&gt;Node12 -->
<g id="edge11" class="edge"><title>Node1&#45;&gt;Node12</title>
<path fill="none" stroke="midnightblue" d="M47.3388,-297.155C59.8248,-284.399 78.5164,-267.36 98,-257 106.784,-252.33 116.812,-248.732 126.481,-245.991"/>
<polygon fill="midnightblue" stroke="midnightblue" points="44.7636,-294.784 40.4148,-304.445 49.8393,-299.604 44.7636,-294.784"/>
</g>
<!-- Node14 -->
<g id="node14" class="node"><title>Node14</title>
<g id="a_node14"><a xlink:href="classprt_1_1_initial_shape_builder.html" target="_top" xlink:title="prt::InitialShapeBuilder">
<polygon fill="none" stroke="black" points="111.5,-190.5 111.5,-209.5 226.5,-209.5 226.5,-190.5 111.5,-190.5"/>
<text text-anchor="middle" x="169" y="-197.5" font-family="Helvetica,sans-Serif" font-size="10.00">prt::InitialShapeBuilder</text>
</a>
</g>
</g>
<!-- Node1&#45;&gt;Node14 -->
<g id="edge13" class="edge"><title>Node1&#45;&gt;Node14</title>
<path fill="none" stroke="midnightblue" d="M40.1986,-295.066C50.5416,-273.424 70.3741,-238.487 98,-219 103.454,-215.153 109.65,-212.085 116.047,-209.637"/>
<polygon fill="midnightblue" stroke="midnightblue" points="36.9821,-293.684 36.0053,-304.234 43.3478,-296.596 36.9821,-293.684"/>
</g>
<!-- Node15 -->
<g id="node15" class="node"><title>Node15</title>
<g id="a_node15"><a xlink:href="classprt_1_1_memory_output_callbacks.html" target="_top" xlink:title="prt::MemoryOutputCallbacks">
<polygon fill="none" stroke="black" points="98,-152.5 98,-171.5 240,-171.5 240,-152.5 98,-152.5"/>
<text text-anchor="middle" x="169" y="-159.5" font-family="Helvetica,sans-Serif" font-size="10.00">prt::MemoryOutputCallbacks</text>
</a>
</g>
</g>
<!-- Node1&#45;&gt;Node15 -->
<g id="edge14" class="edge"><title>Node1&#45;&gt;Node15</title>
<path fill="none" stroke="midnightblue" d="M36.2955,-294.442C43.7264,-265.303 61.7905,-210.739 98,-181 102.671,-177.164 108.051,-174.098 113.711,-171.649"/>
<polygon fill="midnightblue" stroke="midnightblue" points="32.8694,-293.722 33.9525,-304.261 39.6782,-295.346 32.8694,-293.722"/>
</g>
<!-- Node16 -->
<g id="node16" class="node"><title>Node16</title>
<g id="a_node16"><a xlink:href="classprt_1_1_occlusion_set.html" target="_top" xlink:title="prt::OcclusionSet">
<polygon fill="none" stroke="black" points="123,-114.5 123,-133.5 215,-133.5 215,-114.5 123,-114.5"/>
<text text-anchor="middle" x="169" y="-121.5" font-family="Helvetica,sans-Serif" font-size="10.00">prt::OcclusionSet</text>
</a>
</g>
</g>
<!-- Node1&#45;&gt;Node16 -->
<g id="edge15" class="edge"><title>Node1&#45;&gt;Node16</title>
<path fill="none" stroke="midnightblue" d="M33.9166,-294.059C38.4306,-258.381 53.0035,-183.573 98,-143 104.921,-136.76 113.689,-132.54 122.659,-129.693"/>
<polygon fill="midnightblue" stroke="midnightblue" points="30.4185,-293.846 32.7786,-304.174 37.3746,-294.628 30.4185,-293.846"/>
</g>
<!-- Node17 -->
<g id="node17" class="node"><title>Node17</title>
<g id="a_node17"><a xlink:href="classprt_1_1_resolve_map.html" target="_top" xlink:title="prt::ResolveMap">
<polygon fill="none" stroke="black" points="124.5,-76.5 124.5,-95.5 213.5,-95.5 213.5,-76.5 124.5,-76.5"/>
<text text-anchor="middle" x="169" y="-83.5" font-family="Helvetica,sans-Serif" font-size="10.00">prt::ResolveMap</text>
</a>
</g>
</g>
<!-- Node1&#45;&gt;Node17 -->
<g id="edge16" class="edge"><title>Node1&#45;&gt;Node17</title>
<path fill="none" stroke="midnightblue" d="M32.2729,-294.36C33.9466,-253.119 43.8038,-157.027 98,-105 105.176,-98.1107 114.59,-93.6641 124.176,-90.8085"/>
<polygon fill="midnightblue" stroke="midnightblue" points="28.7716,-294.361 31.9878,-304.456 35.7688,-294.559 28.7716,-294.361"/>
</g>
<!-- Node19 -->
<g id="node19" class="node"><title>Node19</title>
<g id="a_node19"><a xlink:href="classprt_1_1_resolve_map_builder.html" target="_top" xlink:title="prt::ResolveMapBuilder">
<polygon fill="none" stroke="black" points="109.5,-38.5 109.5,-57.5 228.5,-57.5 228.5,-38.5 109.5,-38.5"/>
<text text-anchor="middle" x="169" y="-45.5" font-family="Helvetica,sans-Serif" font-size="10.00">prt::ResolveMapBuilder</text>
</a>
</g>
</g>
<!-- Node1&#45;&gt;Node19 -->
<g id="edge18" class="edge"><title>Node1&#45;&gt;Node19</title>
<path fill="none" stroke="midnightblue" d="M31.1234,-294.07C30.218,-247.46 34.7596,-130.49 98,-67 101.821,-63.1636 106.334,-60.08 111.198,-57.6045"/>
<polygon fill="midnightblue" stroke="midnightblue" points="27.6331,-294.441 31.4385,-304.328 34.6298,-294.226 27.6331,-294.441"/>
</g>
<!-- Node20 -->
<g id="node20" class="node"><title>Node20</title>
<g id="a_node20"><a xlink:href="classprt_1_1_rule_file_info.html" target="_top" xlink:title="prt::RuleFileInfo">
<polygon fill="none" stroke="black" points="126,-0.5 126,-19.5 212,-19.5 212,-0.5 126,-0.5"/>
<text text-anchor="middle" x="169" y="-7.5" font-family="Helvetica,sans-Serif" font-size="10.00">prt::RuleFileInfo</text>
</a>
</g>
</g>
<!-- Node1&#45;&gt;Node20 -->
<g id="edge19" class="edge"><title>Node1&#45;&gt;Node20</title>
<path fill="none" stroke="midnightblue" d="M33.9608,-294.203C40.1079,-236.078 60.8394,-67.58 98,-29 105.425,-21.2909 115.637,-16.6065 125.966,-13.7881"/>
<polygon fill="midnightblue" stroke="midnightblue" points="30.4654,-293.98 32.9253,-304.285 37.4288,-294.695 30.4654,-293.98"/>
</g>
<!-- Node13 -->
<g id="node13" class="node"><title>Node13</title>
<g id="a_node13"><a xlink:href="classprtx_1_1_initial_shape.html" target="_top" xlink:title="prtx::InitialShape">
<polygon fill="none" stroke="black" points="278,-228.5 278,-247.5 368,-247.5 368,-228.5 278,-228.5"/>
<text text-anchor="middle" x="323" y="-235.5" font-family="Helvetica,sans-Serif" font-size="10.00">prtx::InitialShape</text>
</a>
</g>
</g>
<!-- Node12&#45;&gt;Node13 -->
<g id="edge12" class="edge"><title>Node12&#45;&gt;Node13</title>
<path fill="none" stroke="midnightblue" d="M221.712,-238C239.959,-238 260.294,-238 277.857,-238"/>
<polygon fill="midnightblue" stroke="midnightblue" points="221.535,-234.5 211.535,-238 221.535,-241.5 221.535,-234.5"/>
</g>
<!-- Node18 -->
<g id="node18" class="node"><title>Node18</title>
<g id="a_node18"><a xlink:href="classprtx_1_1_resolve_map.html" target="_top" xlink:title="prtx::ResolveMap">
<polygon fill="none" stroke="black" points="276,-76.5 276,-95.5 370,-95.5 370,-76.5 276,-76.5"/>
<text text-anchor="middle" x="323" y="-83.5" font-family="Helvetica,sans-Serif" font-size="10.00">prtx::ResolveMap</text>
</a>
</g>
</g>
<!-- Node17&#45;&gt;Node18 -->
<g id="edge17" class="edge"><title>Node17&#45;&gt;Node18</title>
<path fill="none" stroke="midnightblue" d="M223.875,-86C240.835,-86 259.406,-86 275.784,-86"/>
<polygon fill="midnightblue" stroke="midnightblue" points="223.557,-82.5001 213.557,-86 223.557,-89.5001 223.557,-82.5001"/>
</g>
</g>
</svg>
        <g id="navigator" transform="translate(0 0)" fill="#404254">
                <rect fill="#f2f5e9" fill-opacity="0.5" stroke="#606060" stroke-width=".5" x="0" y="0" width="60" height="60"/>
                <use id="zoomplus" xlink:href="#zoomPlus" x="17" y="9" onmousedown="handleZoom(evt,'in')"/>
                <use id="zoomminus" xlink:href="#zoomMin" x="42" y="9" onmousedown="handleZoom(evt,'out')"/>
                <use id="reset" xlink:href="#resetDef" x="30" y="36" onmousedown="handleReset()"/>
                <g id="arrowUp" xlink:href="#dirArrow" transform="translate(30 24)" onmousedown="handlePan(0,-1)">
                  <use xlink:href="#rim" fill="#404040">
                        <set attributeName="fill" to="#808080" begin="arrowUp.mouseover" end="arrowUp.mouseout"/>
                  </use>
                  <path fill="none" stroke="white" stroke-width="1.5" d="M0,-3.0v7 M-2.5,-0.5L0,-3.0L2.5,-0.5"/>
                </g>
                <g id="arrowRight" xlink:href="#dirArrow" transform="rotate(90) translate(36 -43)" onmousedown="handlePan(1,0)">
                  <use xlink:href="#rim" fill="#404040">
                        <set attributeName="fill" to="#808080" begin="arrowRight.mouseover" end="arrowRight.mouseout"/>
                  </use>
                  <path fill="none" stroke="white" stroke-width="1.5" d="M0,-3.0v7 M-2.5,-0.5L0,-3.0L2.5,-0.5"/>
                </g>
                <g id="arrowDown" xlink:href="#dirArrow" transform="rotate(180) translate(-30 -48)" onmousedown="handlePan(0,1)">
                  <use xlink:href="#rim" fill="#404040">
                        <set attributeName="fill" to="#808080" begin="arrowDown.mouseover" end="arrowDown.mouseout"/>
                  </use>
                  <path fill="none" stroke="white" stroke-width="1.5" d="M0,-3.0v7 M-2.5,-0.5L0,-3.0L2.5,-0.5"/>
                </g>
                <g id="arrowLeft" xlink:href="#dirArrow" transform="rotate(270) translate(-36 17)" onmousedown="handlePan(-1,0)">
                  <use xlink:href="#rim" fill="#404040">
                        <set attributeName="fill" to="#808080" begin="arrowLeft.mouseover" end="arrowLeft.mouseout"/>
                  </use>
                  <path fill="none" stroke="white" stroke-width="1.5" d="M0,-3.0v7 M-2.5,-0.5L0,-3.0L2.5,-0.5"/>
                </g>
        </g>
        <svg viewBox="0 0 15 15" width="100%" height="30px" preserveAspectRatio="xMaxYMin meet">
         <g id="arrow_out" transform="scale(0.3 0.3)">
          <a xlink:href="classprt_1_1_object__inherit__graph_org.svg" target="_base">
           <rect id="button" ry="5" rx="5" y="6" x="6" height="38" width="38"
                fill="#f2f5e9" fill-opacity="0.5" stroke="#606060" stroke-width="1.0"/>
           <path id="arrow"
             d="M 11.500037,31.436501 C 11.940474,20.09759 22.043105,11.32322 32.158766,21.979434 L 37.068811,17.246167 C 37.068811,17.246167 37.088388,32 37.088388,32 L 22.160133,31.978069 C 22.160133,31.978069 26.997745,27.140456 26.997745,27.140456 C 18.528582,18.264221 13.291696,25.230495 11.500037,31.436501 z"
             style="fill:#404040;"/>
          </a>
         </g>
        </svg>
</svg>
