<?xml version="1.0" encoding="UTF-8" standalone="no"?>
<!DOCTYPE svg PUBLIC "-//W3C//DTD SVG 1.1//EN"
 "http://www.w3.org/Graphics/SVG/1.1/DTD/svg11.dtd">
<!-- Generated by graphviz version 2.26.0 (20091210.2329)
 -->
<!-- Title: prtx::MaterialEncoder Pages: 1 -->
<svg width="118pt" height="146pt"
 viewBox="0.00 0.00 118.00 146.00" xmlns="http://www.w3.org/2000/svg" xmlns:xlink="http://www.w3.org/1999/xlink">
<g id="graph1" class="graph" transform="scale(1 1) rotate(0) translate(4 142)">
<title>prtx::MaterialEncoder</title>
<!-- Node1 -->
<g id="node1" class="node"><title>Node1</title>
<polygon fill="#bfbfbf" stroke="black" points="0,-0.5 0,-21.5 110,-21.5 110,-0.5 0,-0.5"/>
<text text-anchor="middle" x="55" y="-8.5" font-family="Helvetica,sans-Serif" font-size="10.00">prtx::MaterialEncoder</text>
</g>
<!-- Node2 -->
<g id="node2" class="node"><title>Node2</title>
<a xlink:href="classprtx_1_1_encoder.html" target="_top" xlink:title="prtx::Encoder">
<polygon fill="none" stroke="black" points="17.5,-58.5 17.5,-79.5 92.5,-79.5 92.5,-58.5 17.5,-58.5"/>
<text text-anchor="middle" x="55" y="-66.5" font-family="Helvetica,sans-Serif" font-size="10.00">prtx::Encoder</text>
</a>
</g>
<!-- Node2&#45;&gt;Node1 -->
<g id="edge2" class="edge"><title>Node2&#45;&gt;Node1</title>
<path fill="none" stroke="midnightblue" d="M55,-48.1906C55,-39.1684 55,-28.9941 55,-21.5707"/>
<polygon fill="midnightblue" stroke="midnightblue" points="51.5001,-48.3619 55,-58.3619 58.5001,-48.3619 51.5001,-48.3619"/>
</g>
<!-- Node3 -->
<g id="node4" class="node"><title>Node3</title>
<a xlink:href="classprtx_1_1_extension.html" target="_top" xlink:title="prtx::Extension">
<polygon fill="none" stroke="black" points="13.5,-116.5 13.5,-137.5 96.5,-137.5 96.5,-116.5 13.5,-116.5"/>
<text text-anchor="middle" x="55" y="-124.5" font-family="Helvetica,sans-Serif" font-size="10.00">prtx::Extension</text>
</a>
</g>
<!-- Node3&#45;&gt;Node2 -->
<g id="edge4" class="edge"><title>Node3&#45;&gt;Node2</title>
<path fill="none" stroke="midnightblue" d="M55,-106.191C55,-97.1684 55,-86.9941 55,-79.5707"/>
<polygon fill="midnightblue" stroke="midnightblue" points="51.5001,-106.362 55,-116.362 58.5001,-106.362 51.5001,-106.362"/>
</g>
</g>
</svg>
