<?xml version="1.0" encoding="UTF-8" standalone="no"?>
<!DOCTYPE svg PUBLIC "-//W3C//DTD SVG 1.1//EN"
 "http://www.w3.org/Graphics/SVG/1.1/DTD/svg11.dtd">
<!-- Generated by graphviz version 2.40.1 (0)
 -->
<!-- Title: prtx::BuiltinMaterialAttributesBuilder Pages: 1 -->
<svg width="151pt" height="151pt"
 viewBox="0.00 0.00 151.00 151.00" xmlns="http://www.w3.org/2000/svg" xmlns:xlink="http://www.w3.org/1999/xlink">
<g id="graph0" class="graph" transform="scale(1 1) rotate(0) translate(4 147)">
<title>prtx::BuiltinMaterialAttributesBuilder</title>
<!-- Node0 -->
<g id="node1" class="node">
<title>Node0</title>
<polygon fill="#bfbfbf" stroke="#000000" points="0,-56.5 0,-86.5 143,-86.5 143,-56.5 0,-56.5"/>
<text text-anchor="start" x="8" y="-74.5" font-family="Helvetica,sans-Serif" font-size="10.00" fill="#000000">prtx::BuiltinMaterialAttributes</text>
<text text-anchor="middle" x="71.5" y="-63.5" font-family="Helvetica,sans-Serif" font-size="10.00" fill="#000000">Builder</text>
</g>
<!-- Node2 -->
<g id="node3" class="node">
<title>Node2</title>
<g id="a_node3"><a xlink:href="classprtx_1_1_material_builder.html" target="_top" xlink:title="prtx::MaterialBuilder">
<polygon fill="none" stroke="#000000" points="19.5,-.5 19.5,-19.5 123.5,-19.5 123.5,-.5 19.5,-.5"/>
<text text-anchor="middle" x="71.5" y="-7.5" font-family="Helvetica,sans-Serif" font-size="10.00" fill="#000000">prtx::MaterialBuilder</text>
</a>
</g>
</g>
<!-- Node0&#45;&gt;Node2 -->
<g id="edge2" class="edge">
<title>Node0&#45;&gt;Node2</title>
<path fill="none" stroke="#191970" d="M71.5,-46.2849C71.5,-36.9858 71.5,-26.9883 71.5,-19.8469"/>
<polygon fill="#191970" stroke="#191970" points="68.0001,-46.2977 71.5,-56.2977 75.0001,-46.2978 68.0001,-46.2977"/>
</g>
<!-- Node1 -->
<g id="node2" class="node">
<title>Node1</title>
<g id="a_node2"><a xlink:href="classprtx_1_1_builtin_attributes_setters.html" target="_top" xlink:title="prtx::BuiltinAttributesSetters">
<polygon fill="none" stroke="#000000" points="1.5,-123.5 1.5,-142.5 141.5,-142.5 141.5,-123.5 1.5,-123.5"/>
<text text-anchor="middle" x="71.5" y="-130.5" font-family="Helvetica,sans-Serif" font-size="10.00" fill="#000000">prtx::BuiltinAttributesSetters</text>
</a>
</g>
</g>
<!-- Node1&#45;&gt;Node0 -->
<g id="edge1" class="edge">
<title>Node1&#45;&gt;Node0</title>
<path fill="none" stroke="#191970" d="M71.5,-113.3693C71.5,-104.681 71.5,-94.6241 71.5,-86.5446"/>
<polygon fill="#191970" stroke="#191970" points="68.0001,-113.3906 71.5,-123.3906 75.0001,-113.3907 68.0001,-113.3906"/>
</g>
</g>
</svg>
