<?xml version="1.0" encoding="UTF-8" standalone="no"?>
<!DOCTYPE svg PUBLIC "-//W3C//DTD SVG 1.1//EN"
 "http://www.w3.org/Graphics/SVG/1.1/DTD/svg11.dtd">
<!-- Generated by graphviz version 2.26.0 (20091210.2329)
 -->
<!-- Title: prtx::BuiltinAttributes Pages: 1 -->
<svg width="612pt" height="122pt"
 viewBox="0.00 0.00 612.00 122.00" xmlns="http://www.w3.org/2000/svg" xmlns:xlink="http://www.w3.org/1999/xlink">
<g id="graph1" class="graph" transform="scale(1 1) rotate(0) translate(4 118)">
<title>prtx::BuiltinAttributes</title>
<!-- Node1 -->
<g id="node1" class="node"><title>Node1</title>
<polygon fill="#bfbfbf" stroke="black" points="0,-30.5 0,-51.5 108,-51.5 108,-30.5 0,-30.5"/>
<text text-anchor="middle" x="54" y="-38.5" font-family="Helvetica,sans-Serif" font-size="10.00">prtx::BuiltinAttributes</text>
</g>
<!-- Node2 -->
<g id="node3" class="node"><title>Node2</title>
<a xlink:href="classprtx_1_1_builtin_attributes_getters.html" target="_top" xlink:title="prtx::BuiltinAttributesGetters">
<polygon fill="none" stroke="black" points="144,-52.5 144,-73.5 284,-73.5 284,-52.5 144,-52.5"/>
<text text-anchor="middle" x="214" y="-60.5" font-family="Helvetica,sans-Serif" font-size="10.00">prtx::BuiltinAttributesGetters</text>
</a>
</g>
<!-- Node1&#45;&gt;Node2 -->
<g id="edge2" class="edge"><title>Node1&#45;&gt;Node2</title>
<path fill="none" stroke="midnightblue" d="M118.246,-49.8338C126.626,-50.9861 135.247,-52.1714 143.72,-53.3365"/>
<polygon fill="midnightblue" stroke="midnightblue" points="118.552,-46.3431 108.169,-48.4482 117.599,-53.2778 118.552,-46.3431"/>
</g>
<!-- Node7 -->
<g id="node13" class="node"><title>Node7</title>
<a xlink:href="classprtx_1_1_builtin_attributes_setters.html" target="_top" xlink:title="prtx::BuiltinAttributesSetters">
<polygon fill="none" stroke="black" points="144,-9.5 144,-30.5 284,-30.5 284,-9.5 144,-9.5"/>
<text text-anchor="middle" x="214" y="-17.5" font-family="Helvetica,sans-Serif" font-size="10.00">prtx::BuiltinAttributesSetters</text>
</a>
</g>
<!-- Node1&#45;&gt;Node7 -->
<g id="edge12" class="edge"><title>Node1&#45;&gt;Node7</title>
<path fill="none" stroke="midnightblue" d="M118.246,-32.5677C126.626,-31.4678 135.247,-30.3364 143.72,-29.2243"/>
<polygon fill="midnightblue" stroke="midnightblue" points="117.628,-29.1187 108.169,-33.8904 118.539,-36.0592 117.628,-29.1187"/>
</g>
<!-- Node3 -->
<g id="node5" class="node"><title>Node3</title>
<a xlink:href="classprtx_1_1_builtin_material_attributes.html" target="_top" xlink:title="prtx::BuiltinMaterialAttributes">
<polygon fill="none" stroke="black" points="320.5,-92.5 320.5,-113.5 463.5,-113.5 463.5,-92.5 320.5,-92.5"/>
<text text-anchor="middle" x="392" y="-100.5" font-family="Helvetica,sans-Serif" font-size="10.00">prtx::BuiltinMaterialAttributes</text>
</a>
</g>
<!-- Node2&#45;&gt;Node3 -->
<g id="edge4" class="edge"><title>Node2&#45;&gt;Node3</title>
<path fill="none" stroke="midnightblue" d="M270.81,-75.7663C294.817,-81.161 322.434,-87.3672 345.236,-92.4913"/>
<polygon fill="midnightblue" stroke="midnightblue" points="271.291,-72.2873 260.767,-73.5095 269.757,-79.117 271.291,-72.2873"/>
</g>
<!-- Node5 -->
<g id="node9" class="node"><title>Node5</title>
<a xlink:href="classprtx_1_1_builtin_shape_attributes.html" target="_top" xlink:title="prtx::BuiltinShapeAttributes">
<polygon fill="none" stroke="black" points="324,-52.5 324,-73.5 460,-73.5 460,-52.5 324,-52.5"/>
<text text-anchor="middle" x="392" y="-60.5" font-family="Helvetica,sans-Serif" font-size="10.00">prtx::BuiltinShapeAttributes</text>
</a>
</g>
<!-- Node2&#45;&gt;Node5 -->
<g id="edge8" class="edge"><title>Node2&#45;&gt;Node5</title>
<path fill="none" stroke="midnightblue" d="M294.27,-63C304.104,-63 314.082,-63 323.716,-63"/>
<polygon fill="midnightblue" stroke="midnightblue" points="294.095,-59.5001 284.095,-63 294.095,-66.5001 294.095,-59.5001"/>
</g>
<!-- Node4 -->
<g id="node7" class="node"><title>Node4</title>
<a xlink:href="classprtx_1_1_material.html" target="_top" xlink:title="prtx::Material">
<polygon fill="none" stroke="black" points="515,-92.5 515,-113.5 589,-113.5 589,-92.5 515,-92.5"/>
<text text-anchor="middle" x="552" y="-100.5" font-family="Helvetica,sans-Serif" font-size="10.00">prtx::Material</text>
</a>
</g>
<!-- Node3&#45;&gt;Node4 -->
<g id="edge6" class="edge"><title>Node3&#45;&gt;Node4</title>
<path fill="none" stroke="midnightblue" d="M473.949,-103C488.21,-103 502.389,-103 514.67,-103"/>
<polygon fill="midnightblue" stroke="midnightblue" points="473.576,-99.5001 463.576,-103 473.576,-106.5 473.576,-99.5001"/>
</g>
<!-- Node6 -->
<g id="node11" class="node"><title>Node6</title>
<a xlink:href="classprtx_1_1_shape.html" target="_top" xlink:title="prtx::Shape">
<polygon fill="none" stroke="black" points="518.5,-52.5 518.5,-73.5 585.5,-73.5 585.5,-52.5 518.5,-52.5"/>
<text text-anchor="middle" x="552" y="-60.5" font-family="Helvetica,sans-Serif" font-size="10.00">prtx::Shape</text>
</a>
</g>
<!-- Node5&#45;&gt;Node6 -->
<g id="edge10" class="edge"><title>Node5&#45;&gt;Node6</title>
<path fill="none" stroke="midnightblue" d="M470.717,-63C487.474,-63 504.307,-63 518.273,-63"/>
<polygon fill="midnightblue" stroke="midnightblue" points="470.319,-59.5001 460.319,-63 470.318,-66.5001 470.319,-59.5001"/>
</g>
<!-- Node8 -->
<g id="node15" class="node"><title>Node8</title>
<a xlink:href="classprtx_1_1_builtin_material_attributes_builder.html" target="_top" xlink:title="prtx::BuiltinMaterialAttributes\lBuilder">
<polygon fill="none" stroke="black" points="320.5,-0 320.5,-34 463.5,-34 463.5,-0 320.5,-0"/>
<text text-anchor="start" x="328.5" y="-21" font-family="Helvetica,sans-Serif" font-size="10.00">prtx::BuiltinMaterialAttributes</text>
<text text-anchor="middle" x="392" y="-8" font-family="Helvetica,sans-Serif" font-size="10.00">Builder</text>
</a>
</g>
<!-- Node7&#45;&gt;Node8 -->
<g id="edge14" class="edge"><title>Node7&#45;&gt;Node8</title>
<path fill="none" stroke="midnightblue" d="M294.201,-18.6483C302.871,-18.5022 311.653,-18.3542 320.215,-18.2099"/>
<polygon fill="midnightblue" stroke="midnightblue" points="294.034,-15.1505 284.095,-18.8186 294.152,-22.1495 294.034,-15.1505"/>
</g>
<!-- Node9 -->
<g id="node17" class="node"><title>Node9</title>
<a xlink:href="classprtx_1_1_material_builder.html" target="_top" xlink:title="prtx::MaterialBuilder">
<polygon fill="none" stroke="black" points="500,-6.5 500,-27.5 604,-27.5 604,-6.5 500,-6.5"/>
<text text-anchor="middle" x="552" y="-14.5" font-family="Helvetica,sans-Serif" font-size="10.00">prtx::MaterialBuilder</text>
</a>
</g>
<!-- Node8&#45;&gt;Node9 -->
<g id="edge16" class="edge"><title>Node8&#45;&gt;Node9</title>
<path fill="none" stroke="midnightblue" d="M473.577,-17C482.446,-17 491.288,-17 499.669,-17"/>
<polygon fill="midnightblue" stroke="midnightblue" points="473.576,-13.5001 463.576,-17 473.576,-20.5001 473.576,-13.5001"/>
</g>
</g>
</svg>
