<?xml version="1.0" encoding="UTF-8" standalone="no"?>
<!DOCTYPE svg PUBLIC "-//W3C//DTD SVG 1.1//EN"
 "http://www.w3.org/Graphics/SVG/1.1/DTD/svg11.dtd">
<!-- Generated by graphviz version 2.26.0 (20091210.2329)
 -->
<!-- Title: prtx::MaterialBuilder Pages: 1 -->
<svg width="612pt" height="134pt"
 viewBox="0.00 0.00 612.00 134.00" xmlns="http://www.w3.org/2000/svg" xmlns:xlink="http://www.w3.org/1999/xlink">
<g id="graph1" class="graph" transform="scale(1 1) rotate(0) translate(4 130)">
<title>prtx::MaterialBuilder</title>
<!-- Node1 -->
<g id="node1" class="node"><title>Node1</title>
<polygon fill="#bfbfbf" stroke="black" points="500,-52.5 500,-73.5 604,-73.5 604,-52.5 500,-52.5"/>
<text text-anchor="middle" x="552" y="-60.5" font-family="Helvetica,sans-Serif" font-size="10.00">prtx::MaterialBuilder</text>
</g>
<!-- Node2 -->
<g id="node2" class="node"><title>Node2</title>
<a xlink:href="classprtx_1_1_shared_ptr_builder.html" target="_top" xlink:title="prtx::SharedPtrBuilder\l\&lt; Material \&gt;">
<polygon fill="none" stroke="black" points="335.5,-92 335.5,-126 448.5,-126 448.5,-92 335.5,-92"/>
<text text-anchor="start" x="343.5" y="-113" font-family="Helvetica,sans-Serif" font-size="10.00">prtx::SharedPtrBuilder</text>
<text text-anchor="middle" x="392" y="-100" font-family="Helvetica,sans-Serif" font-size="10.00">&lt; Material &gt;</text>
</a>
</g>
<!-- Node2&#45;&gt;Node1 -->
<g id="edge2" class="edge"><title>Node2&#45;&gt;Node1</title>
<path fill="none" stroke="midnightblue" d="M458.58,-89.8583C477.984,-84.2796 498.473,-78.3891 515.302,-73.5506"/>
<polygon fill="midnightblue" stroke="midnightblue" points="457.504,-86.5257 448.861,-92.6526 459.438,-93.2532 457.504,-86.5257"/>
</g>
<!-- Node3 -->
<g id="node4" class="node"><title>Node3</title>
<a xlink:href="classprtx_1_1_attributable_setter.html" target="_top" xlink:title="prtx::AttributableSetter">
<polygon fill="none" stroke="black" points="334.5,-52.5 334.5,-73.5 449.5,-73.5 449.5,-52.5 334.5,-52.5"/>
<text text-anchor="middle" x="392" y="-60.5" font-family="Helvetica,sans-Serif" font-size="10.00">prtx::AttributableSetter</text>
</a>
</g>
<!-- Node3&#45;&gt;Node1 -->
<g id="edge4" class="edge"><title>Node3&#45;&gt;Node1</title>
<path fill="none" stroke="midnightblue" d="M459.887,-63C473.277,-63 487.131,-63 499.901,-63"/>
<polygon fill="midnightblue" stroke="midnightblue" points="459.764,-59.5001 449.764,-63 459.764,-66.5001 459.764,-59.5001"/>
</g>
<!-- Node4 -->
<g id="node6" class="node"><title>Node4</title>
<a xlink:href="classprtx_1_1_builtin_material_attributes_builder.html" target="_top" xlink:title="prtx::BuiltinMaterialAttributes\lBuilder">
<polygon fill="none" stroke="black" points="320.5,-0 320.5,-34 463.5,-34 463.5,-0 320.5,-0"/>
<text text-anchor="start" x="328.5" y="-21" font-family="Helvetica,sans-Serif" font-size="10.00">prtx::BuiltinMaterialAttributes</text>
<text text-anchor="middle" x="392" y="-8" font-family="Helvetica,sans-Serif" font-size="10.00">Builder</text>
</a>
</g>
<!-- Node4&#45;&gt;Node1 -->
<g id="edge6" class="edge"><title>Node4&#45;&gt;Node1</title>
<path fill="none" stroke="midnightblue" d="M461.189,-36.8919C479.748,-42.2274 499.097,-47.7903 515.142,-52.4034"/>
<polygon fill="midnightblue" stroke="midnightblue" points="462.156,-33.5281 451.578,-34.1287 460.222,-40.2556 462.156,-33.5281"/>
</g>
<!-- Node5 -->
<g id="node8" class="node"><title>Node5</title>
<a xlink:href="classprtx_1_1_builtin_attributes_setters.html" target="_top" xlink:title="prtx::BuiltinAttributesSetters">
<polygon fill="none" stroke="black" points="144,-6.5 144,-27.5 284,-27.5 284,-6.5 144,-6.5"/>
<text text-anchor="middle" x="214" y="-14.5" font-family="Helvetica,sans-Serif" font-size="10.00">prtx::BuiltinAttributesSetters</text>
</a>
</g>
<!-- Node5&#45;&gt;Node4 -->
<g id="edge8" class="edge"><title>Node5&#45;&gt;Node4</title>
<path fill="none" stroke="midnightblue" d="M294.201,-17C302.871,-17 311.653,-17 320.215,-17"/>
<polygon fill="midnightblue" stroke="midnightblue" points="294.095,-13.5001 284.095,-17 294.095,-20.5001 294.095,-13.5001"/>
</g>
<!-- Node6 -->
<g id="node10" class="node"><title>Node6</title>
<a xlink:href="classprtx_1_1_builtin_attributes.html" target="_top" xlink:title="prtx::BuiltinAttributes">
<polygon fill="none" stroke="black" points="0,-6.5 0,-27.5 108,-27.5 108,-6.5 0,-6.5"/>
<text text-anchor="middle" x="54" y="-14.5" font-family="Helvetica,sans-Serif" font-size="10.00">prtx::BuiltinAttributes</text>
</a>
</g>
<!-- Node6&#45;&gt;Node5 -->
<g id="edge10" class="edge"><title>Node6&#45;&gt;Node5</title>
<path fill="none" stroke="midnightblue" d="M118.246,-17C126.626,-17 135.247,-17 143.72,-17"/>
<polygon fill="midnightblue" stroke="midnightblue" points="118.169,-13.5001 108.169,-17 118.169,-20.5001 118.169,-13.5001"/>
</g>
</g>
</svg>
