<?xml version="1.0" encoding="UTF-8" standalone="no"?>
<!DOCTYPE svg PUBLIC "-//W3C//DTD SVG 1.1//EN"
 "http://www.w3.org/Graphics/SVG/1.1/DTD/svg11.dtd">
<!-- Generated by graphviz version 2.40.1 (0)
 -->
<!-- Title: prt::AttributeMapBuilder Pages: 1 -->
<svg width="198pt" height="84pt"
 viewBox="0.00 0.00 198.00 84.00" xmlns="http://www.w3.org/2000/svg" xmlns:xlink="http://www.w3.org/1999/xlink">
<g id="graph0" class="graph" transform="scale(1 1) rotate(0) translate(4 80)">
<title>prt::AttributeMapBuilder</title>
<!-- Node0 -->
<g id="node1" class="node">
<title>Node0</title>
<polygon fill="#bfbfbf" stroke="#000000" points="47.5,-.5 47.5,-19.5 166.5,-19.5 166.5,-.5 47.5,-.5"/>
<text text-anchor="middle" x="107" y="-7.5" font-family="Helvetica,sans-Serif" font-size="10.00" fill="#000000">prt::AttributeMapBuilder</text>
</g>
<!-- Node1 -->
<g id="node2" class="node">
<title>Node1</title>
<g id="a_node2"><a xlink:href="classprt_1_1_attributable_setter.html" target="_top" xlink:title="prt::AttributableSetter">
<polygon fill="none" stroke="#000000" points="0,-56.5 0,-75.5 110,-75.5 110,-56.5 0,-56.5"/>
<text text-anchor="middle" x="55" y="-63.5" font-family="Helvetica,sans-Serif" font-size="10.00" fill="#000000">prt::AttributableSetter</text>
</a>
</g>
</g>
<!-- Node1&#45;&gt;Node0 -->
<g id="edge1" class="edge">
<title>Node1&#45;&gt;Node0</title>
<path fill="none" stroke="#191970" d="M70.9822,-48.7884C79.8778,-39.2085 90.6204,-27.6396 98.0461,-19.6427"/>
<polygon fill="#191970" stroke="#191970" points="68.2975,-46.536 64.0577,-56.2455 73.427,-51.2992 68.2975,-46.536"/>
</g>
<!-- Node2 -->
<g id="node3" class="node">
<title>Node2</title>
<g id="a_node3"><a xlink:href="classprt_1_1_object.html" target="_top" xlink:title="prt::Object">
<polygon fill="none" stroke="#000000" points="128,-56.5 128,-75.5 190,-75.5 190,-56.5 128,-56.5"/>
<text text-anchor="middle" x="159" y="-63.5" font-family="Helvetica,sans-Serif" font-size="10.00" fill="#000000">prt::Object</text>
</a>
</g>
</g>
<!-- Node2&#45;&gt;Node0 -->
<g id="edge2" class="edge">
<title>Node2&#45;&gt;Node0</title>
<path fill="none" stroke="#191970" d="M143.0178,-48.7884C134.1222,-39.2085 123.3796,-27.6396 115.9539,-19.6427"/>
<polygon fill="#191970" stroke="#191970" points="140.573,-51.2992 149.9423,-56.2455 145.7025,-46.536 140.573,-51.2992"/>
</g>
</g>
</svg>
