<?xml version="1.0" encoding="UTF-8" standalone="no"?>
<!DOCTYPE svg PUBLIC "-//W3C//DTD SVG 1.1//EN"
 "http://www.w3.org/Graphics/SVG/1.1/DTD/svg11.dtd">
<!-- Generated by graphviz version 2.40.1 (0)
 -->
<!-- Title: prtx::Material Pages: 1 -->
<svg width="403pt" height="196pt"
 viewBox="0.00 0.00 403.00 196.00" xmlns="http://www.w3.org/2000/svg" xmlns:xlink="http://www.w3.org/1999/xlink">
<g id="graph0" class="graph" transform="scale(1 1) rotate(0) translate(4 192)">
<title>prtx::Material</title>
<!-- Node0 -->
<g id="node1" class="node">
<title>Node0</title>
<polygon fill="#bfbfbf" stroke="#000000" points="133.5,-.5 133.5,-19.5 207.5,-19.5 207.5,-.5 133.5,-.5"/>
<text text-anchor="middle" x="170.5" y="-7.5" font-family="Helvetica,sans-Serif" font-size="10.00" fill="#000000">prtx::Material</text>
</g>
<!-- Node1 -->
<g id="node2" class="node">
<title>Node1</title>
<g id="a_node2"><a xlink:href="classprtx_1_1_attributable.html" target="_top" xlink:title="prtx::Attributable">
<polygon fill="none" stroke="#000000" points="0,-56.5 0,-75.5 89,-75.5 89,-56.5 0,-56.5"/>
<text text-anchor="middle" x="44.5" y="-63.5" font-family="Helvetica,sans-Serif" font-size="10.00" fill="#000000">prtx::Attributable</text>
</a>
</g>
</g>
<!-- Node1&#45;&gt;Node0 -->
<g id="edge1" class="edge">
<title>Node1&#45;&gt;Node0</title>
<path fill="none" stroke="#191970" d="M75.4436,-52.2473C98.3265,-42.0771 128.9014,-28.4883 149.1225,-19.5011"/>
<polygon fill="#191970" stroke="#191970" points="73.8768,-49.1135 66.1602,-56.3733 76.7198,-55.5102 73.8768,-49.1135"/>
</g>
<!-- Node2 -->
<g id="node3" class="node">
<title>Node2</title>
<g id="a_node3"><a xlink:href="classprtx_1_1_comparable_content.html" target="_top" xlink:title="prtx::ComparableContent">
<polygon fill="none" stroke="#000000" points="107.5,-56.5 107.5,-75.5 233.5,-75.5 233.5,-56.5 107.5,-56.5"/>
<text text-anchor="middle" x="170.5" y="-63.5" font-family="Helvetica,sans-Serif" font-size="10.00" fill="#000000">prtx::ComparableContent</text>
</a>
</g>
</g>
<!-- Node2&#45;&gt;Node0 -->
<g id="edge2" class="edge">
<title>Node2&#45;&gt;Node0</title>
<path fill="none" stroke="#191970" d="M170.5,-46.1575C170.5,-37.155 170.5,-26.9199 170.5,-19.6427"/>
<polygon fill="#191970" stroke="#191970" points="167.0001,-46.2455 170.5,-56.2455 174.0001,-46.2456 167.0001,-46.2455"/>
</g>
<!-- Node3 -->
<g id="node4" class="node">
<title>Node3</title>
<g id="a_node4"><a xlink:href="classprtx_1_1_content.html" target="_top" xlink:title="prtx::Content">
<polygon fill="none" stroke="#000000" points="133.5,-112.5 133.5,-131.5 207.5,-131.5 207.5,-112.5 133.5,-112.5"/>
<text text-anchor="middle" x="170.5" y="-119.5" font-family="Helvetica,sans-Serif" font-size="10.00" fill="#000000">prtx::Content</text>
</a>
</g>
</g>
<!-- Node3&#45;&gt;Node2 -->
<g id="edge3" class="edge">
<title>Node3&#45;&gt;Node2</title>
<path fill="none" stroke="#191970" d="M170.5,-102.1575C170.5,-93.155 170.5,-82.9199 170.5,-75.6427"/>
<polygon fill="#191970" stroke="#191970" points="167.0001,-102.2455 170.5,-112.2455 174.0001,-102.2456 167.0001,-102.2455"/>
</g>
<!-- Node4 -->
<g id="node5" class="node">
<title>Node4</title>
<g id="a_node5"><a xlink:href="classprtx_1_1_builtin_material_attributes.html" target="_top" xlink:title="prtx::BuiltinMaterialAttributes">
<polygon fill="none" stroke="#000000" points="252,-56.5 252,-75.5 395,-75.5 395,-56.5 252,-56.5"/>
<text text-anchor="middle" x="323.5" y="-63.5" font-family="Helvetica,sans-Serif" font-size="10.00" fill="#000000">prtx::BuiltinMaterialAttributes</text>
</a>
</g>
</g>
<!-- Node4&#45;&gt;Node0 -->
<g id="edge4" class="edge">
<title>Node4&#45;&gt;Node0</title>
<path fill="none" stroke="#191970" d="M287.7721,-52.9231C259.8029,-42.686 221.5607,-28.6889 196.4584,-19.5011"/>
<polygon fill="#191970" stroke="#191970" points="286.6046,-56.2228 297.1984,-56.3733 289.0106,-49.6493 286.6046,-56.2228"/>
</g>
<!-- Node5 -->
<g id="node6" class="node">
<title>Node5</title>
<g id="a_node6"><a xlink:href="classprtx_1_1_builtin_attributes_getters.html" target="_top" xlink:title="prtx::BuiltinAttributesGetters">
<polygon fill="none" stroke="#000000" points="253.5,-112.5 253.5,-131.5 393.5,-131.5 393.5,-112.5 253.5,-112.5"/>
<text text-anchor="middle" x="323.5" y="-119.5" font-family="Helvetica,sans-Serif" font-size="10.00" fill="#000000">prtx::BuiltinAttributesGetters</text>
</a>
</g>
</g>
<!-- Node5&#45;&gt;Node4 -->
<g id="edge5" class="edge">
<title>Node5&#45;&gt;Node4</title>
<path fill="none" stroke="#191970" d="M323.5,-102.1575C323.5,-93.155 323.5,-82.9199 323.5,-75.6427"/>
<polygon fill="#191970" stroke="#191970" points="320.0001,-102.2455 323.5,-112.2455 327.0001,-102.2456 320.0001,-102.2455"/>
</g>
<!-- Node6 -->
<g id="node7" class="node">
<title>Node6</title>
<g id="a_node7"><a xlink:href="classprtx_1_1_builtin_attributes.html" target="_top" xlink:title="prtx::BuiltinAttributes">
<polygon fill="none" stroke="#000000" points="269.5,-168.5 269.5,-187.5 377.5,-187.5 377.5,-168.5 269.5,-168.5"/>
<text text-anchor="middle" x="323.5" y="-175.5" font-family="Helvetica,sans-Serif" font-size="10.00" fill="#000000">prtx::BuiltinAttributes</text>
</a>
</g>
</g>
<!-- Node6&#45;&gt;Node5 -->
<g id="edge6" class="edge">
<title>Node6&#45;&gt;Node5</title>
<path fill="none" stroke="#191970" d="M323.5,-158.1575C323.5,-149.155 323.5,-138.9199 323.5,-131.6427"/>
<polygon fill="#191970" stroke="#191970" points="320.0001,-158.2455 323.5,-168.2455 327.0001,-158.2456 320.0001,-158.2455"/>
</g>
</g>
</svg>
