<?xml version="1.0" encoding="UTF-8" standalone="no"?>
<!DOCTYPE svg PUBLIC "-//W3C//DTD SVG 1.1//EN"
 "http://www.w3.org/Graphics/SVG/1.1/DTD/svg11.dtd">
<!-- Generated by graphviz version 2.26.0 (20091210.2329)
 -->
<!-- Title: prtx::EncoderInfoBuilder Pages: 1 -->
<svg width="130pt" height="160pt"
 viewBox="0.00 0.00 130.00 160.00" xmlns="http://www.w3.org/2000/svg" xmlns:xlink="http://www.w3.org/1999/xlink">
<g id="graph1" class="graph" transform="scale(1 1) rotate(0) translate(4 156)">
<title>prtx::EncoderInfoBuilder</title>
<!-- Node1 -->
<g id="node1" class="node"><title>Node1</title>
<polygon fill="#bfbfbf" stroke="black" points="0,-0.5 0,-21.5 122,-21.5 122,-0.5 0,-0.5"/>
<text text-anchor="middle" x="61" y="-8.5" font-family="Helvetica,sans-Serif" font-size="10.00">prtx::EncoderInfoBuilder</text>
</g>
<!-- Node2 -->
<g id="node2" class="node"><title>Node2</title>
<a xlink:href="classprtx_1_1_builder.html" target="_top" xlink:title="prtx::Builder\&lt; const\l prt::EncoderInfo \&gt;">
<polygon fill="none" stroke="black" points="10,-59 10,-93 112,-93 112,-59 10,-59"/>
<text text-anchor="start" x="18" y="-80" font-family="Helvetica,sans-Serif" font-size="10.00">prtx::Builder&lt; const</text>
<text text-anchor="middle" x="61" y="-67" font-family="Helvetica,sans-Serif" font-size="10.00"> prt::EncoderInfo &gt;</text>
</a>
</g>
<!-- Node2&#45;&gt;Node1 -->
<g id="edge2" class="edge"><title>Node2&#45;&gt;Node1</title>
<path fill="none" stroke="midnightblue" d="M61,-48.6879C61,-39.2415 61,-29.1949 61,-21.8521"/>
<polygon fill="midnightblue" stroke="midnightblue" points="57.5001,-48.922 61,-58.922 64.5001,-48.922 57.5001,-48.922"/>
</g>
<!-- Node3 -->
<g id="node4" class="node"><title>Node3</title>
<polygon fill="none" stroke="#bfbfbf" points="10.5,-130.5 10.5,-151.5 111.5,-151.5 111.5,-130.5 10.5,-130.5"/>
<text text-anchor="middle" x="61" y="-138.5" font-family="Helvetica,sans-Serif" font-size="10.00">boost::noncopyable</text>
</g>
<!-- Node3&#45;&gt;Node2 -->
<g id="edge4" class="edge"><title>Node3&#45;&gt;Node2</title>
<path fill="none" stroke="#8b1a1a" d="M61,-120.131C61,-111.405 61,-101.391 61,-93.1099"/>
<polygon fill="#8b1a1a" stroke="#8b1a1a" points="57.5001,-120.267 61,-130.267 64.5001,-120.267 57.5001,-120.267"/>
</g>
</g>
</svg>
