<?xml version="1.0" encoding="UTF-8" standalone="no"?>
<!DOCTYPE svg PUBLIC "-//W3C//DTD SVG 1.1//EN"
 "http://www.w3.org/Graphics/SVG/1.1/DTD/svg11.dtd">
<!-- Generated by graphviz version 2.30.1 (20170916.1124)
 -->
<!-- Title: prt::AttributeMapBuilder Pages: 1 -->
<svg width="198pt" height="84pt"
 viewBox="0.00 0.00 198.00 84.00" xmlns="http://www.w3.org/2000/svg" xmlns:xlink="http://www.w3.org/1999/xlink">
<g id="graph0" class="graph" transform="scale(1 1) rotate(0) translate(4 80)">
<title>prt::AttributeMapBuilder</title>
<!-- Node1 -->
<g id="node1" class="node"><title>Node1</title>
<polygon fill="#bfbfbf" stroke="black" points="47.5,-0.5 47.5,-19.5 166.5,-19.5 166.5,-0.5 47.5,-0.5"/>
<text text-anchor="middle" x="107" y="-7.5" font-family="Helvetica,sans-Serif" font-size="10.00">prt::AttributeMapBuilder</text>
</g>
<!-- Node2 -->
<g id="node2" class="node"><title>Node2</title>
<g id="a_node2"><a xlink:href="classprt_1_1_attributable_setter.html" target="_top" xlink:title="prt::AttributableSetter">
<polygon fill="none" stroke="black" points="0,-56.5 0,-75.5 110,-75.5 110,-56.5 0,-56.5"/>
<text text-anchor="middle" x="55" y="-63.5" font-family="Helvetica,sans-Serif" font-size="10.00">prt::AttributableSetter</text>
</a>
</g>
</g>
<!-- Node2&#45;&gt;Node1 -->
<g id="edge1" class="edge"><title>Node2&#45;&gt;Node1</title>
<path fill="none" stroke="midnightblue" d="M70.6794,-48.7175C79.8447,-39.1997 91.0526,-27.5608 98.573,-19.7511"/>
<polygon fill="midnightblue" stroke="midnightblue" points="68.0021,-46.452 63.5867,-56.083 73.0443,-51.3075 68.0021,-46.452"/>
</g>
<!-- Node3 -->
<g id="node3" class="node"><title>Node3</title>
<g id="a_node3"><a xlink:href="classprt_1_1_object.html" target="_top" xlink:title="prt::Object">
<polygon fill="none" stroke="black" points="128,-56.5 128,-75.5 190,-75.5 190,-56.5 128,-56.5"/>
<text text-anchor="middle" x="159" y="-63.5" font-family="Helvetica,sans-Serif" font-size="10.00">prt::Object</text>
</a>
</g>
</g>
<!-- Node3&#45;&gt;Node1 -->
<g id="edge2" class="edge"><title>Node3&#45;&gt;Node1</title>
<path fill="none" stroke="midnightblue" d="M143.321,-48.7175C134.155,-39.1997 122.947,-27.5608 115.427,-19.7511"/>
<polygon fill="midnightblue" stroke="midnightblue" points="140.956,-51.3075 150.413,-56.083 145.998,-46.452 140.956,-51.3075"/>
</g>
</g>
</svg>
