<?xml version="1.0" encoding="UTF-8" standalone="no"?>
<!DOCTYPE svg PUBLIC "-//W3C//DTD SVG 1.1//EN"
 "http://www.w3.org/Graphics/SVG/1.1/DTD/svg11.dtd">
<!-- Generated by graphviz version 2.26.0 (20091210.2329)
 -->
<!-- Title: prtx::ResolveMap Pages: 1 -->
<svg width="170pt" height="146pt"
 viewBox="0.00 0.00 170.00 146.00" xmlns="http://www.w3.org/2000/svg" xmlns:xlink="http://www.w3.org/1999/xlink">
<g id="graph1" class="graph" transform="scale(1 1) rotate(0) translate(4 142)">
<title>prtx::ResolveMap</title>
<!-- Node1 -->
<g id="node1" class="node"><title>Node1</title>
<polygon fill="#bfbfbf" stroke="black" points="39,-0.5 39,-21.5 133,-21.5 133,-0.5 39,-0.5"/>
<text text-anchor="middle" x="86" y="-8.5" font-family="Helvetica,sans-Serif" font-size="10.00">prtx::ResolveMap</text>
</g>
<!-- Node2 -->
<g id="node2" class="node"><title>Node2</title>
<a xlink:href="classprt_1_1_resolve_map.html" target="_top" xlink:title="prt::ResolveMap">
<polygon fill="none" stroke="black" points="41.5,-58.5 41.5,-79.5 130.5,-79.5 130.5,-58.5 41.5,-58.5"/>
<text text-anchor="middle" x="86" y="-66.5" font-family="Helvetica,sans-Serif" font-size="10.00">prt::ResolveMap</text>
</a>
</g>
<!-- Node2&#45;&gt;Node1 -->
<g id="edge2" class="edge"><title>Node2&#45;&gt;Node1</title>
<path fill="none" stroke="midnightblue" d="M86,-48.1906C86,-39.1684 86,-28.9941 86,-21.5707"/>
<polygon fill="midnightblue" stroke="midnightblue" points="82.5001,-48.3619 86,-58.3619 89.5001,-48.3619 82.5001,-48.3619"/>
</g>
<!-- Node3 -->
<g id="node4" class="node"><title>Node3</title>
<a xlink:href="classprt_1_1_attributable.html" target="_top" xlink:title="prt::Attributable">
<polygon fill="none" stroke="black" points="-0.5,-116.5 -0.5,-137.5 82.5,-137.5 82.5,-116.5 -0.5,-116.5"/>
<text text-anchor="middle" x="41" y="-124.5" font-family="Helvetica,sans-Serif" font-size="10.00">prt::Attributable</text>
</a>
</g>
<!-- Node3&#45;&gt;Node2 -->
<g id="edge4" class="edge"><title>Node3&#45;&gt;Node2</title>
<path fill="none" stroke="midnightblue" d="M55.5471,-108.25C62.9181,-98.75 71.5961,-87.5651 77.7986,-79.5707"/>
<polygon fill="midnightblue" stroke="midnightblue" points="52.6184,-106.316 49.2537,-116.362 58.149,-110.607 52.6184,-106.316"/>
</g>
<!-- Node4 -->
<g id="node6" class="node"><title>Node4</title>
<a xlink:href="classprt_1_1_object.html" target="_top" xlink:title="prt::Object">
<polygon fill="none" stroke="black" points="100,-116.5 100,-137.5 162,-137.5 162,-116.5 100,-116.5"/>
<text text-anchor="middle" x="131" y="-124.5" font-family="Helvetica,sans-Serif" font-size="10.00">prt::Object</text>
</a>
</g>
<!-- Node4&#45;&gt;Node2 -->
<g id="edge6" class="edge"><title>Node4&#45;&gt;Node2</title>
<path fill="none" stroke="midnightblue" d="M116.453,-108.25C109.082,-98.75 100.404,-87.5651 94.2014,-79.5707"/>
<polygon fill="midnightblue" stroke="midnightblue" points="113.851,-110.607 122.746,-116.362 119.382,-106.316 113.851,-110.607"/>
</g>
</g>
</svg>
