<?xml version="1.0" encoding="UTF-8" standalone="no"?>
<!DOCTYPE svg PUBLIC "-//W3C//DTD SVG 1.1//EN"
 "http://www.w3.org/Graphics/SVG/1.1/DTD/svg11.dtd">
<!-- Generated by graphviz version 2.26.0 (20091210.2329)
 -->
<!-- Title: prtx::Decoder Pages: 1 -->
<svg width="468pt" height="190pt"
 viewBox="0.00 0.00 468.00 190.00" xmlns="http://www.w3.org/2000/svg" xmlns:xlink="http://www.w3.org/1999/xlink">
<g id="graph1" class="graph" transform="scale(1 1) rotate(0) translate(4 186)">
<title>prtx::Decoder</title>
<!-- Node1 -->
<g id="node1" class="node"><title>Node1</title>
<polygon fill="#bfbfbf" stroke="black" points="228,-80.5 228,-101.5 304,-101.5 304,-80.5 228,-80.5"/>
<text text-anchor="middle" x="266" y="-88.5" font-family="Helvetica,sans-Serif" font-size="10.00">prtx::Decoder</text>
</g>
<!-- Node4 -->
<g id="node7" class="node"><title>Node4</title>
<a xlink:href="classprtx_1_1_c_g_b_decoder.html" target="_top" xlink:title="prtx::CGBDecoder">
<polygon fill="none" stroke="black" points="351,-160.5 351,-181.5 449,-181.5 449,-160.5 351,-160.5"/>
<text text-anchor="middle" x="400" y="-168.5" font-family="Helvetica,sans-Serif" font-size="10.00">prtx::CGBDecoder</text>
</a>
</g>
<!-- Node1&#45;&gt;Node4 -->
<g id="edge6" class="edge"><title>Node1&#45;&gt;Node4</title>
<path fill="none" stroke="midnightblue" d="M284.171,-108.889C298.376,-122.05 319.148,-139.567 340,-151 346.643,-154.642 354.064,-157.774 361.361,-160.406"/>
<polygon fill="midnightblue" stroke="midnightblue" points="286.28,-106.066 276.616,-101.723 281.463,-111.144 286.28,-106.066"/>
</g>
<!-- Node5 -->
<g id="node9" class="node"><title>Node5</title>
<a xlink:href="classprtx_1_1_geometry_decoder.html" target="_top" xlink:title="prtx::GeometryDecoder">
<polygon fill="none" stroke="black" points="340.5,-120.5 340.5,-141.5 459.5,-141.5 459.5,-120.5 340.5,-120.5"/>
<text text-anchor="middle" x="400" y="-128.5" font-family="Helvetica,sans-Serif" font-size="10.00">prtx::GeometryDecoder</text>
</a>
</g>
<!-- Node1&#45;&gt;Node5 -->
<g id="edge8" class="edge"><title>Node1&#45;&gt;Node5</title>
<path fill="none" stroke="midnightblue" d="M311.163,-104.481C328.575,-109.679 348.197,-115.537 364.563,-120.422"/>
<polygon fill="midnightblue" stroke="midnightblue" points="311.79,-101.016 301.207,-101.51 309.788,-107.724 311.79,-101.016"/>
</g>
<!-- Node6 -->
<g id="node11" class="node"><title>Node6</title>
<a xlink:href="classprtx_1_1_material_decoder.html" target="_top" xlink:title="prtx::MaterialDecoder">
<polygon fill="none" stroke="black" points="345,-80.5 345,-101.5 455,-101.5 455,-80.5 345,-80.5"/>
<text text-anchor="middle" x="400" y="-88.5" font-family="Helvetica,sans-Serif" font-size="10.00">prtx::MaterialDecoder</text>
</a>
</g>
<!-- Node1&#45;&gt;Node6 -->
<g id="edge10" class="edge"><title>Node1&#45;&gt;Node6</title>
<path fill="none" stroke="midnightblue" d="M314.156,-91C324.113,-91 334.673,-91 344.857,-91"/>
<polygon fill="midnightblue" stroke="midnightblue" points="314.041,-87.5001 304.041,-91 314.041,-94.5001 314.041,-87.5001"/>
</g>
<!-- Node7 -->
<g id="node13" class="node"><title>Node7</title>
<a xlink:href="classprtx_1_1_shader_decoder.html" target="_top" xlink:title="prtx::ShaderDecoder">
<polygon fill="none" stroke="black" points="346.5,-40.5 346.5,-61.5 453.5,-61.5 453.5,-40.5 346.5,-40.5"/>
<text text-anchor="middle" x="400" y="-48.5" font-family="Helvetica,sans-Serif" font-size="10.00">prtx::ShaderDecoder</text>
</a>
</g>
<!-- Node1&#45;&gt;Node7 -->
<g id="edge12" class="edge"><title>Node1&#45;&gt;Node7</title>
<path fill="none" stroke="midnightblue" d="M311.163,-77.5186C328.575,-72.3208 348.197,-66.4635 364.563,-61.5782"/>
<polygon fill="midnightblue" stroke="midnightblue" points="309.788,-74.2763 301.207,-80.4905 311.79,-80.9838 309.788,-74.2763"/>
</g>
<!-- Node8 -->
<g id="node15" class="node"><title>Node8</title>
<a xlink:href="classprtx_1_1_texture_decoder.html" target="_top" xlink:title="prtx::TextureDecoder">
<polygon fill="none" stroke="black" points="345.5,-0.5 345.5,-21.5 454.5,-21.5 454.5,-0.5 345.5,-0.5"/>
<text text-anchor="middle" x="400" y="-8.5" font-family="Helvetica,sans-Serif" font-size="10.00">prtx::TextureDecoder</text>
</a>
</g>
<!-- Node1&#45;&gt;Node8 -->
<g id="edge14" class="edge"><title>Node1&#45;&gt;Node8</title>
<path fill="none" stroke="midnightblue" d="M284.171,-73.1107C298.376,-59.9501 319.148,-42.4329 340,-31 346.643,-27.3576 354.064,-24.2257 361.361,-21.5938"/>
<polygon fill="midnightblue" stroke="midnightblue" points="281.463,-70.8557 276.616,-80.277 286.28,-75.9345 281.463,-70.8557"/>
</g>
<!-- Node2 -->
<g id="node2" class="node"><title>Node2</title>
<a xlink:href="classprtx_1_1_extension.html" target="_top" xlink:title="prtx::Extension">
<polygon fill="none" stroke="black" points="108.5,-80.5 108.5,-101.5 191.5,-101.5 191.5,-80.5 108.5,-80.5"/>
<text text-anchor="middle" x="150" y="-88.5" font-family="Helvetica,sans-Serif" font-size="10.00">prtx::Extension</text>
</a>
</g>
<!-- Node2&#45;&gt;Node1 -->
<g id="edge2" class="edge"><title>Node2&#45;&gt;Node1</title>
<path fill="none" stroke="midnightblue" d="M201.721,-91C210.503,-91 219.478,-91 227.83,-91"/>
<polygon fill="midnightblue" stroke="midnightblue" points="201.551,-87.5001 191.551,-91 201.551,-94.5001 201.551,-87.5001"/>
</g>
<!-- Node3 -->
<g id="node4" class="node"><title>Node3</title>
<polygon fill="none" stroke="#bfbfbf" points="0.5,-80.5 0.5,-101.5 71.5,-101.5 71.5,-80.5 0.5,-80.5"/>
<text text-anchor="middle" x="36" y="-88.5" font-family="Helvetica,sans-Serif" font-size="10.00">noncopyable</text>
</g>
<!-- Node3&#45;&gt;Node2 -->
<g id="edge4" class="edge"><title>Node3&#45;&gt;Node2</title>
<path fill="none" stroke="#8b1a1a" d="M81.8382,-91C90.614,-91 99.7572,-91 108.391,-91"/>
<polygon fill="#8b1a1a" stroke="#8b1a1a" points="81.7576,-87.5001 71.7575,-91 81.7575,-94.5001 81.7576,-87.5001"/>
</g>
</g>
</svg>
