<?xml version="1.0" encoding="UTF-8" standalone="no"?>
<!DOCTYPE svg PUBLIC "-//W3C//DTD SVG 1.1//EN"
 "http://www.w3.org/Graphics/SVG/1.1/DTD/svg11.dtd">
<!-- Generated by graphviz version 2.40.1 (0)
 -->
<!-- Title: prtx::Content Pages: 1 -->
<svg width="354pt" height="218pt"
 viewBox="0.00 0.00 354.00 218.00" xmlns="http://www.w3.org/2000/svg" xmlns:xlink="http://www.w3.org/1999/xlink">
<g id="graph0" class="graph" transform="scale(1 1) rotate(0) translate(4 214)">
<title>prtx::Content</title>
<!-- Node0 -->
<g id="node1" class="node">
<title>Node0</title>
<polygon fill="#bfbfbf" stroke="#000000" points="0,-95.5 0,-114.5 74,-114.5 74,-95.5 0,-95.5"/>
<text text-anchor="middle" x="37" y="-102.5" font-family="Helvetica,sans-Serif" font-size="10.00" fill="#000000">prtx::Content</text>
</g>
<!-- Node1 -->
<g id="node2" class="node">
<title>Node1</title>
<g id="a_node2"><a xlink:href="classprtx_1_1_c_g_b.html" target="_top" xlink:title="prtx::CGB">
<polygon fill="none" stroke="#000000" points="142.5,-190.5 142.5,-209.5 203.5,-209.5 203.5,-190.5 142.5,-190.5"/>
<text text-anchor="middle" x="173" y="-197.5" font-family="Helvetica,sans-Serif" font-size="10.00" fill="#000000">prtx::CGB</text>
</a>
</g>
</g>
<!-- Node0&#45;&gt;Node1 -->
<g id="edge1" class="edge">
<title>Node0&#45;&gt;Node1</title>
<path fill="none" stroke="#191970" d="M49.7527,-122.846C62.97,-140.0967 85.151,-165.7916 110,-181 119.744,-186.9636 131.4885,-191.1674 142.1838,-194.0761"/>
<polygon fill="#191970" stroke="#191970" points="52.4672,-120.6309 43.6913,-114.695 46.85,-124.808 52.4672,-120.6309"/>
</g>
<!-- Node2 -->
<g id="node3" class="node">
<title>Node2</title>
<g id="a_node3"><a xlink:href="classprtx_1_1_comparable_content.html" target="_top" xlink:title="prtx::ComparableContent">
<polygon fill="none" stroke="#000000" points="110,-152.5 110,-171.5 236,-171.5 236,-152.5 110,-152.5"/>
<text text-anchor="middle" x="173" y="-159.5" font-family="Helvetica,sans-Serif" font-size="10.00" fill="#000000">prtx::ComparableContent</text>
</a>
</g>
</g>
<!-- Node0&#45;&gt;Node2 -->
<g id="edge2" class="edge">
<title>Node0&#45;&gt;Node2</title>
<path fill="none" stroke="#191970" d="M62.0167,-119.5068C75.8605,-127.1525 93.5481,-136.3059 110,-143 118.677,-146.5306 128.2591,-149.7488 137.2762,-152.4925"/>
<polygon fill="#191970" stroke="#191970" points="63.5419,-116.3492 53.1091,-114.5032 60.1137,-122.4522 63.5419,-116.3492"/>
</g>
<!-- Node6 -->
<g id="node7" class="node">
<title>Node6</title>
<g id="a_node7"><a xlink:href="classprtx_1_1_c_t_string.html" target="_top" xlink:title="prtx::CTString">
<polygon fill="none" stroke="#000000" points="134,-114.5 134,-133.5 212,-133.5 212,-114.5 134,-114.5"/>
<text text-anchor="middle" x="173" y="-121.5" font-family="Helvetica,sans-Serif" font-size="10.00" fill="#000000">prtx::CTString</text>
</a>
</g>
</g>
<!-- Node0&#45;&gt;Node6 -->
<g id="edge6" class="edge">
<title>Node0&#45;&gt;Node6</title>
<path fill="none" stroke="#191970" d="M84.5009,-111.6362C100.6734,-113.8956 118.5525,-116.3934 133.9823,-118.549"/>
<polygon fill="#191970" stroke="#191970" points="84.5507,-108.1092 74.1626,-110.1918 83.5821,-115.0419 84.5507,-108.1092"/>
</g>
<!-- Node7 -->
<g id="node8" class="node">
<title>Node7</title>
<g id="a_node8"><a xlink:href="classprtx_1_1_geometry.html" target="_top" xlink:title="prtx::Geometry">
<polygon fill="none" stroke="#000000" points="132,-76.5 132,-95.5 214,-95.5 214,-76.5 132,-76.5"/>
<text text-anchor="middle" x="173" y="-83.5" font-family="Helvetica,sans-Serif" font-size="10.00" fill="#000000">prtx::Geometry</text>
</a>
</g>
</g>
<!-- Node0&#45;&gt;Node7 -->
<g id="edge7" class="edge">
<title>Node0&#45;&gt;Node7</title>
<path fill="none" stroke="#191970" d="M84.4931,-98.3649C99.8323,-96.222 116.7074,-93.8644 131.5722,-91.7877"/>
<polygon fill="#191970" stroke="#191970" points="83.5821,-94.9581 74.1626,-99.8082 84.5507,-101.8908 83.5821,-94.9581"/>
</g>
<!-- Node8 -->
<g id="node9" class="node">
<title>Node8</title>
<g id="a_node9"><a xlink:href="classprtx_1_1_mesh.html" target="_top" xlink:title="prtx::Mesh">
<polygon fill="none" stroke="#000000" points="141.5,-38.5 141.5,-57.5 204.5,-57.5 204.5,-38.5 141.5,-38.5"/>
<text text-anchor="middle" x="173" y="-45.5" font-family="Helvetica,sans-Serif" font-size="10.00" fill="#000000">prtx::Mesh</text>
</a>
</g>
</g>
<!-- Node0&#45;&gt;Node8 -->
<g id="edge8" class="edge">
<title>Node0&#45;&gt;Node8</title>
<path fill="none" stroke="#191970" d="M62.0167,-90.4932C75.8605,-82.8475 93.5481,-73.6941 110,-67 119.9468,-62.9528 131.083,-59.316 141.194,-56.334"/>
<polygon fill="#191970" stroke="#191970" points="60.1137,-87.5478 53.1091,-95.4968 63.5419,-93.6508 60.1137,-87.5478"/>
</g>
<!-- Node9 -->
<g id="node10" class="node">
<title>Node9</title>
<g id="a_node10"><a xlink:href="classprtx_1_1_table.html" target="_top" xlink:title="prtx::Table">
<polygon fill="none" stroke="#000000" points="142,-.5 142,-19.5 204,-19.5 204,-.5 142,-.5"/>
<text text-anchor="middle" x="173" y="-7.5" font-family="Helvetica,sans-Serif" font-size="10.00" fill="#000000">prtx::Table</text>
</a>
</g>
</g>
<!-- Node0&#45;&gt;Node9 -->
<g id="edge9" class="edge">
<title>Node0&#45;&gt;Node9</title>
<path fill="none" stroke="#191970" d="M49.7527,-87.154C62.97,-69.9033 85.151,-44.2084 110,-29 119.6465,-23.096 131.2538,-18.9169 141.8627,-16.0115"/>
<polygon fill="#191970" stroke="#191970" points="46.85,-85.192 43.6913,-95.305 52.4672,-89.3691 46.85,-85.192"/>
</g>
<!-- Node3 -->
<g id="node4" class="node">
<title>Node3</title>
<g id="a_node4"><a xlink:href="classprtx_1_1_material.html" target="_top" xlink:title="prtx::Material">
<polygon fill="none" stroke="#000000" points="272,-190.5 272,-209.5 346,-209.5 346,-190.5 272,-190.5"/>
<text text-anchor="middle" x="309" y="-197.5" font-family="Helvetica,sans-Serif" font-size="10.00" fill="#000000">prtx::Material</text>
</a>
</g>
</g>
<!-- Node2&#45;&gt;Node3 -->
<g id="edge3" class="edge">
<title>Node2&#45;&gt;Node3</title>
<path fill="none" stroke="#191970" d="M217.0866,-174.3183C235.7722,-179.5393 257.2183,-185.5316 274.6924,-190.4141"/>
<polygon fill="#191970" stroke="#191970" points="217.8915,-170.9092 207.3185,-171.589 216.0078,-177.651 217.8915,-170.9092"/>
</g>
<!-- Node4 -->
<g id="node5" class="node">
<title>Node4</title>
<g id="a_node5"><a xlink:href="classprtx_1_1_shader.html" target="_top" xlink:title="prtx::Shader">
<polygon fill="none" stroke="#000000" points="274,-152.5 274,-171.5 344,-171.5 344,-152.5 274,-152.5"/>
<text text-anchor="middle" x="309" y="-159.5" font-family="Helvetica,sans-Serif" font-size="10.00" fill="#000000">prtx::Shader</text>
</a>
</g>
</g>
<!-- Node2&#45;&gt;Node4 -->
<g id="edge4" class="edge">
<title>Node2&#45;&gt;Node4</title>
<path fill="none" stroke="#191970" d="M246.5174,-162C255.9854,-162 265.3098,-162 273.75,-162"/>
<polygon fill="#191970" stroke="#191970" points="246.2223,-158.5001 236.2223,-162 246.2222,-165.5001 246.2223,-158.5001"/>
</g>
<!-- Node5 -->
<g id="node6" class="node">
<title>Node5</title>
<g id="a_node6"><a xlink:href="classprtx_1_1_texture.html" target="_top" xlink:title="prtx::Texture">
<polygon fill="none" stroke="#000000" points="273.5,-114.5 273.5,-133.5 344.5,-133.5 344.5,-114.5 273.5,-114.5"/>
<text text-anchor="middle" x="309" y="-121.5" font-family="Helvetica,sans-Serif" font-size="10.00" fill="#000000">prtx::Texture</text>
</a>
</g>
</g>
<!-- Node2&#45;&gt;Node5 -->
<g id="edge5" class="edge">
<title>Node2&#45;&gt;Node5</title>
<path fill="none" stroke="#191970" d="M217.0866,-149.6817C235.7722,-144.4607 257.2183,-138.4684 274.6924,-133.5859"/>
<polygon fill="#191970" stroke="#191970" points="216.0078,-146.349 207.3185,-152.411 217.8915,-153.0908 216.0078,-146.349"/>
</g>
</g>
</svg>
