<?xml version="1.0" encoding="UTF-8" standalone="no"?>
<!DOCTYPE svg PUBLIC "-//W3C//DTD SVG 1.1//EN"
 "http://www.w3.org/Graphics/SVG/1.1/DTD/svg11.dtd">
<!-- Generated by graphviz version 2.40.1 (0)
 -->
<!-- Title: prtx::Shape Pages: 1 -->
<svg width="254pt" height="196pt"
 viewBox="0.00 0.00 253.50 196.00" xmlns="http://www.w3.org/2000/svg" xmlns:xlink="http://www.w3.org/1999/xlink">
<g id="graph0" class="graph" transform="scale(1 1) rotate(0) translate(4 192)">
<title>prtx::Shape</title>
<!-- Node0 -->
<g id="node1" class="node">
<title>Node0</title>
<polygon fill="#bfbfbf" stroke="#000000" points="76,-.5 76,-19.5 143,-19.5 143,-.5 76,-.5"/>
<text text-anchor="middle" x="109.5" y="-7.5" font-family="Helvetica,sans-Serif" font-size="10.00" fill="#000000">prtx::Shape</text>
</g>
<!-- Node1 -->
<g id="node2" class="node">
<title>Node1</title>
<g id="a_node2"><a xlink:href="classprtx_1_1_attributable.html" target="_top" xlink:title="prtx::Attributable">
<polygon fill="none" stroke="#000000" points="0,-56.5 0,-75.5 89,-75.5 89,-56.5 0,-56.5"/>
<text text-anchor="middle" x="44.5" y="-63.5" font-family="Helvetica,sans-Serif" font-size="10.00" fill="#000000">prtx::Attributable</text>
</a>
</g>
</g>
<!-- Node1&#45;&gt;Node0 -->
<g id="edge1" class="edge">
<title>Node1&#45;&gt;Node0</title>
<path fill="none" stroke="#191970" d="M63.4835,-49.645C74.7879,-39.9058 88.747,-27.8795 98.3076,-19.6427"/>
<polygon fill="#191970" stroke="#191970" points="61.1138,-47.0668 55.8221,-56.2455 65.6827,-52.3701 61.1138,-47.0668"/>
</g>
<!-- Node2 -->
<g id="node3" class="node">
<title>Node2</title>
<g id="a_node3"><a xlink:href="classprtx_1_1_builtin_shape_attributes.html" target="_top" xlink:title="prtx::BuiltinShapeAttributes">
<polygon fill="none" stroke="#000000" points="107.5,-56.5 107.5,-75.5 243.5,-75.5 243.5,-56.5 107.5,-56.5"/>
<text text-anchor="middle" x="175.5" y="-63.5" font-family="Helvetica,sans-Serif" font-size="10.00" fill="#000000">prtx::BuiltinShapeAttributes</text>
</a>
</g>
</g>
<!-- Node2&#45;&gt;Node0 -->
<g id="edge2" class="edge">
<title>Node2&#45;&gt;Node0</title>
<path fill="none" stroke="#191970" d="M156.2245,-49.645C144.7462,-39.9058 130.5723,-27.8795 120.8646,-19.6427"/>
<polygon fill="#191970" stroke="#191970" points="154.1141,-52.4445 164.0037,-56.2455 158.643,-47.1069 154.1141,-52.4445"/>
</g>
<!-- Node3 -->
<g id="node4" class="node">
<title>Node3</title>
<g id="a_node4"><a xlink:href="classprtx_1_1_builtin_attributes_getters.html" target="_top" xlink:title="prtx::BuiltinAttributesGetters">
<polygon fill="none" stroke="#000000" points="105.5,-112.5 105.5,-131.5 245.5,-131.5 245.5,-112.5 105.5,-112.5"/>
<text text-anchor="middle" x="175.5" y="-119.5" font-family="Helvetica,sans-Serif" font-size="10.00" fill="#000000">prtx::BuiltinAttributesGetters</text>
</a>
</g>
</g>
<!-- Node3&#45;&gt;Node2 -->
<g id="edge3" class="edge">
<title>Node3&#45;&gt;Node2</title>
<path fill="none" stroke="#191970" d="M175.5,-102.1575C175.5,-93.155 175.5,-82.9199 175.5,-75.6427"/>
<polygon fill="#191970" stroke="#191970" points="172.0001,-102.2455 175.5,-112.2455 179.0001,-102.2456 172.0001,-102.2455"/>
</g>
<!-- Node4 -->
<g id="node5" class="node">
<title>Node4</title>
<g id="a_node5"><a xlink:href="classprtx_1_1_builtin_attributes.html" target="_top" xlink:title="prtx::BuiltinAttributes">
<polygon fill="none" stroke="#000000" points="121.5,-168.5 121.5,-187.5 229.5,-187.5 229.5,-168.5 121.5,-168.5"/>
<text text-anchor="middle" x="175.5" y="-175.5" font-family="Helvetica,sans-Serif" font-size="10.00" fill="#000000">prtx::BuiltinAttributes</text>
</a>
</g>
</g>
<!-- Node4&#45;&gt;Node3 -->
<g id="edge4" class="edge">
<title>Node4&#45;&gt;Node3</title>
<path fill="none" stroke="#191970" d="M175.5,-158.1575C175.5,-149.155 175.5,-138.9199 175.5,-131.6427"/>
<polygon fill="#191970" stroke="#191970" points="172.0001,-158.2455 175.5,-168.2455 179.0001,-158.2456 172.0001,-158.2455"/>
</g>
</g>
</svg>
