<?xml version="1.0" encoding="UTF-8" standalone="no"?>
<!DOCTYPE svg PUBLIC "-//W3C//DTD SVG 1.1//EN"
 "http://www.w3.org/Graphics/SVG/1.1/DTD/svg11.dtd">
<!-- Generated by graphviz version 2.26.0 (20091210.2329)
 -->
<!-- Title: prtx::ExtensionFactory Pages: 1 -->
<svg width="366pt" height="88pt"
 viewBox="0.00 0.00 366.00 88.00" xmlns="http://www.w3.org/2000/svg" xmlns:xlink="http://www.w3.org/1999/xlink">
<g id="graph1" class="graph" transform="scale(1 1) rotate(0) translate(4 84)">
<title>prtx::ExtensionFactory</title>
<!-- Node1 -->
<g id="node1" class="node"><title>Node1</title>
<polygon fill="#bfbfbf" stroke="black" points="120,-58.5 120,-79.5 236,-79.5 236,-58.5 120,-58.5"/>
<text text-anchor="middle" x="178" y="-66.5" font-family="Helvetica,sans-Serif" font-size="10.00">prtx::ExtensionFactory</text>
</g>
<!-- Node2 -->
<g id="node3" class="node"><title>Node2</title>
<a xlink:href="classprtx_1_1_adaptor_factory.html" target="_top" xlink:title="prtx::AdaptorFactory">
<polygon fill="none" stroke="black" points="0,-0.5 0,-21.5 106,-21.5 106,-0.5 0,-0.5"/>
<text text-anchor="middle" x="53" y="-8.5" font-family="Helvetica,sans-Serif" font-size="10.00">prtx::AdaptorFactory</text>
</a>
</g>
<!-- Node1&#45;&gt;Node2 -->
<g id="edge2" class="edge"><title>Node1&#45;&gt;Node2</title>
<path fill="none" stroke="midnightblue" d="M146.117,-54.2064C124.188,-44.031 95.5791,-30.7567 75.8906,-21.6212"/>
<polygon fill="midnightblue" stroke="midnightblue" points="144.819,-57.4625 155.363,-58.4966 147.766,-51.1127 144.819,-57.4625"/>
</g>
<!-- Node3 -->
<g id="node5" class="node"><title>Node3</title>
<a xlink:href="classprtx_1_1_decoder_factory.html" target="_top" xlink:title="prtx::DecoderFactory">
<polygon fill="none" stroke="black" points="123.5,-0.5 123.5,-21.5 232.5,-21.5 232.5,-0.5 123.5,-0.5"/>
<text text-anchor="middle" x="178" y="-8.5" font-family="Helvetica,sans-Serif" font-size="10.00">prtx::DecoderFactory</text>
</a>
</g>
<!-- Node1&#45;&gt;Node3 -->
<g id="edge4" class="edge"><title>Node1&#45;&gt;Node3</title>
<path fill="none" stroke="midnightblue" d="M178,-48.1906C178,-39.1684 178,-28.9941 178,-21.5707"/>
<polygon fill="midnightblue" stroke="midnightblue" points="174.5,-48.3619 178,-58.3619 181.5,-48.3619 174.5,-48.3619"/>
</g>
<!-- Node4 -->
<g id="node7" class="node"><title>Node4</title>
<a xlink:href="classprtx_1_1_encoder_factory.html" target="_top" xlink:title="prtx::EncoderFactory">
<polygon fill="none" stroke="black" points="250,-0.5 250,-21.5 358,-21.5 358,-0.5 250,-0.5"/>
<text text-anchor="middle" x="304" y="-8.5" font-family="Helvetica,sans-Serif" font-size="10.00">prtx::EncoderFactory</text>
</a>
</g>
<!-- Node1&#45;&gt;Node4 -->
<g id="edge6" class="edge"><title>Node1&#45;&gt;Node4</title>
<path fill="none" stroke="midnightblue" d="M210.138,-54.2064C232.243,-44.031 261.08,-30.7567 280.926,-21.6212"/>
<polygon fill="midnightblue" stroke="midnightblue" points="208.438,-51.1358 200.818,-58.4966 211.365,-57.4945 208.438,-51.1358"/>
</g>
</g>
</svg>
