<?xml version="1.0" encoding="UTF-8" standalone="no"?>
<!DOCTYPE svg PUBLIC "-//W3C//DTD SVG 1.1//EN"
 "http://www.w3.org/Graphics/SVG/1.1/DTD/svg11.dtd">
<!-- Generated by graphviz version 2.26.0 (20091210.2329)
 -->
<!-- Title: prtx::ComparableContent Pages: 1 -->
<svg width="260pt" height="204pt"
 viewBox="0.00 0.00 260.00 204.00" xmlns="http://www.w3.org/2000/svg" xmlns:xlink="http://www.w3.org/1999/xlink">
<g id="graph1" class="graph" transform="scale(1 1) rotate(0) translate(4 200)">
<title>prtx::ComparableContent</title>
<!-- Node1 -->
<g id="node1" class="node"><title>Node1</title>
<polygon fill="#bfbfbf" stroke="black" points="64,-58.5 64,-79.5 190,-79.5 190,-58.5 64,-58.5"/>
<text text-anchor="middle" x="127" y="-66.5" font-family="Helvetica,sans-Serif" font-size="10.00">prtx::ComparableContent</text>
</g>
<!-- Node4 -->
<g id="node7" class="node"><title>Node4</title>
<a xlink:href="classprtx_1_1_material.html" target="_top" xlink:title="prtx::Material">
<polygon fill="none" stroke="black" points="0,-0.5 0,-21.5 74,-21.5 74,-0.5 0,-0.5"/>
<text text-anchor="middle" x="37" y="-8.5" font-family="Helvetica,sans-Serif" font-size="10.00">prtx::Material</text>
</a>
</g>
<!-- Node1&#45;&gt;Node4 -->
<g id="edge6" class="edge"><title>Node1&#45;&gt;Node4</title>
<path fill="none" stroke="midnightblue" d="M101.895,-52.8215C86.3933,-42.8312 66.9471,-30.2993 53.4027,-21.5707"/>
<polygon fill="midnightblue" stroke="midnightblue" points="100.191,-55.8869 110.493,-58.3619 103.983,-50.0028 100.191,-55.8869"/>
</g>
<!-- Node5 -->
<g id="node9" class="node"><title>Node5</title>
<a xlink:href="classprtx_1_1_shader.html" target="_top" xlink:title="prtx::Shader">
<polygon fill="none" stroke="black" points="92,-0.5 92,-21.5 162,-21.5 162,-0.5 92,-0.5"/>
<text text-anchor="middle" x="127" y="-8.5" font-family="Helvetica,sans-Serif" font-size="10.00">prtx::Shader</text>
</a>
</g>
<!-- Node1&#45;&gt;Node5 -->
<g id="edge8" class="edge"><title>Node1&#45;&gt;Node5</title>
<path fill="none" stroke="midnightblue" d="M127,-48.1906C127,-39.1684 127,-28.9941 127,-21.5707"/>
<polygon fill="midnightblue" stroke="midnightblue" points="123.5,-48.3619 127,-58.3619 130.5,-48.3619 123.5,-48.3619"/>
</g>
<!-- Node6 -->
<g id="node11" class="node"><title>Node6</title>
<a xlink:href="classprtx_1_1_texture.html" target="_top" xlink:title="prtx::Texture">
<polygon fill="none" stroke="black" points="180,-0.5 180,-21.5 252,-21.5 252,-0.5 180,-0.5"/>
<text text-anchor="middle" x="216" y="-8.5" font-family="Helvetica,sans-Serif" font-size="10.00">prtx::Texture</text>
</a>
</g>
<!-- Node1&#45;&gt;Node6 -->
<g id="edge10" class="edge"><title>Node1&#45;&gt;Node6</title>
<path fill="none" stroke="midnightblue" d="M151.826,-52.8215C167.156,-42.8312 186.386,-30.2993 199.78,-21.5707"/>
<polygon fill="midnightblue" stroke="midnightblue" points="149.791,-49.9698 143.324,-58.3619 153.613,-55.8344 149.791,-49.9698"/>
</g>
<!-- Node2 -->
<g id="node2" class="node"><title>Node2</title>
<a xlink:href="classprtx_1_1_content.html" target="_top" xlink:title="prtx::Content">
<polygon fill="none" stroke="black" points="90,-116.5 90,-137.5 164,-137.5 164,-116.5 90,-116.5"/>
<text text-anchor="middle" x="127" y="-124.5" font-family="Helvetica,sans-Serif" font-size="10.00">prtx::Content</text>
</a>
</g>
<!-- Node2&#45;&gt;Node1 -->
<g id="edge2" class="edge"><title>Node2&#45;&gt;Node1</title>
<path fill="none" stroke="midnightblue" d="M127,-106.191C127,-97.1684 127,-86.9941 127,-79.5707"/>
<polygon fill="midnightblue" stroke="midnightblue" points="123.5,-106.362 127,-116.362 130.5,-106.362 123.5,-106.362"/>
</g>
<!-- Node3 -->
<g id="node4" class="node"><title>Node3</title>
<polygon fill="none" stroke="#bfbfbf" points="91.5,-174.5 91.5,-195.5 162.5,-195.5 162.5,-174.5 91.5,-174.5"/>
<text text-anchor="middle" x="127" y="-182.5" font-family="Helvetica,sans-Serif" font-size="10.00">noncopyable</text>
</g>
<!-- Node3&#45;&gt;Node2 -->
<g id="edge4" class="edge"><title>Node3&#45;&gt;Node2</title>
<path fill="none" stroke="#8b1a1a" d="M127,-164.191C127,-155.168 127,-144.994 127,-137.571"/>
<polygon fill="#8b1a1a" stroke="#8b1a1a" points="123.5,-164.362 127,-174.362 130.5,-164.362 123.5,-164.362"/>
</g>
</g>
</svg>
