<?xml version="1.0" encoding="UTF-8" standalone="no"?>
<!DOCTYPE svg PUBLIC "-//W3C//DTD SVG 1.1//EN"
 "http://www.w3.org/Graphics/SVG/1.1/DTD/svg11.dtd">
<!-- Generated by graphviz version 2.26.0 (20091210.2329)
 -->
<!-- Title: prtx::Adaptor Pages: 1 -->
<svg width="112pt" height="146pt"
 viewBox="0.00 0.00 112.00 146.00" xmlns="http://www.w3.org/2000/svg" xmlns:xlink="http://www.w3.org/1999/xlink">
<g id="graph1" class="graph" transform="scale(1 1) rotate(0) translate(4 142)">
<title>prtx::Adaptor</title>
<!-- Node1 -->
<g id="node1" class="node"><title>Node1</title>
<polygon fill="#bfbfbf" stroke="black" points="15.5,-58.5 15.5,-79.5 88.5,-79.5 88.5,-58.5 15.5,-58.5"/>
<text text-anchor="middle" x="52" y="-66.5" font-family="Helvetica,sans-Serif" font-size="10.00">prtx::Adaptor</text>
</g>
<!-- Node3 -->
<g id="node5" class="node"><title>Node3</title>
<a xlink:href="classprtx_1_1_stream_adaptor.html" target="_top" xlink:title="prtx::StreamAdaptor">
<polygon fill="none" stroke="black" points="0,-0.5 0,-21.5 104,-21.5 104,-0.5 0,-0.5"/>
<text text-anchor="middle" x="52" y="-8.5" font-family="Helvetica,sans-Serif" font-size="10.00">prtx::StreamAdaptor</text>
</a>
</g>
<!-- Node1&#45;&gt;Node3 -->
<g id="edge4" class="edge"><title>Node1&#45;&gt;Node3</title>
<path fill="none" stroke="midnightblue" d="M52,-48.1906C52,-39.1684 52,-28.9941 52,-21.5707"/>
<polygon fill="midnightblue" stroke="midnightblue" points="48.5001,-48.3619 52,-58.3619 55.5001,-48.3619 48.5001,-48.3619"/>
</g>
<!-- Node2 -->
<g id="node2" class="node"><title>Node2</title>
<a xlink:href="classprtx_1_1_extension.html" target="_top" xlink:title="prtx::Extension">
<polygon fill="none" stroke="black" points="10.5,-116.5 10.5,-137.5 93.5,-137.5 93.5,-116.5 10.5,-116.5"/>
<text text-anchor="middle" x="52" y="-124.5" font-family="Helvetica,sans-Serif" font-size="10.00">prtx::Extension</text>
</a>
</g>
<!-- Node2&#45;&gt;Node1 -->
<g id="edge2" class="edge"><title>Node2&#45;&gt;Node1</title>
<path fill="none" stroke="midnightblue" d="M52,-106.191C52,-97.1684 52,-86.9941 52,-79.5707"/>
<polygon fill="midnightblue" stroke="midnightblue" points="48.5001,-106.362 52,-116.362 55.5001,-106.362 48.5001,-106.362"/>
</g>
</g>
</svg>
