<?xml version="1.0" encoding="UTF-8" standalone="no"?>
<!DOCTYPE svg PUBLIC "-//W3C//DTD SVG 1.1//EN"
 "http://www.w3.org/Graphics/SVG/1.1/DTD/svg11.dtd">
<!-- Generated by graphviz version 2.26.0 (20091210.2329)
 -->
<!-- Title: prtx::ReportsAccumulator Pages: 1 -->
<svg width="370pt" height="160pt"
 viewBox="0.00 0.00 370.00 160.00" xmlns="http://www.w3.org/2000/svg" xmlns:xlink="http://www.w3.org/1999/xlink">
<g id="graph1" class="graph" transform="scale(1 1) rotate(0) translate(4 156)">
<title>prtx::ReportsAccumulator</title>
<!-- Node1 -->
<g id="node1" class="node"><title>Node1</title>
<polygon fill="#bfbfbf" stroke="black" points="118,-130.5 118,-151.5 246,-151.5 246,-130.5 118,-130.5"/>
<text text-anchor="middle" x="182" y="-138.5" font-family="Helvetica,sans-Serif" font-size="10.00">prtx::ReportsAccumulator</text>
</g>
<!-- Node2 -->
<g id="node3" class="node"><title>Node2</title>
<a xlink:href="classprtx_1_1_appending_reports_accumulator.html" target="_top" xlink:title="prtx::AppendingReportsAccumulator">
<polygon fill="none" stroke="black" points="0,-72.5 0,-93.5 174,-93.5 174,-72.5 0,-72.5"/>
<text text-anchor="middle" x="87" y="-80.5" font-family="Helvetica,sans-Serif" font-size="10.00">prtx::AppendingReportsAccumulator</text>
</a>
</g>
<!-- Node1&#45;&gt;Node2 -->
<g id="edge2" class="edge"><title>Node1&#45;&gt;Node2</title>
<path fill="none" stroke="midnightblue" d="M155.958,-125.101C139.522,-115.066 118.744,-102.381 104.314,-93.5707"/>
<polygon fill="midnightblue" stroke="midnightblue" points="154.217,-128.138 164.576,-130.362 157.864,-122.164 154.217,-128.138"/>
</g>
<!-- Node4 -->
<g id="node7" class="node"><title>Node4</title>
<a xlink:href="classprtx_1_1_write_first_reports_accumulator.html" target="_top" xlink:title="prtx::WriteFirstReportsAccumulator">
<polygon fill="none" stroke="black" points="191.5,-72.5 191.5,-93.5 362.5,-93.5 362.5,-72.5 191.5,-72.5"/>
<text text-anchor="middle" x="277" y="-80.5" font-family="Helvetica,sans-Serif" font-size="10.00">prtx::WriteFirstReportsAccumulator</text>
</a>
</g>
<!-- Node1&#45;&gt;Node4 -->
<g id="edge6" class="edge"><title>Node1&#45;&gt;Node4</title>
<path fill="none" stroke="midnightblue" d="M208.042,-125.101C224.478,-115.066 245.256,-102.381 259.686,-93.5707"/>
<polygon fill="midnightblue" stroke="midnightblue" points="206.136,-122.164 199.424,-130.362 209.783,-128.138 206.136,-122.164"/>
</g>
<!-- Node3 -->
<g id="node5" class="node"><title>Node3</title>
<a xlink:href="classprtx_1_1_summarizing_reports_accumulator.html" target="_top" xlink:title="prtx::SummarizingReports\lAccumulator">
<polygon fill="none" stroke="black" points="21.5,-1 21.5,-35 152.5,-35 152.5,-1 21.5,-1"/>
<text text-anchor="start" x="29.5" y="-22" font-family="Helvetica,sans-Serif" font-size="10.00">prtx::SummarizingReports</text>
<text text-anchor="middle" x="87" y="-9" font-family="Helvetica,sans-Serif" font-size="10.00">Accumulator</text>
</a>
</g>
<!-- Node2&#45;&gt;Node3 -->
<g id="edge4" class="edge"><title>Node2&#45;&gt;Node3</title>
<path fill="none" stroke="midnightblue" d="M87,-62.1306C87,-53.4049 87,-43.3908 87,-35.1099"/>
<polygon fill="midnightblue" stroke="midnightblue" points="83.5001,-62.2665 87,-72.2666 90.5001,-62.2666 83.5001,-62.2665"/>
</g>
</g>
</svg>
