<?xml version="1.0" encoding="UTF-8" standalone="no"?>
<!DOCTYPE svg PUBLIC "-//W3C//DTD SVG 1.1//EN"
 "http://www.w3.org/Graphics/SVG/1.1/DTD/svg11.dtd">
<!-- Generated by graphviz version 2.30.1 (20170916.1124)
 -->
<!-- Title: prtx::SummarizingReportsAccumulator Pages: 1 -->
<svg width="182pt" height="152pt"
 viewBox="0.00 0.00 182.00 152.00" xmlns="http://www.w3.org/2000/svg" xmlns:xlink="http://www.w3.org/1999/xlink">
<g id="graph0" class="graph" transform="scale(1 1) rotate(0) translate(4 148)">
<title>prtx::SummarizingReportsAccumulator</title>
<!-- Node1 -->
<g id="node1" class="node"><title>Node1</title>
<polygon fill="#bfbfbf" stroke="black" points="21.5,-1 21.5,-31 152.5,-31 152.5,-1 21.5,-1"/>
<text text-anchor="start" x="29.5" y="-19" font-family="Helvetica,sans-Serif" font-size="10.00">prtx::SummarizingReports</text>
<text text-anchor="middle" x="87" y="-8" font-family="Helvetica,sans-Serif" font-size="10.00">Accumulator</text>
</g>
<!-- Node2 -->
<g id="node2" class="node"><title>Node2</title>
<g id="a_node2"><a xlink:href="classprtx_1_1_appending_reports_accumulator.html" target="_top" xlink:title="prtx::AppendingReportsAccumulator">
<polygon fill="none" stroke="black" points="0,-68.5 0,-87.5 174,-87.5 174,-68.5 0,-68.5"/>
<text text-anchor="middle" x="87" y="-75.5" font-family="Helvetica,sans-Serif" font-size="10.00">prtx::AppendingReportsAccumulator</text>
</a>
</g>
</g>
<!-- Node2&#45;&gt;Node1 -->
<g id="edge1" class="edge"><title>Node2&#45;&gt;Node1</title>
<path fill="none" stroke="midnightblue" d="M87,-58.3707C87,-49.5849 87,-39.2721 87,-31.1408"/>
<polygon fill="midnightblue" stroke="midnightblue" points="83.5001,-58.4034 87,-68.4035 90.5001,-58.4035 83.5001,-58.4034"/>
</g>
<!-- Node3 -->
<g id="node3" class="node"><title>Node3</title>
<g id="a_node3"><a xlink:href="classprtx_1_1_reports_accumulator.html" target="_top" xlink:title="prtx::ReportsAccumulator">
<polygon fill="none" stroke="black" points="23,-124.5 23,-143.5 151,-143.5 151,-124.5 23,-124.5"/>
<text text-anchor="middle" x="87" y="-131.5" font-family="Helvetica,sans-Serif" font-size="10.00">prtx::ReportsAccumulator</text>
</a>
</g>
</g>
<!-- Node3&#45;&gt;Node2 -->
<g id="edge2" class="edge"><title>Node3&#45;&gt;Node2</title>
<path fill="none" stroke="midnightblue" d="M87,-113.805C87,-104.91 87,-94.7798 87,-87.7511"/>
<polygon fill="midnightblue" stroke="midnightblue" points="83.5001,-114.083 87,-124.083 90.5001,-114.083 83.5001,-114.083"/>
</g>
</g>
</svg>
