<?xml version="1.0" encoding="UTF-8" standalone="no"?>
<!DOCTYPE svg PUBLIC "-//W3C//DTD SVG 1.1//EN"
 "http://www.w3.org/Graphics/SVG/1.1/DTD/svg11.dtd">
<!-- Generated by graphviz version 2.30.1 (20170916.1124)
 -->
<!-- Title: prtx::Decoder Pages: 1 -->
<svg width="360pt" height="218pt"
 viewBox="0.00 0.00 360.00 218.00" xmlns="http://www.w3.org/2000/svg" xmlns:xlink="http://www.w3.org/1999/xlink">
<g id="graph0" class="graph" transform="scale(1 1) rotate(0) translate(4 214)">
<title>prtx::Decoder</title>
<!-- Node1 -->
<g id="node1" class="node"><title>Node1</title>
<polygon fill="#bfbfbf" stroke="black" points="120,-95.5 120,-114.5 196,-114.5 196,-95.5 120,-95.5"/>
<text text-anchor="middle" x="158" y="-102.5" font-family="Helvetica,sans-Serif" font-size="10.00">prtx::Decoder</text>
</g>
<!-- Node3 -->
<g id="node3" class="node"><title>Node3</title>
<g id="a_node3"><a xlink:href="classprtx_1_1_c_g_b_decoder.html" target="_top" xlink:title="prtx::CGBDecoder">
<polygon fill="none" stroke="black" points="243,-190.5 243,-209.5 341,-209.5 341,-190.5 243,-190.5"/>
<text text-anchor="middle" x="292" y="-197.5" font-family="Helvetica,sans-Serif" font-size="10.00">prtx::CGBDecoder</text>
</a>
</g>
</g>
<!-- Node1&#45;&gt;Node3 -->
<g id="edge2" class="edge"><title>Node1&#45;&gt;Node3</title>
<path fill="none" stroke="midnightblue" d="M171.814,-122.747C185.078,-139.922 207.294,-165.561 232,-181 238.114,-184.821 245.069,-187.943 252.006,-190.471"/>
<polygon fill="midnightblue" stroke="midnightblue" points="174.529,-120.534 165.728,-114.636 168.93,-124.735 174.529,-120.534"/>
</g>
<!-- Node4 -->
<g id="node4" class="node"><title>Node4</title>
<g id="a_node4"><a xlink:href="classprtx_1_1_geometry_decoder.html" target="_top" xlink:title="prtx::GeometryDecoder">
<polygon fill="none" stroke="black" points="232.5,-152.5 232.5,-171.5 351.5,-171.5 351.5,-152.5 232.5,-152.5"/>
<text text-anchor="middle" x="292" y="-159.5" font-family="Helvetica,sans-Serif" font-size="10.00">prtx::GeometryDecoder</text>
</a>
</g>
</g>
<!-- Node1&#45;&gt;Node4 -->
<g id="edge3" class="edge"><title>Node1&#45;&gt;Node4</title>
<path fill="none" stroke="midnightblue" d="M184.339,-119.535C198.157,-127.115 215.718,-136.198 232,-143 240.241,-146.443 249.341,-149.651 257.875,-152.414"/>
<polygon fill="midnightblue" stroke="midnightblue" points="185.872,-116.383 175.433,-114.574 182.466,-122.498 185.872,-116.383"/>
</g>
<!-- Node5 -->
<g id="node5" class="node"><title>Node5</title>
<g id="a_node5"><a xlink:href="classprtx_1_1_material_decoder.html" target="_top" xlink:title="prtx::MaterialDecoder">
<polygon fill="none" stroke="black" points="237,-114.5 237,-133.5 347,-133.5 347,-114.5 237,-114.5"/>
<text text-anchor="middle" x="292" y="-121.5" font-family="Helvetica,sans-Serif" font-size="10.00">prtx::MaterialDecoder</text>
</a>
</g>
</g>
<!-- Node1&#45;&gt;Node5 -->
<g id="edge4" class="edge"><title>Node1&#45;&gt;Node5</title>
<path fill="none" stroke="midnightblue" d="M206.221,-111.797C216.169,-113.229 226.738,-114.75 236.916,-116.215"/>
<polygon fill="midnightblue" stroke="midnightblue" points="206.517,-108.304 196.121,-110.343 205.52,-115.232 206.517,-108.304"/>
</g>
<!-- Node6 -->
<g id="node6" class="node"><title>Node6</title>
<g id="a_node6"><a xlink:href="classprtx_1_1_string_decoder.html" target="_top" xlink:title="prtx::StringDecoder">
<polygon fill="none" stroke="black" points="241.5,-76.5 241.5,-95.5 342.5,-95.5 342.5,-76.5 241.5,-76.5"/>
<text text-anchor="middle" x="292" y="-83.5" font-family="Helvetica,sans-Serif" font-size="10.00">prtx::StringDecoder</text>
</a>
</g>
</g>
<!-- Node1&#45;&gt;Node6 -->
<g id="edge5" class="edge"><title>Node1&#45;&gt;Node6</title>
<path fill="none" stroke="midnightblue" d="M206.3,-98.1917C217.679,-96.5538 229.866,-94.7995 241.349,-93.1467"/>
<polygon fill="midnightblue" stroke="midnightblue" points="205.52,-94.7678 196.121,-99.6569 206.517,-101.696 205.52,-94.7678"/>
</g>
<!-- Node7 -->
<g id="node7" class="node"><title>Node7</title>
<g id="a_node7"><a xlink:href="classprtx_1_1_table_decoder.html" target="_top" xlink:title="prtx::TableDecoder">
<polygon fill="none" stroke="black" points="242,-38.5 242,-57.5 342,-57.5 342,-38.5 242,-38.5"/>
<text text-anchor="middle" x="292" y="-45.5" font-family="Helvetica,sans-Serif" font-size="10.00">prtx::TableDecoder</text>
</a>
</g>
</g>
<!-- Node1&#45;&gt;Node7 -->
<g id="edge6" class="edge"><title>Node1&#45;&gt;Node7</title>
<path fill="none" stroke="midnightblue" d="M184.339,-90.4652C198.157,-82.8853 215.718,-73.8023 232,-67 240.241,-63.5568 249.341,-60.3491 257.875,-57.5861"/>
<polygon fill="midnightblue" stroke="midnightblue" points="182.466,-87.5023 175.433,-95.4263 185.872,-93.6175 182.466,-87.5023"/>
</g>
<!-- Node8 -->
<g id="node8" class="node"><title>Node8</title>
<g id="a_node8"><a xlink:href="classprtx_1_1_texture_decoder.html" target="_top" xlink:title="prtx::TextureDecoder">
<polygon fill="none" stroke="black" points="237.5,-0.5 237.5,-19.5 346.5,-19.5 346.5,-0.5 237.5,-0.5"/>
<text text-anchor="middle" x="292" y="-7.5" font-family="Helvetica,sans-Serif" font-size="10.00">prtx::TextureDecoder</text>
</a>
</g>
</g>
<!-- Node1&#45;&gt;Node8 -->
<g id="edge7" class="edge"><title>Node1&#45;&gt;Node8</title>
<path fill="none" stroke="midnightblue" d="M171.814,-87.2529C185.078,-70.0778 207.294,-44.4393 232,-29 238.114,-25.1791 245.069,-22.0568 252.006,-19.5291"/>
<polygon fill="midnightblue" stroke="midnightblue" points="168.93,-85.2648 165.728,-95.3641 174.529,-89.466 168.93,-85.2648"/>
</g>
<!-- Node2 -->
<g id="node2" class="node"><title>Node2</title>
<g id="a_node2"><a xlink:href="classprtx_1_1_extension.html" target="_top" xlink:title="prtx::Extension">
<polygon fill="none" stroke="black" points="0.5,-95.5 0.5,-114.5 83.5,-114.5 83.5,-95.5 0.5,-95.5"/>
<text text-anchor="middle" x="42" y="-102.5" font-family="Helvetica,sans-Serif" font-size="10.00">prtx::Extension</text>
</a>
</g>
</g>
<!-- Node2&#45;&gt;Node1 -->
<g id="edge1" class="edge"><title>Node2&#45;&gt;Node1</title>
<path fill="none" stroke="midnightblue" d="M93.6423,-105C102.393,-105 111.346,-105 119.662,-105"/>
<polygon fill="midnightblue" stroke="midnightblue" points="93.5132,-101.5 83.5131,-105 93.5131,-108.5 93.5132,-101.5"/>
</g>
</g>
</svg>
