<?xml version="1.0" encoding="UTF-8" standalone="no"?>
<!DOCTYPE svg PUBLIC "-//W3C//DTD SVG 1.1//EN"
 "http://www.w3.org/Graphics/SVG/1.1/DTD/svg11.dtd">
<!-- Generated by graphviz version 2.26.0 (20091210.2329)
 -->
<!-- Title: prtx::AppendingReportsAccumulator Pages: 1 -->
<svg width="182pt" height="160pt"
 viewBox="0.00 0.00 182.00 160.00" xmlns="http://www.w3.org/2000/svg" xmlns:xlink="http://www.w3.org/1999/xlink">
<g id="graph1" class="graph" transform="scale(1 1) rotate(0) translate(4 156)">
<title>prtx::AppendingReportsAccumulator</title>
<!-- Node1 -->
<g id="node1" class="node"><title>Node1</title>
<polygon fill="#bfbfbf" stroke="black" points="0,-72.5 0,-93.5 174,-93.5 174,-72.5 0,-72.5"/>
<text text-anchor="middle" x="87" y="-80.5" font-family="Helvetica,sans-Serif" font-size="10.00">prtx::AppendingReportsAccumulator</text>
</g>
<!-- Node3 -->
<g id="node5" class="node"><title>Node3</title>
<a xlink:href="classprtx_1_1_summarizing_reports_accumulator.html" target="_top" xlink:title="prtx::SummarizingReports\lAccumulator">
<polygon fill="none" stroke="black" points="21.5,-1 21.5,-35 152.5,-35 152.5,-1 21.5,-1"/>
<text text-anchor="start" x="29.5" y="-22" font-family="Helvetica,sans-Serif" font-size="10.00">prtx::SummarizingReports</text>
<text text-anchor="middle" x="87" y="-9" font-family="Helvetica,sans-Serif" font-size="10.00">Accumulator</text>
</a>
</g>
<!-- Node1&#45;&gt;Node3 -->
<g id="edge4" class="edge"><title>Node1&#45;&gt;Node3</title>
<path fill="none" stroke="midnightblue" d="M87,-62.1306C87,-53.4049 87,-43.3908 87,-35.1099"/>
<polygon fill="midnightblue" stroke="midnightblue" points="83.5001,-62.2665 87,-72.2666 90.5001,-62.2666 83.5001,-62.2665"/>
</g>
<!-- Node2 -->
<g id="node2" class="node"><title>Node2</title>
<a xlink:href="classprtx_1_1_reports_accumulator.html" target="_top" xlink:title="prtx::ReportsAccumulator">
<polygon fill="none" stroke="black" points="23,-130.5 23,-151.5 151,-151.5 151,-130.5 23,-130.5"/>
<text text-anchor="middle" x="87" y="-138.5" font-family="Helvetica,sans-Serif" font-size="10.00">prtx::ReportsAccumulator</text>
</a>
</g>
<!-- Node2&#45;&gt;Node1 -->
<g id="edge2" class="edge"><title>Node2&#45;&gt;Node1</title>
<path fill="none" stroke="midnightblue" d="M87,-120.191C87,-111.168 87,-100.994 87,-93.5707"/>
<polygon fill="midnightblue" stroke="midnightblue" points="83.5001,-120.362 87,-130.362 90.5001,-120.362 83.5001,-120.362"/>
</g>
</g>
</svg>
