<?xml version="1.0" encoding="UTF-8" standalone="no"?>
<!DOCTYPE svg PUBLIC "-//W3C//DTD SVG 1.1//EN"
 "http://www.w3.org/Graphics/SVG/1.1/DTD/svg11.dtd">
<!-- Generated by graphviz version 2.30.1 (20170916.1124)
 -->
<!-- Title: prt::LogHandler Pages: 1 -->
<svg width="243pt" height="84pt"
 viewBox="0.00 0.00 243.00 84.00" xmlns="http://www.w3.org/2000/svg" xmlns:xlink="http://www.w3.org/1999/xlink">
<g id="graph0" class="graph" transform="scale(1 1) rotate(0) translate(4 80)">
<title>prt::LogHandler</title>
<!-- Node1 -->
<g id="node1" class="node"><title>Node1</title>
<polygon fill="#bfbfbf" stroke="black" points="80.5,-56.5 80.5,-75.5 163.5,-75.5 163.5,-56.5 80.5,-56.5"/>
<text text-anchor="middle" x="122" y="-63.5" font-family="Helvetica,sans-Serif" font-size="10.00">prt::LogHandler</text>
</g>
<!-- Node2 -->
<g id="node2" class="node"><title>Node2</title>
<g id="a_node2"><a xlink:href="classprt_1_1_console_log_handler.html" target="_top" xlink:title="prt::ConsoleLogHandler">
<polygon fill="none" stroke="black" points="-0.5,-0.5 -0.5,-19.5 118.5,-19.5 118.5,-0.5 -0.5,-0.5"/>
<text text-anchor="middle" x="59" y="-7.5" font-family="Helvetica,sans-Serif" font-size="10.00">prt::ConsoleLogHandler</text>
</a>
</g>
</g>
<!-- Node1&#45;&gt;Node2 -->
<g id="edge1" class="edge"><title>Node1&#45;&gt;Node2</title>
<path fill="none" stroke="midnightblue" d="M103.96,-49.5372C92.7269,-39.9087 78.6809,-27.8694 69.3062,-19.8339"/>
<polygon fill="midnightblue" stroke="midnightblue" points="102.008,-52.4734 111.878,-56.324 106.563,-47.1586 102.008,-52.4734"/>
</g>
<!-- Node3 -->
<g id="node3" class="node"><title>Node3</title>
<g id="a_node3"><a xlink:href="classprt_1_1_file_log_handler.html" target="_top" xlink:title="prt::FileLogHandler">
<polygon fill="none" stroke="black" points="136.5,-0.5 136.5,-19.5 235.5,-19.5 235.5,-0.5 136.5,-0.5"/>
<text text-anchor="middle" x="186" y="-7.5" font-family="Helvetica,sans-Serif" font-size="10.00">prt::FileLogHandler</text>
</a>
</g>
</g>
<!-- Node1&#45;&gt;Node3 -->
<g id="edge2" class="edge"><title>Node1&#45;&gt;Node3</title>
<path fill="none" stroke="midnightblue" d="M139.991,-49.8197C151.458,-40.1452 165.913,-27.9481 175.53,-19.8339"/>
<polygon fill="midnightblue" stroke="midnightblue" points="137.669,-47.2002 132.283,-56.324 142.183,-52.5502 137.669,-47.2002"/>
</g>
</g>
</svg>
