<?xml version="1.0" encoding="UTF-8" standalone="no"?>
<!DOCTYPE svg PUBLIC "-//W3C//DTD SVG 1.1//EN"
 "http://www.w3.org/Graphics/SVG/1.1/DTD/svg11.dtd">
<!-- Generated by graphviz version 2.26.0 (20091210.2329)
 -->
<!-- Title: prtx::GeometryBuilder Pages: 1 -->
<svg width="252pt" height="102pt"
 viewBox="0.00 0.00 252.00 102.00" xmlns="http://www.w3.org/2000/svg" xmlns:xlink="http://www.w3.org/1999/xlink">
<g id="graph1" class="graph" transform="scale(1 1) rotate(0) translate(4 98)">
<title>prtx::GeometryBuilder</title>
<!-- Node1 -->
<g id="node1" class="node"><title>Node1</title>
<polygon fill="#bfbfbf" stroke="black" points="65,-0.5 65,-21.5 177,-21.5 177,-0.5 65,-0.5"/>
<text text-anchor="middle" x="121" y="-8.5" font-family="Helvetica,sans-Serif" font-size="10.00">prtx::GeometryBuilder</text>
</g>
<!-- Node2 -->
<g id="node2" class="node"><title>Node2</title>
<a xlink:href="classprtx_1_1_shared_ptr_builder.html" target="_top" xlink:title="prtx::SharedPtrBuilder\l\&lt; Geometry \&gt;">
<polygon fill="none" stroke="black" points="-0.5,-59 -0.5,-93 112.5,-93 112.5,-59 -0.5,-59"/>
<text text-anchor="start" x="7.5" y="-80" font-family="Helvetica,sans-Serif" font-size="10.00">prtx::SharedPtrBuilder</text>
<text text-anchor="middle" x="56" y="-67" font-family="Helvetica,sans-Serif" font-size="10.00">&lt; Geometry &gt;</text>
</a>
</g>
<!-- Node2&#45;&gt;Node1 -->
<g id="edge2" class="edge"><title>Node2&#45;&gt;Node1</title>
<path fill="none" stroke="midnightblue" d="M80.2898,-51.7102C90.5667,-41.4333 102.016,-29.9845 110.148,-21.8521"/>
<polygon fill="midnightblue" stroke="midnightblue" points="77.6742,-49.376 73.078,-58.922 82.624,-54.3258 77.6742,-49.376"/>
</g>
<!-- Node3 -->
<g id="node4" class="node"><title>Node3</title>
<a xlink:href="classprtx_1_1_attributable_setter.html" target="_top" xlink:title="prtx::AttributableSetter">
<polygon fill="none" stroke="black" points="129.5,-65.5 129.5,-86.5 244.5,-86.5 244.5,-65.5 129.5,-65.5"/>
<text text-anchor="middle" x="187" y="-73.5" font-family="Helvetica,sans-Serif" font-size="10.00">prtx::AttributableSetter</text>
</a>
</g>
<!-- Node3&#45;&gt;Node1 -->
<g id="edge4" class="edge"><title>Node3&#45;&gt;Node1</title>
<path fill="none" stroke="midnightblue" d="M168.824,-58.0992C156.901,-46.3566 141.718,-31.4043 131.696,-21.5337"/>
<polygon fill="midnightblue" stroke="midnightblue" points="166.521,-60.7434 176.101,-65.2666 171.432,-55.756 166.521,-60.7434"/>
</g>
</g>
</svg>
