<?xml version="1.0" encoding="UTF-8" standalone="no"?>
<!DOCTYPE svg PUBLIC "-//W3C//DTD SVG 1.1//EN"
 "http://www.w3.org/Graphics/SVG/1.1/DTD/svg11.dtd">
<!-- Generated by graphviz version 2.26.0 (20091210.2329)
 -->
<!-- Title: prt::Callbacks Pages: 1 -->
<svg width="290pt" height="146pt"
 viewBox="0.00 0.00 290.00 146.00" xmlns="http://www.w3.org/2000/svg" xmlns:xlink="http://www.w3.org/1999/xlink">
<g id="graph1" class="graph" transform="scale(1 1) rotate(0) translate(4 142)">
<title>prt::Callbacks</title>
<!-- Node1 -->
<g id="node1" class="node"><title>Node1</title>
<polygon fill="#bfbfbf" stroke="black" points="97.5,-116.5 97.5,-137.5 174.5,-137.5 174.5,-116.5 97.5,-116.5"/>
<text text-anchor="middle" x="136" y="-124.5" font-family="Helvetica,sans-Serif" font-size="10.00">prt::Callbacks</text>
</g>
<!-- Node2 -->
<g id="node3" class="node"><title>Node2</title>
<a xlink:href="classprt_1_1_simple_output_callbacks.html" target="_top" xlink:title="prt::SimpleOutputCallbacks">
<polygon fill="none" stroke="black" points="67.5,-58.5 67.5,-79.5 204.5,-79.5 204.5,-58.5 67.5,-58.5"/>
<text text-anchor="middle" x="136" y="-66.5" font-family="Helvetica,sans-Serif" font-size="10.00">prt::SimpleOutputCallbacks</text>
</a>
</g>
<!-- Node1&#45;&gt;Node2 -->
<g id="edge2" class="edge"><title>Node1&#45;&gt;Node2</title>
<path fill="none" stroke="midnightblue" d="M136,-106.191C136,-97.1684 136,-86.9941 136,-79.5707"/>
<polygon fill="midnightblue" stroke="midnightblue" points="132.5,-106.362 136,-116.362 139.5,-106.362 132.5,-106.362"/>
</g>
<!-- Node3 -->
<g id="node5" class="node"><title>Node3</title>
<a xlink:href="classprt_1_1_file_output_callbacks.html" target="_top" xlink:title="prt::FileOutputCallbacks">
<polygon fill="none" stroke="black" points="0,-0.5 0,-21.5 122,-21.5 122,-0.5 0,-0.5"/>
<text text-anchor="middle" x="61" y="-8.5" font-family="Helvetica,sans-Serif" font-size="10.00">prt::FileOutputCallbacks</text>
</a>
</g>
<!-- Node2&#45;&gt;Node3 -->
<g id="edge4" class="edge"><title>Node2&#45;&gt;Node3</title>
<path fill="none" stroke="midnightblue" d="M113.985,-51.9753C101.256,-42.1315 85.6395,-30.0545 74.6689,-21.5707"/>
<polygon fill="midnightblue" stroke="midnightblue" points="112.192,-55.0131 122.244,-58.3619 116.474,-49.4757 112.192,-55.0131"/>
</g>
<!-- Node4 -->
<g id="node7" class="node"><title>Node4</title>
<a xlink:href="classprt_1_1_memory_output_callbacks.html" target="_top" xlink:title="prt::MemoryOutputCallbacks">
<polygon fill="none" stroke="black" points="140,-0.5 140,-21.5 282,-21.5 282,-0.5 140,-0.5"/>
<text text-anchor="middle" x="211" y="-8.5" font-family="Helvetica,sans-Serif" font-size="10.00">prt::MemoryOutputCallbacks</text>
</a>
</g>
<!-- Node2&#45;&gt;Node4 -->
<g id="edge6" class="edge"><title>Node2&#45;&gt;Node4</title>
<path fill="none" stroke="midnightblue" d="M158.015,-51.9753C170.744,-42.1315 186.361,-30.0545 197.331,-21.5707"/>
<polygon fill="midnightblue" stroke="midnightblue" points="155.526,-49.4757 149.756,-58.3619 159.808,-55.0131 155.526,-49.4757"/>
</g>
</g>
</svg>
