<?xml version="1.0" encoding="UTF-8" standalone="no"?>
<!DOCTYPE svg PUBLIC "-//W3C//DTD SVG 1.1//EN"
 "http://www.w3.org/Graphics/SVG/1.1/DTD/svg11.dtd">
<!-- Generated by graphviz version 2.30.1 (20140821.0912)
 -->
<!-- Title: prtx::Decoder Pages: 1 -->
<svg width="360pt" height="180pt"
 viewBox="0.00 0.00 360.00 180.00" xmlns="http://www.w3.org/2000/svg" xmlns:xlink="http://www.w3.org/1999/xlink">
<g id="graph0" class="graph" transform="scale(1 1) rotate(0) translate(4 176)">
<title>prtx::Decoder</title>
<!-- Node1 -->
<g id="node1" class="node"><title>Node1</title>
<polygon fill="#bfbfbf" stroke="black" points="120,-76.5 120,-95.5 196,-95.5 196,-76.5 120,-76.5"/>
<text text-anchor="middle" x="158" y="-83.5" font-family="Helvetica,sans-Serif" font-size="10.00">prtx::Decoder</text>
</g>
<!-- Node3 -->
<g id="node3" class="node"><title>Node3</title>
<g id="a_node3"><a xlink:href="classprtx_1_1_c_g_b_decoder.html" target="_top" xlink:title="prtx::CGBDecoder">
<polygon fill="none" stroke="black" points="243,-152.5 243,-171.5 341,-171.5 341,-152.5 243,-152.5"/>
<text text-anchor="middle" x="292" y="-159.5" font-family="Helvetica,sans-Serif" font-size="10.00">prtx::CGBDecoder</text>
</a>
</g>
</g>
<!-- Node1&#45;&gt;Node3 -->
<g id="edge2" class="edge"><title>Node1&#45;&gt;Node3</title>
<path fill="none" stroke="midnightblue" d="M176.52,-102.581C190.585,-115.142 211.334,-132.05 232,-143 239.037,-146.728 246.935,-149.889 254.609,-152.498"/>
<polygon fill="midnightblue" stroke="midnightblue" points="178.805,-99.9282 169.062,-95.7662 174.083,-105.096 178.805,-99.9282"/>
</g>
<!-- Node4 -->
<g id="node4" class="node"><title>Node4</title>
<g id="a_node4"><a xlink:href="classprtx_1_1_geometry_decoder.html" target="_top" xlink:title="prtx::GeometryDecoder">
<polygon fill="none" stroke="black" points="232.5,-114.5 232.5,-133.5 351.5,-133.5 351.5,-114.5 232.5,-114.5"/>
<text text-anchor="middle" x="292" y="-121.5" font-family="Helvetica,sans-Serif" font-size="10.00">prtx::GeometryDecoder</text>
</a>
</g>
</g>
<!-- Node1&#45;&gt;Node4 -->
<g id="edge3" class="edge"><title>Node1&#45;&gt;Node4</title>
<path fill="none" stroke="midnightblue" d="M202.041,-98.3906C220.118,-103.594 240.819,-109.554 257.701,-114.414"/>
<polygon fill="midnightblue" stroke="midnightblue" points="202.887,-94.9921 192.309,-95.589 200.951,-101.719 202.887,-94.9921"/>
</g>
<!-- Node5 -->
<g id="node5" class="node"><title>Node5</title>
<g id="a_node5"><a xlink:href="classprtx_1_1_material_decoder.html" target="_top" xlink:title="prtx::MaterialDecoder">
<polygon fill="none" stroke="black" points="237,-76.5 237,-95.5 347,-95.5 347,-76.5 237,-76.5"/>
<text text-anchor="middle" x="292" y="-83.5" font-family="Helvetica,sans-Serif" font-size="10.00">prtx::MaterialDecoder</text>
</a>
</g>
</g>
<!-- Node1&#45;&gt;Node5 -->
<g id="edge4" class="edge"><title>Node1&#45;&gt;Node5</title>
<path fill="none" stroke="midnightblue" d="M206.221,-86C216.169,-86 226.738,-86 236.916,-86"/>
<polygon fill="midnightblue" stroke="midnightblue" points="206.121,-82.5001 196.121,-86 206.121,-89.5001 206.121,-82.5001"/>
</g>
<!-- Node6 -->
<g id="node6" class="node"><title>Node6</title>
<g id="a_node6"><a xlink:href="classprtx_1_1_shader_decoder.html" target="_top" xlink:title="prtx::ShaderDecoder">
<polygon fill="none" stroke="black" points="238.5,-38.5 238.5,-57.5 345.5,-57.5 345.5,-38.5 238.5,-38.5"/>
<text text-anchor="middle" x="292" y="-45.5" font-family="Helvetica,sans-Serif" font-size="10.00">prtx::ShaderDecoder</text>
</a>
</g>
</g>
<!-- Node1&#45;&gt;Node6 -->
<g id="edge5" class="edge"><title>Node1&#45;&gt;Node6</title>
<path fill="none" stroke="midnightblue" d="M202.041,-73.6094C220.118,-68.4055 240.819,-62.4459 257.701,-57.5859"/>
<polygon fill="midnightblue" stroke="midnightblue" points="200.951,-70.2811 192.309,-76.411 202.887,-77.0079 200.951,-70.2811"/>
</g>
<!-- Node7 -->
<g id="node7" class="node"><title>Node7</title>
<g id="a_node7"><a xlink:href="classprtx_1_1_texture_decoder.html" target="_top" xlink:title="prtx::TextureDecoder">
<polygon fill="none" stroke="black" points="237.5,-0.5 237.5,-19.5 346.5,-19.5 346.5,-0.5 237.5,-0.5"/>
<text text-anchor="middle" x="292" y="-7.5" font-family="Helvetica,sans-Serif" font-size="10.00">prtx::TextureDecoder</text>
</a>
</g>
</g>
<!-- Node1&#45;&gt;Node7 -->
<g id="edge6" class="edge"><title>Node1&#45;&gt;Node7</title>
<path fill="none" stroke="midnightblue" d="M176.52,-69.4186C190.585,-56.858 211.334,-39.9501 232,-29 239.037,-25.2717 246.935,-22.1112 254.609,-19.5019"/>
<polygon fill="midnightblue" stroke="midnightblue" points="174.083,-66.9043 169.062,-76.2338 178.805,-72.0718 174.083,-66.9043"/>
</g>
<!-- Node2 -->
<g id="node2" class="node"><title>Node2</title>
<g id="a_node2"><a xlink:href="classprtx_1_1_extension.html" target="_top" xlink:title="prtx::Extension">
<polygon fill="none" stroke="black" points="0.5,-76.5 0.5,-95.5 83.5,-95.5 83.5,-76.5 0.5,-76.5"/>
<text text-anchor="middle" x="42" y="-83.5" font-family="Helvetica,sans-Serif" font-size="10.00">prtx::Extension</text>
</a>
</g>
</g>
<!-- Node2&#45;&gt;Node1 -->
<g id="edge1" class="edge"><title>Node2&#45;&gt;Node1</title>
<path fill="none" stroke="midnightblue" d="M93.6423,-86C102.393,-86 111.346,-86 119.662,-86"/>
<polygon fill="midnightblue" stroke="midnightblue" points="93.5132,-82.5001 83.5131,-86 93.5131,-89.5001 93.5132,-82.5001"/>
</g>
</g>
</svg>
