<?xml version="1.0" encoding="UTF-8" standalone="no"?>
<!DOCTYPE svg PUBLIC "-//W3C//DTD SVG 1.1//EN"
 "http://www.w3.org/Graphics/SVG/1.1/DTD/svg11.dtd">
<!-- Generated by graphviz version 2.30.1 (20170916.1124)
 -->
<!-- Title: prt::SimpleOutputCallbacks Pages: 1 -->
<svg width="290pt" height="140pt"
 viewBox="0.00 0.00 290.00 140.00" xmlns="http://www.w3.org/2000/svg" xmlns:xlink="http://www.w3.org/1999/xlink">
<g id="graph0" class="graph" transform="scale(1 1) rotate(0) translate(4 136)">
<title>prt::SimpleOutputCallbacks</title>
<!-- Node1 -->
<g id="node1" class="node"><title>Node1</title>
<polygon fill="#bfbfbf" stroke="black" points="67.5,-56.5 67.5,-75.5 204.5,-75.5 204.5,-56.5 67.5,-56.5"/>
<text text-anchor="middle" x="136" y="-63.5" font-family="Helvetica,sans-Serif" font-size="10.00">prt::SimpleOutputCallbacks</text>
</g>
<!-- Node3 -->
<g id="node3" class="node"><title>Node3</title>
<g id="a_node3"><a xlink:href="classprt_1_1_file_output_callbacks.html" target="_top" xlink:title="prt::FileOutputCallbacks">
<polygon fill="none" stroke="black" points="0,-0.5 0,-19.5 122,-19.5 122,-0.5 0,-0.5"/>
<text text-anchor="middle" x="61" y="-7.5" font-family="Helvetica,sans-Serif" font-size="10.00">prt::FileOutputCallbacks</text>
</a>
</g>
</g>
<!-- Node1&#45;&gt;Node3 -->
<g id="edge2" class="edge"><title>Node1&#45;&gt;Node3</title>
<path fill="none" stroke="midnightblue" d="M115.695,-50.3804C102.139,-40.6204 84.7579,-28.1057 73.2693,-19.8339"/>
<polygon fill="midnightblue" stroke="midnightblue" points="113.79,-53.3213 123.95,-56.324 117.88,-47.6405 113.79,-53.3213"/>
</g>
<!-- Node4 -->
<g id="node4" class="node"><title>Node4</title>
<g id="a_node4"><a xlink:href="classprt_1_1_memory_output_callbacks.html" target="_top" xlink:title="prt::MemoryOutputCallbacks">
<polygon fill="none" stroke="black" points="140,-0.5 140,-19.5 282,-19.5 282,-0.5 140,-0.5"/>
<text text-anchor="middle" x="211" y="-7.5" font-family="Helvetica,sans-Serif" font-size="10.00">prt::MemoryOutputCallbacks</text>
</a>
</g>
</g>
<!-- Node1&#45;&gt;Node4 -->
<g id="edge3" class="edge"><title>Node1&#45;&gt;Node4</title>
<path fill="none" stroke="midnightblue" d="M156.305,-50.3804C169.861,-40.6204 187.242,-28.1057 198.731,-19.8339"/>
<polygon fill="midnightblue" stroke="midnightblue" points="154.12,-47.6405 148.05,-56.324 158.21,-53.3213 154.12,-47.6405"/>
</g>
<!-- Node2 -->
<g id="node2" class="node"><title>Node2</title>
<g id="a_node2"><a xlink:href="classprt_1_1_callbacks.html" target="_top" xlink:title="prt::Callbacks">
<polygon fill="none" stroke="black" points="97.5,-112.5 97.5,-131.5 174.5,-131.5 174.5,-112.5 97.5,-112.5"/>
<text text-anchor="middle" x="136" y="-119.5" font-family="Helvetica,sans-Serif" font-size="10.00">prt::Callbacks</text>
</a>
</g>
</g>
<!-- Node2&#45;&gt;Node1 -->
<g id="edge1" class="edge"><title>Node2&#45;&gt;Node1</title>
<path fill="none" stroke="midnightblue" d="M136,-101.805C136,-92.9102 136,-82.7798 136,-75.7511"/>
<polygon fill="midnightblue" stroke="midnightblue" points="132.5,-102.083 136,-112.083 139.5,-102.083 132.5,-102.083"/>
</g>
</g>
</svg>
