<?xml version="1.0" encoding="UTF-8" standalone="no"?>
<!DOCTYPE svg PUBLIC "-//W3C//DTD SVG 1.1//EN"
 "http://www.w3.org/Graphics/SVG/1.1/DTD/svg11.dtd">
<!-- Generated by graphviz version 2.30.1 (20170916.1124)
 -->
<!-- Title: prtx::BuiltinAttributes Pages: 1 -->
<svg width="305pt" height="196pt"
 viewBox="0.00 0.00 305.00 196.00" xmlns="http://www.w3.org/2000/svg" xmlns:xlink="http://www.w3.org/1999/xlink">
<g id="graph0" class="graph" transform="scale(1 1) rotate(0) translate(4 192)">
<title>prtx::BuiltinAttributes</title>
<!-- Node1 -->
<g id="node1" class="node"><title>Node1</title>
<polygon fill="#bfbfbf" stroke="black" points="96,-168.5 96,-187.5 204,-187.5 204,-168.5 96,-168.5"/>
<text text-anchor="middle" x="150" y="-175.5" font-family="Helvetica,sans-Serif" font-size="10.00">prtx::BuiltinAttributes</text>
</g>
<!-- Node2 -->
<g id="node2" class="node"><title>Node2</title>
<g id="a_node2"><a xlink:href="classprtx_1_1_builtin_attributes_getters.html" target="_top" xlink:title="prtx::BuiltinAttributesGetters">
<polygon fill="none" stroke="black" points="80,-112.5 80,-131.5 220,-131.5 220,-112.5 80,-112.5"/>
<text text-anchor="middle" x="150" y="-119.5" font-family="Helvetica,sans-Serif" font-size="10.00">prtx::BuiltinAttributesGetters</text>
</a>
</g>
</g>
<!-- Node1&#45;&gt;Node2 -->
<g id="edge1" class="edge"><title>Node1&#45;&gt;Node2</title>
<path fill="none" stroke="midnightblue" d="M150,-157.805C150,-148.91 150,-138.78 150,-131.751"/>
<polygon fill="midnightblue" stroke="midnightblue" points="146.5,-158.083 150,-168.083 153.5,-158.083 146.5,-158.083"/>
</g>
<!-- Node3 -->
<g id="node3" class="node"><title>Node3</title>
<g id="a_node3"><a xlink:href="classprtx_1_1_builtin_material_attributes.html" target="_top" xlink:title="prtx::BuiltinMaterialAttributes">
<polygon fill="none" stroke="black" points="-0.5,-56.5 -0.5,-75.5 142.5,-75.5 142.5,-56.5 -0.5,-56.5"/>
<text text-anchor="middle" x="71" y="-63.5" font-family="Helvetica,sans-Serif" font-size="10.00">prtx::BuiltinMaterialAttributes</text>
</a>
</g>
</g>
<!-- Node2&#45;&gt;Node3 -->
<g id="edge2" class="edge"><title>Node2&#45;&gt;Node3</title>
<path fill="none" stroke="midnightblue" d="M128.966,-106.622C114.534,-96.7574 95.8585,-83.9919 83.6612,-75.6545"/>
<polygon fill="midnightblue" stroke="midnightblue" points="127.077,-109.57 137.307,-112.324 131.027,-103.791 127.077,-109.57"/>
</g>
<!-- Node5 -->
<g id="node5" class="node"><title>Node5</title>
<g id="a_node5"><a xlink:href="classprtx_1_1_builtin_shape_attributes.html" target="_top" xlink:title="prtx::BuiltinShapeAttributes">
<polygon fill="none" stroke="black" points="161,-56.5 161,-75.5 297,-75.5 297,-56.5 161,-56.5"/>
<text text-anchor="middle" x="229" y="-63.5" font-family="Helvetica,sans-Serif" font-size="10.00">prtx::BuiltinShapeAttributes</text>
</a>
</g>
</g>
<!-- Node2&#45;&gt;Node5 -->
<g id="edge4" class="edge"><title>Node2&#45;&gt;Node5</title>
<path fill="none" stroke="midnightblue" d="M171.034,-106.622C185.466,-96.7574 204.141,-83.9919 216.339,-75.6545"/>
<polygon fill="midnightblue" stroke="midnightblue" points="168.973,-103.791 162.693,-112.324 172.923,-109.57 168.973,-103.791"/>
</g>
<!-- Node4 -->
<g id="node4" class="node"><title>Node4</title>
<g id="a_node4"><a xlink:href="classprtx_1_1_material.html" target="_top" xlink:title="prtx::Material">
<polygon fill="none" stroke="black" points="34,-0.5 34,-19.5 108,-19.5 108,-0.5 34,-0.5"/>
<text text-anchor="middle" x="71" y="-7.5" font-family="Helvetica,sans-Serif" font-size="10.00">prtx::Material</text>
</a>
</g>
</g>
<!-- Node3&#45;&gt;Node4 -->
<g id="edge3" class="edge"><title>Node3&#45;&gt;Node4</title>
<path fill="none" stroke="midnightblue" d="M71,-45.8045C71,-36.9102 71,-26.7798 71,-19.7511"/>
<polygon fill="midnightblue" stroke="midnightblue" points="67.5001,-46.083 71,-56.083 74.5001,-46.083 67.5001,-46.083"/>
</g>
<!-- Node6 -->
<g id="node6" class="node"><title>Node6</title>
<g id="a_node6"><a xlink:href="classprtx_1_1_shape.html" target="_top" xlink:title="prtx::Shape">
<polygon fill="none" stroke="black" points="195.5,-0.5 195.5,-19.5 262.5,-19.5 262.5,-0.5 195.5,-0.5"/>
<text text-anchor="middle" x="229" y="-7.5" font-family="Helvetica,sans-Serif" font-size="10.00">prtx::Shape</text>
</a>
</g>
</g>
<!-- Node5&#45;&gt;Node6 -->
<g id="edge5" class="edge"><title>Node5&#45;&gt;Node6</title>
<path fill="none" stroke="midnightblue" d="M229,-45.8045C229,-36.9102 229,-26.7798 229,-19.7511"/>
<polygon fill="midnightblue" stroke="midnightblue" points="225.5,-46.083 229,-56.083 232.5,-46.083 225.5,-46.083"/>
</g>
</g>
</svg>
