<?xml version="1.0" encoding="UTF-8" standalone="no"?>
<!DOCTYPE svg PUBLIC "-//W3C//DTD SVG 1.1//EN"
 "http://www.w3.org/Graphics/SVG/1.1/DTD/svg11.dtd">
<!-- Generated by graphviz version 2.26.0 (20091210.2329)
 -->
<!-- Title: prtx::MaterialBuilder Pages: 1 -->
<svg width="468pt" height="134pt"
 viewBox="0.00 0.00 468.00 134.00" xmlns="http://www.w3.org/2000/svg" xmlns:xlink="http://www.w3.org/1999/xlink">
<g id="graph1" class="graph" transform="scale(1 1) rotate(0) translate(4 130)">
<title>prtx::MaterialBuilder</title>
<!-- Node1 -->
<g id="node1" class="node"><title>Node1</title>
<polygon fill="#bfbfbf" stroke="black" points="356,-52.5 356,-73.5 460,-73.5 460,-52.5 356,-52.5"/>
<text text-anchor="middle" x="408" y="-60.5" font-family="Helvetica,sans-Serif" font-size="10.00">prtx::MaterialBuilder</text>
</g>
<!-- Node2 -->
<g id="node2" class="node"><title>Node2</title>
<a xlink:href="classprtx_1_1_shared_ptr_builder.html" target="_top" xlink:title="prtx::SharedPtrBuilder\l\&lt; Material \&gt;">
<polygon fill="none" stroke="black" points="191.5,-92 191.5,-126 304.5,-126 304.5,-92 191.5,-92"/>
<text text-anchor="start" x="199.5" y="-113" font-family="Helvetica,sans-Serif" font-size="10.00">prtx::SharedPtrBuilder</text>
<text text-anchor="middle" x="248" y="-100" font-family="Helvetica,sans-Serif" font-size="10.00">&lt; Material &gt;</text>
</a>
</g>
<!-- Node2&#45;&gt;Node1 -->
<g id="edge2" class="edge"><title>Node2&#45;&gt;Node1</title>
<path fill="none" stroke="midnightblue" d="M314.58,-89.8583C333.984,-84.2796 354.473,-78.3891 371.302,-73.5506"/>
<polygon fill="midnightblue" stroke="midnightblue" points="313.504,-86.5257 304.861,-92.6526 315.438,-93.2532 313.504,-86.5257"/>
</g>
<!-- Node3 -->
<g id="node4" class="node"><title>Node3</title>
<a xlink:href="classprtx_1_1_attributable_setter.html" target="_top" xlink:title="prtx::AttributableSetter">
<polygon fill="none" stroke="black" points="190.5,-52.5 190.5,-73.5 305.5,-73.5 305.5,-52.5 190.5,-52.5"/>
<text text-anchor="middle" x="248" y="-60.5" font-family="Helvetica,sans-Serif" font-size="10.00">prtx::AttributableSetter</text>
</a>
</g>
<!-- Node3&#45;&gt;Node1 -->
<g id="edge4" class="edge"><title>Node3&#45;&gt;Node1</title>
<path fill="none" stroke="midnightblue" d="M315.887,-63C329.277,-63 343.131,-63 355.901,-63"/>
<polygon fill="midnightblue" stroke="midnightblue" points="315.764,-59.5001 305.764,-63 315.764,-66.5001 315.764,-59.5001"/>
</g>
<!-- Node4 -->
<g id="node6" class="node"><title>Node4</title>
<a xlink:href="classprtx_1_1_builtin_material_attributes_builder.html" target="_top" xlink:title="prtx::BuiltinMaterialAttributes\lBuilder">
<polygon fill="none" stroke="black" points="176.5,-0 176.5,-34 319.5,-34 319.5,-0 176.5,-0"/>
<text text-anchor="start" x="184.5" y="-21" font-family="Helvetica,sans-Serif" font-size="10.00">prtx::BuiltinMaterialAttributes</text>
<text text-anchor="middle" x="248" y="-8" font-family="Helvetica,sans-Serif" font-size="10.00">Builder</text>
</a>
</g>
<!-- Node4&#45;&gt;Node1 -->
<g id="edge6" class="edge"><title>Node4&#45;&gt;Node1</title>
<path fill="none" stroke="midnightblue" d="M317.189,-36.8919C335.748,-42.2274 355.097,-47.7903 371.142,-52.4034"/>
<polygon fill="midnightblue" stroke="midnightblue" points="318.156,-33.5281 307.578,-34.1287 316.222,-40.2556 318.156,-33.5281"/>
</g>
<!-- Node5 -->
<g id="node8" class="node"><title>Node5</title>
<a xlink:href="classprtx_1_1_builtin_attributes_setters.html" target="_top" xlink:title="prtx::BuiltinAttributesSetters">
<polygon fill="none" stroke="black" points="0,-6.5 0,-27.5 140,-27.5 140,-6.5 0,-6.5"/>
<text text-anchor="middle" x="70" y="-14.5" font-family="Helvetica,sans-Serif" font-size="10.00">prtx::BuiltinAttributesSetters</text>
</a>
</g>
<!-- Node5&#45;&gt;Node4 -->
<g id="edge8" class="edge"><title>Node5&#45;&gt;Node4</title>
<path fill="none" stroke="midnightblue" d="M150.201,-17C158.871,-17 167.653,-17 176.215,-17"/>
<polygon fill="midnightblue" stroke="midnightblue" points="150.095,-13.5001 140.095,-17 150.095,-20.5001 150.095,-13.5001"/>
</g>
</g>
</svg>
