<?xml version="1.0" encoding="UTF-8" standalone="no"?>
<!DOCTYPE svg PUBLIC "-//W3C//DTD SVG 1.1//EN"
 "http://www.w3.org/Graphics/SVG/1.1/DTD/svg11.dtd">
<!-- Generated by graphviz version 2.26.0 (20091210.2329)
 -->
<!-- Title: prtx::DefaultNamePreparator Pages: 1 -->
<svg width="150pt" height="146pt"
 viewBox="0.00 0.00 150.00 146.00" xmlns="http://www.w3.org/2000/svg" xmlns:xlink="http://www.w3.org/1999/xlink">
<g id="graph1" class="graph" transform="scale(1 1) rotate(0) translate(4 142)">
<title>prtx::DefaultNamePreparator</title>
<!-- Node1 -->
<g id="node1" class="node"><title>Node1</title>
<polygon fill="#bfbfbf" stroke="black" points="0,-0.5 0,-21.5 142,-21.5 142,-0.5 0,-0.5"/>
<text text-anchor="middle" x="71" y="-8.5" font-family="Helvetica,sans-Serif" font-size="10.00">prtx::DefaultNamePreparator</text>
</g>
<!-- Node2 -->
<g id="node2" class="node"><title>Node2</title>
<a xlink:href="classprtx_1_1_name_preparator.html" target="_top" xlink:title="prtx::NamePreparator">
<polygon fill="none" stroke="black" points="16,-58.5 16,-79.5 126,-79.5 126,-58.5 16,-58.5"/>
<text text-anchor="middle" x="71" y="-66.5" font-family="Helvetica,sans-Serif" font-size="10.00">prtx::NamePreparator</text>
</a>
</g>
<!-- Node2&#45;&gt;Node1 -->
<g id="edge2" class="edge"><title>Node2&#45;&gt;Node1</title>
<path fill="none" stroke="midnightblue" d="M71,-48.1906C71,-39.1684 71,-28.9941 71,-21.5707"/>
<polygon fill="midnightblue" stroke="midnightblue" points="67.5001,-48.3619 71,-58.3619 74.5001,-48.3619 67.5001,-48.3619"/>
</g>
<!-- Node3 -->
<g id="node4" class="node"><title>Node3</title>
<polygon fill="none" stroke="#bfbfbf" points="35.5,-116.5 35.5,-137.5 106.5,-137.5 106.5,-116.5 35.5,-116.5"/>
<text text-anchor="middle" x="71" y="-124.5" font-family="Helvetica,sans-Serif" font-size="10.00">noncopyable</text>
</g>
<!-- Node3&#45;&gt;Node2 -->
<g id="edge4" class="edge"><title>Node3&#45;&gt;Node2</title>
<path fill="none" stroke="#8b1a1a" d="M71,-106.191C71,-97.1684 71,-86.9941 71,-79.5707"/>
<polygon fill="#8b1a1a" stroke="#8b1a1a" points="67.5001,-106.362 71,-116.362 74.5001,-106.362 67.5001,-106.362"/>
</g>
</g>
</svg>
