<?xml version="1.0" encoding="UTF-8" standalone="no"?>
<!DOCTYPE svg PUBLIC "-//W3C//DTD SVG 1.1//EN"
 "http://www.w3.org/Graphics/SVG/1.1/DTD/svg11.dtd">
<!-- Generated by graphviz version 2.40.1 (0)
 -->
<!-- Title: prtx::Attributable Pages: 1 -->
<svg width="357pt" height="84pt"
 viewBox="0.00 0.00 356.50 84.00" xmlns="http://www.w3.org/2000/svg" xmlns:xlink="http://www.w3.org/1999/xlink">
<g id="graph0" class="graph" transform="scale(1 1) rotate(0) translate(4 80)">
<title>prtx::Attributable</title>
<!-- Node0 -->
<g id="node1" class="node">
<title>Node0</title>
<polygon fill="#bfbfbf" stroke="#000000" points="136.5,-56.5 136.5,-75.5 225.5,-75.5 225.5,-56.5 136.5,-56.5"/>
<text text-anchor="middle" x="181" y="-63.5" font-family="Helvetica,sans-Serif" font-size="10.00" fill="#000000">prtx::Attributable</text>
</g>
<!-- Node1 -->
<g id="node2" class="node">
<title>Node1</title>
<g id="a_node2"><a xlink:href="classprtx_1_1_geometry.html" target="_top" xlink:title="prtx::Geometry">
<polygon fill="none" stroke="#000000" points="0,-.5 0,-19.5 82,-19.5 82,-.5 0,-.5"/>
<text text-anchor="middle" x="41" y="-7.5" font-family="Helvetica,sans-Serif" font-size="10.00" fill="#000000">prtx::Geometry</text>
</a>
</g>
</g>
<!-- Node0&#45;&gt;Node1 -->
<g id="edge1" class="edge">
<title>Node0&#45;&gt;Node1</title>
<path fill="none" stroke="#191970" d="M147.6351,-52.6541C122.1048,-42.4419 87.5216,-28.6086 64.7528,-19.5011"/>
<polygon fill="#191970" stroke="#191970" points="146.3485,-55.909 156.9331,-56.3733 148.9483,-49.4096 146.3485,-55.909"/>
</g>
<!-- Node2 -->
<g id="node3" class="node">
<title>Node2</title>
<g id="a_node3"><a xlink:href="classprtx_1_1_material.html" target="_top" xlink:title="prtx::Material">
<polygon fill="none" stroke="#000000" points="100,-.5 100,-19.5 174,-19.5 174,-.5 100,-.5"/>
<text text-anchor="middle" x="137" y="-7.5" font-family="Helvetica,sans-Serif" font-size="10.00" fill="#000000">prtx::Material</text>
</a>
</g>
</g>
<!-- Node0&#45;&gt;Node2 -->
<g id="edge2" class="edge">
<title>Node0&#45;&gt;Node2</title>
<path fill="none" stroke="#191970" d="M167.0231,-48.2112C159.5871,-38.7472 150.734,-27.4797 144.5764,-19.6427"/>
<polygon fill="#191970" stroke="#191970" points="164.4054,-50.5447 173.3358,-56.2455 169.9097,-46.22 164.4054,-50.5447"/>
</g>
<!-- Node3 -->
<g id="node4" class="node">
<title>Node3</title>
<g id="a_node4"><a xlink:href="classprtx_1_1_shape.html" target="_top" xlink:title="prtx::Shape">
<polygon fill="none" stroke="#000000" points="192.5,-.5 192.5,-19.5 259.5,-19.5 259.5,-.5 192.5,-.5"/>
<text text-anchor="middle" x="226" y="-7.5" font-family="Helvetica,sans-Serif" font-size="10.00" fill="#000000">prtx::Shape</text>
</a>
</g>
</g>
<!-- Node0&#45;&gt;Node3 -->
<g id="edge3" class="edge">
<title>Node0&#45;&gt;Node3</title>
<path fill="none" stroke="#191970" d="M195.2946,-48.2112C202.8996,-38.7472 211.9538,-27.4797 218.2514,-19.6427"/>
<polygon fill="#191970" stroke="#191970" points="192.3741,-46.2581 188.8384,-56.2455 197.8306,-50.6428 192.3741,-46.2581"/>
</g>
<!-- Node4 -->
<g id="node5" class="node">
<title>Node4</title>
<g id="a_node5"><a xlink:href="classprtx_1_1_texture.html" target="_top" xlink:title="prtx::Texture">
<polygon fill="none" stroke="#000000" points="277.5,-.5 277.5,-19.5 348.5,-19.5 348.5,-.5 277.5,-.5"/>
<text text-anchor="middle" x="313" y="-7.5" font-family="Helvetica,sans-Serif" font-size="10.00" fill="#000000">prtx::Texture</text>
</a>
</g>
</g>
<!-- Node0&#45;&gt;Node4 -->
<g id="edge4" class="edge">
<title>Node0&#45;&gt;Node4</title>
<path fill="none" stroke="#191970" d="M213.0965,-52.3833C237.1035,-42.1985 269.3259,-28.5284 290.6045,-19.5011"/>
<polygon fill="#191970" stroke="#191970" points="211.5305,-49.2457 203.6916,-56.3733 214.2644,-55.6897 211.5305,-49.2457"/>
</g>
</g>
</svg>
