<?xml version="1.0" encoding="UTF-8" standalone="no"?>
<!DOCTYPE svg PUBLIC "-//W3C//DTD SVG 1.1//EN"
 "http://www.w3.org/Graphics/SVG/1.1/DTD/svg11.dtd">
<!-- Generated by graphviz version 2.40.1 (0)
 -->
<!-- Title: prt::LogHandler Pages: 1 -->
<svg width="244pt" height="84pt"
 viewBox="0.00 0.00 244.00 84.00" xmlns="http://www.w3.org/2000/svg" xmlns:xlink="http://www.w3.org/1999/xlink">
<g id="graph0" class="graph" transform="scale(1 1) rotate(0) translate(4 80)">
<title>prt::LogHandler</title>
<!-- Node0 -->
<g id="node1" class="node">
<title>Node0</title>
<polygon fill="#bfbfbf" stroke="#000000" points="81,-56.5 81,-75.5 164,-75.5 164,-56.5 81,-56.5"/>
<text text-anchor="middle" x="122.5" y="-63.5" font-family="Helvetica,sans-Serif" font-size="10.00" fill="#000000">prt::LogHandler</text>
</g>
<!-- Node1 -->
<g id="node2" class="node">
<title>Node1</title>
<g id="a_node2"><a xlink:href="classprt_1_1_console_log_handler.html" target="_top" xlink:title="prt::ConsoleLogHandler">
<polygon fill="none" stroke="#000000" points="0,-.5 0,-19.5 119,-19.5 119,-.5 0,-.5"/>
<text text-anchor="middle" x="59.5" y="-7.5" font-family="Helvetica,sans-Serif" font-size="10.00" fill="#000000">prt::ConsoleLogHandler</text>
</a>
</g>
</g>
<!-- Node0&#45;&gt;Node1 -->
<g id="edge1" class="edge">
<title>Node0&#45;&gt;Node1</title>
<path fill="none" stroke="#191970" d="M103.7808,-49.3607C92.8818,-39.6727 79.5245,-27.7995 70.348,-19.6427"/>
<polygon fill="#191970" stroke="#191970" points="101.7268,-52.2178 111.5262,-56.2455 106.3774,-46.9859 101.7268,-52.2178"/>
</g>
<!-- Node2 -->
<g id="node3" class="node">
<title>Node2</title>
<g id="a_node3"><a xlink:href="classprt_1_1_file_log_handler.html" target="_top" xlink:title="prt::FileLogHandler">
<polygon fill="none" stroke="#000000" points="137,-.5 137,-19.5 236,-19.5 236,-.5 137,-.5"/>
<text text-anchor="middle" x="186.5" y="-7.5" font-family="Helvetica,sans-Serif" font-size="10.00" fill="#000000">prt::FileLogHandler</text>
</a>
</g>
</g>
<!-- Node0&#45;&gt;Node2 -->
<g id="edge2" class="edge">
<title>Node0&#45;&gt;Node2</title>
<path fill="none" stroke="#191970" d="M141.1914,-49.645C152.3219,-39.9058 166.0663,-27.8795 175.4798,-19.6427"/>
<polygon fill="#191970" stroke="#191970" points="138.869,-47.0264 133.6479,-56.2455 143.4785,-52.2945 138.869,-47.0264"/>
</g>
</g>
</svg>
