<?xml version="1.0" encoding="UTF-8" standalone="no"?>
<!DOCTYPE svg PUBLIC "-//W3C//DTD SVG 1.1//EN"
 "http://www.w3.org/Graphics/SVG/1.1/DTD/svg11.dtd">
<!-- Generated by graphviz version 2.40.1 (0)
 -->
<!-- Title: prt::Callbacks Pages: 1 -->
<svg width="290pt" height="140pt"
 viewBox="0.00 0.00 290.00 140.00" xmlns="http://www.w3.org/2000/svg" xmlns:xlink="http://www.w3.org/1999/xlink">
<g id="graph0" class="graph" transform="scale(1 1) rotate(0) translate(4 136)">
<title>prt::Callbacks</title>
<!-- Node0 -->
<g id="node1" class="node">
<title>Node0</title>
<polygon fill="#bfbfbf" stroke="#000000" points="97.5,-112.5 97.5,-131.5 174.5,-131.5 174.5,-112.5 97.5,-112.5"/>
<text text-anchor="middle" x="136" y="-119.5" font-family="Helvetica,sans-Serif" font-size="10.00" fill="#000000">prt::Callbacks</text>
</g>
<!-- Node1 -->
<g id="node2" class="node">
<title>Node1</title>
<g id="a_node2"><a xlink:href="classprt_1_1_simple_output_callbacks.html" target="_top" xlink:title="prt::SimpleOutputCallbacks">
<polygon fill="none" stroke="#000000" points="67.5,-56.5 67.5,-75.5 204.5,-75.5 204.5,-56.5 67.5,-56.5"/>
<text text-anchor="middle" x="136" y="-63.5" font-family="Helvetica,sans-Serif" font-size="10.00" fill="#000000">prt::SimpleOutputCallbacks</text>
</a>
</g>
</g>
<!-- Node0&#45;&gt;Node1 -->
<g id="edge1" class="edge">
<title>Node0&#45;&gt;Node1</title>
<path fill="none" stroke="#191970" d="M136,-102.1575C136,-93.155 136,-82.9199 136,-75.6427"/>
<polygon fill="#191970" stroke="#191970" points="132.5001,-102.2455 136,-112.2455 139.5001,-102.2456 132.5001,-102.2455"/>
</g>
<!-- Node2 -->
<g id="node3" class="node">
<title>Node2</title>
<g id="a_node3"><a xlink:href="classprt_1_1_file_output_callbacks.html" target="_top" xlink:title="prt::FileOutputCallbacks">
<polygon fill="none" stroke="#000000" points="0,-.5 0,-19.5 122,-19.5 122,-.5 0,-.5"/>
<text text-anchor="middle" x="61" y="-7.5" font-family="Helvetica,sans-Serif" font-size="10.00" fill="#000000">prt::FileOutputCallbacks</text>
</a>
</g>
</g>
<!-- Node1&#45;&gt;Node2 -->
<g id="edge2" class="edge">
<title>Node1&#45;&gt;Node2</title>
<path fill="none" stroke="#191970" d="M114.8523,-50.2097C101.6799,-40.3743 85.16,-28.0394 73.9143,-19.6427"/>
<polygon fill="#191970" stroke="#191970" points="112.8291,-53.0671 122.936,-56.2455 117.0172,-47.4581 112.8291,-53.0671"/>
</g>
<!-- Node3 -->
<g id="node4" class="node">
<title>Node3</title>
<g id="a_node4"><a xlink:href="classprt_1_1_memory_output_callbacks.html" target="_top" xlink:title="prt::MemoryOutputCallbacks">
<polygon fill="none" stroke="#000000" points="140,-.5 140,-19.5 282,-19.5 282,-.5 140,-.5"/>
<text text-anchor="middle" x="211" y="-7.5" font-family="Helvetica,sans-Serif" font-size="10.00" fill="#000000">prt::MemoryOutputCallbacks</text>
</a>
</g>
</g>
<!-- Node1&#45;&gt;Node3 -->
<g id="edge3" class="edge">
<title>Node1&#45;&gt;Node3</title>
<path fill="none" stroke="#191970" d="M157.1477,-50.2097C170.3201,-40.3743 186.84,-28.0394 198.0857,-19.6427"/>
<polygon fill="#191970" stroke="#191970" points="154.9828,-47.4581 149.064,-56.2455 159.1709,-53.0671 154.9828,-47.4581"/>
</g>
</g>
</svg>
