<?xml version="1.0" encoding="UTF-8" standalone="no"?>
<!DOCTYPE svg PUBLIC "-//W3C//DTD SVG 1.1//EN"
 "http://www.w3.org/Graphics/SVG/1.1/DTD/svg11.dtd">
<!-- Generated by graphviz version 2.30.1 (20170916.1124)
 -->
<!-- Title: prtx::BuiltinShapeAttributes Pages: 1 -->
<svg width="148pt" height="196pt"
 viewBox="0.00 0.00 148.00 196.00" xmlns="http://www.w3.org/2000/svg" xmlns:xlink="http://www.w3.org/1999/xlink">
<g id="graph0" class="graph" transform="scale(1 1) rotate(0) translate(4 192)">
<title>prtx::BuiltinShapeAttributes</title>
<!-- Node1 -->
<g id="node1" class="node"><title>Node1</title>
<polygon fill="#bfbfbf" stroke="black" points="2,-56.5 2,-75.5 138,-75.5 138,-56.5 2,-56.5"/>
<text text-anchor="middle" x="70" y="-63.5" font-family="Helvetica,sans-Serif" font-size="10.00">prtx::BuiltinShapeAttributes</text>
</g>
<!-- Node4 -->
<g id="node4" class="node"><title>Node4</title>
<g id="a_node4"><a xlink:href="classprtx_1_1_shape.html" target="_top" xlink:title="prtx::Shape">
<polygon fill="none" stroke="black" points="36.5,-0.5 36.5,-19.5 103.5,-19.5 103.5,-0.5 36.5,-0.5"/>
<text text-anchor="middle" x="70" y="-7.5" font-family="Helvetica,sans-Serif" font-size="10.00">prtx::Shape</text>
</a>
</g>
</g>
<!-- Node1&#45;&gt;Node4 -->
<g id="edge3" class="edge"><title>Node1&#45;&gt;Node4</title>
<path fill="none" stroke="midnightblue" d="M70,-45.8045C70,-36.9102 70,-26.7798 70,-19.7511"/>
<polygon fill="midnightblue" stroke="midnightblue" points="66.5001,-46.083 70,-56.083 73.5001,-46.083 66.5001,-46.083"/>
</g>
<!-- Node2 -->
<g id="node2" class="node"><title>Node2</title>
<g id="a_node2"><a xlink:href="classprtx_1_1_builtin_attributes_getters.html" target="_top" xlink:title="prtx::BuiltinAttributesGetters">
<polygon fill="none" stroke="black" points="0,-112.5 0,-131.5 140,-131.5 140,-112.5 0,-112.5"/>
<text text-anchor="middle" x="70" y="-119.5" font-family="Helvetica,sans-Serif" font-size="10.00">prtx::BuiltinAttributesGetters</text>
</a>
</g>
</g>
<!-- Node2&#45;&gt;Node1 -->
<g id="edge1" class="edge"><title>Node2&#45;&gt;Node1</title>
<path fill="none" stroke="midnightblue" d="M70,-101.805C70,-92.9102 70,-82.7798 70,-75.7511"/>
<polygon fill="midnightblue" stroke="midnightblue" points="66.5001,-102.083 70,-112.083 73.5001,-102.083 66.5001,-102.083"/>
</g>
<!-- Node3 -->
<g id="node3" class="node"><title>Node3</title>
<g id="a_node3"><a xlink:href="classprtx_1_1_builtin_attributes.html" target="_top" xlink:title="prtx::BuiltinAttributes">
<polygon fill="none" stroke="black" points="16,-168.5 16,-187.5 124,-187.5 124,-168.5 16,-168.5"/>
<text text-anchor="middle" x="70" y="-175.5" font-family="Helvetica,sans-Serif" font-size="10.00">prtx::BuiltinAttributes</text>
</a>
</g>
</g>
<!-- Node3&#45;&gt;Node2 -->
<g id="edge2" class="edge"><title>Node3&#45;&gt;Node2</title>
<path fill="none" stroke="midnightblue" d="M70,-157.805C70,-148.91 70,-138.78 70,-131.751"/>
<polygon fill="midnightblue" stroke="midnightblue" points="66.5001,-158.083 70,-168.083 73.5001,-158.083 66.5001,-158.083"/>
</g>
</g>
</svg>
