<?xml version="1.0" encoding="UTF-8" standalone="no"?>
<!DOCTYPE svg PUBLIC "-//W3C//DTD SVG 1.1//EN"
 "http://www.w3.org/Graphics/SVG/1.1/DTD/svg11.dtd">
<!-- Generated by graphviz version 2.40.1 (0)
 -->
<!-- Title: prtx::Decoder Pages: 1 -->
<svg width="358pt" height="218pt"
 viewBox="0.00 0.00 358.00 218.00" xmlns="http://www.w3.org/2000/svg" xmlns:xlink="http://www.w3.org/1999/xlink">
<g id="graph0" class="graph" transform="scale(1 1) rotate(0) translate(4 214)">
<title>prtx::Decoder</title>
<!-- Node0 -->
<g id="node1" class="node">
<title>Node0</title>
<polygon fill="#bfbfbf" stroke="#000000" points="119,-95.5 119,-114.5 195,-114.5 195,-95.5 119,-95.5"/>
<text text-anchor="middle" x="157" y="-102.5" font-family="Helvetica,sans-Serif" font-size="10.00" fill="#000000">prtx::Decoder</text>
</g>
<!-- Node2 -->
<g id="node3" class="node">
<title>Node2</title>
<g id="a_node3"><a xlink:href="classprtx_1_1_c_g_b_decoder.html" target="_top" xlink:title="prtx::CGBDecoder">
<polygon fill="none" stroke="#000000" points="241.5,-190.5 241.5,-209.5 339.5,-209.5 339.5,-190.5 241.5,-190.5"/>
<text text-anchor="middle" x="290.5" y="-197.5" font-family="Helvetica,sans-Serif" font-size="10.00" fill="#000000">prtx::CGBDecoder</text>
</a>
</g>
</g>
<!-- Node0&#45;&gt;Node2 -->
<g id="edge2" class="edge">
<title>Node0&#45;&gt;Node2</title>
<path fill="none" stroke="#191970" d="M170.0339,-122.7528C183.5136,-139.9323 206.0592,-165.5741 231,-181 237.179,-184.8217 244.1992,-187.9444 251.197,-190.4722"/>
<polygon fill="#191970" stroke="#191970" points="172.6936,-120.4686 163.8466,-114.6393 167.1274,-124.7134 172.6936,-120.4686"/>
</g>
<!-- Node3 -->
<g id="node4" class="node">
<title>Node3</title>
<g id="a_node4"><a xlink:href="classprtx_1_1_geometry_decoder.html" target="_top" xlink:title="prtx::GeometryDecoder">
<polygon fill="none" stroke="#000000" points="231,-152.5 231,-171.5 350,-171.5 350,-152.5 231,-152.5"/>
<text text-anchor="middle" x="290.5" y="-159.5" font-family="Helvetica,sans-Serif" font-size="10.00" fill="#000000">prtx::GeometryDecoder</text>
</a>
</g>
</g>
<!-- Node0&#45;&gt;Node3 -->
<g id="edge3" class="edge">
<title>Node0&#45;&gt;Node3</title>
<path fill="none" stroke="#191970" d="M182.7022,-119.5287C196.7136,-127.107 214.5152,-136.1902 231,-143 239.3185,-146.4363 248.4975,-149.6417 257.1045,-152.4046"/>
<polygon fill="#191970" stroke="#191970" points="184.1203,-116.3146 173.6703,-114.5691 180.751,-122.4503 184.1203,-116.3146"/>
</g>
<!-- Node4 -->
<g id="node5" class="node">
<title>Node4</title>
<g id="a_node5"><a xlink:href="classprtx_1_1_material_decoder.html" target="_top" xlink:title="prtx::MaterialDecoder">
<polygon fill="none" stroke="#000000" points="235.5,-114.5 235.5,-133.5 345.5,-133.5 345.5,-114.5 235.5,-114.5"/>
<text text-anchor="middle" x="290.5" y="-121.5" font-family="Helvetica,sans-Serif" font-size="10.00" fill="#000000">prtx::MaterialDecoder</text>
</a>
</g>
</g>
<!-- Node0&#45;&gt;Node4 -->
<g id="edge4" class="edge">
<title>Node0&#45;&gt;Node4</title>
<path fill="none" stroke="#191970" d="M205.1969,-111.8595C214.9743,-113.251 225.3287,-114.7247 235.3257,-116.1475"/>
<polygon fill="#191970" stroke="#191970" points="205.6492,-108.3887 195.2557,-110.4446 204.6628,-115.3188 205.6492,-108.3887"/>
</g>
<!-- Node5 -->
<g id="node6" class="node">
<title>Node5</title>
<g id="a_node6"><a xlink:href="classprtx_1_1_string_decoder.html" target="_top" xlink:title="prtx::StringDecoder">
<polygon fill="none" stroke="#000000" points="240,-76.5 240,-95.5 341,-95.5 341,-76.5 240,-76.5"/>
<text text-anchor="middle" x="290.5" y="-83.5" font-family="Helvetica,sans-Serif" font-size="10.00" fill="#000000">prtx::StringDecoder</text>
</a>
</g>
</g>
<!-- Node0&#45;&gt;Node5 -->
<g id="edge5" class="edge">
<title>Node0&#45;&gt;Node5</title>
<path fill="none" stroke="#191970" d="M205.2998,-98.1259C216.5113,-96.5302 228.4765,-94.8273 239.7884,-93.2174"/>
<polygon fill="#191970" stroke="#191970" points="204.6628,-94.6812 195.2557,-99.5554 205.6492,-101.6113 204.6628,-94.6812"/>
</g>
<!-- Node6 -->
<g id="node7" class="node">
<title>Node6</title>
<g id="a_node7"><a xlink:href="classprtx_1_1_table_decoder.html" target="_top" xlink:title="prtx::TableDecoder">
<polygon fill="none" stroke="#000000" points="241,-38.5 241,-57.5 340,-57.5 340,-38.5 241,-38.5"/>
<text text-anchor="middle" x="290.5" y="-45.5" font-family="Helvetica,sans-Serif" font-size="10.00" fill="#000000">prtx::TableDecoder</text>
</a>
</g>
</g>
<!-- Node0&#45;&gt;Node6 -->
<g id="edge6" class="edge">
<title>Node0&#45;&gt;Node6</title>
<path fill="none" stroke="#191970" d="M182.7022,-90.4713C196.7136,-82.893 214.5152,-73.8098 231,-67 239.3185,-63.5637 248.4975,-60.3583 257.1045,-57.5954"/>
<polygon fill="#191970" stroke="#191970" points="180.751,-87.5497 173.6703,-95.4309 184.1203,-93.6854 180.751,-87.5497"/>
</g>
<!-- Node7 -->
<g id="node8" class="node">
<title>Node7</title>
<g id="a_node8"><a xlink:href="classprtx_1_1_texture_decoder.html" target="_top" xlink:title="prtx::TextureDecoder">
<polygon fill="none" stroke="#000000" points="236.5,-.5 236.5,-19.5 344.5,-19.5 344.5,-.5 236.5,-.5"/>
<text text-anchor="middle" x="290.5" y="-7.5" font-family="Helvetica,sans-Serif" font-size="10.00" fill="#000000">prtx::TextureDecoder</text>
</a>
</g>
</g>
<!-- Node0&#45;&gt;Node7 -->
<g id="edge7" class="edge">
<title>Node0&#45;&gt;Node7</title>
<path fill="none" stroke="#191970" d="M170.0339,-87.2472C183.5136,-70.0677 206.0592,-44.4259 231,-29 237.179,-25.1783 244.1992,-22.0556 251.197,-19.5278"/>
<polygon fill="#191970" stroke="#191970" points="167.1274,-85.2866 163.8466,-95.3607 172.6936,-89.5314 167.1274,-85.2866"/>
</g>
<!-- Node1 -->
<g id="node2" class="node">
<title>Node1</title>
<g id="a_node2"><a xlink:href="classprtx_1_1_extension.html" target="_top" xlink:title="prtx::Extension">
<polygon fill="none" stroke="#000000" points="0,-95.5 0,-114.5 83,-114.5 83,-95.5 0,-95.5"/>
<text text-anchor="middle" x="41.5" y="-102.5" font-family="Helvetica,sans-Serif" font-size="10.00" fill="#000000">prtx::Extension</text>
</a>
</g>
</g>
<!-- Node1&#45;&gt;Node0 -->
<g id="edge1" class="edge">
<title>Node1&#45;&gt;Node0</title>
<path fill="none" stroke="#191970" d="M93.4702,-105C102.0021,-105 110.7039,-105 118.8208,-105"/>
<polygon fill="#191970" stroke="#191970" points="93.1982,-101.5001 83.1982,-105 93.1981,-108.5001 93.1982,-101.5001"/>
</g>
</g>
</svg>
