<?xml version="1.0" encoding="UTF-8" standalone="no"?>
<!DOCTYPE svg PUBLIC "-//W3C//DTD SVG 1.1//EN"
 "http://www.w3.org/Graphics/SVG/1.1/DTD/svg11.dtd">
<!-- Generated by graphviz version 2.26.0 (20091210.2329)
 -->
<!-- Title: prt::Attributable Pages: 1 -->
<svg width="205pt" height="146pt"
 viewBox="0.00 0.00 205.00 146.00" xmlns="http://www.w3.org/2000/svg" xmlns:xlink="http://www.w3.org/1999/xlink">
<g id="graph1" class="graph" transform="scale(1 1) rotate(0) translate(4 142)">
<title>prt::Attributable</title>
<!-- Node1 -->
<g id="node1" class="node"><title>Node1</title>
<polygon fill="#bfbfbf" stroke="black" points="55.5,-116.5 55.5,-137.5 138.5,-137.5 138.5,-116.5 55.5,-116.5"/>
<text text-anchor="middle" x="97" y="-124.5" font-family="Helvetica,sans-Serif" font-size="10.00">prt::Attributable</text>
</g>
<!-- Node2 -->
<g id="node3" class="node"><title>Node2</title>
<a xlink:href="classprt_1_1_attribute_map.html" target="_top" xlink:title="prt::AttributeMap">
<polygon fill="none" stroke="black" points="-0.5,-58.5 -0.5,-79.5 88.5,-79.5 88.5,-58.5 -0.5,-58.5"/>
<text text-anchor="middle" x="44" y="-66.5" font-family="Helvetica,sans-Serif" font-size="10.00">prt::AttributeMap</text>
</a>
</g>
<!-- Node1&#45;&gt;Node2 -->
<g id="edge2" class="edge"><title>Node1&#45;&gt;Node2</title>
<path fill="none" stroke="midnightblue" d="M80.3963,-108.83C71.6037,-99.2078 61.1137,-87.7282 53.6594,-79.5707"/>
<polygon fill="midnightblue" stroke="midnightblue" points="77.9495,-111.341 87.279,-116.362 83.117,-106.619 77.9495,-111.341"/>
</g>
<!-- Node3 -->
<g id="node5" class="node"><title>Node3</title>
<a xlink:href="classprt_1_1_resolve_map.html" target="_top" xlink:title="prt::ResolveMap">
<polygon fill="none" stroke="black" points="105.5,-58.5 105.5,-79.5 194.5,-79.5 194.5,-58.5 105.5,-58.5"/>
<text text-anchor="middle" x="150" y="-66.5" font-family="Helvetica,sans-Serif" font-size="10.00">prt::ResolveMap</text>
</a>
</g>
<!-- Node1&#45;&gt;Node3 -->
<g id="edge4" class="edge"><title>Node1&#45;&gt;Node3</title>
<path fill="none" stroke="midnightblue" d="M113.604,-108.83C122.396,-99.2078 132.886,-87.7282 140.341,-79.5707"/>
<polygon fill="midnightblue" stroke="midnightblue" points="110.883,-106.619 106.721,-116.362 116.051,-111.341 110.883,-106.619"/>
</g>
<!-- Node4 -->
<g id="node7" class="node"><title>Node4</title>
<a xlink:href="classprtx_1_1_resolve_map.html" target="_top" xlink:title="prtx::ResolveMap">
<polygon fill="none" stroke="black" points="103,-0.5 103,-21.5 197,-21.5 197,-0.5 103,-0.5"/>
<text text-anchor="middle" x="150" y="-8.5" font-family="Helvetica,sans-Serif" font-size="10.00">prtx::ResolveMap</text>
</a>
</g>
<!-- Node3&#45;&gt;Node4 -->
<g id="edge6" class="edge"><title>Node3&#45;&gt;Node4</title>
<path fill="none" stroke="midnightblue" d="M150,-48.1906C150,-39.1684 150,-28.9941 150,-21.5707"/>
<polygon fill="midnightblue" stroke="midnightblue" points="146.5,-48.3619 150,-58.3619 153.5,-48.3619 146.5,-48.3619"/>
</g>
</g>
</svg>
