<?xml version="1.0" encoding="UTF-8" standalone="no"?>
<!DOCTYPE svg PUBLIC "-//W3C//DTD SVG 1.1//EN"
 "http://www.w3.org/Graphics/SVG/1.1/DTD/svg11.dtd">
<!-- Generated by graphviz version 2.30.1 (20170916.1124)
 -->
<!-- Title: prtx::AttributableSetter Pages: 1 -->
<svg width="362pt" height="84pt"
 viewBox="0.00 0.00 362.00 84.00" xmlns="http://www.w3.org/2000/svg" xmlns:xlink="http://www.w3.org/1999/xlink">
<g id="graph0" class="graph" transform="scale(1 1) rotate(0) translate(4 80)">
<title>prtx::AttributableSetter</title>
<!-- Node1 -->
<g id="node1" class="node"><title>Node1</title>
<polygon fill="#bfbfbf" stroke="black" points="124.5,-56.5 124.5,-75.5 239.5,-75.5 239.5,-56.5 124.5,-56.5"/>
<text text-anchor="middle" x="182" y="-63.5" font-family="Helvetica,sans-Serif" font-size="10.00">prtx::AttributableSetter</text>
</g>
<!-- Node2 -->
<g id="node2" class="node"><title>Node2</title>
<g id="a_node2"><a xlink:href="classprtx_1_1_geometry_builder.html" target="_top" xlink:title="prtx::GeometryBuilder">
<polygon fill="none" stroke="black" points="0,-0.5 0,-19.5 112,-19.5 112,-0.5 0,-0.5"/>
<text text-anchor="middle" x="56" y="-7.5" font-family="Helvetica,sans-Serif" font-size="10.00">prtx::GeometryBuilder</text>
</a>
</g>
</g>
<!-- Node1&#45;&gt;Node2 -->
<g id="edge1" class="edge"><title>Node1&#45;&gt;Node2</title>
<path fill="none" stroke="midnightblue" d="M152.84,-52.503C129.219,-42.3795 96.572,-28.388 75.8717,-19.5164"/>
<polygon fill="midnightblue" stroke="midnightblue" points="151.465,-55.7213 162.035,-56.4435 154.222,-49.2873 151.465,-55.7213"/>
</g>
<!-- Node3 -->
<g id="node3" class="node"><title>Node3</title>
<g id="a_node3"><a xlink:href="classprtx_1_1_material_builder.html" target="_top" xlink:title="prtx::MaterialBuilder">
<polygon fill="none" stroke="black" points="130,-0.5 130,-19.5 234,-19.5 234,-0.5 130,-0.5"/>
<text text-anchor="middle" x="182" y="-7.5" font-family="Helvetica,sans-Serif" font-size="10.00">prtx::MaterialBuilder</text>
</a>
</g>
</g>
<!-- Node1&#45;&gt;Node3 -->
<g id="edge2" class="edge"><title>Node1&#45;&gt;Node3</title>
<path fill="none" stroke="midnightblue" d="M182,-45.8045C182,-36.9102 182,-26.7798 182,-19.7511"/>
<polygon fill="midnightblue" stroke="midnightblue" points="178.5,-46.083 182,-56.083 185.5,-46.083 178.5,-46.083"/>
</g>
<!-- Node4 -->
<g id="node4" class="node"><title>Node4</title>
<g id="a_node4"><a xlink:href="classprtx_1_1_texture_builder.html" target="_top" xlink:title="prtx::TextureBuilder">
<polygon fill="none" stroke="black" points="252,-0.5 252,-19.5 354,-19.5 354,-0.5 252,-0.5"/>
<text text-anchor="middle" x="303" y="-7.5" font-family="Helvetica,sans-Serif" font-size="10.00">prtx::TextureBuilder</text>
</a>
</g>
</g>
<!-- Node1&#45;&gt;Node4 -->
<g id="edge3" class="edge"><title>Node1&#45;&gt;Node4</title>
<path fill="none" stroke="midnightblue" d="M210.306,-52.3678C232.965,-42.2553 264.126,-28.3486 283.917,-19.5164"/>
<polygon fill="midnightblue" stroke="midnightblue" points="208.878,-49.1719 201.173,-56.4435 211.731,-55.5643 208.878,-49.1719"/>
</g>
</g>
</svg>
