<?xml version="1.0" encoding="UTF-8" standalone="no"?>
<!DOCTYPE svg PUBLIC "-//W3C//DTD SVG 1.1//EN"
 "http://www.w3.org/Graphics/SVG/1.1/DTD/svg11.dtd">
<!-- Generated by graphviz version 2.26.0 (20091210.2329)
 -->
<!-- Title: prtx::ReportingStrategy Pages: 1 -->
<svg width="406pt" height="146pt"
 viewBox="0.00 0.00 406.00 146.00" xmlns="http://www.w3.org/2000/svg" xmlns:xlink="http://www.w3.org/1999/xlink">
<g id="graph1" class="graph" transform="scale(1 1) rotate(0) translate(4 142)">
<title>prtx::ReportingStrategy</title>
<!-- Node1 -->
<g id="node1" class="node"><title>Node1</title>
<polygon fill="#bfbfbf" stroke="black" points="108,-58.5 108,-79.5 226,-79.5 226,-58.5 108,-58.5"/>
<text text-anchor="middle" x="167" y="-66.5" font-family="Helvetica,sans-Serif" font-size="10.00">prtx::ReportingStrategy</text>
</g>
<!-- Node3 -->
<g id="node5" class="node"><title>Node3</title>
<a xlink:href="classprtx_1_1_all_shapes_reporting_strategy.html" target="_top" xlink:title="prtx::AllShapesReporting\lStrategy">
<polygon fill="none" stroke="black" points="267.5,-104 267.5,-138 392.5,-138 392.5,-104 267.5,-104"/>
<text text-anchor="start" x="275.5" y="-125" font-family="Helvetica,sans-Serif" font-size="10.00">prtx::AllShapesReporting</text>
<text text-anchor="middle" x="330" y="-112" font-family="Helvetica,sans-Serif" font-size="10.00">Strategy</text>
</a>
</g>
<!-- Node1&#45;&gt;Node3 -->
<g id="edge4" class="edge"><title>Node1&#45;&gt;Node3</title>
<path fill="none" stroke="midnightblue" d="M209.654,-82.6073C230.11,-89.1333 254.829,-97.019 276.529,-103.942"/>
<polygon fill="midnightblue" stroke="midnightblue" points="210.576,-79.2279 199.985,-79.523 208.449,-85.8968 210.576,-79.2279"/>
</g>
<!-- Node4 -->
<g id="node7" class="node"><title>Node4</title>
<a xlink:href="classprtx_1_1_leaf_shape_reporting_strategy.html" target="_top" xlink:title="prtx::LeafShapeReporting\lStrategy">
<polygon fill="none" stroke="black" points="266,-52 266,-86 394,-86 394,-52 266,-52"/>
<text text-anchor="start" x="274" y="-73" font-family="Helvetica,sans-Serif" font-size="10.00">prtx::LeafShapeReporting</text>
<text text-anchor="middle" x="330" y="-60" font-family="Helvetica,sans-Serif" font-size="10.00">Strategy</text>
</a>
</g>
<!-- Node1&#45;&gt;Node4 -->
<g id="edge6" class="edge"><title>Node1&#45;&gt;Node4</title>
<path fill="none" stroke="midnightblue" d="M236.369,-69C246.129,-69 256.127,-69 265.786,-69"/>
<polygon fill="midnightblue" stroke="midnightblue" points="236.308,-65.5001 226.308,-69 236.308,-72.5001 236.308,-65.5001"/>
</g>
<!-- Node5 -->
<g id="node9" class="node"><title>Node5</title>
<a xlink:href="classprtx_1_1_single_shape_reporting_strategy.html" target="_top" xlink:title="prtx::SingleShapeReporting\lStrategy">
<polygon fill="none" stroke="black" points="262,-0 262,-34 398,-34 398,-0 262,-0"/>
<text text-anchor="start" x="270" y="-21" font-family="Helvetica,sans-Serif" font-size="10.00">prtx::SingleShapeReporting</text>
<text text-anchor="middle" x="330" y="-8" font-family="Helvetica,sans-Serif" font-size="10.00">Strategy</text>
</a>
</g>
<!-- Node1&#45;&gt;Node5 -->
<g id="edge8" class="edge"><title>Node1&#45;&gt;Node5</title>
<path fill="none" stroke="midnightblue" d="M209.654,-55.3927C230.11,-48.8667 254.829,-40.981 276.529,-34.0582"/>
<polygon fill="midnightblue" stroke="midnightblue" points="208.449,-52.1032 199.985,-58.477 210.576,-58.7721 208.449,-52.1032"/>
</g>
<!-- Node2 -->
<g id="node2" class="node"><title>Node2</title>
<polygon fill="none" stroke="#bfbfbf" points="0.5,-58.5 0.5,-79.5 71.5,-79.5 71.5,-58.5 0.5,-58.5"/>
<text text-anchor="middle" x="36" y="-66.5" font-family="Helvetica,sans-Serif" font-size="10.00">noncopyable</text>
</g>
<!-- Node2&#45;&gt;Node1 -->
<g id="edge2" class="edge"><title>Node2&#45;&gt;Node1</title>
<path fill="none" stroke="#8b1a1a" d="M82.0527,-69C90.3809,-69 99.1703,-69 107.812,-69"/>
<polygon fill="#8b1a1a" stroke="#8b1a1a" points="81.7964,-65.5001 71.7963,-69 81.7963,-72.5001 81.7964,-65.5001"/>
</g>
</g>
</svg>
