<?xml version="1.0" encoding="UTF-8" standalone="no"?>
<!DOCTYPE svg PUBLIC "-//W3C//DTD SVG 1.1//EN"
 "http://www.w3.org/Graphics/SVG/1.1/DTD/svg11.dtd">
<!-- Generated by graphviz version 2.30.1 (20140821.0912)
 -->
<!-- Title: prtx::ShaderDecoder Pages: 1 -->
<svg width="114pt" height="140pt"
 viewBox="0.00 0.00 114.00 140.00" xmlns="http://www.w3.org/2000/svg" xmlns:xlink="http://www.w3.org/1999/xlink">
<g id="graph0" class="graph" transform="scale(1 1) rotate(0) translate(4 136)">
<title>prtx::ShaderDecoder</title>
<!-- Node1 -->
<g id="node1" class="node"><title>Node1</title>
<polygon fill="#bfbfbf" stroke="black" points="-0.5,-0.5 -0.5,-19.5 106.5,-19.5 106.5,-0.5 -0.5,-0.5"/>
<text text-anchor="middle" x="53" y="-7.5" font-family="Helvetica,sans-Serif" font-size="10.00">prtx::ShaderDecoder</text>
</g>
<!-- Node2 -->
<g id="node2" class="node"><title>Node2</title>
<g id="a_node2"><a xlink:href="classprtx_1_1_decoder.html" target="_top" xlink:title="prtx::Decoder">
<polygon fill="none" stroke="black" points="15,-56.5 15,-75.5 91,-75.5 91,-56.5 15,-56.5"/>
<text text-anchor="middle" x="53" y="-63.5" font-family="Helvetica,sans-Serif" font-size="10.00">prtx::Decoder</text>
</a>
</g>
</g>
<!-- Node2&#45;&gt;Node1 -->
<g id="edge1" class="edge"><title>Node2&#45;&gt;Node1</title>
<path fill="none" stroke="midnightblue" d="M53,-45.8045C53,-36.9102 53,-26.7798 53,-19.7511"/>
<polygon fill="midnightblue" stroke="midnightblue" points="49.5001,-46.083 53,-56.083 56.5001,-46.083 49.5001,-46.083"/>
</g>
<!-- Node3 -->
<g id="node3" class="node"><title>Node3</title>
<g id="a_node3"><a xlink:href="classprtx_1_1_extension.html" target="_top" xlink:title="prtx::Extension">
<polygon fill="none" stroke="black" points="11.5,-112.5 11.5,-131.5 94.5,-131.5 94.5,-112.5 11.5,-112.5"/>
<text text-anchor="middle" x="53" y="-119.5" font-family="Helvetica,sans-Serif" font-size="10.00">prtx::Extension</text>
</a>
</g>
</g>
<!-- Node3&#45;&gt;Node2 -->
<g id="edge2" class="edge"><title>Node3&#45;&gt;Node2</title>
<path fill="none" stroke="midnightblue" d="M53,-101.805C53,-92.9102 53,-82.7798 53,-75.7511"/>
<polygon fill="midnightblue" stroke="midnightblue" points="49.5001,-102.083 53,-112.083 56.5001,-102.083 49.5001,-102.083"/>
</g>
</g>
</svg>
