<?xml version="1.0" encoding="UTF-8" standalone="no"?>
<!DOCTYPE svg PUBLIC "-//W3C//DTD SVG 1.1//EN"
 "http://www.w3.org/Graphics/SVG/1.1/DTD/svg11.dtd">
<!-- Generated by graphviz version 2.30.1 (20170916.1124)
 -->
<!-- Title: prtx::GeometryBuilder Pages: 1 -->
<svg width="253pt" height="96pt"
 viewBox="0.00 0.00 253.00 96.00" xmlns="http://www.w3.org/2000/svg" xmlns:xlink="http://www.w3.org/1999/xlink">
<g id="graph0" class="graph" transform="scale(1 1) rotate(0) translate(4 92)">
<title>prtx::GeometryBuilder</title>
<!-- Node1 -->
<g id="node1" class="node"><title>Node1</title>
<polygon fill="#bfbfbf" stroke="black" points="66,-0.5 66,-19.5 178,-19.5 178,-0.5 66,-0.5"/>
<text text-anchor="middle" x="122" y="-7.5" font-family="Helvetica,sans-Serif" font-size="10.00">prtx::GeometryBuilder</text>
</g>
<!-- Node2 -->
<g id="node2" class="node"><title>Node2</title>
<g id="a_node2"><a xlink:href="classprtx_1_1_shared_ptr_builder.html" target="_top" xlink:title="prtx::SharedPtrBuilder\l\&lt; Geometry \&gt;">
<polygon fill="none" stroke="black" points="-0.5,-57 -0.5,-87 112.5,-87 112.5,-57 -0.5,-57"/>
<text text-anchor="start" x="7.5" y="-75" font-family="Helvetica,sans-Serif" font-size="10.00">prtx::SharedPtrBuilder</text>
<text text-anchor="middle" x="56" y="-64" font-family="Helvetica,sans-Serif" font-size="10.00">&lt; Geometry &gt;</text>
</a>
</g>
</g>
<!-- Node2&#45;&gt;Node1 -->
<g id="edge1" class="edge"><title>Node2&#45;&gt;Node1</title>
<path fill="none" stroke="midnightblue" d="M79.1863,-49.9216C90.5914,-39.5533 103.717,-27.6209 112.396,-19.7305"/>
<polygon fill="midnightblue" stroke="midnightblue" points="76.6861,-47.4643 71.6411,-56.7808 81.3949,-52.6439 76.6861,-47.4643"/>
</g>
<!-- Node3 -->
<g id="node3" class="node"><title>Node3</title>
<g id="a_node3"><a xlink:href="classprtx_1_1_attributable_setter.html" target="_top" xlink:title="prtx::AttributableSetter">
<polygon fill="none" stroke="black" points="130.5,-62.5 130.5,-81.5 245.5,-81.5 245.5,-62.5 130.5,-62.5"/>
<text text-anchor="middle" x="188" y="-69.5" font-family="Helvetica,sans-Serif" font-size="10.00">prtx::AttributableSetter</text>
</a>
</g>
</g>
<!-- Node3&#45;&gt;Node1 -->
<g id="edge2" class="edge"><title>Node3&#45;&gt;Node1</title>
<path fill="none" stroke="midnightblue" d="M170.973,-55.5206C158.39,-44.0815 141.724,-28.9305 131.439,-19.5806"/>
<polygon fill="midnightblue" stroke="midnightblue" points="168.79,-58.2665 178.544,-62.4035 173.499,-53.0869 168.79,-58.2665"/>
</g>
</g>
</svg>
