<?xml version="1.0" encoding="UTF-8" standalone="no"?>
<!DOCTYPE svg PUBLIC "-//W3C//DTD SVG 1.1//EN"
 "http://www.w3.org/Graphics/SVG/1.1/DTD/svg11.dtd">
<!-- Generated by graphviz version 2.30.1 (20170916.1124)
 -->
<!-- Title: prtx::Geometry Pages: 1 -->
<svg width="189pt" height="84pt"
 viewBox="0.00 0.00 189.00 84.00" xmlns="http://www.w3.org/2000/svg" xmlns:xlink="http://www.w3.org/1999/xlink">
<g id="graph0" class="graph" transform="scale(1 1) rotate(0) translate(4 80)">
<title>prtx::Geometry</title>
<!-- Node1 -->
<g id="node1" class="node"><title>Node1</title>
<polygon fill="#bfbfbf" stroke="black" points="46,-0.5 46,-19.5 128,-19.5 128,-0.5 46,-0.5"/>
<text text-anchor="middle" x="87" y="-7.5" font-family="Helvetica,sans-Serif" font-size="10.00">prtx::Geometry</text>
</g>
<!-- Node2 -->
<g id="node2" class="node"><title>Node2</title>
<g id="a_node2"><a xlink:href="classprtx_1_1_content.html" target="_top" xlink:title="prtx::Content">
<polygon fill="none" stroke="black" points="0,-56.5 0,-75.5 74,-75.5 74,-56.5 0,-56.5"/>
<text text-anchor="middle" x="37" y="-63.5" font-family="Helvetica,sans-Serif" font-size="10.00">prtx::Content</text>
</a>
</g>
</g>
<!-- Node2&#45;&gt;Node1 -->
<g id="edge1" class="edge"><title>Node2&#45;&gt;Node1</title>
<path fill="none" stroke="midnightblue" d="M52.0763,-48.7175C60.8891,-39.1997 71.6659,-27.5608 78.8972,-19.7511"/>
<polygon fill="midnightblue" stroke="midnightblue" points="49.4824,-46.3674 45.2565,-56.083 54.6188,-51.1233 49.4824,-46.3674"/>
</g>
<!-- Node3 -->
<g id="node3" class="node"><title>Node3</title>
<g id="a_node3"><a xlink:href="classprtx_1_1_attributable.html" target="_top" xlink:title="prtx::Attributable">
<polygon fill="none" stroke="black" points="92.5,-56.5 92.5,-75.5 181.5,-75.5 181.5,-56.5 92.5,-56.5"/>
<text text-anchor="middle" x="137" y="-63.5" font-family="Helvetica,sans-Serif" font-size="10.00">prtx::Attributable</text>
</a>
</g>
</g>
<!-- Node3&#45;&gt;Node1 -->
<g id="edge2" class="edge"><title>Node3&#45;&gt;Node1</title>
<path fill="none" stroke="midnightblue" d="M121.924,-48.7175C113.111,-39.1997 102.334,-27.5608 95.1028,-19.7511"/>
<polygon fill="midnightblue" stroke="midnightblue" points="119.381,-51.1233 128.744,-56.083 124.518,-46.3674 119.381,-51.1233"/>
</g>
</g>
</svg>
