<?xml version="1.0" encoding="UTF-8" standalone="no"?>
<!DOCTYPE svg PUBLIC "-//W3C//DTD SVG 1.1//EN"
 "http://www.w3.org/Graphics/SVG/1.1/DTD/svg11.dtd">
<!-- Generated by graphviz version 2.40.1 (0)
 -->
<!-- Title: prtx::ComparableContent Pages: 1 -->
<svg width="260pt" height="140pt"
 viewBox="0.00 0.00 259.50 140.00" xmlns="http://www.w3.org/2000/svg" xmlns:xlink="http://www.w3.org/1999/xlink">
<g id="graph0" class="graph" transform="scale(1 1) rotate(0) translate(4 136)">
<title>prtx::ComparableContent</title>
<!-- Node0 -->
<g id="node1" class="node">
<title>Node0</title>
<polygon fill="#bfbfbf" stroke="#000000" points="64,-56.5 64,-75.5 190,-75.5 190,-56.5 64,-56.5"/>
<text text-anchor="middle" x="127" y="-63.5" font-family="Helvetica,sans-Serif" font-size="10.00" fill="#000000">prtx::ComparableContent</text>
</g>
<!-- Node2 -->
<g id="node3" class="node">
<title>Node2</title>
<g id="a_node3"><a xlink:href="classprtx_1_1_material.html" target="_top" xlink:title="prtx::Material">
<polygon fill="none" stroke="#000000" points="0,-.5 0,-19.5 74,-19.5 74,-.5 0,-.5"/>
<text text-anchor="middle" x="37" y="-7.5" font-family="Helvetica,sans-Serif" font-size="10.00" fill="#000000">prtx::Material</text>
</a>
</g>
</g>
<!-- Node0&#45;&gt;Node2 -->
<g id="edge2" class="edge">
<title>Node0&#45;&gt;Node2</title>
<path fill="none" stroke="#191970" d="M102.5216,-50.769C86.5734,-40.8456 66.249,-28.1994 52.4972,-19.6427"/>
<polygon fill="#191970" stroke="#191970" points="100.9835,-53.9342 111.3232,-56.2455 104.6817,-47.9908 100.9835,-53.9342"/>
</g>
<!-- Node3 -->
<g id="node4" class="node">
<title>Node3</title>
<g id="a_node4"><a xlink:href="classprtx_1_1_shader.html" target="_top" xlink:title="prtx::Shader">
<polygon fill="none" stroke="#000000" points="92,-.5 92,-19.5 162,-19.5 162,-.5 92,-.5"/>
<text text-anchor="middle" x="127" y="-7.5" font-family="Helvetica,sans-Serif" font-size="10.00" fill="#000000">prtx::Shader</text>
</a>
</g>
</g>
<!-- Node0&#45;&gt;Node3 -->
<g id="edge3" class="edge">
<title>Node0&#45;&gt;Node3</title>
<path fill="none" stroke="#191970" d="M127,-46.1575C127,-37.155 127,-26.9199 127,-19.6427"/>
<polygon fill="#191970" stroke="#191970" points="123.5001,-46.2455 127,-56.2455 130.5001,-46.2456 123.5001,-46.2455"/>
</g>
<!-- Node4 -->
<g id="node5" class="node">
<title>Node4</title>
<g id="a_node5"><a xlink:href="classprtx_1_1_texture.html" target="_top" xlink:title="prtx::Texture">
<polygon fill="none" stroke="#000000" points="180.5,-.5 180.5,-19.5 251.5,-19.5 251.5,-.5 180.5,-.5"/>
<text text-anchor="middle" x="216" y="-7.5" font-family="Helvetica,sans-Serif" font-size="10.00" fill="#000000">prtx::Texture</text>
</a>
</g>
</g>
<!-- Node0&#45;&gt;Node4 -->
<g id="edge4" class="edge">
<title>Node0&#45;&gt;Node4</title>
<path fill="none" stroke="#191970" d="M151.2064,-50.769C166.9775,-40.8456 187.076,-28.1994 200.675,-19.6427"/>
<polygon fill="#191970" stroke="#191970" points="149.1026,-47.9575 142.5026,-56.2455 152.8305,-53.8823 149.1026,-47.9575"/>
</g>
<!-- Node1 -->
<g id="node2" class="node">
<title>Node1</title>
<g id="a_node2"><a xlink:href="classprtx_1_1_content.html" target="_top" xlink:title="prtx::Content">
<polygon fill="none" stroke="#000000" points="90,-112.5 90,-131.5 164,-131.5 164,-112.5 90,-112.5"/>
<text text-anchor="middle" x="127" y="-119.5" font-family="Helvetica,sans-Serif" font-size="10.00" fill="#000000">prtx::Content</text>
</a>
</g>
</g>
<!-- Node1&#45;&gt;Node0 -->
<g id="edge1" class="edge">
<title>Node1&#45;&gt;Node0</title>
<path fill="none" stroke="#191970" d="M127,-102.1575C127,-93.155 127,-82.9199 127,-75.6427"/>
<polygon fill="#191970" stroke="#191970" points="123.5001,-102.2455 127,-112.2455 130.5001,-102.2456 123.5001,-102.2455"/>
</g>
</g>
</svg>
