<?xml version="1.0" encoding="UTF-8" standalone="no"?>
<!DOCTYPE svg PUBLIC "-//W3C//DTD SVG 1.1//EN"
 "http://www.w3.org/Graphics/SVG/1.1/DTD/svg11.dtd">
<!-- Generated by graphviz version 2.26.0 (20091210.2329)
 -->
<!-- Title: prt::Object Pages: 1 -->
<!--zoomable 670 -->
<svg id="main" version="1.1" xmlns="http://www.w3.org/2000/svg" xmlns:xlink="http://www.w3.org/1999/xlink" xml:space="preserve" onload="init(evt)">
<style type="text/css"><![CDATA[
.edge:hover path { stroke: red; }
.edge:hover polygon { stroke: red; fill: red; }
]]></style>
<script type="text/javascript"><![CDATA[
var edges = document.getElementsByTagName('g');
if (edges && edges.length) {
  for (var i=0;i<edges.length;i++) {
    if (edges[i].id.substr(0,4)=='edge') {
      edges[i].setAttribute('class','edge');
    }
  }
}
]]></script>
        <defs>
                <circle id="rim" cx="0" cy="0" r="7"/>
                <circle id="rim2" cx="0" cy="0" r="3.5"/>
                <g id="zoomPlus">
                        <use xlink:href="#rim" fill="#404040">
                                <set attributeName="fill" to="#808080" begin="zoomplus.mouseover" end="zoomplus.mouseout"/>
                        </use>
                        <path d="M-4,0h8M0,-4v8" fill="none" stroke="white" stroke-width="1.5" pointer-events="none"/>
                </g>
                <g id="zoomMin">
                        <use xlink:href="#rim" fill="#404040">
                                <set attributeName="fill" to="#808080" begin="zoomminus.mouseover" end="zoomminus.mouseout"/>
                        </use>
                        <path d="M-4,0h8" fill="none" stroke="white" stroke-width="1.5" pointer-events="none"/>
                </g>
                <g id="dirArrow">
                        <path fill="none" stroke="white" stroke-width="1.5" d="M0,-3.0v7 M-2.5,-0.5L0,-3.0L2.5,-0.5"/>
                </g>
               <g id="resetDef">
                       <use xlink:href="#rim2" fill="#404040">
                               <set attributeName="fill" to="#808080" begin="reset.mouseover" end="reset.mouseout"/>
                       </use>
               </g>
        </defs>

<script type="text/javascript">
var viewWidth = 378;
var viewHeight = 670;
var sectionId = 'dynsection-0';
</script>
<script xlink:href="svgpan.js"/>
<svg id="graph" class="graph">
<g id="viewport">
<title>prt::Object</title>
<!-- Node1 -->
<g id="node1" class="node"><title>Node1</title>
<polygon fill="#bfbfbf" stroke="black" points="0,-320.5 0,-341.5 62,-341.5 62,-320.5 0,-320.5"/>
<text text-anchor="middle" x="31" y="-328.5" font-family="Helvetica,sans-Serif" font-size="10.00">prt::Object</text>
</g>
<!-- Node2 -->
<g id="node3" class="node"><title>Node2</title>
<a xlink:href="classprt_1_1_annotation.html" target="_top" xlink:title="prt::Annotation">
<polygon fill="none" stroke="black" points="129,-640.5 129,-661.5 209,-661.5 209,-640.5 129,-640.5"/>
<text text-anchor="middle" x="169" y="-648.5" font-family="Helvetica,sans-Serif" font-size="10.00">prt::Annotation</text>
</a>
</g>
<!-- Node1&#45;&gt;Node2 -->
<g id="edge2" class="edge"><title>Node1&#45;&gt;Node2</title>
<path fill="none" stroke="midnightblue" d="M32.903,-351.841C38.8953,-412.98 59.3124,-590.13 98,-631 106.099,-639.556 117.547,-644.546 128.89,-647.427"/>
<polygon fill="midnightblue" stroke="midnightblue" points="36.3538,-351.157 31.9231,-341.533 29.3852,-351.819 36.3538,-351.157"/>
</g>
<!-- Node3 -->
<g id="node5" class="node"><title>Node3</title>
<a xlink:href="classprt_1_1_annotation_argument.html" target="_top" xlink:title="prt::AnnotationArgument">
<polygon fill="none" stroke="black" points="108,-600.5 108,-621.5 230,-621.5 230,-600.5 108,-600.5"/>
<text text-anchor="middle" x="169" y="-608.5" font-family="Helvetica,sans-Serif" font-size="10.00">prt::AnnotationArgument</text>
</a>
</g>
<!-- Node1&#45;&gt;Node3 -->
<g id="edge4" class="edge"><title>Node1&#45;&gt;Node3</title>
<path fill="none" stroke="midnightblue" d="M33.6417,-351.584C41.1278,-406.806 64.1567,-556.391 98,-591 101.76,-594.846 106.198,-597.968 110.989,-600.5"/>
<polygon fill="midnightblue" stroke="midnightblue" points="37.0998,-351.037 32.3173,-341.583 30.1604,-351.956 37.0998,-351.037"/>
</g>
<!-- Node4 -->
<g id="node7" class="node"><title>Node4</title>
<a xlink:href="classprt_1_1_attribute_map.html" target="_top" xlink:title="prt::AttributeMap">
<polygon fill="none" stroke="black" points="124.5,-560.5 124.5,-581.5 213.5,-581.5 213.5,-560.5 124.5,-560.5"/>
<text text-anchor="middle" x="169" y="-568.5" font-family="Helvetica,sans-Serif" font-size="10.00">prt::AttributeMap</text>
</a>
</g>
<!-- Node1&#45;&gt;Node4 -->
<g id="edge6" class="edge"><title>Node1&#45;&gt;Node4</title>
<path fill="none" stroke="midnightblue" d="M34.6793,-351.612C43.8379,-400.716 69.0195,-522.623 98,-551 105.229,-558.078 114.757,-562.692 124.478,-565.689"/>
<polygon fill="midnightblue" stroke="midnightblue" points="38.0794,-350.748 32.8366,-341.542 31.1937,-352.008 38.0794,-350.748"/>
</g>
<!-- Node5 -->
<g id="node9" class="node"><title>Node5</title>
<a xlink:href="classprt_1_1_attribute_map_builder.html" target="_top" xlink:title="prt::AttributeMapBuilder">
<polygon fill="none" stroke="black" points="109.5,-520.5 109.5,-541.5 228.5,-541.5 228.5,-520.5 109.5,-520.5"/>
<text text-anchor="middle" x="169" y="-528.5" font-family="Helvetica,sans-Serif" font-size="10.00">prt::AttributeMapBuilder</text>
</a>
</g>
<!-- Node1&#45;&gt;Node5 -->
<g id="edge8" class="edge"><title>Node1&#45;&gt;Node5</title>
<path fill="none" stroke="midnightblue" d="M32.752,-351.978C37.0225,-389.455 51.3314,-467.999 98,-511 102.144,-514.818 106.961,-517.915 112.097,-520.425"/>
<polygon fill="midnightblue" stroke="midnightblue" points="36.2067,-351.351 31.7243,-341.751 29.2418,-352.05 36.2067,-351.351"/>
</g>
<!-- Node6 -->
<g id="node11" class="node"><title>Node6</title>
<a xlink:href="classprt_1_1_cache_object.html" target="_top" xlink:title="prt::CacheObject">
<polygon fill="none" stroke="black" points="123.5,-480.5 123.5,-501.5 214.5,-501.5 214.5,-480.5 123.5,-480.5"/>
<text text-anchor="middle" x="169" y="-488.5" font-family="Helvetica,sans-Serif" font-size="10.00">prt::CacheObject</text>
</a>
</g>
<!-- Node1&#45;&gt;Node6 -->
<g id="edge10" class="edge"><title>Node1&#45;&gt;Node6</title>
<path fill="none" stroke="midnightblue" d="M35.1899,-351.574C42.5044,-382.183 60.5403,-439.48 98,-471 105.251,-477.101 114.243,-481.347 123.363,-484.299"/>
<polygon fill="midnightblue" stroke="midnightblue" points="38.5585,-350.599 32.964,-341.602 31.7266,-352.124 38.5585,-350.599"/>
</g>
<!-- Node7 -->
<g id="node13" class="node"><title>Node7</title>
<a xlink:href="classprt_1_1_console_log_handler.html" target="_top" xlink:title="prt::ConsoleLogHandler">
<polygon fill="none" stroke="black" points="109.5,-440.5 109.5,-461.5 228.5,-461.5 228.5,-440.5 109.5,-440.5"/>
<text text-anchor="middle" x="169" y="-448.5" font-family="Helvetica,sans-Serif" font-size="10.00">prt::ConsoleLogHandler</text>
</a>
</g>
<!-- Node1&#45;&gt;Node7 -->
<g id="edge12" class="edge"><title>Node1&#45;&gt;Node7</title>
<path fill="none" stroke="midnightblue" d="M39.1903,-350.923C49.5516,-373.66 69.5412,-410.358 98,-431 103.287,-434.835 109.285,-437.935 115.501,-440.442"/>
<polygon fill="midnightblue" stroke="midnightblue" points="42.3161,-349.335 35.1114,-341.567 35.8994,-352.132 42.3161,-349.335"/>
</g>
<!-- Node8 -->
<g id="node15" class="node"><title>Node8</title>
<a xlink:href="classprt_1_1_decoder_info.html" target="_top" xlink:title="prt::DecoderInfo">
<polygon fill="none" stroke="black" points="125.5,-400.5 125.5,-421.5 212.5,-421.5 212.5,-400.5 125.5,-400.5"/>
<text text-anchor="middle" x="169" y="-408.5" font-family="Helvetica,sans-Serif" font-size="10.00">prt::DecoderInfo</text>
</a>
</g>
<!-- Node1&#45;&gt;Node8 -->
<g id="edge14" class="edge"><title>Node1&#45;&gt;Node8</title>
<path fill="none" stroke="midnightblue" d="M47.3491,-349.623C59.965,-362.923 78.5082,-380.289 98,-391 106.417,-395.625 115.997,-399.257 125.335,-402.081"/>
<polygon fill="midnightblue" stroke="midnightblue" points="49.65,-346.954 40.3044,-341.963 44.4977,-351.693 49.65,-346.954"/>
</g>
<!-- Node9 -->
<g id="node17" class="node"><title>Node9</title>
<a xlink:href="classprt_1_1_encoder_info.html" target="_top" xlink:title="prt::EncoderInfo">
<polygon fill="none" stroke="black" points="126,-360.5 126,-381.5 212,-381.5 212,-360.5 126,-360.5"/>
<text text-anchor="middle" x="169" y="-368.5" font-family="Helvetica,sans-Serif" font-size="10.00">prt::EncoderInfo</text>
</a>
</g>
<!-- Node1&#45;&gt;Node9 -->
<g id="edge16" class="edge"><title>Node1&#45;&gt;Node9</title>
<path fill="none" stroke="midnightblue" d="M72.117,-343.383C80.6648,-345.927 89.6204,-348.569 98,-351 108.7,-354.104 120.328,-357.408 131.016,-360.418"/>
<polygon fill="midnightblue" stroke="midnightblue" points="72.9125,-339.968 62.3291,-340.461 70.9101,-346.676 72.9125,-339.968"/>
</g>
<!-- Node10 -->
<g id="node19" class="node"><title>Node10</title>
<a xlink:href="classprt_1_1_file_log_handler.html" target="_top" xlink:title="prt::FileLogHandler">
<polygon fill="none" stroke="black" points="119.5,-320.5 119.5,-341.5 218.5,-341.5 218.5,-320.5 119.5,-320.5"/>
<text text-anchor="middle" x="169" y="-328.5" font-family="Helvetica,sans-Serif" font-size="10.00">prt::FileLogHandler</text>
</a>
</g>
<!-- Node1&#45;&gt;Node10 -->
<g id="edge18" class="edge"><title>Node1&#45;&gt;Node10</title>
<path fill="none" stroke="midnightblue" d="M72.6398,-331C87.3682,-331 104.081,-331 119.404,-331"/>
<polygon fill="midnightblue" stroke="midnightblue" points="72.3144,-327.5 62.3143,-331 72.3143,-334.5 72.3144,-327.5"/>
</g>
<!-- Node11 -->
<g id="node21" class="node"><title>Node11</title>
<a xlink:href="classprt_1_1_file_output_callbacks.html" target="_top" xlink:title="prt::FileOutputCallbacks">
<polygon fill="none" stroke="black" points="108,-280.5 108,-301.5 230,-301.5 230,-280.5 108,-280.5"/>
<text text-anchor="middle" x="169" y="-288.5" font-family="Helvetica,sans-Serif" font-size="10.00">prt::FileOutputCallbacks</text>
</a>
</g>
<!-- Node1&#45;&gt;Node11 -->
<g id="edge20" class="edge"><title>Node1&#45;&gt;Node11</title>
<path fill="none" stroke="midnightblue" d="M72.117,-318.617C80.6648,-316.073 89.6204,-313.431 98,-311 108.7,-307.896 120.328,-304.592 131.016,-301.582"/>
<polygon fill="midnightblue" stroke="midnightblue" points="70.9101,-315.324 62.3291,-321.539 72.9125,-322.032 70.9101,-315.324"/>
</g>
<!-- Node12 -->
<g id="node23" class="node"><title>Node12</title>
<a xlink:href="classprt_1_1_initial_shape.html" target="_top" xlink:title="prt::InitialShape">
<polygon fill="none" stroke="black" points="126.5,-240.5 126.5,-261.5 211.5,-261.5 211.5,-240.5 126.5,-240.5"/>
<text text-anchor="middle" x="169" y="-248.5" font-family="Helvetica,sans-Serif" font-size="10.00">prt::InitialShape</text>
</a>
</g>
<!-- Node1&#45;&gt;Node12 -->
<g id="edge22" class="edge"><title>Node1&#45;&gt;Node12</title>
<path fill="none" stroke="midnightblue" d="M47.3491,-312.377C59.965,-299.077 78.5082,-281.711 98,-271 106.754,-266.19 116.765,-262.454 126.454,-259.584"/>
<polygon fill="midnightblue" stroke="midnightblue" points="44.4977,-310.307 40.3044,-320.037 49.65,-315.046 44.4977,-310.307"/>
</g>
<!-- Node14 -->
<g id="node27" class="node"><title>Node14</title>
<a xlink:href="classprt_1_1_initial_shape_builder.html" target="_top" xlink:title="prt::InitialShapeBuilder">
<polygon fill="none" stroke="black" points="111.5,-200.5 111.5,-221.5 226.5,-221.5 226.5,-200.5 111.5,-200.5"/>
<text text-anchor="middle" x="169" y="-208.5" font-family="Helvetica,sans-Serif" font-size="10.00">prt::InitialShapeBuilder</text>
</a>
</g>
<!-- Node1&#45;&gt;Node14 -->
<g id="edge26" class="edge"><title>Node1&#45;&gt;Node14</title>
<path fill="none" stroke="midnightblue" d="M39.1903,-311.077C49.5516,-288.34 69.5412,-251.642 98,-231 103.287,-227.165 109.285,-224.065 115.501,-221.558"/>
<polygon fill="midnightblue" stroke="midnightblue" points="35.8994,-309.868 35.1114,-320.433 42.3161,-312.665 35.8994,-309.868"/>
</g>
<!-- Node15 -->
<g id="node29" class="node"><title>Node15</title>
<a xlink:href="classprt_1_1_memory_output_callbacks.html" target="_top" xlink:title="prt::MemoryOutputCallbacks">
<polygon fill="none" stroke="black" points="98,-160.5 98,-181.5 240,-181.5 240,-160.5 98,-160.5"/>
<text text-anchor="middle" x="169" y="-168.5" font-family="Helvetica,sans-Serif" font-size="10.00">prt::MemoryOutputCallbacks</text>
</a>
</g>
<!-- Node1&#45;&gt;Node15 -->
<g id="edge28" class="edge"><title>Node1&#45;&gt;Node15</title>
<path fill="none" stroke="midnightblue" d="M35.1899,-310.426C42.5044,-279.817 60.5403,-222.52 98,-191 102.507,-187.207 107.687,-184.132 113.153,-181.638"/>
<polygon fill="midnightblue" stroke="midnightblue" points="31.7266,-309.876 32.964,-320.398 38.5585,-311.401 31.7266,-309.876"/>
</g>
<!-- Node16 -->
<g id="node31" class="node"><title>Node16</title>
<a xlink:href="classprt_1_1_occlusion_set.html" target="_top" xlink:title="prt::OcclusionSet">
<polygon fill="none" stroke="black" points="123,-120.5 123,-141.5 215,-141.5 215,-120.5 123,-120.5"/>
<text text-anchor="middle" x="169" y="-128.5" font-family="Helvetica,sans-Serif" font-size="10.00">prt::OcclusionSet</text>
</a>
</g>
<!-- Node1&#45;&gt;Node16 -->
<g id="edge30" class="edge"><title>Node1&#45;&gt;Node16</title>
<path fill="none" stroke="midnightblue" d="M32.752,-310.022C37.0225,-272.545 51.3314,-194.001 98,-151 104.969,-144.579 113.842,-140.198 122.935,-137.216"/>
<polygon fill="midnightblue" stroke="midnightblue" points="29.2418,-309.95 31.7243,-320.249 36.2067,-310.649 29.2418,-309.95"/>
</g>
<!-- Node17 -->
<g id="node33" class="node"><title>Node17</title>
<a xlink:href="classprt_1_1_resolve_map.html" target="_top" xlink:title="prt::ResolveMap">
<polygon fill="none" stroke="black" points="124.5,-80.5 124.5,-101.5 213.5,-101.5 213.5,-80.5 124.5,-80.5"/>
<text text-anchor="middle" x="169" y="-88.5" font-family="Helvetica,sans-Serif" font-size="10.00">prt::ResolveMap</text>
</a>
</g>
<!-- Node1&#45;&gt;Node17 -->
<g id="edge32" class="edge"><title>Node1&#45;&gt;Node17</title>
<path fill="none" stroke="midnightblue" d="M34.6793,-310.388C43.8379,-261.284 69.0195,-139.377 98,-111 105.229,-103.922 114.757,-99.3079 124.478,-96.3109"/>
<polygon fill="midnightblue" stroke="midnightblue" points="31.1937,-309.992 32.8366,-320.458 38.0794,-311.252 31.1937,-309.992"/>
</g>
<!-- Node19 -->
<g id="node37" class="node"><title>Node19</title>
<a xlink:href="classprt_1_1_resolve_map_builder.html" target="_top" xlink:title="prt::ResolveMapBuilder">
<polygon fill="none" stroke="black" points="109.5,-40.5 109.5,-61.5 228.5,-61.5 228.5,-40.5 109.5,-40.5"/>
<text text-anchor="middle" x="169" y="-48.5" font-family="Helvetica,sans-Serif" font-size="10.00">prt::ResolveMapBuilder</text>
</a>
</g>
<!-- Node1&#45;&gt;Node19 -->
<g id="edge36" class="edge"><title>Node1&#45;&gt;Node19</title>
<path fill="none" stroke="midnightblue" d="M33.6417,-310.416C41.1278,-255.194 64.1567,-105.609 98,-71 101.76,-67.1545 106.198,-64.0324 110.989,-61.5"/>
<polygon fill="midnightblue" stroke="midnightblue" points="30.1604,-310.044 32.3173,-320.417 37.0998,-310.963 30.1604,-310.044"/>
</g>
<!-- Node20 -->
<g id="node39" class="node"><title>Node20</title>
<a xlink:href="classprt_1_1_rule_file_info.html" target="_top" xlink:title="prt::RuleFileInfo">
<polygon fill="none" stroke="black" points="126,-0.5 126,-21.5 212,-21.5 212,-0.5 126,-0.5"/>
<text text-anchor="middle" x="169" y="-8.5" font-family="Helvetica,sans-Serif" font-size="10.00">prt::RuleFileInfo</text>
</a>
</g>
<!-- Node1&#45;&gt;Node20 -->
<g id="edge38" class="edge"><title>Node1&#45;&gt;Node20</title>
<path fill="none" stroke="midnightblue" d="M32.903,-310.159C38.8953,-249.02 59.3124,-71.8699 98,-31 105.395,-23.1879 115.581,-18.3491 125.931,-15.3736"/>
<polygon fill="midnightblue" stroke="midnightblue" points="29.3852,-310.181 31.9231,-320.467 36.3538,-310.843 29.3852,-310.181"/>
</g>
<!-- Node13 -->
<g id="node25" class="node"><title>Node13</title>
<a xlink:href="classprtx_1_1_initial_shape.html" target="_top" xlink:title="prtx::InitialShape">
<polygon fill="none" stroke="black" points="278,-240.5 278,-261.5 368,-261.5 368,-240.5 278,-240.5"/>
<text text-anchor="middle" x="323" y="-248.5" font-family="Helvetica,sans-Serif" font-size="10.00">prtx::InitialShape</text>
</a>
</g>
<!-- Node12&#45;&gt;Node13 -->
<g id="edge24" class="edge"><title>Node12&#45;&gt;Node13</title>
<path fill="none" stroke="midnightblue" d="M222.056,-251C240.246,-251 260.416,-251 277.915,-251"/>
<polygon fill="midnightblue" stroke="midnightblue" points="221.898,-247.5 211.898,-251 221.898,-254.5 221.898,-247.5"/>
</g>
<!-- Node18 -->
<g id="node35" class="node"><title>Node18</title>
<a xlink:href="classprtx_1_1_resolve_map.html" target="_top" xlink:title="prtx::ResolveMap">
<polygon fill="none" stroke="black" points="276,-80.5 276,-101.5 370,-101.5 370,-80.5 276,-80.5"/>
<text text-anchor="middle" x="323" y="-88.5" font-family="Helvetica,sans-Serif" font-size="10.00">prtx::ResolveMap</text>
</a>
</g>
<!-- Node17&#45;&gt;Node18 -->
<g id="edge34" class="edge"><title>Node17&#45;&gt;Node18</title>
<path fill="none" stroke="midnightblue" d="M223.889,-91C240.885,-91 259.452,-91 275.873,-91"/>
<polygon fill="midnightblue" stroke="midnightblue" points="223.543,-87.5001 213.543,-91 223.543,-94.5001 223.543,-87.5001"/>
</g>
</g>
</svg>
        <g id="navigator" transform="translate(0 0)" fill="#404254">
                <rect fill="#f2f5e9" fill-opacity="0.5" stroke="#606060" stroke-width=".5" x="0" y="0" width="60" height="60"/>
                <use id="zoomplus" xlink:href="#zoomPlus" x="17" y="9" onmousedown="handleZoom(evt,'in')"/>
                <use id="zoomminus" xlink:href="#zoomMin" x="42" y="9" onmousedown="handleZoom(evt,'out')"/>
                <use id="reset" xlink:href="#resetDef" x="30" y="36" onmousedown="handleReset()"/>
                <g id="arrowUp" xlink:href="#dirArrow" transform="translate(30 24)" onmousedown="handlePan(0,-1)">
                  <use xlink:href="#rim" fill="#404040">
                        <set attributeName="fill" to="#808080" begin="arrowUp.mouseover" end="arrowUp.mouseout"/>
                  </use>
                  <path fill="none" stroke="white" stroke-width="1.5" d="M0,-3.0v7 M-2.5,-0.5L0,-3.0L2.5,-0.5"/>
                </g>
                <g id="arrowRight" xlink:href="#dirArrow" transform="rotate(90) translate(36 -43)" onmousedown="handlePan(1,0)">
                  <use xlink:href="#rim" fill="#404040">
                        <set attributeName="fill" to="#808080" begin="arrowRight.mouseover" end="arrowRight.mouseout"/>
                  </use>
                  <path fill="none" stroke="white" stroke-width="1.5" d="M0,-3.0v7 M-2.5,-0.5L0,-3.0L2.5,-0.5"/>
                </g>
                <g id="arrowDown" xlink:href="#dirArrow" transform="rotate(180) translate(-30 -48)" onmousedown="handlePan(0,1)">
                  <use xlink:href="#rim" fill="#404040">
                        <set attributeName="fill" to="#808080" begin="arrowDown.mouseover" end="arrowDown.mouseout"/>
                  </use>
                  <path fill="none" stroke="white" stroke-width="1.5" d="M0,-3.0v7 M-2.5,-0.5L0,-3.0L2.5,-0.5"/>
                </g>
                <g id="arrowLeft" xlink:href="#dirArrow" transform="rotate(270) translate(-36 17)" onmousedown="handlePan(-1,0)">
                  <use xlink:href="#rim" fill="#404040">
                        <set attributeName="fill" to="#808080" begin="arrowLeft.mouseover" end="arrowLeft.mouseout"/>
                  </use>
                  <path fill="none" stroke="white" stroke-width="1.5" d="M0,-3.0v7 M-2.5,-0.5L0,-3.0L2.5,-0.5"/>
                </g>
        </g>
        <svg viewBox="0 0 15 15" width="100%" height="30px" preserveAspectRatio="xMaxYMin meet">
         <g id="arrow_out" transform="scale(0.3 0.3)">
          <a xlink:href="classprt_1_1_object__inherit__graph_org.svg" target="_base">
           <rect id="button" ry="5" rx="5" y="6" x="6" height="38" width="38"
                fill="#f2f5e9" fill-opacity="0.5" stroke="#606060" stroke-width="1.0"/>
           <path id="arrow"
             d="M 11.500037,31.436501 C 11.940474,20.09759 22.043105,11.32322 32.158766,21.979434 L 37.068811,17.246167 C 37.068811,17.246167 37.088388,32 37.088388,32 L 22.160133,31.978069 C 22.160133,31.978069 26.997745,27.140456 26.997745,27.140456 C 18.528582,18.264221 13.291696,25.230495 11.500037,31.436501 z"
             style="fill:#404040;"/>
          </a>
         </g>
        </svg>
</svg>
