<?xml version="1.0" encoding="UTF-8" standalone="no"?>
<!DOCTYPE svg PUBLIC "-//W3C//DTD SVG 1.1//EN"
 "http://www.w3.org/Graphics/SVG/1.1/DTD/svg11.dtd">
<!-- Generated by graphviz version 2.26.0 (20091210.2329)
 -->
<!-- Title: prt::ConsoleLogHandler Pages: 1 -->
<svg width="170pt" height="88pt"
 viewBox="0.00 0.00 170.00 88.00" xmlns="http://www.w3.org/2000/svg" xmlns:xlink="http://www.w3.org/1999/xlink">
<g id="graph1" class="graph" transform="scale(1 1) rotate(0) translate(4 84)">
<title>prt::ConsoleLogHandler</title>
<!-- Node1 -->
<g id="node1" class="node"><title>Node1</title>
<polygon fill="#bfbfbf" stroke="black" points="26.5,-0.5 26.5,-21.5 145.5,-21.5 145.5,-0.5 26.5,-0.5"/>
<text text-anchor="middle" x="86" y="-8.5" font-family="Helvetica,sans-Serif" font-size="10.00">prt::ConsoleLogHandler</text>
</g>
<!-- Node2 -->
<g id="node2" class="node"><title>Node2</title>
<a xlink:href="classprt_1_1_log_handler.html" target="_top" xlink:title="prt::LogHandler">
<polygon fill="none" stroke="black" points="-0.5,-58.5 -0.5,-79.5 82.5,-79.5 82.5,-58.5 -0.5,-58.5"/>
<text text-anchor="middle" x="41" y="-66.5" font-family="Helvetica,sans-Serif" font-size="10.00">prt::LogHandler</text>
</a>
</g>
<!-- Node2&#45;&gt;Node1 -->
<g id="edge2" class="edge"><title>Node2&#45;&gt;Node1</title>
<path fill="none" stroke="midnightblue" d="M55.5471,-50.2504C62.9181,-40.75 71.5961,-29.5651 77.7986,-21.5707"/>
<polygon fill="midnightblue" stroke="midnightblue" points="52.6184,-48.3155 49.2537,-58.3619 58.149,-52.6065 52.6184,-48.3155"/>
</g>
<!-- Node3 -->
<g id="node4" class="node"><title>Node3</title>
<a xlink:href="classprt_1_1_object.html" target="_top" xlink:title="prt::Object">
<polygon fill="none" stroke="black" points="100,-58.5 100,-79.5 162,-79.5 162,-58.5 100,-58.5"/>
<text text-anchor="middle" x="131" y="-66.5" font-family="Helvetica,sans-Serif" font-size="10.00">prt::Object</text>
</a>
</g>
<!-- Node3&#45;&gt;Node1 -->
<g id="edge4" class="edge"><title>Node3&#45;&gt;Node1</title>
<path fill="none" stroke="midnightblue" d="M116.453,-50.2504C109.082,-40.75 100.404,-29.5651 94.2014,-21.5707"/>
<polygon fill="midnightblue" stroke="midnightblue" points="113.851,-52.6065 122.746,-58.3619 119.382,-48.3155 113.851,-52.6065"/>
</g>
</g>
</svg>
