<?xml version="1.0" encoding="UTF-8" standalone="no"?>
<!DOCTYPE svg PUBLIC "-//W3C//DTD SVG 1.1//EN"
 "http://www.w3.org/Graphics/SVG/1.1/DTD/svg11.dtd">
<!-- Generated by graphviz version 2.30.1 (20170916.1124)
 -->
<!-- Title: prtx::MaterialBuilder Pages: 1 -->
<svg width="468pt" height="126pt"
 viewBox="0.00 0.00 468.00 126.00" xmlns="http://www.w3.org/2000/svg" xmlns:xlink="http://www.w3.org/1999/xlink">
<g id="graph0" class="graph" transform="scale(1 1) rotate(0) translate(4 122)">
<title>prtx::MaterialBuilder</title>
<!-- Node1 -->
<g id="node1" class="node"><title>Node1</title>
<polygon fill="#bfbfbf" stroke="black" points="356,-49.5 356,-68.5 460,-68.5 460,-49.5 356,-49.5"/>
<text text-anchor="middle" x="408" y="-56.5" font-family="Helvetica,sans-Serif" font-size="10.00">prtx::MaterialBuilder</text>
</g>
<!-- Node2 -->
<g id="node2" class="node"><title>Node2</title>
<g id="a_node2"><a xlink:href="classprtx_1_1_shared_ptr_builder.html" target="_top" xlink:title="prtx::SharedPtrBuilder\l\&lt; Material \&gt;">
<polygon fill="none" stroke="black" points="191.5,-88 191.5,-118 304.5,-118 304.5,-88 191.5,-88"/>
<text text-anchor="start" x="199.5" y="-106" font-family="Helvetica,sans-Serif" font-size="10.00">prtx::SharedPtrBuilder</text>
<text text-anchor="middle" x="248" y="-95" font-family="Helvetica,sans-Serif" font-size="10.00">&lt; Material &gt;</text>
</a>
</g>
</g>
<!-- Node2&#45;&gt;Node1 -->
<g id="edge1" class="edge"><title>Node2&#45;&gt;Node1</title>
<path fill="none" stroke="midnightblue" d="M312.827,-85.2255C333.262,-79.5346 355.106,-73.4516 372.605,-68.5783"/>
<polygon fill="midnightblue" stroke="midnightblue" points="311.627,-81.9263 302.933,-87.9808 313.505,-88.6697 311.627,-81.9263"/>
</g>
<!-- Node3 -->
<g id="node3" class="node"><title>Node3</title>
<g id="a_node3"><a xlink:href="classprtx_1_1_attributable_setter.html" target="_top" xlink:title="prtx::AttributableSetter">
<polygon fill="none" stroke="black" points="190.5,-49.5 190.5,-68.5 305.5,-68.5 305.5,-49.5 190.5,-49.5"/>
<text text-anchor="middle" x="248" y="-56.5" font-family="Helvetica,sans-Serif" font-size="10.00">prtx::AttributableSetter</text>
</a>
</g>
</g>
<!-- Node3&#45;&gt;Node1 -->
<g id="edge2" class="edge"><title>Node3&#45;&gt;Node1</title>
<path fill="none" stroke="midnightblue" d="M315.725,-59C329.129,-59 343.016,-59 355.791,-59"/>
<polygon fill="midnightblue" stroke="midnightblue" points="315.595,-55.5001 305.595,-59 315.595,-62.5001 315.595,-55.5001"/>
</g>
<!-- Node4 -->
<g id="node4" class="node"><title>Node4</title>
<g id="a_node4"><a xlink:href="classprtx_1_1_builtin_material_attributes_builder.html" target="_top" xlink:title="prtx::BuiltinMaterialAttributes\lBuilder">
<polygon fill="none" stroke="black" points="176.5,-0 176.5,-30 319.5,-30 319.5,-0 176.5,-0"/>
<text text-anchor="start" x="184.5" y="-18" font-family="Helvetica,sans-Serif" font-size="10.00">prtx::BuiltinMaterialAttributes</text>
<text text-anchor="middle" x="248" y="-7" font-family="Helvetica,sans-Serif" font-size="10.00">Builder</text>
</a>
</g>
</g>
<!-- Node4&#45;&gt;Node1 -->
<g id="edge3" class="edge"><title>Node4&#45;&gt;Node1</title>
<path fill="none" stroke="midnightblue" d="M312.827,-32.7745C333.262,-38.4654 355.106,-44.5484 372.605,-49.4217"/>
<polygon fill="midnightblue" stroke="midnightblue" points="313.505,-29.3303 302.933,-30.0192 311.627,-36.0737 313.505,-29.3303"/>
</g>
<!-- Node5 -->
<g id="node5" class="node"><title>Node5</title>
<g id="a_node5"><a xlink:href="classprtx_1_1_builtin_attributes_setters.html" target="_top" xlink:title="prtx::BuiltinAttributesSetters">
<polygon fill="none" stroke="black" points="0,-5.5 0,-24.5 140,-24.5 140,-5.5 0,-5.5"/>
<text text-anchor="middle" x="70" y="-12.5" font-family="Helvetica,sans-Serif" font-size="10.00">prtx::BuiltinAttributesSetters</text>
</a>
</g>
</g>
<!-- Node5&#45;&gt;Node4 -->
<g id="edge4" class="edge"><title>Node5&#45;&gt;Node4</title>
<path fill="none" stroke="midnightblue" d="M150.226,-15C158.953,-15 167.796,-15 176.408,-15"/>
<polygon fill="midnightblue" stroke="midnightblue" points="150.055,-11.5001 140.055,-15 150.055,-18.5001 150.055,-11.5001"/>
</g>
</g>
</svg>
