<?xml version="1.0" encoding="UTF-8" standalone="no"?>
<!DOCTYPE svg PUBLIC "-//W3C//DTD SVG 1.1//EN"
 "http://www.w3.org/Graphics/SVG/1.1/DTD/svg11.dtd">
<!-- Generated by graphviz version 2.26.0 (20091210.2329)
 -->
<!-- Title: prtx::ReportingStrategy Pages: 1 -->
<svg width="298pt" height="146pt"
 viewBox="0.00 0.00 298.00 146.00" xmlns="http://www.w3.org/2000/svg" xmlns:xlink="http://www.w3.org/1999/xlink">
<g id="graph1" class="graph" transform="scale(1 1) rotate(0) translate(4 142)">
<title>prtx::ReportingStrategy</title>
<!-- Node1 -->
<g id="node1" class="node"><title>Node1</title>
<polygon fill="#bfbfbf" stroke="black" points="0,-58.5 0,-79.5 118,-79.5 118,-58.5 0,-58.5"/>
<text text-anchor="middle" x="59" y="-66.5" font-family="Helvetica,sans-Serif" font-size="10.00">prtx::ReportingStrategy</text>
</g>
<!-- Node2 -->
<g id="node3" class="node"><title>Node2</title>
<a xlink:href="classprtx_1_1_all_shapes_reporting_strategy.html" target="_top" xlink:title="prtx::AllShapesReporting\lStrategy">
<polygon fill="none" stroke="black" points="159.5,-104 159.5,-138 284.5,-138 284.5,-104 159.5,-104"/>
<text text-anchor="start" x="167.5" y="-125" font-family="Helvetica,sans-Serif" font-size="10.00">prtx::AllShapesReporting</text>
<text text-anchor="middle" x="222" y="-112" font-family="Helvetica,sans-Serif" font-size="10.00">Strategy</text>
</a>
</g>
<!-- Node1&#45;&gt;Node2 -->
<g id="edge2" class="edge"><title>Node1&#45;&gt;Node2</title>
<path fill="none" stroke="midnightblue" d="M101.654,-82.6073C122.11,-89.1333 146.829,-97.019 168.529,-103.942"/>
<polygon fill="midnightblue" stroke="midnightblue" points="102.576,-79.2279 91.9855,-79.523 100.449,-85.8968 102.576,-79.2279"/>
</g>
<!-- Node3 -->
<g id="node5" class="node"><title>Node3</title>
<a xlink:href="classprtx_1_1_leaf_shape_reporting_strategy.html" target="_top" xlink:title="prtx::LeafShapeReporting\lStrategy">
<polygon fill="none" stroke="black" points="158,-52 158,-86 286,-86 286,-52 158,-52"/>
<text text-anchor="start" x="166" y="-73" font-family="Helvetica,sans-Serif" font-size="10.00">prtx::LeafShapeReporting</text>
<text text-anchor="middle" x="222" y="-60" font-family="Helvetica,sans-Serif" font-size="10.00">Strategy</text>
</a>
</g>
<!-- Node1&#45;&gt;Node3 -->
<g id="edge4" class="edge"><title>Node1&#45;&gt;Node3</title>
<path fill="none" stroke="midnightblue" d="M128.369,-69C138.129,-69 148.127,-69 157.786,-69"/>
<polygon fill="midnightblue" stroke="midnightblue" points="128.308,-65.5001 118.308,-69 128.308,-72.5001 128.308,-65.5001"/>
</g>
<!-- Node4 -->
<g id="node7" class="node"><title>Node4</title>
<a xlink:href="classprtx_1_1_single_shape_reporting_strategy.html" target="_top" xlink:title="prtx::SingleShapeReporting\lStrategy">
<polygon fill="none" stroke="black" points="154,-0 154,-34 290,-34 290,-0 154,-0"/>
<text text-anchor="start" x="162" y="-21" font-family="Helvetica,sans-Serif" font-size="10.00">prtx::SingleShapeReporting</text>
<text text-anchor="middle" x="222" y="-8" font-family="Helvetica,sans-Serif" font-size="10.00">Strategy</text>
</a>
</g>
<!-- Node1&#45;&gt;Node4 -->
<g id="edge6" class="edge"><title>Node1&#45;&gt;Node4</title>
<path fill="none" stroke="midnightblue" d="M101.654,-55.3927C122.11,-48.8667 146.829,-40.981 168.529,-34.0582"/>
<polygon fill="midnightblue" stroke="midnightblue" points="100.449,-52.1032 91.9855,-58.477 102.576,-58.7721 100.449,-52.1032"/>
</g>
</g>
</svg>
