<?xml version="1.0" encoding="UTF-8" standalone="no"?>
<!DOCTYPE svg PUBLIC "-//W3C//DTD SVG 1.1//EN"
 "http://www.w3.org/Graphics/SVG/1.1/DTD/svg11.dtd">
<!-- Generated by graphviz version 2.26.0 (20091210.2329)
 -->
<!-- Title: prtx::Shader Pages: 1 -->
<svg width="134pt" height="146pt"
 viewBox="0.00 0.00 134.00 146.00" xmlns="http://www.w3.org/2000/svg" xmlns:xlink="http://www.w3.org/1999/xlink">
<g id="graph1" class="graph" transform="scale(1 1) rotate(0) translate(4 142)">
<title>prtx::Shader</title>
<!-- Node1 -->
<g id="node1" class="node"><title>Node1</title>
<polygon fill="#bfbfbf" stroke="black" points="28,-0.5 28,-21.5 98,-21.5 98,-0.5 28,-0.5"/>
<text text-anchor="middle" x="63" y="-8.5" font-family="Helvetica,sans-Serif" font-size="10.00">prtx::Shader</text>
</g>
<!-- Node2 -->
<g id="node2" class="node"><title>Node2</title>
<a xlink:href="classprtx_1_1_comparable_content.html" target="_top" xlink:title="prtx::ComparableContent">
<polygon fill="none" stroke="black" points="0,-58.5 0,-79.5 126,-79.5 126,-58.5 0,-58.5"/>
<text text-anchor="middle" x="63" y="-66.5" font-family="Helvetica,sans-Serif" font-size="10.00">prtx::ComparableContent</text>
</a>
</g>
<!-- Node2&#45;&gt;Node1 -->
<g id="edge2" class="edge"><title>Node2&#45;&gt;Node1</title>
<path fill="none" stroke="midnightblue" d="M63,-48.1906C63,-39.1684 63,-28.9941 63,-21.5707"/>
<polygon fill="midnightblue" stroke="midnightblue" points="59.5001,-48.3619 63,-58.3619 66.5001,-48.3619 59.5001,-48.3619"/>
</g>
<!-- Node3 -->
<g id="node4" class="node"><title>Node3</title>
<a xlink:href="classprtx_1_1_content.html" target="_top" xlink:title="prtx::Content">
<polygon fill="none" stroke="black" points="26,-116.5 26,-137.5 100,-137.5 100,-116.5 26,-116.5"/>
<text text-anchor="middle" x="63" y="-124.5" font-family="Helvetica,sans-Serif" font-size="10.00">prtx::Content</text>
</a>
</g>
<!-- Node3&#45;&gt;Node2 -->
<g id="edge4" class="edge"><title>Node3&#45;&gt;Node2</title>
<path fill="none" stroke="midnightblue" d="M63,-106.191C63,-97.1684 63,-86.9941 63,-79.5707"/>
<polygon fill="midnightblue" stroke="midnightblue" points="59.5001,-106.362 63,-116.362 66.5001,-106.362 59.5001,-106.362"/>
</g>
</g>
</svg>
