<?xml version="1.0" encoding="UTF-8" standalone="no"?>
<!DOCTYPE svg PUBLIC "-//W3C//DTD SVG 1.1//EN"
 "http://www.w3.org/Graphics/SVG/1.1/DTD/svg11.dtd">
<!-- Generated by graphviz version 2.30.1 (20170916.1124)
 -->
<!-- Title: prtx::Content Pages: 1 -->
<svg width="490pt" height="140pt"
 viewBox="0.00 0.00 490.00 140.00" xmlns="http://www.w3.org/2000/svg" xmlns:xlink="http://www.w3.org/1999/xlink">
<g id="graph0" class="graph" transform="scale(1 1) rotate(0) translate(4 136)">
<title>prtx::Content</title>
<!-- Node1 -->
<g id="node1" class="node"><title>Node1</title>
<polygon fill="#bfbfbf" stroke="black" points="225,-112.5 225,-131.5 299,-131.5 299,-112.5 225,-112.5"/>
<text text-anchor="middle" x="262" y="-119.5" font-family="Helvetica,sans-Serif" font-size="10.00">prtx::Content</text>
</g>
<!-- Node2 -->
<g id="node2" class="node"><title>Node2</title>
<g id="a_node2"><a xlink:href="classprtx_1_1_c_g_b.html" target="_top" xlink:title="prtx::CGB">
<polygon fill="none" stroke="black" points="-0.5,-56.5 -0.5,-75.5 60.5,-75.5 60.5,-56.5 -0.5,-56.5"/>
<text text-anchor="middle" x="30" y="-63.5" font-family="Helvetica,sans-Serif" font-size="10.00">prtx::CGB</text>
</a>
</g>
</g>
<!-- Node1&#45;&gt;Node2 -->
<g id="edge1" class="edge"><title>Node1&#45;&gt;Node2</title>
<path fill="none" stroke="midnightblue" d="M215.495,-110.176C169.437,-99.4552 100.228,-83.3461 60.6619,-74.1368"/>
<polygon fill="midnightblue" stroke="midnightblue" points="214.706,-113.585 225.239,-112.444 216.293,-106.768 214.706,-113.585"/>
</g>
<!-- Node3 -->
<g id="node3" class="node"><title>Node3</title>
<g id="a_node3"><a xlink:href="classprtx_1_1_comparable_content.html" target="_top" xlink:title="prtx::ComparableContent">
<polygon fill="none" stroke="black" points="79,-56.5 79,-75.5 205,-75.5 205,-56.5 79,-56.5"/>
<text text-anchor="middle" x="142" y="-63.5" font-family="Helvetica,sans-Serif" font-size="10.00">prtx::ComparableContent</text>
</a>
</g>
</g>
<!-- Node1&#45;&gt;Node3 -->
<g id="edge2" class="edge"><title>Node1&#45;&gt;Node3</title>
<path fill="none" stroke="midnightblue" d="M233.627,-108.232C211.18,-98.1312 180.465,-84.3091 160.925,-75.5164"/>
<polygon fill="midnightblue" stroke="midnightblue" points="232.43,-111.532 242.986,-112.444 235.303,-105.148 232.43,-111.532"/>
</g>
<!-- Node7 -->
<g id="node7" class="node"><title>Node7</title>
<g id="a_node7"><a xlink:href="classprtx_1_1_c_t_string.html" target="_top" xlink:title="prtx::CTString">
<polygon fill="none" stroke="black" points="223,-56.5 223,-75.5 301,-75.5 301,-56.5 223,-56.5"/>
<text text-anchor="middle" x="262" y="-63.5" font-family="Helvetica,sans-Serif" font-size="10.00">prtx::CTString</text>
</a>
</g>
</g>
<!-- Node1&#45;&gt;Node7 -->
<g id="edge6" class="edge"><title>Node1&#45;&gt;Node7</title>
<path fill="none" stroke="midnightblue" d="M262,-101.805C262,-92.9102 262,-82.7798 262,-75.7511"/>
<polygon fill="midnightblue" stroke="midnightblue" points="258.5,-102.083 262,-112.083 265.5,-102.083 258.5,-102.083"/>
</g>
<!-- Node8 -->
<g id="node8" class="node"><title>Node8</title>
<g id="a_node8"><a xlink:href="classprtx_1_1_geometry.html" target="_top" xlink:title="prtx::Geometry">
<polygon fill="none" stroke="black" points="319,-56.5 319,-75.5 401,-75.5 401,-56.5 319,-56.5"/>
<text text-anchor="middle" x="360" y="-63.5" font-family="Helvetica,sans-Serif" font-size="10.00">prtx::Geometry</text>
</a>
</g>
</g>
<!-- Node1&#45;&gt;Node8 -->
<g id="edge7" class="edge"><title>Node1&#45;&gt;Node8</title>
<path fill="none" stroke="midnightblue" d="M286.586,-107.453C304.678,-97.4835 328.735,-84.2279 344.294,-75.6545"/>
<polygon fill="midnightblue" stroke="midnightblue" points="284.815,-104.432 277.745,-112.324 288.193,-110.563 284.815,-104.432"/>
</g>
<!-- Node9 -->
<g id="node9" class="node"><title>Node9</title>
<g id="a_node9"><a xlink:href="classprtx_1_1_mesh.html" target="_top" xlink:title="prtx::Mesh">
<polygon fill="none" stroke="black" points="419.5,-56.5 419.5,-75.5 482.5,-75.5 482.5,-56.5 419.5,-56.5"/>
<text text-anchor="middle" x="451" y="-63.5" font-family="Helvetica,sans-Serif" font-size="10.00">prtx::Mesh</text>
</a>
</g>
</g>
<!-- Node1&#45;&gt;Node9 -->
<g id="edge8" class="edge"><title>Node1&#45;&gt;Node9</title>
<path fill="none" stroke="midnightblue" d="M302.013,-109.568C337.667,-99.381 389.038,-84.7034 421.192,-75.5164"/>
<polygon fill="midnightblue" stroke="midnightblue" points="300.601,-106.331 291.948,-112.444 302.524,-113.062 300.601,-106.331"/>
</g>
<!-- Node4 -->
<g id="node4" class="node"><title>Node4</title>
<g id="a_node4"><a xlink:href="classprtx_1_1_material.html" target="_top" xlink:title="prtx::Material">
<polygon fill="none" stroke="black" points="15,-0.5 15,-19.5 89,-19.5 89,-0.5 15,-0.5"/>
<text text-anchor="middle" x="52" y="-7.5" font-family="Helvetica,sans-Serif" font-size="10.00">prtx::Material</text>
</a>
</g>
</g>
<!-- Node3&#45;&gt;Node4 -->
<g id="edge3" class="edge"><title>Node3&#45;&gt;Node4</title>
<path fill="none" stroke="midnightblue" d="M118.962,-51.1774C102.401,-41.2407 80.582,-28.1492 66.4242,-19.6545"/>
<polygon fill="midnightblue" stroke="midnightblue" points="117.164,-54.1802 127.54,-56.324 120.766,-48.1777 117.164,-54.1802"/>
</g>
<!-- Node5 -->
<g id="node5" class="node"><title>Node5</title>
<g id="a_node5"><a xlink:href="classprtx_1_1_shader.html" target="_top" xlink:title="prtx::Shader">
<polygon fill="none" stroke="black" points="107,-0.5 107,-19.5 177,-19.5 177,-0.5 107,-0.5"/>
<text text-anchor="middle" x="142" y="-7.5" font-family="Helvetica,sans-Serif" font-size="10.00">prtx::Shader</text>
</a>
</g>
</g>
<!-- Node3&#45;&gt;Node5 -->
<g id="edge4" class="edge"><title>Node3&#45;&gt;Node5</title>
<path fill="none" stroke="midnightblue" d="M142,-45.8045C142,-36.9102 142,-26.7798 142,-19.7511"/>
<polygon fill="midnightblue" stroke="midnightblue" points="138.5,-46.083 142,-56.083 145.5,-46.083 138.5,-46.083"/>
</g>
<!-- Node6 -->
<g id="node6" class="node"><title>Node6</title>
<g id="a_node6"><a xlink:href="classprtx_1_1_texture.html" target="_top" xlink:title="prtx::Texture">
<polygon fill="none" stroke="black" points="195,-0.5 195,-19.5 267,-19.5 267,-0.5 195,-0.5"/>
<text text-anchor="middle" x="231" y="-7.5" font-family="Helvetica,sans-Serif" font-size="10.00">prtx::Texture</text>
</a>
</g>
</g>
<!-- Node3&#45;&gt;Node6 -->
<g id="edge5" class="edge"><title>Node3&#45;&gt;Node6</title>
<path fill="none" stroke="midnightblue" d="M165.238,-50.9005C181.558,-40.9986 202.865,-28.0705 216.736,-19.6545"/>
<polygon fill="midnightblue" stroke="midnightblue" points="163.033,-48.1444 156.299,-56.324 166.664,-54.1289 163.033,-48.1444"/>
</g>
</g>
</svg>
