<?xml version="1.0" encoding="UTF-8" standalone="no"?>
<!DOCTYPE svg PUBLIC "-//W3C//DTD SVG 1.1//EN"
 "http://www.w3.org/Graphics/SVG/1.1/DTD/svg11.dtd">
<!-- Generated by graphviz version 2.30.1 (20170916.1124)
 -->
<!-- Title: prtx::Content Pages: 1 -->
<svg width="354pt" height="218pt"
 viewBox="0.00 0.00 354.00 218.00" xmlns="http://www.w3.org/2000/svg" xmlns:xlink="http://www.w3.org/1999/xlink">
<g id="graph0" class="graph" transform="scale(1 1) rotate(0) translate(4 214)">
<title>prtx::Content</title>
<!-- Node1 -->
<g id="node1" class="node"><title>Node1</title>
<polygon fill="#bfbfbf" stroke="black" points="0,-95.5 0,-114.5 74,-114.5 74,-95.5 0,-95.5"/>
<text text-anchor="middle" x="37" y="-102.5" font-family="Helvetica,sans-Serif" font-size="10.00">prtx::Content</text>
</g>
<!-- Node2 -->
<g id="node2" class="node"><title>Node2</title>
<g id="a_node2"><a xlink:href="classprtx_1_1_c_g_b.html" target="_top" xlink:title="prtx::CGB">
<polygon fill="none" stroke="black" points="142.5,-190.5 142.5,-209.5 203.5,-209.5 203.5,-190.5 142.5,-190.5"/>
<text text-anchor="middle" x="173" y="-197.5" font-family="Helvetica,sans-Serif" font-size="10.00">prtx::CGB</text>
</a>
</g>
</g>
<!-- Node1&#45;&gt;Node2 -->
<g id="edge1" class="edge"><title>Node1&#45;&gt;Node2</title>
<path fill="none" stroke="midnightblue" d="M50.5387,-122.829C63.545,-140.066 85.3998,-165.751 110,-181 119.76,-187.05 131.585,-191.295 142.281,-194.213"/>
<polygon fill="midnightblue" stroke="midnightblue" points="53.3076,-120.686 44.5762,-114.685 47.6595,-124.821 53.3076,-120.686"/>
</g>
<!-- Node3 -->
<g id="node3" class="node"><title>Node3</title>
<g id="a_node3"><a xlink:href="classprtx_1_1_comparable_content.html" target="_top" xlink:title="prtx::ComparableContent">
<polygon fill="none" stroke="black" points="110,-152.5 110,-171.5 236,-171.5 236,-152.5 110,-152.5"/>
<text text-anchor="middle" x="173" y="-159.5" font-family="Helvetica,sans-Serif" font-size="10.00">prtx::ComparableContent</text>
</a>
</g>
</g>
<!-- Node1&#45;&gt;Node3 -->
<g id="edge2" class="edge"><title>Node1&#45;&gt;Node3</title>
<path fill="none" stroke="midnightblue" d="M62.9306,-119.649C76.5412,-127.262 93.8651,-136.339 110,-143 118.533,-146.522 127.961,-149.738 136.835,-152.481"/>
<polygon fill="midnightblue" stroke="midnightblue" points="64.584,-116.563 54.1614,-114.66 61.1227,-122.647 64.584,-116.563"/>
</g>
<!-- Node7 -->
<g id="node7" class="node"><title>Node7</title>
<g id="a_node7"><a xlink:href="classprtx_1_1_c_t_string.html" target="_top" xlink:title="prtx::CTString">
<polygon fill="none" stroke="black" points="134,-114.5 134,-133.5 212,-133.5 212,-114.5 134,-114.5"/>
<text text-anchor="middle" x="173" y="-121.5" font-family="Helvetica,sans-Serif" font-size="10.00">prtx::CTString</text>
</a>
</g>
</g>
<!-- Node1&#45;&gt;Node7 -->
<g id="edge6" class="edge"><title>Node1&#45;&gt;Node7</title>
<path fill="none" stroke="midnightblue" d="M84.5464,-111.6C100.646,-113.883 118.488,-116.412 133.835,-118.589"/>
<polygon fill="midnightblue" stroke="midnightblue" points="84.6547,-108.08 74.2623,-110.142 83.6719,-115.011 84.6547,-108.08"/>
</g>
<!-- Node8 -->
<g id="node8" class="node"><title>Node8</title>
<g id="a_node8"><a xlink:href="classprtx_1_1_geometry.html" target="_top" xlink:title="prtx::Geometry">
<polygon fill="none" stroke="black" points="132,-76.5 132,-95.5 214,-95.5 214,-76.5 132,-76.5"/>
<text text-anchor="middle" x="173" y="-83.5" font-family="Helvetica,sans-Serif" font-size="10.00">prtx::Geometry</text>
</a>
</g>
</g>
<!-- Node1&#45;&gt;Node8 -->
<g id="edge7" class="edge"><title>Node1&#45;&gt;Node8</title>
<path fill="none" stroke="midnightblue" d="M84.1911,-98.4505C99.7241,-96.2481 116.914,-93.8107 131.936,-91.6807"/>
<polygon fill="midnightblue" stroke="midnightblue" points="83.6719,-94.989 74.2623,-99.8583 84.6547,-101.92 83.6719,-94.989"/>
</g>
<!-- Node9 -->
<g id="node9" class="node"><title>Node9</title>
<g id="a_node9"><a xlink:href="classprtx_1_1_mesh.html" target="_top" xlink:title="prtx::Mesh">
<polygon fill="none" stroke="black" points="141.5,-38.5 141.5,-57.5 204.5,-57.5 204.5,-38.5 141.5,-38.5"/>
<text text-anchor="middle" x="173" y="-45.5" font-family="Helvetica,sans-Serif" font-size="10.00">prtx::Mesh</text>
</a>
</g>
</g>
<!-- Node1&#45;&gt;Node9 -->
<g id="edge8" class="edge"><title>Node1&#45;&gt;Node9</title>
<path fill="none" stroke="midnightblue" d="M62.9306,-90.3513C76.5412,-82.7385 93.8651,-73.6605 110,-67 119.99,-62.8761 131.206,-59.1733 141.324,-56.1556"/>
<polygon fill="midnightblue" stroke="midnightblue" points="61.1227,-87.353 54.1614,-95.3399 64.584,-93.4374 61.1227,-87.353"/>
</g>
<!-- Node10 -->
<g id="node10" class="node"><title>Node10</title>
<g id="a_node10"><a xlink:href="classprtx_1_1_table.html" target="_top" xlink:title="prtx::Table">
<polygon fill="none" stroke="black" points="141.5,-0.5 141.5,-19.5 204.5,-19.5 204.5,-0.5 141.5,-0.5"/>
<text text-anchor="middle" x="173" y="-7.5" font-family="Helvetica,sans-Serif" font-size="10.00">prtx::Table</text>
</a>
</g>
</g>
<!-- Node1&#45;&gt;Node10 -->
<g id="edge9" class="edge"><title>Node1&#45;&gt;Node10</title>
<path fill="none" stroke="midnightblue" d="M50.5387,-87.1712C63.545,-69.9337 85.3998,-44.2486 110,-29 119.473,-23.128 130.892,-18.9562 141.334,-16.0477"/>
<polygon fill="midnightblue" stroke="midnightblue" points="47.6595,-85.179 44.5762,-95.3153 53.3076,-89.3142 47.6595,-85.179"/>
</g>
<!-- Node4 -->
<g id="node4" class="node"><title>Node4</title>
<g id="a_node4"><a xlink:href="classprtx_1_1_material.html" target="_top" xlink:title="prtx::Material">
<polygon fill="none" stroke="black" points="272,-190.5 272,-209.5 346,-209.5 346,-190.5 272,-190.5"/>
<text text-anchor="middle" x="309" y="-197.5" font-family="Helvetica,sans-Serif" font-size="10.00">prtx::Material</text>
</a>
</g>
</g>
<!-- Node3&#45;&gt;Node4 -->
<g id="edge3" class="edge"><title>Node3&#45;&gt;Node4</title>
<path fill="none" stroke="midnightblue" d="M217.438,-174.318C235.849,-179.539 256.98,-185.532 274.197,-190.414"/>
<polygon fill="midnightblue" stroke="midnightblue" points="218.389,-170.95 207.814,-171.589 216.48,-177.685 218.389,-170.95"/>
</g>
<!-- Node5 -->
<g id="node5" class="node"><title>Node5</title>
<g id="a_node5"><a xlink:href="classprtx_1_1_shader.html" target="_top" xlink:title="prtx::Shader">
<polygon fill="none" stroke="black" points="274,-152.5 274,-171.5 344,-171.5 344,-152.5 274,-152.5"/>
<text text-anchor="middle" x="309" y="-159.5" font-family="Helvetica,sans-Serif" font-size="10.00">prtx::Shader</text>
</a>
</g>
</g>
<!-- Node3&#45;&gt;Node5 -->
<g id="edge4" class="edge"><title>Node3&#45;&gt;Node5</title>
<path fill="none" stroke="midnightblue" d="M246.35,-162C255.981,-162 265.465,-162 273.997,-162"/>
<polygon fill="midnightblue" stroke="midnightblue" points="246.293,-158.5 236.293,-162 246.292,-165.5 246.293,-158.5"/>
</g>
<!-- Node6 -->
<g id="node6" class="node"><title>Node6</title>
<g id="a_node6"><a xlink:href="classprtx_1_1_texture.html" target="_top" xlink:title="prtx::Texture">
<polygon fill="none" stroke="black" points="273,-114.5 273,-133.5 345,-133.5 345,-114.5 273,-114.5"/>
<text text-anchor="middle" x="309" y="-121.5" font-family="Helvetica,sans-Serif" font-size="10.00">prtx::Texture</text>
</a>
</g>
</g>
<!-- Node3&#45;&gt;Node6 -->
<g id="edge5" class="edge"><title>Node3&#45;&gt;Node6</title>
<path fill="none" stroke="midnightblue" d="M217.438,-149.682C235.849,-144.461 256.98,-138.468 274.197,-133.586"/>
<polygon fill="midnightblue" stroke="midnightblue" points="216.48,-146.315 207.814,-152.411 218.389,-153.05 216.48,-146.315"/>
</g>
</g>
</svg>
