<?xml version="1.0" encoding="UTF-8" standalone="no"?>
<!DOCTYPE svg PUBLIC "-//W3C//DTD SVG 1.1//EN"
 "http://www.w3.org/Graphics/SVG/1.1/DTD/svg11.dtd">
<!-- Generated by graphviz version 2.40.1 (0)
 -->
<!-- Title: prtx::Encoder Pages: 1 -->
<svg width="380pt" height="140pt"
 viewBox="0.00 0.00 379.50 140.00" xmlns="http://www.w3.org/2000/svg" xmlns:xlink="http://www.w3.org/1999/xlink">
<g id="graph0" class="graph" transform="scale(1 1) rotate(0) translate(4 136)">
<title>prtx::Encoder</title>
<!-- Node0 -->
<g id="node1" class="node">
<title>Node0</title>
<polygon fill="#bfbfbf" stroke="#000000" points="153.5,-56.5 153.5,-75.5 228.5,-75.5 228.5,-56.5 153.5,-56.5"/>
<text text-anchor="middle" x="191" y="-63.5" font-family="Helvetica,sans-Serif" font-size="10.00" fill="#000000">prtx::Encoder</text>
</g>
<!-- Node2 -->
<g id="node3" class="node">
<title>Node2</title>
<g id="a_node3"><a xlink:href="classprtx_1_1_geometry_encoder.html" target="_top" xlink:title="prtx::GeometryEncoder">
<polygon fill="none" stroke="#000000" points="0,-.5 0,-19.5 118,-19.5 118,-.5 0,-.5"/>
<text text-anchor="middle" x="59" y="-7.5" font-family="Helvetica,sans-Serif" font-size="10.00" fill="#000000">prtx::GeometryEncoder</text>
</a>
</g>
</g>
<!-- Node0&#45;&gt;Node2 -->
<g id="edge2" class="edge">
<title>Node0&#45;&gt;Node2</title>
<path fill="none" stroke="#191970" d="M158.9035,-52.3833C134.8965,-42.1985 102.6741,-28.5284 81.3955,-19.5011"/>
<polygon fill="#191970" stroke="#191970" points="157.7356,-55.6897 168.3084,-56.3733 160.4695,-49.2457 157.7356,-55.6897"/>
</g>
<!-- Node3 -->
<g id="node4" class="node">
<title>Node3</title>
<g id="a_node4"><a xlink:href="classprtx_1_1_material_encoder.html" target="_top" xlink:title="prtx::MaterialEncoder">
<polygon fill="none" stroke="#000000" points="136,-.5 136,-19.5 246,-19.5 246,-.5 136,-.5"/>
<text text-anchor="middle" x="191" y="-7.5" font-family="Helvetica,sans-Serif" font-size="10.00" fill="#000000">prtx::MaterialEncoder</text>
</a>
</g>
</g>
<!-- Node0&#45;&gt;Node3 -->
<g id="edge3" class="edge">
<title>Node0&#45;&gt;Node3</title>
<path fill="none" stroke="#191970" d="M191,-46.1575C191,-37.155 191,-26.9199 191,-19.6427"/>
<polygon fill="#191970" stroke="#191970" points="187.5001,-46.2455 191,-56.2455 194.5001,-46.2456 187.5001,-46.2455"/>
</g>
<!-- Node4 -->
<g id="node5" class="node">
<title>Node4</title>
<g id="a_node5"><a xlink:href="classprtx_1_1_texture_encoder.html" target="_top" xlink:title="prtx::TextureEncoder">
<polygon fill="none" stroke="#000000" points="264.5,-.5 264.5,-19.5 371.5,-19.5 371.5,-.5 264.5,-.5"/>
<text text-anchor="middle" x="318" y="-7.5" font-family="Helvetica,sans-Serif" font-size="10.00" fill="#000000">prtx::TextureEncoder</text>
</a>
</g>
</g>
<!-- Node0&#45;&gt;Node4 -->
<g id="edge4" class="edge">
<title>Node0&#45;&gt;Node4</title>
<path fill="none" stroke="#191970" d="M222.1892,-52.2473C245.2537,-42.0771 276.0712,-28.4883 296.4528,-19.5011"/>
<polygon fill="#191970" stroke="#191970" points="220.5699,-49.1361 212.8321,-56.3733 223.3942,-55.5411 220.5699,-49.1361"/>
</g>
<!-- Node1 -->
<g id="node2" class="node">
<title>Node1</title>
<g id="a_node2"><a xlink:href="classprtx_1_1_extension.html" target="_top" xlink:title="prtx::Extension">
<polygon fill="none" stroke="#000000" points="149.5,-112.5 149.5,-131.5 232.5,-131.5 232.5,-112.5 149.5,-112.5"/>
<text text-anchor="middle" x="191" y="-119.5" font-family="Helvetica,sans-Serif" font-size="10.00" fill="#000000">prtx::Extension</text>
</a>
</g>
</g>
<!-- Node1&#45;&gt;Node0 -->
<g id="edge1" class="edge">
<title>Node1&#45;&gt;Node0</title>
<path fill="none" stroke="#191970" d="M191,-102.1575C191,-93.155 191,-82.9199 191,-75.6427"/>
<polygon fill="#191970" stroke="#191970" points="187.5001,-102.2455 191,-112.2455 194.5001,-102.2456 187.5001,-102.2455"/>
</g>
</g>
</svg>
