<?xml version="1.0" encoding="UTF-8" standalone="no"?>
<!DOCTYPE svg PUBLIC "-//W3C//DTD SVG 1.1//EN"
 "http://www.w3.org/Graphics/SVG/1.1/DTD/svg11.dtd">
<!-- Generated by graphviz version 2.26.0 (20091210.2329)
 -->
<!-- Title: Graph Legend Pages: 1 -->
<svg width="508pt" height="174pt"
 viewBox="0.00 0.00 508.00 174.00" xmlns="http://www.w3.org/2000/svg" xmlns:xlink="http://www.w3.org/1999/xlink">
<g id="graph1" class="graph" transform="scale(1 1) rotate(0) translate(4 170)">
<title>Graph Legend</title>
<!-- Node9 -->
<g id="node1" class="node"><title>Node9</title>
<polygon fill="#bfbfbf" stroke="black" points="291,-21.5 237,-21.5 237,-0.5 291,-0.5 291,-21.5"/>
<text text-anchor="middle" x="264" y="-8.5" font-family="Helvetica,sans-Serif" font-size="10.00">Inherited</text>
</g>
<!-- Node10 -->
<g id="node2" class="node"><title>Node10</title>
<a xlink:href="$classPublicBase.html" xlink:title="PublicBase">
<polygon fill="none" stroke="black" points="66,-93.5 2.84217e-14,-93.5 0,-72.5 66,-72.5 66,-93.5"/>
<text text-anchor="middle" x="33" y="-80.5" font-family="Helvetica,sans-Serif" font-size="10.00">PublicBase</text>
</a>
</g>
<!-- Node10&#45;&gt;Node9 -->
<g id="edge2" class="edge"><title>Node10&#45;&gt;Node9</title>
<path fill="none" stroke="midnightblue" d="M75.6999,-69.6909C122.742,-55.0284 196.985,-31.8877 236.737,-19.4977"/>
<polygon fill="midnightblue" stroke="midnightblue" points="74.6022,-66.3669 66.0967,-72.6842 76.6852,-73.0498 74.6022,-66.3669"/>
</g>
<!-- Node11 -->
<g id="node4" class="node"><title>Node11</title>
<a xlink:href="$classTruncated.html" xlink:title="Truncated">
<polygon fill="none" stroke="red" points="63,-165.5 3,-165.5 3,-144.5 63,-144.5 63,-165.5"/>
<text text-anchor="middle" x="33" y="-152.5" font-family="Helvetica,sans-Serif" font-size="10.00">Truncated</text>
</a>
</g>
<!-- Node11&#45;&gt;Node10 -->
<g id="edge4" class="edge"><title>Node11&#45;&gt;Node10</title>
<path fill="none" stroke="midnightblue" d="M33,-134.235C33,-120.969 33,-104.319 33,-93.6674"/>
<polygon fill="midnightblue" stroke="midnightblue" points="29.5001,-134.376 33,-144.376 36.5001,-134.376 29.5001,-134.376"/>
</g>
<!-- Node13 -->
<g id="node6" class="node"><title>Node13</title>
<a xlink:href="$classProtectedBase.html" xlink:title="ProtectedBase">
<polygon fill="none" stroke="black" points="164,-93.5 84,-93.5 84,-72.5 164,-72.5 164,-93.5"/>
<text text-anchor="middle" x="124" y="-80.5" font-family="Helvetica,sans-Serif" font-size="10.00">ProtectedBase</text>
</a>
</g>
<!-- Node13&#45;&gt;Node9 -->
<g id="edge6" class="edge"><title>Node13&#45;&gt;Node9</title>
<path fill="none" stroke="darkgreen" d="M153.627,-67.7634C180.537,-53.9236 219.544,-33.8633 243.258,-21.6674"/>
<polygon fill="darkgreen" stroke="darkgreen" points="151.95,-64.6901 144.657,-72.3762 155.151,-70.9151 151.95,-64.6901"/>
</g>
<!-- Node14 -->
<g id="node8" class="node"><title>Node14</title>
<a xlink:href="$classPrivateBase.html" xlink:title="PrivateBase">
<polygon fill="none" stroke="black" points="252,-93.5 182,-93.5 182,-72.5 252,-72.5 252,-93.5"/>
<text text-anchor="middle" x="217" y="-80.5" font-family="Helvetica,sans-Serif" font-size="10.00">PrivateBase</text>
</a>
</g>
<!-- Node14&#45;&gt;Node9 -->
<g id="edge8" class="edge"><title>Node14&#45;&gt;Node9</title>
<path fill="none" stroke="#8b1a1a" d="M229.527,-63.8099C238.339,-50.3106 249.805,-32.7449 257.037,-21.6674"/>
<polygon fill="#8b1a1a" stroke="#8b1a1a" points="226.47,-62.0892 223.935,-72.3762 232.332,-65.9155 226.47,-62.0892"/>
</g>
<!-- Node15 -->
<g id="node10" class="node"><title>Node15</title>
<polygon fill="none" stroke="#bfbfbf" points="352,-93.5 270,-93.5 270,-72.5 352,-72.5 352,-93.5"/>
<text text-anchor="middle" x="311" y="-80.5" font-family="Helvetica,sans-Serif" font-size="10.00">Undocumented</text>
</g>
<!-- Node15&#45;&gt;Node9 -->
<g id="edge10" class="edge"><title>Node15&#45;&gt;Node9</title>
<path fill="none" stroke="midnightblue" d="M298.473,-63.8099C289.661,-50.3106 278.195,-32.7449 270.963,-21.6674"/>
<polygon fill="midnightblue" stroke="midnightblue" points="295.668,-65.9155 304.065,-72.3762 301.53,-62.0892 295.668,-65.9155"/>
</g>
<!-- Node16 -->
<g id="node12" class="node"><title>Node16</title>
<a xlink:href="$classTempl.html" xlink:title="Templ&lt; int &gt;">
<polygon fill="none" stroke="black" points="442,-93.5 370,-93.5 370,-72.5 442,-72.5 442,-93.5"/>
<text text-anchor="middle" x="406" y="-80.5" font-family="Helvetica,sans-Serif" font-size="10.00">Templ&lt; int &gt;</text>
</a>
</g>
<!-- Node16&#45;&gt;Node9 -->
<g id="edge12" class="edge"><title>Node16&#45;&gt;Node9</title>
<path fill="none" stroke="midnightblue" d="M375.95,-67.7634C348.655,-53.9236 309.091,-33.8633 285.039,-21.6674"/>
<polygon fill="midnightblue" stroke="midnightblue" points="374.546,-70.9754 385.047,-72.3762 377.711,-64.7321 374.546,-70.9754"/>
</g>
<!-- Node17 -->
<g id="node14" class="node"><title>Node17</title>
<a xlink:href="$classTempl.html" xlink:title="Templ&lt; T &gt;">
<polygon fill="none" stroke="black" points="440,-165.5 372,-165.5 372,-144.5 440,-144.5 440,-165.5"/>
<text text-anchor="middle" x="406" y="-152.5" font-family="Helvetica,sans-Serif" font-size="10.00">Templ&lt; T &gt;</text>
</a>
</g>
<!-- Node17&#45;&gt;Node16 -->
<g id="edge14" class="edge"><title>Node17&#45;&gt;Node16</title>
<path fill="none" stroke="orange" stroke-dasharray="5,2" d="M406,-134.235C406,-120.969 406,-104.319 406,-93.6674"/>
<polygon fill="orange" stroke="orange" points="402.5,-134.376 406,-144.376 409.5,-134.376 402.5,-134.376"/>
<text text-anchor="middle" x="420.5" y="-116.5" font-family="Helvetica,sans-Serif" font-size="10.00">&lt; int &gt;</text>
</g>
<!-- Node18 -->
<g id="node16" class="node"><title>Node18</title>
<a xlink:href="$classUsed.html" xlink:title="Used">
<polygon fill="none" stroke="black" points="500,-93.5 460,-93.5 460,-72.5 500,-72.5 500,-93.5"/>
<text text-anchor="middle" x="480" y="-80.5" font-family="Helvetica,sans-Serif" font-size="10.00">Used</text>
</a>
</g>
<!-- Node18&#45;&gt;Node9 -->
<g id="edge16" class="edge"><title>Node18&#45;&gt;Node9</title>
<path fill="none" stroke="#9a32cd" stroke-dasharray="5,2" d="M450.192,-71.8133C388.016,-50.02 325.786,-30.2429 291.076,-19.3909"/>
<polygon fill="#9a32cd" stroke="#9a32cd" points="449.169,-75.1635 459.763,-75.1846 451.494,-68.5611 449.169,-75.1635"/>
<text text-anchor="middle" x="424.5" y="-44.5" font-family="Helvetica,sans-Serif" font-size="10.00">m_usedClass</text>
</g>
</g>
</svg>
