<?xml version="1.0" encoding="UTF-8" standalone="no"?>
<!DOCTYPE svg PUBLIC "-//W3C//DTD SVG 1.1//EN"
 "http://www.w3.org/Graphics/SVG/1.1/DTD/svg11.dtd">
<!-- Generated by graphviz version 2.26.0 (20091210.2329)
 -->
<!-- Title: Graphical Class Hierarchy Pages: 1 -->
<svg width="590pt" height="268pt"
 viewBox="0.00 0.00 590.00 268.00" xmlns="http://www.w3.org/2000/svg" xmlns:xlink="http://www.w3.org/1999/xlink">
<g id="graph1" class="graph" transform="scale(1 1) rotate(0) translate(4 264)">
<title>Graphical Class Hierarchy</title>
<!-- Node1 -->
<g id="node1" class="node"><title>Node1</title>
<a xlink:href="classprtx_1_1_attributable.html" target="_top" xlink:title="prtx::Attributable">
<polygon fill="none" stroke="black" points="347.5,-78.5 347.5,-99.5 436.5,-99.5 436.5,-78.5 347.5,-78.5"/>
<text text-anchor="middle" x="392" y="-86.5" font-family="Helvetica,sans-Serif" font-size="10.00">prtx::Attributable</text>
</a>
</g>
<!-- Node2 -->
<g id="node3" class="node"><title>Node2</title>
<a xlink:href="classprtx_1_1_geometry.html" target="_top" xlink:title="prtx::Geometry">
<polygon fill="none" stroke="black" points="500,-69.5 500,-90.5 582,-90.5 582,-69.5 500,-69.5"/>
<text text-anchor="middle" x="541" y="-77.5" font-family="Helvetica,sans-Serif" font-size="10.00">prtx::Geometry</text>
</a>
</g>
<!-- Node1&#45;&gt;Node2 -->
<g id="edge2" class="edge"><title>Node1&#45;&gt;Node2</title>
<path fill="none" stroke="midnightblue" d="M446.824,-85.6885C464.372,-84.6285 483.49,-83.4737 499.888,-82.4833"/>
<polygon fill="midnightblue" stroke="midnightblue" points="446.476,-82.203 436.705,-86.2997 446.898,-89.1903 446.476,-82.203"/>
</g>
<!-- Node3 -->
<g id="node5" class="node"><title>Node3</title>
<a xlink:href="classprtx_1_1_material.html" target="_top" xlink:title="prtx::Material">
<polygon fill="none" stroke="black" points="504,-118.5 504,-139.5 578,-139.5 578,-118.5 504,-118.5"/>
<text text-anchor="middle" x="541" y="-126.5" font-family="Helvetica,sans-Serif" font-size="10.00">prtx::Material</text>
</a>
</g>
<!-- Node1&#45;&gt;Node3 -->
<g id="edge4" class="edge"><title>Node1&#45;&gt;Node3</title>
<path fill="none" stroke="midnightblue" d="M440.942,-102.139C461.439,-107.641 484.874,-113.933 503.908,-119.042"/>
<polygon fill="midnightblue" stroke="midnightblue" points="441.714,-98.722 431.148,-99.5095 439.899,-105.483 441.714,-98.722"/>
</g>
<!-- Node4 -->
<g id="node7" class="node"><title>Node4</title>
<a xlink:href="classprtx_1_1_shape.html" target="_top" xlink:title="prtx::Shape">
<polygon fill="none" stroke="black" points="507.5,-10.5 507.5,-31.5 574.5,-31.5 574.5,-10.5 507.5,-10.5"/>
<text text-anchor="middle" x="541" y="-18.5" font-family="Helvetica,sans-Serif" font-size="10.00">prtx::Shape</text>
</a>
</g>
<!-- Node1&#45;&gt;Node4 -->
<g id="edge6" class="edge"><title>Node1&#45;&gt;Node4</title>
<path fill="none" stroke="midnightblue" d="M424.718,-74.0682C452.913,-61.2007 492.908,-42.9481 517.882,-31.5504"/>
<polygon fill="midnightblue" stroke="midnightblue" points="422.925,-71.039 415.281,-78.375 425.832,-77.4072 422.925,-71.039"/>
</g>
<!-- Node5 -->
<g id="node9" class="node"><title>Node5</title>
<a xlink:href="classprtx_1_1_texture.html" target="_top" xlink:title="prtx::Texture">
<polygon fill="none" stroke="black" points="505,-158.5 505,-179.5 577,-179.5 577,-158.5 505,-158.5"/>
<text text-anchor="middle" x="541" y="-166.5" font-family="Helvetica,sans-Serif" font-size="10.00">prtx::Texture</text>
</a>
</g>
<!-- Node1&#45;&gt;Node5 -->
<g id="edge8" class="edge"><title>Node1&#45;&gt;Node5</title>
<path fill="none" stroke="midnightblue" d="M446.413,-100.486C452.569,-102.83 458.571,-105.638 464,-109 484.334,-121.592 480.901,-134.603 500,-149 504.68,-152.528 510.08,-155.687 515.393,-158.396"/>
<polygon fill="midnightblue" stroke="midnightblue" points="447.27,-97.0809 436.676,-97.1736 445.016,-103.708 447.27,-97.0809"/>
</g>
<!-- Node6 -->
<g id="node10" class="node"><title>Node6</title>
<a xlink:href="classprtx_1_1_builtin_attributes.html" target="_top" xlink:title="prtx::BuiltinAttributes">
<polygon fill="none" stroke="black" points="0,-59.5 0,-80.5 108,-80.5 108,-59.5 0,-59.5"/>
<text text-anchor="middle" x="54" y="-67.5" font-family="Helvetica,sans-Serif" font-size="10.00">prtx::BuiltinAttributes</text>
</a>
</g>
<!-- Node7 -->
<g id="node12" class="node"><title>Node7</title>
<a xlink:href="classprtx_1_1_builtin_attributes_getters.html" target="_top" xlink:title="prtx::BuiltinAttributesGetters">
<polygon fill="none" stroke="black" points="144,-59.5 144,-80.5 284,-80.5 284,-59.5 144,-59.5"/>
<text text-anchor="middle" x="214" y="-67.5" font-family="Helvetica,sans-Serif" font-size="10.00">prtx::BuiltinAttributesGetters</text>
</a>
</g>
<!-- Node6&#45;&gt;Node7 -->
<g id="edge10" class="edge"><title>Node6&#45;&gt;Node7</title>
<path fill="none" stroke="midnightblue" d="M118.246,-70C126.626,-70 135.247,-70 143.72,-70"/>
<polygon fill="midnightblue" stroke="midnightblue" points="118.169,-66.5001 108.169,-70 118.169,-73.5001 118.169,-66.5001"/>
</g>
<!-- Node8 -->
<g id="node14" class="node"><title>Node8</title>
<a xlink:href="classprtx_1_1_builtin_material_attributes.html" target="_top" xlink:title="prtx::BuiltinMaterialAttributes">
<polygon fill="none" stroke="black" points="320.5,-118.5 320.5,-139.5 463.5,-139.5 463.5,-118.5 320.5,-118.5"/>
<text text-anchor="middle" x="392" y="-126.5" font-family="Helvetica,sans-Serif" font-size="10.00">prtx::BuiltinMaterialAttributes</text>
</a>
</g>
<!-- Node7&#45;&gt;Node8 -->
<g id="edge12" class="edge"><title>Node7&#45;&gt;Node8</title>
<path fill="none" stroke="midnightblue" d="M250.308,-84.1925C270.658,-91.9362 296.583,-101.454 320,-109 330.249,-112.303 341.42,-115.566 351.839,-118.469"/>
<polygon fill="midnightblue" stroke="midnightblue" points="251.391,-80.8597 240.801,-80.55 248.887,-87.3963 251.391,-80.8597"/>
</g>
<!-- Node9 -->
<g id="node17" class="node"><title>Node9</title>
<a xlink:href="classprtx_1_1_builtin_shape_attributes.html" target="_top" xlink:title="prtx::BuiltinShapeAttributes">
<polygon fill="none" stroke="black" points="324,-0.5 324,-21.5 460,-21.5 460,-0.5 324,-0.5"/>
<text text-anchor="middle" x="392" y="-8.5" font-family="Helvetica,sans-Serif" font-size="10.00">prtx::BuiltinShapeAttributes</text>
</a>
</g>
<!-- Node7&#45;&gt;Node9 -->
<g id="edge16" class="edge"><title>Node7&#45;&gt;Node9</title>
<path fill="none" stroke="midnightblue" d="M255.338,-56.2982C287.292,-45.7065 330.874,-31.2609 360.153,-21.556"/>
<polygon fill="midnightblue" stroke="midnightblue" points="254.214,-52.9834 245.823,-59.452 256.416,-59.6279 254.214,-52.9834"/>
</g>
<!-- Node8&#45;&gt;Node3 -->
<g id="edge14" class="edge"><title>Node8&#45;&gt;Node3</title>
<path fill="none" stroke="midnightblue" d="M473.932,-129C484.381,-129 494.633,-129 503.854,-129"/>
<polygon fill="midnightblue" stroke="midnightblue" points="473.881,-125.5 463.881,-129 473.881,-132.5 473.881,-125.5"/>
</g>
<!-- Node9&#45;&gt;Node4 -->
<g id="edge18" class="edge"><title>Node9&#45;&gt;Node4</title>
<path fill="none" stroke="midnightblue" d="M470.681,-16.2806C483.499,-17.1409 496.151,-17.99 507.114,-18.7258"/>
<polygon fill="midnightblue" stroke="midnightblue" points="470.607,-12.7678 460.395,-15.5903 470.138,-19.7521 470.607,-12.7678"/>
</g>
<!-- Node10 -->
<g id="node19" class="node"><title>Node10</title>
<a xlink:href="classprtx_1_1_content.html" target="_top" xlink:title="prtx::Content">
<polygon fill="none" stroke="black" points="177,-178.5 177,-199.5 251,-199.5 251,-178.5 177,-178.5"/>
<text text-anchor="middle" x="214" y="-186.5" font-family="Helvetica,sans-Serif" font-size="10.00">prtx::Content</text>
</a>
</g>
<!-- Node10&#45;&gt;Node2 -->
<g id="edge30" class="edge"><title>Node10&#45;&gt;Node2</title>
<path fill="none" stroke="midnightblue" d="M224.234,-169.318C240.251,-140.933 274.212,-89.6476 320,-69 381.81,-41.1277 463.441,-56.9175 508.181,-69.4124"/>
<polygon fill="midnightblue" stroke="midnightblue" points="221.042,-167.861 219.327,-178.316 227.188,-171.212 221.042,-167.861"/>
</g>
<!-- Node11 -->
<g id="node21" class="node"><title>Node11</title>
<a xlink:href="classprtx_1_1_c_g_b.html" target="_top" xlink:title="prtx::CGB">
<polygon fill="none" stroke="black" points="361.5,-238.5 361.5,-259.5 422.5,-259.5 422.5,-238.5 361.5,-238.5"/>
<text text-anchor="middle" x="392" y="-246.5" font-family="Helvetica,sans-Serif" font-size="10.00">prtx::CGB</text>
</a>
</g>
<!-- Node10&#45;&gt;Node11 -->
<g id="edge20" class="edge"><title>Node10&#45;&gt;Node11</title>
<path fill="none" stroke="midnightblue" d="M249.443,-203.287C269.905,-211.305 296.221,-221.228 320,-229 333.441,-233.393 348.489,-237.671 361.339,-241.135"/>
<polygon fill="midnightblue" stroke="midnightblue" points="250.492,-199.938 239.905,-199.522 247.921,-206.449 250.492,-199.938"/>
</g>
<!-- Node12 -->
<g id="node23" class="node"><title>Node12</title>
<a xlink:href="classprtx_1_1_comparable_content.html" target="_top" xlink:title="prtx::ComparableContent">
<polygon fill="none" stroke="black" points="329,-198.5 329,-219.5 455,-219.5 455,-198.5 329,-198.5"/>
<text text-anchor="middle" x="392" y="-206.5" font-family="Helvetica,sans-Serif" font-size="10.00">prtx::ComparableContent</text>
</a>
</g>
<!-- Node10&#45;&gt;Node12 -->
<g id="edge22" class="edge"><title>Node10&#45;&gt;Node12</title>
<path fill="none" stroke="midnightblue" d="M261.429,-194.329C282.096,-196.651 306.619,-199.407 328.801,-201.899"/>
<polygon fill="midnightblue" stroke="midnightblue" points="261.643,-190.831 251.315,-193.193 260.861,-197.787 261.643,-190.831"/>
</g>
<!-- Node14 -->
<g id="node30" class="node"><title>Node14</title>
<a xlink:href="classprtx_1_1_mesh.html" target="_top" xlink:title="prtx::Mesh">
<polygon fill="none" stroke="black" points="360.5,-158.5 360.5,-179.5 423.5,-179.5 423.5,-158.5 360.5,-158.5"/>
<text text-anchor="middle" x="392" y="-166.5" font-family="Helvetica,sans-Serif" font-size="10.00">prtx::Mesh</text>
</a>
</g>
<!-- Node10&#45;&gt;Node14 -->
<g id="edge32" class="edge"><title>Node10&#45;&gt;Node14</title>
<path fill="none" stroke="midnightblue" d="M261.56,-183.656C292.859,-180.139 332.96,-175.634 360.386,-172.552"/>
<polygon fill="midnightblue" stroke="midnightblue" points="260.861,-180.213 251.315,-184.807 261.643,-187.169 260.861,-180.213"/>
</g>
<!-- Node12&#45;&gt;Node3 -->
<g id="edge24" class="edge"><title>Node12&#45;&gt;Node3</title>
<path fill="none" stroke="midnightblue" d="M453.301,-194.654C457.022,-192.969 460.622,-191.092 464,-189 484.334,-176.408 480.901,-163.397 500,-149 504.68,-145.472 510.08,-142.313 515.393,-139.604"/>
<polygon fill="midnightblue" stroke="midnightblue" points="451.83,-191.473 443.862,-198.456 454.445,-197.966 451.83,-191.473"/>
</g>
<!-- Node12&#45;&gt;Node5 -->
<g id="edge28" class="edge"><title>Node12&#45;&gt;Node5</title>
<path fill="none" stroke="midnightblue" d="M440.813,-195.896C461.706,-190.287 485.671,-183.854 504.922,-178.685"/>
<polygon fill="midnightblue" stroke="midnightblue" points="439.899,-192.517 431.148,-198.49 441.714,-199.278 439.899,-192.517"/>
</g>
<!-- Node13 -->
<g id="node26" class="node"><title>Node13</title>
<a xlink:href="classprtx_1_1_shader.html" target="_top" xlink:title="prtx::Shader">
<polygon fill="none" stroke="black" points="506,-198.5 506,-219.5 576,-219.5 576,-198.5 506,-198.5"/>
<text text-anchor="middle" x="541" y="-206.5" font-family="Helvetica,sans-Serif" font-size="10.00">prtx::Shader</text>
</a>
</g>
<!-- Node12&#45;&gt;Node13 -->
<g id="edge26" class="edge"><title>Node12&#45;&gt;Node13</title>
<path fill="none" stroke="midnightblue" d="M465.387,-209C479.445,-209 493.555,-209 505.716,-209"/>
<polygon fill="midnightblue" stroke="midnightblue" points="465.189,-205.5 455.189,-209 465.189,-212.5 465.189,-205.5"/>
</g>
</g>
</svg>
