<?xml version="1.0" encoding="UTF-8" standalone="no"?>
<!DOCTYPE svg PUBLIC "-//W3C//DTD SVG 1.1//EN"
 "http://www.w3.org/Graphics/SVG/1.1/DTD/svg11.dtd">
<!-- Generated by graphviz version 2.40.1 (0)
 -->
<!-- Title: Graphical Class Hierarchy Pages: 1 -->
<svg width="475pt" height="176pt"
 viewBox="0.00 0.00 475.00 176.00" xmlns="http://www.w3.org/2000/svg" xmlns:xlink="http://www.w3.org/1999/xlink">
<g id="graph0" class="graph" transform="scale(1 1) rotate(0) translate(4 172)">
<title>Graphical Class Hierarchy</title>
<!-- Node131 -->
<g id="node1" class="node">
<title>Node131</title>
<g id="a_node1"><a xlink:href="classprtx_1_1_attributable_setter.html" target="_top" xlink:title="prtx::AttributableSetter">
<polygon fill="none" stroke="#000000" points="190,-99 190,-118 305,-118 305,-99 190,-99"/>
<text text-anchor="middle" x="247.5" y="-106" font-family="Helvetica,sans-Serif" font-size="10.00" fill="#000000">prtx::AttributableSetter</text>
</a>
</g>
</g>
<!-- Node14 -->
<g id="node2" class="node">
<title>Node14</title>
<g id="a_node2"><a xlink:href="classprtx_1_1_geometry_builder.html" target="_top" xlink:title="prtx::GeometryBuilder">
<polygon fill="none" stroke="#000000" points="355,-140 355,-159 467,-159 467,-140 355,-140"/>
<text text-anchor="middle" x="411" y="-147" font-family="Helvetica,sans-Serif" font-size="10.00" fill="#000000">prtx::GeometryBuilder</text>
</a>
</g>
</g>
<!-- Node131&#45;&gt;Node14 -->
<g id="edge1" class="edge">
<title>Node131&#45;&gt;Node14</title>
<path fill="none" stroke="#191970" d="M295.3305,-120.4942C320.073,-126.6987 349.8545,-134.1669 373.0016,-139.9714"/>
<polygon fill="#191970" stroke="#191970" points="295.9722,-117.0468 285.4211,-118.0093 294.2695,-123.8366 295.9722,-117.0468"/>
</g>
<!-- Node1 -->
<g id="node3" class="node">
<title>Node1</title>
<g id="a_node3"><a xlink:href="classprtx_1_1_material_builder.html" target="_top" xlink:title="prtx::MaterialBuilder">
<polygon fill="none" stroke="#000000" points="359,-55 359,-74 463,-74 463,-55 359,-55"/>
<text text-anchor="middle" x="411" y="-62" font-family="Helvetica,sans-Serif" font-size="10.00" fill="#000000">prtx::MaterialBuilder</text>
</a>
</g>
</g>
<!-- Node131&#45;&gt;Node1 -->
<g id="edge2" class="edge">
<title>Node131&#45;&gt;Node1</title>
<path fill="none" stroke="#191970" d="M293.3415,-96.3591C301.8726,-94.0881 310.7088,-91.7281 319,-89.5 337.8615,-84.4313 358.8817,-78.7237 376.0631,-74.0431"/>
<polygon fill="#191970" stroke="#191970" points="292.2826,-93.019 283.5176,-98.971 294.0812,-99.7839 292.2826,-93.019"/>
</g>
<!-- Node132 -->
<g id="node4" class="node">
<title>Node132</title>
<g id="a_node4"><a xlink:href="classprtx_1_1_texture_builder.html" target="_top" xlink:title="prtx::TextureBuilder">
<polygon fill="none" stroke="#000000" points="360.5,-99 360.5,-118 461.5,-118 461.5,-99 360.5,-99"/>
<text text-anchor="middle" x="411" y="-106" font-family="Helvetica,sans-Serif" font-size="10.00" fill="#000000">prtx::TextureBuilder</text>
</a>
</g>
</g>
<!-- Node131&#45;&gt;Node132 -->
<g id="edge3" class="edge">
<title>Node131&#45;&gt;Node132</title>
<path fill="none" stroke="#191970" d="M315.4352,-108.5C330.4863,-108.5 346.1809,-108.5 360.3978,-108.5"/>
<polygon fill="#191970" stroke="#191970" points="315.144,-105.0001 305.144,-108.5 315.1439,-112.0001 315.144,-105.0001"/>
</g>
<!-- Node118 -->
<g id="node5" class="node">
<title>Node118</title>
<g id="a_node5"><a xlink:href="classprtx_1_1_builtin_attributes_setters.html" target="_top" xlink:title="prtx::BuiltinAttributesSetters">
<polygon fill="none" stroke="#000000" points="0,-55 0,-74 140,-74 140,-55 0,-55"/>
<text text-anchor="middle" x="70" y="-62" font-family="Helvetica,sans-Serif" font-size="10.00" fill="#000000">prtx::BuiltinAttributesSetters</text>
</a>
</g>
</g>
<!-- Node119 -->
<g id="node6" class="node">
<title>Node119</title>
<g id="a_node6"><a xlink:href="classprtx_1_1_builtin_material_attributes_builder.html" target="_top" xlink:title="prtx::BuiltinMaterialAttributes\lBuilder">
<polygon fill="none" stroke="#000000" points="176,-49.5 176,-79.5 319,-79.5 319,-49.5 176,-49.5"/>
<text text-anchor="start" x="184" y="-67.5" font-family="Helvetica,sans-Serif" font-size="10.00" fill="#000000">prtx::BuiltinMaterialAttributes</text>
<text text-anchor="middle" x="247.5" y="-56.5" font-family="Helvetica,sans-Serif" font-size="10.00" fill="#000000">Builder</text>
</a>
</g>
</g>
<!-- Node118&#45;&gt;Node119 -->
<g id="edge4" class="edge">
<title>Node118&#45;&gt;Node119</title>
<path fill="none" stroke="#191970" d="M150.4134,-64.5C158.884,-64.5 167.4569,-64.5 175.8196,-64.5"/>
<polygon fill="#191970" stroke="#191970" points="150.1527,-61.0001 140.1527,-64.5 150.1527,-68.0001 150.1527,-61.0001"/>
</g>
<!-- Node119&#45;&gt;Node1 -->
<g id="edge5" class="edge">
<title>Node119&#45;&gt;Node1</title>
<path fill="none" stroke="#191970" d="M329.2977,-64.5C339.4045,-64.5 349.5103,-64.5 358.9973,-64.5"/>
<polygon fill="#191970" stroke="#191970" points="329.2135,-61.0001 319.2135,-64.5 329.2134,-68.0001 329.2135,-61.0001"/>
</g>
<!-- Node13 -->
<g id="node7" class="node">
<title>Node13</title>
<g id="a_node7"><a xlink:href="classprtx_1_1_shared_ptr_builder.html" target="_top" xlink:title="prtx::SharedPtrBuilder\l\&lt; Geometry \&gt;">
<polygon fill="none" stroke="#000000" points="191,-137.5 191,-167.5 304,-167.5 304,-137.5 191,-137.5"/>
<text text-anchor="start" x="199" y="-155.5" font-family="Helvetica,sans-Serif" font-size="10.00" fill="#000000">prtx::SharedPtrBuilder</text>
<text text-anchor="middle" x="247.5" y="-144.5" font-family="Helvetica,sans-Serif" font-size="10.00" fill="#000000">&lt; Geometry &gt;</text>
</a>
</g>
</g>
<!-- Node13&#45;&gt;Node14 -->
<g id="edge6" class="edge">
<title>Node13&#45;&gt;Node14</title>
<path fill="none" stroke="#191970" d="M314.3889,-151.2727C327.8545,-151.0256 341.8768,-150.7683 354.9274,-150.5289"/>
<polygon fill="#191970" stroke="#191970" points="314.1596,-147.7762 304.2255,-151.4592 314.2881,-154.775 314.1596,-147.7762"/>
</g>
<!-- Node0 -->
<g id="node8" class="node">
<title>Node0</title>
<g id="a_node8"><a xlink:href="classprtx_1_1_shared_ptr_builder.html" target="_top" xlink:title="prtx::SharedPtrBuilder\l\&lt; Material \&gt;">
<polygon fill="none" stroke="#000000" points="191,-.5 191,-30.5 304,-30.5 304,-.5 191,-.5"/>
<text text-anchor="start" x="199" y="-18.5" font-family="Helvetica,sans-Serif" font-size="10.00" fill="#000000">prtx::SharedPtrBuilder</text>
<text text-anchor="middle" x="247.5" y="-7.5" font-family="Helvetica,sans-Serif" font-size="10.00" fill="#000000">&lt; Material &gt;</text>
</a>
</g>
</g>
<!-- Node0&#45;&gt;Node1 -->
<g id="edge7" class="edge">
<title>Node0&#45;&gt;Node1</title>
<path fill="none" stroke="#191970" d="M307.7047,-33.543C331.8831,-40.7891 358.7692,-48.8467 379.0494,-54.9246"/>
<polygon fill="#191970" stroke="#191970" points="308.4734,-30.1196 297.8895,-30.6014 306.4638,-36.825 308.4734,-30.1196"/>
</g>
</g>
</svg>
