<?xml version="1.0" encoding="UTF-8" standalone="no"?>
<!DOCTYPE svg PUBLIC "-//W3C//DTD SVG 1.1//EN"
 "http://www.w3.org/Graphics/SVG/1.1/DTD/svg11.dtd">
<!-- Generated by graphviz version 2.26.0 (20091210.2329)
 -->
<!-- Title: Graphical Class Hierarchy Pages: 1 -->
<svg width="284pt" height="310pt"
 viewBox="0.00 0.00 284.00 310.00" xmlns="http://www.w3.org/2000/svg" xmlns:xlink="http://www.w3.org/1999/xlink">
<g id="graph1" class="graph" transform="scale(1 1) rotate(0) translate(4 306)">
<title>Graphical Class Hierarchy</title>
<!-- Node1 -->
<g id="node1" class="node"><title>Node1</title>
<a xlink:href="classprtx_1_1_shape_iterator.html" target="_top" xlink:title="prtx::ShapeIterator">
<polygon fill="none" stroke="black" points="0,-140.5 0,-161.5 98,-161.5 98,-140.5 0,-140.5"/>
<text text-anchor="middle" x="49" y="-148.5" font-family="Helvetica,sans-Serif" font-size="10.00">prtx::ShapeIterator</text>
</a>
</g>
<!-- Node2 -->
<g id="node3" class="node"><title>Node2</title>
<a xlink:href="classprtx_1_1_breadth_first_iterator.html" target="_top" xlink:title="prtx::BreadthFirstIterator">
<polygon fill="none" stroke="black" points="143.5,-280.5 143.5,-301.5 266.5,-301.5 266.5,-280.5 143.5,-280.5"/>
<text text-anchor="middle" x="205" y="-288.5" font-family="Helvetica,sans-Serif" font-size="10.00">prtx::BreadthFirstIterator</text>
</a>
</g>
<!-- Node1&#45;&gt;Node2 -->
<g id="edge2" class="edge"><title>Node1&#45;&gt;Node2</title>
<path fill="none" stroke="midnightblue" d="M57.8584,-171.033C70.7419,-197.845 97.1924,-245.025 134,-271 139.441,-274.84 145.601,-277.944 151.963,-280.455"/>
<polygon fill="midnightblue" stroke="midnightblue" points="60.9768,-169.438 53.5916,-161.841 54.6275,-172.385 60.9768,-169.438"/>
</g>
<!-- Node3 -->
<g id="node5" class="node"><title>Node3</title>
<a xlink:href="classprtx_1_1_c_g_a_error_iterator.html" target="_top" xlink:title="prtx::CGAErrorIterator">
<polygon fill="none" stroke="black" points="148.5,-240.5 148.5,-261.5 261.5,-261.5 261.5,-240.5 148.5,-240.5"/>
<text text-anchor="middle" x="205" y="-248.5" font-family="Helvetica,sans-Serif" font-size="10.00">prtx::CGAErrorIterator</text>
</a>
</g>
<!-- Node1&#45;&gt;Node3 -->
<g id="edge4" class="edge"><title>Node1&#45;&gt;Node3</title>
<path fill="none" stroke="midnightblue" d="M64.0347,-169.63C79.6823,-187.829 105.807,-215.05 134,-231 140.688,-234.783 148.141,-237.892 155.633,-240.434"/>
<polygon fill="midnightblue" stroke="midnightblue" points="66.3365,-166.928 57.2316,-161.51 60.9708,-171.423 66.3365,-166.928"/>
</g>
<!-- Node4 -->
<g id="node7" class="node"><title>Node4</title>
<a xlink:href="classprtx_1_1_c_g_a_print_iterator.html" target="_top" xlink:title="prtx::CGAPrintIterator">
<polygon fill="none" stroke="black" points="149,-200.5 149,-221.5 261,-221.5 261,-200.5 149,-200.5"/>
<text text-anchor="middle" x="205" y="-208.5" font-family="Helvetica,sans-Serif" font-size="10.00">prtx::CGAPrintIterator</text>
</a>
</g>
<!-- Node1&#45;&gt;Node4 -->
<g id="edge6" class="edge"><title>Node1&#45;&gt;Node4</title>
<path fill="none" stroke="midnightblue" d="M78.163,-166.189C94.3346,-174.237 114.968,-183.897 134,-191 143.238,-194.448 153.342,-197.631 162.956,-200.397"/>
<polygon fill="midnightblue" stroke="midnightblue" points="79.7075,-163.048 69.2029,-161.669 76.5545,-169.298 79.7075,-163.048"/>
</g>
<!-- Node5 -->
<g id="node9" class="node"><title>Node5</title>
<a xlink:href="classprtx_1_1_c_g_a_report_iterator.html" target="_top" xlink:title="prtx::CGAReportIterator">
<polygon fill="none" stroke="black" points="144.5,-160.5 144.5,-181.5 265.5,-181.5 265.5,-160.5 144.5,-160.5"/>
<text text-anchor="middle" x="205" y="-168.5" font-family="Helvetica,sans-Serif" font-size="10.00">prtx::CGAReportIterator</text>
</a>
</g>
<!-- Node1&#45;&gt;Node5 -->
<g id="edge8" class="edge"><title>Node1&#45;&gt;Node5</title>
<path fill="none" stroke="midnightblue" d="M108.521,-158.631C120.292,-160.14 132.659,-161.725 144.463,-163.239"/>
<polygon fill="midnightblue" stroke="midnightblue" points="108.723,-155.128 98.3594,-157.328 107.833,-162.071 108.723,-155.128"/>
</g>
<!-- Node6 -->
<g id="node11" class="node"><title>Node6</title>
<a xlink:href="classprtx_1_1_depth_first_iterator.html" target="_top" xlink:title="prtx::DepthFirstIterator">
<polygon fill="none" stroke="black" points="147,-120.5 147,-141.5 263,-141.5 263,-120.5 147,-120.5"/>
<text text-anchor="middle" x="205" y="-128.5" font-family="Helvetica,sans-Serif" font-size="10.00">prtx::DepthFirstIterator</text>
</a>
</g>
<!-- Node1&#45;&gt;Node6 -->
<g id="edge10" class="edge"><title>Node1&#45;&gt;Node6</title>
<path fill="none" stroke="midnightblue" d="M108.336,-143.393C120.997,-141.77 134.355,-140.057 146.967,-138.44"/>
<polygon fill="midnightblue" stroke="midnightblue" points="107.833,-139.929 98.3594,-144.672 108.723,-146.872 107.833,-139.929"/>
</g>
<!-- Node7 -->
<g id="node13" class="node"><title>Node7</title>
<a xlink:href="classprtx_1_1_initial_shape_iterator.html" target="_top" xlink:title="prtx::InitialShapeIterator">
<polygon fill="none" stroke="black" points="144.5,-80.5 144.5,-101.5 265.5,-101.5 265.5,-80.5 144.5,-80.5"/>
<text text-anchor="middle" x="205" y="-88.5" font-family="Helvetica,sans-Serif" font-size="10.00">prtx::InitialShapeIterator</text>
</a>
</g>
<!-- Node1&#45;&gt;Node7 -->
<g id="edge12" class="edge"><title>Node1&#45;&gt;Node7</title>
<path fill="none" stroke="midnightblue" d="M78.163,-135.811C94.3346,-127.763 114.968,-118.103 134,-111 143.238,-107.552 153.342,-104.369 162.956,-101.603"/>
<polygon fill="midnightblue" stroke="midnightblue" points="76.5545,-132.702 69.2029,-140.331 79.7075,-138.952 76.5545,-132.702"/>
</g>
<!-- Node8 -->
<g id="node15" class="node"><title>Node8</title>
<a xlink:href="classprtx_1_1_leaf_iterator.html" target="_top" xlink:title="prtx::LeafIterator">
<polygon fill="none" stroke="black" points="160.5,-40.5 160.5,-61.5 249.5,-61.5 249.5,-40.5 160.5,-40.5"/>
<text text-anchor="middle" x="205" y="-48.5" font-family="Helvetica,sans-Serif" font-size="10.00">prtx::LeafIterator</text>
</a>
</g>
<!-- Node1&#45;&gt;Node8 -->
<g id="edge14" class="edge"><title>Node1&#45;&gt;Node8</title>
<path fill="none" stroke="midnightblue" d="M64.0347,-132.37C79.6823,-114.171 105.807,-86.9498 134,-71 142.025,-66.4599 151.152,-62.8916 160.127,-60.1076"/>
<polygon fill="midnightblue" stroke="midnightblue" points="60.9708,-130.577 57.2316,-140.49 66.3365,-135.072 60.9708,-130.577"/>
</g>
<!-- Node9 -->
<g id="node17" class="node"><title>Node9</title>
<a xlink:href="classprtx_1_1_selected_shapes_iterator.html" target="_top" xlink:title="prtx::SelectedShapesIterator">
<polygon fill="none" stroke="black" points="134.5,-0.5 134.5,-21.5 275.5,-21.5 275.5,-0.5 134.5,-0.5"/>
<text text-anchor="middle" x="205" y="-8.5" font-family="Helvetica,sans-Serif" font-size="10.00">prtx::SelectedShapesIterator</text>
</a>
</g>
<!-- Node1&#45;&gt;Node9 -->
<g id="edge16" class="edge"><title>Node1&#45;&gt;Node9</title>
<path fill="none" stroke="midnightblue" d="M57.8584,-130.967C70.7419,-104.155 97.1924,-56.9749 134,-31 139.441,-27.1605 145.601,-24.0555 151.963,-21.5452"/>
<polygon fill="midnightblue" stroke="midnightblue" points="54.6275,-129.615 53.5916,-140.159 60.9768,-132.562 54.6275,-129.615"/>
</g>
</g>
</svg>
