<?xml version="1.0" encoding="UTF-8" standalone="no"?>
<!DOCTYPE svg PUBLIC "-//W3C//DTD SVG 1.1//EN"
 "http://www.w3.org/Graphics/SVG/1.1/DTD/svg11.dtd">
<!-- Generated by graphviz version 2.40.1 (0)
 -->
<!-- Title: Graphical Class Hierarchy Pages: 1 -->
<svg width="566pt" height="636pt"
 viewBox="0.00 0.00 566.00 636.00" xmlns="http://www.w3.org/2000/svg" xmlns:xlink="http://www.w3.org/1999/xlink">
<g id="graph0" class="graph" transform="scale(1 1) rotate(0) translate(4 632)">
<title>Graphical Class Hierarchy</title>
<!-- Node135 -->
<g id="node1" class="node">
<title>Node135</title>
<g id="a_node1"><a xlink:href="classprt_1_1_attributable.html" target="_top" xlink:title="prt::Attributable">
<polygon fill="none" stroke="#000000" points="140,-589.5 140,-608.5 223,-608.5 223,-589.5 140,-589.5"/>
<text text-anchor="middle" x="181.5" y="-596.5" font-family="Helvetica,sans-Serif" font-size="10.00" fill="#000000">prt::Attributable</text>
</a>
</g>
</g>
<!-- Node3 -->
<g id="node2" class="node">
<title>Node3</title>
<g id="a_node2"><a xlink:href="classprt_1_1_attribute_map.html" target="_top" xlink:title="prt::AttributeMap">
<polygon fill="none" stroke="#000000" points="312.5,-570.5 312.5,-589.5 401.5,-589.5 401.5,-570.5 312.5,-570.5"/>
<text text-anchor="middle" x="357" y="-577.5" font-family="Helvetica,sans-Serif" font-size="10.00" fill="#000000">prt::AttributeMap</text>
</a>
</g>
</g>
<!-- Node135&#45;&gt;Node3 -->
<g id="edge1" class="edge">
<title>Node135&#45;&gt;Node3</title>
<path fill="none" stroke="#191970" d="M233.1765,-593.4054C258.3017,-590.6853 288.2042,-587.448 312.3291,-584.8362"/>
<polygon fill="#191970" stroke="#191970" points="232.6562,-589.9412 223.0911,-594.4973 233.4097,-596.9005 232.6562,-589.9412"/>
</g>
<!-- Node16 -->
<g id="node3" class="node">
<title>Node16</title>
<g id="a_node3"><a xlink:href="classprt_1_1_resolve_map.html" target="_top" xlink:title="prt::ResolveMap">
<polygon fill="none" stroke="#000000" points="312.5,-608.5 312.5,-627.5 401.5,-627.5 401.5,-608.5 312.5,-608.5"/>
<text text-anchor="middle" x="357" y="-615.5" font-family="Helvetica,sans-Serif" font-size="10.00" fill="#000000">prt::ResolveMap</text>
</a>
</g>
</g>
<!-- Node135&#45;&gt;Node16 -->
<g id="edge2" class="edge">
<title>Node135&#45;&gt;Node16</title>
<path fill="none" stroke="#191970" d="M233.1765,-604.5946C258.3017,-607.3147 288.2042,-610.552 312.3291,-613.1638"/>
<polygon fill="#191970" stroke="#191970" points="233.4097,-601.0995 223.0911,-603.5027 232.6562,-608.0588 233.4097,-601.0995"/>
</g>
<!-- Node17 -->
<g id="node4" class="node">
<title>Node17</title>
<g id="a_node4"><a xlink:href="classprtx_1_1_resolve_map.html" target="_top" xlink:title="prtx::ResolveMap">
<polygon fill="none" stroke="#000000" points="464,-608.5 464,-627.5 558,-627.5 558,-608.5 464,-608.5"/>
<text text-anchor="middle" x="511" y="-615.5" font-family="Helvetica,sans-Serif" font-size="10.00" fill="#000000">prtx::ResolveMap</text>
</a>
</g>
</g>
<!-- Node16&#45;&gt;Node17 -->
<g id="edge3" class="edge">
<title>Node16&#45;&gt;Node17</title>
<path fill="none" stroke="#191970" d="M411.8894,-618C428.8855,-618 447.4518,-618 463.8729,-618"/>
<polygon fill="#191970" stroke="#191970" points="411.5432,-614.5001 401.5432,-618 411.5431,-621.5001 411.5432,-614.5001"/>
</g>
<!-- Node133 -->
<g id="node5" class="node">
<title>Node133</title>
<g id="a_node5"><a xlink:href="classprt_1_1_attributable_setter.html" target="_top" xlink:title="prt::AttributableSetter">
<polygon fill="none" stroke="#000000" points="126.5,-532.5 126.5,-551.5 236.5,-551.5 236.5,-532.5 126.5,-532.5"/>
<text text-anchor="middle" x="181.5" y="-539.5" font-family="Helvetica,sans-Serif" font-size="10.00" fill="#000000">prt::AttributableSetter</text>
</a>
</g>
</g>
<!-- Node4 -->
<g id="node6" class="node">
<title>Node4</title>
<g id="a_node6"><a xlink:href="classprt_1_1_attribute_map_builder.html" target="_top" xlink:title="prt::AttributeMapBuilder">
<polygon fill="none" stroke="#000000" points="297.5,-532.5 297.5,-551.5 416.5,-551.5 416.5,-532.5 297.5,-532.5"/>
<text text-anchor="middle" x="357" y="-539.5" font-family="Helvetica,sans-Serif" font-size="10.00" fill="#000000">prt::AttributeMapBuilder</text>
</a>
</g>
</g>
<!-- Node133&#45;&gt;Node4 -->
<g id="edge4" class="edge">
<title>Node133&#45;&gt;Node4</title>
<path fill="none" stroke="#191970" d="M246.6948,-542C263.2677,-542 280.9922,-542 297.2776,-542"/>
<polygon fill="#191970" stroke="#191970" points="246.5478,-538.5001 236.5478,-542 246.5477,-545.5001 246.5478,-538.5001"/>
</g>
<!-- Node117 -->
<g id="node7" class="node">
<title>Node117</title>
<g id="a_node7"><a xlink:href="classprt_1_1_cache.html" target="_top" xlink:title="prt::Cache">
<polygon fill="none" stroke="#000000" points="150.5,-494.5 150.5,-513.5 212.5,-513.5 212.5,-494.5 150.5,-494.5"/>
<text text-anchor="middle" x="181.5" y="-501.5" font-family="Helvetica,sans-Serif" font-size="10.00" fill="#000000">prt::Cache</text>
</a>
</g>
</g>
<!-- Node5 -->
<g id="node8" class="node">
<title>Node5</title>
<g id="a_node8"><a xlink:href="classprt_1_1_cache_object.html" target="_top" xlink:title="prt::CacheObject">
<polygon fill="none" stroke="#000000" points="311.5,-494.5 311.5,-513.5 402.5,-513.5 402.5,-494.5 311.5,-494.5"/>
<text text-anchor="middle" x="357" y="-501.5" font-family="Helvetica,sans-Serif" font-size="10.00" fill="#000000">prt::CacheObject</text>
</a>
</g>
</g>
<!-- Node117&#45;&gt;Node5 -->
<g id="edge5" class="edge">
<title>Node117&#45;&gt;Node5</title>
<path fill="none" stroke="#191970" d="M223.0009,-504C249.5655,-504 284.0476,-504 311.3797,-504"/>
<polygon fill="#191970" stroke="#191970" points="222.8759,-500.5001 212.8759,-504 222.8758,-507.5001 222.8759,-500.5001"/>
</g>
<!-- Node115 -->
<g id="node9" class="node">
<title>Node115</title>
<g id="a_node9"><a xlink:href="classprt_1_1_callbacks.html" target="_top" xlink:title="prt::Callbacks">
<polygon fill="none" stroke="#000000" points="0,-437.5 0,-456.5 77,-456.5 77,-437.5 0,-437.5"/>
<text text-anchor="middle" x="38.5" y="-444.5" font-family="Helvetica,sans-Serif" font-size="10.00" fill="#000000">prt::Callbacks</text>
</a>
</g>
</g>
<!-- Node116 -->
<g id="node10" class="node">
<title>Node116</title>
<g id="a_node10"><a xlink:href="classprt_1_1_simple_output_callbacks.html" target="_top" xlink:title="prt::SimpleOutputCallbacks">
<polygon fill="none" stroke="#000000" points="113,-437.5 113,-456.5 250,-456.5 250,-437.5 113,-437.5"/>
<text text-anchor="middle" x="181.5" y="-444.5" font-family="Helvetica,sans-Serif" font-size="10.00" fill="#000000">prt::SimpleOutputCallbacks</text>
</a>
</g>
</g>
<!-- Node115&#45;&gt;Node116 -->
<g id="edge6" class="edge">
<title>Node115&#45;&gt;Node116</title>
<path fill="none" stroke="#191970" d="M87.308,-447C95.5068,-447 104.1497,-447 112.7397,-447"/>
<polygon fill="#191970" stroke="#191970" points="87.1979,-443.5001 77.1979,-447 87.1978,-450.5001 87.1979,-443.5001"/>
</g>
<!-- Node10 -->
<g id="node11" class="node">
<title>Node10</title>
<g id="a_node11"><a xlink:href="classprt_1_1_file_output_callbacks.html" target="_top" xlink:title="prt::FileOutputCallbacks">
<polygon fill="none" stroke="#000000" points="296,-418.5 296,-437.5 418,-437.5 418,-418.5 296,-418.5"/>
<text text-anchor="middle" x="357" y="-425.5" font-family="Helvetica,sans-Serif" font-size="10.00" fill="#000000">prt::FileOutputCallbacks</text>
</a>
</g>
</g>
<!-- Node116&#45;&gt;Node10 -->
<g id="edge7" class="edge">
<title>Node116&#45;&gt;Node10</title>
<path fill="none" stroke="#191970" d="M260.1062,-438.4899C272.0983,-437.1916 284.3208,-435.8684 295.8645,-434.6187"/>
<polygon fill="#191970" stroke="#191970" points="259.6721,-435.0164 250.1069,-439.5725 260.4256,-441.9757 259.6721,-435.0164"/>
</g>
<!-- Node14 -->
<g id="node12" class="node">
<title>Node14</title>
<g id="a_node12"><a xlink:href="classprt_1_1_memory_output_callbacks.html" target="_top" xlink:title="prt::MemoryOutputCallbacks">
<polygon fill="none" stroke="#000000" points="286,-456.5 286,-475.5 428,-475.5 428,-456.5 286,-456.5"/>
<text text-anchor="middle" x="357" y="-463.5" font-family="Helvetica,sans-Serif" font-size="10.00" fill="#000000">prt::MemoryOutputCallbacks</text>
</a>
</g>
</g>
<!-- Node116&#45;&gt;Node14 -->
<g id="edge8" class="edge">
<title>Node116&#45;&gt;Node14</title>
<path fill="none" stroke="#191970" d="M260.097,-455.5091C268.6702,-456.4372 277.3612,-457.3781 285.8378,-458.2958"/>
<polygon fill="#191970" stroke="#191970" points="260.4256,-452.0243 250.1069,-454.4275 259.6721,-458.9836 260.4256,-452.0243"/>
</g>
<!-- Node69 -->
<g id="node13" class="node">
<title>Node69</title>
<g id="a_node13"><a xlink:href="classprt_1_1_log_handler.html" target="_top" xlink:title="prt::LogHandler">
<polygon fill="none" stroke="#000000" points="140,-19.5 140,-38.5 223,-38.5 223,-19.5 140,-19.5"/>
<text text-anchor="middle" x="181.5" y="-26.5" font-family="Helvetica,sans-Serif" font-size="10.00" fill="#000000">prt::LogHandler</text>
</a>
</g>
</g>
<!-- Node6 -->
<g id="node14" class="node">
<title>Node6</title>
<g id="a_node14"><a xlink:href="classprt_1_1_console_log_handler.html" target="_top" xlink:title="prt::ConsoleLogHandler">
<polygon fill="none" stroke="#000000" points="297.5,-.5 297.5,-19.5 416.5,-19.5 416.5,-.5 297.5,-.5"/>
<text text-anchor="middle" x="357" y="-7.5" font-family="Helvetica,sans-Serif" font-size="10.00" fill="#000000">prt::ConsoleLogHandler</text>
</a>
</g>
</g>
<!-- Node69&#45;&gt;Node6 -->
<g id="edge9" class="edge">
<title>Node69&#45;&gt;Node6</title>
<path fill="none" stroke="#191970" d="M233.0349,-23.4207C253.2306,-21.2343 276.5302,-18.7118 297.4402,-16.4481"/>
<polygon fill="#191970" stroke="#191970" points="232.6562,-19.9412 223.0911,-24.4973 233.4097,-26.9005 232.6562,-19.9412"/>
</g>
<!-- Node9 -->
<g id="node15" class="node">
<title>Node9</title>
<g id="a_node15"><a xlink:href="classprt_1_1_file_log_handler.html" target="_top" xlink:title="prt::FileLogHandler">
<polygon fill="none" stroke="#000000" points="307.5,-38.5 307.5,-57.5 406.5,-57.5 406.5,-38.5 307.5,-38.5"/>
<text text-anchor="middle" x="357" y="-45.5" font-family="Helvetica,sans-Serif" font-size="10.00" fill="#000000">prt::FileLogHandler</text>
</a>
</g>
</g>
<!-- Node69&#45;&gt;Node9 -->
<g id="edge10" class="edge">
<title>Node69&#45;&gt;Node9</title>
<path fill="none" stroke="#191970" d="M233.179,-34.5949C256.5776,-37.1281 284.1192,-40.1098 307.2789,-42.6171"/>
<polygon fill="#191970" stroke="#191970" points="233.4097,-31.0995 223.0911,-33.5027 232.6562,-38.0588 233.4097,-31.0995"/>
</g>
<!-- Node0 -->
<g id="node16" class="node">
<title>Node0</title>
<g id="a_node16"><a xlink:href="classprt_1_1_object.html" target="_top" xlink:title="prt::Object">
<polygon fill="none" stroke="#000000" points="150.5,-304.5 150.5,-323.5 212.5,-323.5 212.5,-304.5 150.5,-304.5"/>
<text text-anchor="middle" x="181.5" y="-311.5" font-family="Helvetica,sans-Serif" font-size="10.00" fill="#000000">prt::Object</text>
</a>
</g>
</g>
<!-- Node0&#45;&gt;Node3 -->
<g id="edge13" class="edge">
<title>Node0&#45;&gt;Node3</title>
<path fill="none" stroke="#191970" d="M194.3563,-331.8218C209.5312,-353.5782 234.6392,-391.9405 250,-428 273.9997,-484.3395 242.6361,-517.7601 286,-561 293.1382,-568.1178 302.6321,-572.6519 312.3481,-575.5192"/>
<polygon fill="#191970" stroke="#191970" points="197.151,-329.7118 188.5183,-323.5694 191.4363,-333.7545 197.151,-329.7118"/>
</g>
<!-- Node0&#45;&gt;Node16 -->
<g id="edge26" class="edge">
<title>Node0&#45;&gt;Node16</title>
<path fill="none" stroke="#191970" d="M194.9482,-332.0137C210.4879,-353.6879 235.7441,-391.7066 250,-428 278.3949,-500.2892 232.584,-542.6198 286,-599 293.0208,-606.4104 302.5872,-611.0448 312.4225,-613.9144"/>
<polygon fill="#191970" stroke="#191970" points="197.6631,-329.7964 188.9436,-323.7781 192.0069,-333.9204 197.6631,-329.7964"/>
</g>
<!-- Node0&#45;&gt;Node4 -->
<g id="edge14" class="edge">
<title>Node0&#45;&gt;Node4</title>
<path fill="none" stroke="#191970" d="M193.7618,-332.0924C208.3549,-354.1137 232.8935,-392.7352 250,-428 269.7065,-468.6247 252.5055,-492.7207 286,-523 290.2595,-526.8507 295.2154,-529.9346 300.4912,-532.4025"/>
<polygon fill="#191970" stroke="#191970" points="196.6366,-330.0949 188.1673,-323.7293 190.8184,-333.9871 196.6366,-330.0949"/>
</g>
<!-- Node0&#45;&gt;Node5 -->
<g id="edge15" class="edge">
<title>Node0&#45;&gt;Node5</title>
<path fill="none" stroke="#191970" d="M192.396,-332.2261C218.4488,-375.752 282.4538,-482.3494 286,-485 293.4611,-490.5767 302.4403,-494.5179 311.4652,-497.3029"/>
<polygon fill="#191970" stroke="#191970" points="195.3162,-330.2897 187.1787,-323.505 189.3091,-333.8834 195.3162,-330.2897"/>
</g>
<!-- Node0&#45;&gt;Node10 -->
<g id="edge20" class="edge">
<title>Node0&#45;&gt;Node10</title>
<path fill="none" stroke="#191970" d="M195.8653,-331.3908C214.4754,-352.7937 248.9514,-388.7772 286,-409 293.0561,-412.8516 300.9392,-415.9581 308.815,-418.4531"/>
<polygon fill="#191970" stroke="#191970" points="198.4721,-329.0537 189.324,-323.7093 193.1427,-333.592 198.4721,-329.0537"/>
</g>
<!-- Node0&#45;&gt;Node14 -->
<g id="edge24" class="edge">
<title>Node0&#45;&gt;Node14</title>
<path fill="none" stroke="#191970" d="M191.1054,-332.8775C206.8767,-361.9316 241.0503,-417.3474 286,-447 291.8582,-450.8646 298.4764,-453.9456 305.2577,-456.4013"/>
<polygon fill="#191970" stroke="#191970" points="194.0698,-330.9957 186.3068,-323.7856 187.8791,-334.2631 194.0698,-330.9957"/>
</g>
<!-- Node0&#45;&gt;Node6 -->
<g id="edge16" class="edge">
<title>Node0&#45;&gt;Node6</title>
<path fill="none" stroke="#191970" d="M182.7063,-294.3064C186.9581,-242.6824 205.7082,-102.3748 286,-29 290.2387,-25.1264 295.1811,-22.0276 300.4488,-19.5508"/>
<polygon fill="#191970" stroke="#191970" points="179.2047,-294.2028 181.9701,-304.4303 186.1863,-294.7106 179.2047,-294.2028"/>
</g>
<!-- Node0&#45;&gt;Node9 -->
<g id="edge19" class="edge">
<title>Node0&#45;&gt;Node9</title>
<path fill="none" stroke="#191970" d="M183.9356,-294.4491C190.816,-247.7452 214.7684,-128.9747 286,-67 292.161,-61.6396 299.679,-57.772 307.4904,-54.9857"/>
<polygon fill="#191970" stroke="#191970" points="180.454,-294.0772 182.5649,-304.4596 187.3892,-295.0268 180.454,-294.0772"/>
</g>
<!-- Node1 -->
<g id="node17" class="node">
<title>Node1</title>
<g id="a_node17"><a xlink:href="classprt_1_1_annotation.html" target="_top" xlink:title="prt::Annotation">
<polygon fill="none" stroke="#000000" points="317,-152.5 317,-171.5 397,-171.5 397,-152.5 317,-152.5"/>
<text text-anchor="middle" x="357" y="-159.5" font-family="Helvetica,sans-Serif" font-size="10.00" fill="#000000">prt::Annotation</text>
</a>
</g>
</g>
<!-- Node0&#45;&gt;Node1 -->
<g id="edge11" class="edge">
<title>Node0&#45;&gt;Node1</title>
<path fill="none" stroke="#191970" d="M191.1054,-295.1225C206.8767,-266.0684 241.0503,-210.6526 286,-181 295.1601,-174.9572 306.1784,-170.8302 316.7726,-168.0138"/>
<polygon fill="#191970" stroke="#191970" points="187.8791,-293.7369 186.3068,-304.2144 194.0698,-297.0043 187.8791,-293.7369"/>
</g>
<!-- Node2 -->
<g id="node18" class="node">
<title>Node2</title>
<g id="a_node18"><a xlink:href="classprt_1_1_annotation_argument.html" target="_top" xlink:title="prt::AnnotationArgument">
<polygon fill="none" stroke="#000000" points="296,-114.5 296,-133.5 418,-133.5 418,-114.5 296,-114.5"/>
<text text-anchor="middle" x="357" y="-121.5" font-family="Helvetica,sans-Serif" font-size="10.00" fill="#000000">prt::AnnotationArgument</text>
</a>
</g>
</g>
<!-- Node0&#45;&gt;Node2 -->
<g id="edge12" class="edge">
<title>Node0&#45;&gt;Node2</title>
<path fill="none" stroke="#191970" d="M187.771,-294.8494C200.4239,-259.2832 232.4589,-183.019 286,-143 291.2125,-139.1039 297.166,-136.0061 303.3584,-133.5432"/>
<polygon fill="#191970" stroke="#191970" points="184.3963,-293.9008 184.4641,-304.4954 191.018,-296.1709 184.3963,-293.9008"/>
</g>
<!-- Node7 -->
<g id="node19" class="node">
<title>Node7</title>
<g id="a_node19"><a xlink:href="classprt_1_1_decoder_info.html" target="_top" xlink:title="prt::DecoderInfo">
<polygon fill="none" stroke="#000000" points="313.5,-76.5 313.5,-95.5 400.5,-95.5 400.5,-76.5 313.5,-76.5"/>
<text text-anchor="middle" x="357" y="-83.5" font-family="Helvetica,sans-Serif" font-size="10.00" fill="#000000">prt::DecoderInfo</text>
</a>
</g>
</g>
<!-- Node0&#45;&gt;Node7 -->
<g id="edge17" class="edge">
<title>Node0&#45;&gt;Node7</title>
<path fill="none" stroke="#191970" d="M185.598,-294.4075C195.3259,-252.8947 223.8051,-155.7399 286,-105 293.8109,-98.6277 303.5624,-94.3789 313.3128,-91.5499"/>
<polygon fill="#191970" stroke="#191970" points="182.1426,-293.8221 183.3836,-304.344 188.975,-295.3447 182.1426,-293.8221"/>
</g>
<!-- Node8 -->
<g id="node20" class="node">
<title>Node8</title>
<g id="a_node20"><a xlink:href="classprt_1_1_encoder_info.html" target="_top" xlink:title="prt::EncoderInfo">
<polygon fill="none" stroke="#000000" points="314,-380.5 314,-399.5 400,-399.5 400,-380.5 314,-380.5"/>
<text text-anchor="middle" x="357" y="-387.5" font-family="Helvetica,sans-Serif" font-size="10.00" fill="#000000">prt::EncoderInfo</text>
</a>
</g>
</g>
<!-- Node0&#45;&gt;Node8 -->
<g id="edge18" class="edge">
<title>Node0&#45;&gt;Node8</title>
<path fill="none" stroke="#191970" d="M205.2406,-329.0809C225.9198,-341.6899 257.0465,-359.4218 286,-371 295.1229,-374.6482 305.1811,-377.8207 314.7867,-380.4736"/>
<polygon fill="#191970" stroke="#191970" points="206.8659,-325.9708 196.5198,-323.6885 203.1844,-331.9246 206.8659,-325.9708"/>
</g>
<!-- Node11 -->
<g id="node21" class="node">
<title>Node11</title>
<g id="a_node21"><a xlink:href="classprt_1_1_initial_shape.html" target="_top" xlink:title="prt::InitialShape">
<polygon fill="none" stroke="#000000" points="314.5,-342.5 314.5,-361.5 399.5,-361.5 399.5,-342.5 314.5,-342.5"/>
<text text-anchor="middle" x="357" y="-349.5" font-family="Helvetica,sans-Serif" font-size="10.00" fill="#000000">prt::InitialShape</text>
</a>
</g>
</g>
<!-- Node0&#45;&gt;Node11 -->
<g id="edge21" class="edge">
<title>Node0&#45;&gt;Node11</title>
<path fill="none" stroke="#191970" d="M222.9794,-322.9813C250.5208,-328.9447 286.58,-336.7524 314.3571,-342.7668"/>
<polygon fill="#191970" stroke="#191970" points="223.3901,-319.4892 212.8759,-320.7936 221.9087,-326.3307 223.3901,-319.4892"/>
</g>
<!-- Node13 -->
<g id="node23" class="node">
<title>Node13</title>
<g id="a_node23"><a xlink:href="classprt_1_1_initial_shape_builder.html" target="_top" xlink:title="prt::InitialShapeBuilder">
<polygon fill="none" stroke="#000000" points="299.5,-304.5 299.5,-323.5 414.5,-323.5 414.5,-304.5 299.5,-304.5"/>
<text text-anchor="middle" x="357" y="-311.5" font-family="Helvetica,sans-Serif" font-size="10.00" fill="#000000">prt::InitialShapeBuilder</text>
</a>
</g>
</g>
<!-- Node0&#45;&gt;Node13 -->
<g id="edge23" class="edge">
<title>Node0&#45;&gt;Node13</title>
<path fill="none" stroke="#191970" d="M222.902,-314C245.6943,-314 274.3375,-314 299.2936,-314"/>
<polygon fill="#191970" stroke="#191970" points="222.8759,-310.5001 212.8759,-314 222.8758,-317.5001 222.8759,-310.5001"/>
</g>
<!-- Node15 -->
<g id="node24" class="node">
<title>Node15</title>
<g id="a_node24"><a xlink:href="classprt_1_1_occlusion_set.html" target="_top" xlink:title="prt::OcclusionSet">
<polygon fill="none" stroke="#000000" points="311,-266.5 311,-285.5 403,-285.5 403,-266.5 311,-266.5"/>
<text text-anchor="middle" x="357" y="-273.5" font-family="Helvetica,sans-Serif" font-size="10.00" fill="#000000">prt::OcclusionSet</text>
</a>
</g>
</g>
<!-- Node0&#45;&gt;Node15 -->
<g id="edge25" class="edge">
<title>Node0&#45;&gt;Node15</title>
<path fill="none" stroke="#191970" d="M222.8323,-305.0506C249.96,-299.1768 285.3987,-291.5034 313.0412,-285.5181"/>
<polygon fill="#191970" stroke="#191970" points="221.9087,-301.6693 212.8759,-307.2064 223.3901,-308.5108 221.9087,-301.6693"/>
</g>
<!-- Node18 -->
<g id="node25" class="node">
<title>Node18</title>
<g id="a_node25"><a xlink:href="classprt_1_1_resolve_map_builder.html" target="_top" xlink:title="prt::ResolveMapBuilder">
<polygon fill="none" stroke="#000000" points="297.5,-228.5 297.5,-247.5 416.5,-247.5 416.5,-228.5 297.5,-228.5"/>
<text text-anchor="middle" x="357" y="-235.5" font-family="Helvetica,sans-Serif" font-size="10.00" fill="#000000">prt::ResolveMapBuilder</text>
</a>
</g>
</g>
<!-- Node0&#45;&gt;Node18 -->
<g id="edge27" class="edge">
<title>Node0&#45;&gt;Node18</title>
<path fill="none" stroke="#191970" d="M205.2406,-298.9191C225.9198,-286.3101 257.0465,-268.5782 286,-257 295.1229,-253.3518 305.1811,-250.1793 314.7867,-247.5264"/>
<polygon fill="#191970" stroke="#191970" points="203.1844,-296.0754 196.5198,-304.3115 206.8659,-302.0292 203.1844,-296.0754"/>
</g>
<!-- Node19 -->
<g id="node26" class="node">
<title>Node19</title>
<g id="a_node26"><a xlink:href="classprt_1_1_rule_file_info.html" target="_top" xlink:title="prt::RuleFileInfo">
<polygon fill="none" stroke="#000000" points="314,-190.5 314,-209.5 400,-209.5 400,-190.5 314,-190.5"/>
<text text-anchor="middle" x="357" y="-197.5" font-family="Helvetica,sans-Serif" font-size="10.00" fill="#000000">prt::RuleFileInfo</text>
</a>
</g>
</g>
<!-- Node0&#45;&gt;Node19 -->
<g id="edge28" class="edge">
<title>Node0&#45;&gt;Node19</title>
<path fill="none" stroke="#191970" d="M195.8653,-296.6092C214.4754,-275.2063 248.9514,-239.2228 286,-219 294.5122,-214.3537 304.2278,-210.7916 313.6821,-208.0794"/>
<polygon fill="#191970" stroke="#191970" points="193.1427,-294.408 189.324,-304.2907 198.4721,-298.9463 193.1427,-294.408"/>
</g>
<!-- Node12 -->
<g id="node22" class="node">
<title>Node12</title>
<g id="a_node22"><a xlink:href="classprtx_1_1_initial_shape.html" target="_top" xlink:title="prtx::InitialShape">
<polygon fill="none" stroke="#000000" points="466,-342.5 466,-361.5 556,-361.5 556,-342.5 466,-342.5"/>
<text text-anchor="middle" x="511" y="-349.5" font-family="Helvetica,sans-Serif" font-size="10.00" fill="#000000">prtx::InitialShape</text>
</a>
</g>
</g>
<!-- Node11&#45;&gt;Node12 -->
<g id="edge22" class="edge">
<title>Node11&#45;&gt;Node12</title>
<path fill="none" stroke="#191970" d="M410.0559,-352C428.2463,-352 448.4165,-352 465.9149,-352"/>
<polygon fill="#191970" stroke="#191970" points="409.8976,-348.5001 399.8976,-352 409.8976,-355.5001 409.8976,-348.5001"/>
</g>
</g>
</svg>
