<?xml version="1.0" encoding="UTF-8" standalone="no"?>
<!DOCTYPE svg PUBLIC "-//W3C//DTD SVG 1.1//EN"
 "http://www.w3.org/Graphics/SVG/1.1/DTD/svg11.dtd">
<!-- Generated by graphviz version 2.30.1 (20170916.1124)
 -->
<!-- Title: Graphical Class Hierarchy Pages: 1 -->
<svg width="532pt" height="93pt"
 viewBox="0.00 0.00 532.00 93.00" xmlns="http://www.w3.org/2000/svg" xmlns:xlink="http://www.w3.org/1999/xlink">
<g id="graph0" class="graph" transform="scale(1 1) rotate(0) translate(4 89)">
<title>Graphical Class Hierarchy</title>
<!-- Node1 -->
<g id="node1" class="node"><title>Node1</title>
<g id="a_node1"><a xlink:href="classprtx_1_1_reports_accumulator.html" target="_top" xlink:title="prtx::ReportsAccumulator">
<polygon fill="none" stroke="black" points="0,-19.5 0,-38.5 128,-38.5 128,-19.5 0,-19.5"/>
<text text-anchor="middle" x="64" y="-26.5" font-family="Helvetica,sans-Serif" font-size="10.00">prtx::ReportsAccumulator</text>
</a>
</g>
</g>
<!-- Node2 -->
<g id="node2" class="node"><title>Node2</title>
<g id="a_node2"><a xlink:href="classprtx_1_1_appending_reports_accumulator.html" target="_top" xlink:title="prtx::AppendingReportsAccumulator">
<polygon fill="none" stroke="black" points="164,-38.5 164,-57.5 338,-57.5 338,-38.5 164,-38.5"/>
<text text-anchor="middle" x="251" y="-45.5" font-family="Helvetica,sans-Serif" font-size="10.00">prtx::AppendingReportsAccumulator</text>
</a>
</g>
</g>
<!-- Node1&#45;&gt;Node2 -->
<g id="edge1" class="edge"><title>Node1&#45;&gt;Node2</title>
<path fill="none" stroke="midnightblue" d="M138.284,-36.5264C146.699,-37.3907 155.336,-38.2778 163.9,-39.1573"/>
<polygon fill="midnightblue" stroke="midnightblue" points="138.454,-33.0256 128.149,-35.4856 137.739,-39.989 138.454,-33.0256"/>
</g>
<!-- Node5 -->
<g id="node5" class="node"><title>Node5</title>
<g id="a_node5"><a xlink:href="classprtx_1_1_write_first_reports_accumulator.html" target="_top" xlink:title="prtx::WriteFirstReportsAccumulator">
<polygon fill="none" stroke="black" points="165.5,-0.5 165.5,-19.5 336.5,-19.5 336.5,-0.5 165.5,-0.5"/>
<text text-anchor="middle" x="251" y="-7.5" font-family="Helvetica,sans-Serif" font-size="10.00">prtx::WriteFirstReportsAccumulator</text>
</a>
</g>
</g>
<!-- Node1&#45;&gt;Node5 -->
<g id="edge4" class="edge"><title>Node1&#45;&gt;Node5</title>
<path fill="none" stroke="midnightblue" d="M138.37,-21.4647C147.188,-20.5591 156.249,-19.6284 165.213,-18.7078"/>
<polygon fill="midnightblue" stroke="midnightblue" points="137.739,-18.011 128.149,-22.5144 138.454,-24.9744 137.739,-18.011"/>
</g>
<!-- Node3 -->
<g id="node3" class="node"><title>Node3</title>
<g id="a_node3"><a xlink:href="classprtx_1_1_summarizing_reports_accumulator.html" target="_top" xlink:title="prtx::SummarizingReports\lAccumulator">
<polygon fill="none" stroke="black" points="383.5,-55 383.5,-85 514.5,-85 514.5,-55 383.5,-55"/>
<text text-anchor="start" x="391.5" y="-73" font-family="Helvetica,sans-Serif" font-size="10.00">prtx::SummarizingReports</text>
<text text-anchor="middle" x="449" y="-62" font-family="Helvetica,sans-Serif" font-size="10.00">Accumulator</text>
</a>
</g>
</g>
<!-- Node2&#45;&gt;Node3 -->
<g id="edge2" class="edge"><title>Node2&#45;&gt;Node3</title>
<path fill="none" stroke="midnightblue" d="M347.129,-58.6777C359.429,-60.0583 371.789,-61.4457 383.433,-62.7527"/>
<polygon fill="midnightblue" stroke="midnightblue" points="347.157,-55.1589 336.829,-57.5216 346.376,-62.1153 347.157,-55.1589"/>
</g>
<!-- Node4 -->
<g id="node4" class="node"><title>Node4</title>
<g id="a_node4"><a xlink:href="classprtx_1_1_sum_reports_accumulator.html" target="_top" xlink:title="prtx::SumReportsAccumulator">
<polygon fill="none" stroke="black" points="374.5,-16.5 374.5,-35.5 523.5,-35.5 523.5,-16.5 374.5,-16.5"/>
<text text-anchor="middle" x="449" y="-23.5" font-family="Helvetica,sans-Serif" font-size="10.00">prtx::SumReportsAccumulator</text>
</a>
</g>
</g>
<!-- Node2&#45;&gt;Node4 -->
<g id="edge3" class="edge"><title>Node2&#45;&gt;Node4</title>
<path fill="none" stroke="midnightblue" d="M346.85,-37.3535C356.114,-36.3137 365.416,-35.2697 374.423,-34.2586"/>
<polygon fill="midnightblue" stroke="midnightblue" points="346.376,-33.8847 336.829,-38.4784 347.157,-40.8411 346.376,-33.8847"/>
</g>
</g>
</svg>
