<?xml version="1.0" encoding="UTF-8" standalone="no"?>
<!DOCTYPE svg PUBLIC "-//W3C//DTD SVG 1.1//EN"
 "http://www.w3.org/Graphics/SVG/1.1/DTD/svg11.dtd">
<!-- Generated by graphviz version 2.26.0 (20091210.2329)
 -->
<!-- Title: Graphical Class Hierarchy Pages: 1 -->
<svg width="476pt" height="186pt"
 viewBox="0.00 0.00 476.00 186.00" xmlns="http://www.w3.org/2000/svg" xmlns:xlink="http://www.w3.org/1999/xlink">
<g id="graph1" class="graph" transform="scale(1 1) rotate(0) translate(4 182)">
<title>Graphical Class Hierarchy</title>
<!-- Node1 -->
<g id="node1" class="node"><title>Node1</title>
<a xlink:href="classprtx_1_1_attributable_setter.html" target="_top" xlink:title="prtx::AttributableSetter">
<polygon fill="none" stroke="black" points="190.5,-104.5 190.5,-125.5 305.5,-125.5 305.5,-104.5 190.5,-104.5"/>
<text text-anchor="middle" x="248" y="-112.5" font-family="Helvetica,sans-Serif" font-size="10.00">prtx::AttributableSetter</text>
</a>
</g>
<!-- Node2 -->
<g id="node3" class="node"><title>Node2</title>
<a xlink:href="classprtx_1_1_geometry_builder.html" target="_top" xlink:title="prtx::GeometryBuilder">
<polygon fill="none" stroke="black" points="356,-147.5 356,-168.5 468,-168.5 468,-147.5 356,-147.5"/>
<text text-anchor="middle" x="412" y="-155.5" font-family="Helvetica,sans-Serif" font-size="10.00">prtx::GeometryBuilder</text>
</a>
</g>
<!-- Node1&#45;&gt;Node2 -->
<g id="edge2" class="edge"><title>Node1&#45;&gt;Node2</title>
<path fill="none" stroke="midnightblue" d="M297.964,-128.1C321.606,-134.299 349.464,-141.603 371.727,-147.441"/>
<polygon fill="midnightblue" stroke="midnightblue" points="298.68,-124.67 288.119,-125.519 296.904,-131.441 298.68,-124.67"/>
</g>
<!-- Node3 -->
<g id="node5" class="node"><title>Node3</title>
<a xlink:href="classprtx_1_1_material_builder.html" target="_top" xlink:title="prtx::MaterialBuilder">
<polygon fill="none" stroke="black" points="360,-58.5 360,-79.5 464,-79.5 464,-58.5 360,-58.5"/>
<text text-anchor="middle" x="412" y="-66.5" font-family="Helvetica,sans-Serif" font-size="10.00">prtx::MaterialBuilder</text>
</a>
</g>
<!-- Node1&#45;&gt;Node3 -->
<g id="edge4" class="edge"><title>Node1&#45;&gt;Node3</title>
<path fill="none" stroke="midnightblue" d="M295.815,-101.75C303.889,-99.5038 312.185,-97.1898 320,-95 338.06,-89.9397 358.102,-84.2809 374.857,-79.5379"/>
<polygon fill="midnightblue" stroke="midnightblue" points="294.82,-98.3942 286.123,-104.445 296.695,-105.138 294.82,-98.3942"/>
</g>
<!-- Node4 -->
<g id="node7" class="node"><title>Node4</title>
<a xlink:href="classprtx_1_1_texture_builder.html" target="_top" xlink:title="prtx::TextureBuilder">
<polygon fill="none" stroke="black" points="361,-104.5 361,-125.5 463,-125.5 463,-104.5 361,-104.5"/>
<text text-anchor="middle" x="412" y="-112.5" font-family="Helvetica,sans-Serif" font-size="10.00">prtx::TextureBuilder</text>
</a>
</g>
<!-- Node1&#45;&gt;Node4 -->
<g id="edge6" class="edge"><title>Node1&#45;&gt;Node4</title>
<path fill="none" stroke="midnightblue" d="M316.09,-115C331.108,-115 346.768,-115 360.974,-115"/>
<polygon fill="midnightblue" stroke="midnightblue" points="315.82,-111.5 305.82,-115 315.82,-118.5 315.82,-111.5"/>
</g>
<!-- Node5 -->
<g id="node8" class="node"><title>Node5</title>
<a xlink:href="classprtx_1_1_builtin_attributes_setters.html" target="_top" xlink:title="prtx::BuiltinAttributesSetters">
<polygon fill="none" stroke="black" points="0,-58.5 0,-79.5 140,-79.5 140,-58.5 0,-58.5"/>
<text text-anchor="middle" x="70" y="-66.5" font-family="Helvetica,sans-Serif" font-size="10.00">prtx::BuiltinAttributesSetters</text>
</a>
</g>
<!-- Node6 -->
<g id="node10" class="node"><title>Node6</title>
<a xlink:href="classprtx_1_1_builtin_material_attributes_builder.html" target="_top" xlink:title="prtx::BuiltinMaterialAttributes\lBuilder">
<polygon fill="none" stroke="black" points="176.5,-52 176.5,-86 319.5,-86 319.5,-52 176.5,-52"/>
<text text-anchor="start" x="184.5" y="-73" font-family="Helvetica,sans-Serif" font-size="10.00">prtx::BuiltinMaterialAttributes</text>
<text text-anchor="middle" x="248" y="-60" font-family="Helvetica,sans-Serif" font-size="10.00">Builder</text>
</a>
</g>
<!-- Node5&#45;&gt;Node6 -->
<g id="edge8" class="edge"><title>Node5&#45;&gt;Node6</title>
<path fill="none" stroke="midnightblue" d="M150.201,-69C158.871,-69 167.653,-69 176.215,-69"/>
<polygon fill="midnightblue" stroke="midnightblue" points="150.095,-65.5001 140.095,-69 150.095,-72.5001 150.095,-65.5001"/>
</g>
<!-- Node6&#45;&gt;Node3 -->
<g id="edge10" class="edge"><title>Node6&#45;&gt;Node3</title>
<path fill="none" stroke="midnightblue" d="M330.048,-69C340.186,-69 350.322,-69 359.838,-69"/>
<polygon fill="midnightblue" stroke="midnightblue" points="329.933,-65.5001 319.933,-69 329.933,-72.5001 329.933,-65.5001"/>
</g>
<!-- Node7 -->
<g id="node12" class="node"><title>Node7</title>
<a xlink:href="classprtx_1_1_shared_ptr_builder.html" target="_top" xlink:title="prtx::SharedPtrBuilder\l\&lt; Geometry \&gt;">
<polygon fill="none" stroke="black" points="191.5,-144 191.5,-178 304.5,-178 304.5,-144 191.5,-144"/>
<text text-anchor="start" x="199.5" y="-165" font-family="Helvetica,sans-Serif" font-size="10.00">prtx::SharedPtrBuilder</text>
<text text-anchor="middle" x="248" y="-152" font-family="Helvetica,sans-Serif" font-size="10.00">&lt; Geometry &gt;</text>
</a>
</g>
<!-- Node7&#45;&gt;Node2 -->
<g id="edge12" class="edge"><title>Node7&#45;&gt;Node2</title>
<path fill="none" stroke="midnightblue" d="M315.093,-159.773C328.6,-159.526 342.665,-159.268 355.756,-159.029"/>
<polygon fill="midnightblue" stroke="midnightblue" points="314.833,-156.277 304.899,-159.959 314.961,-163.276 314.833,-156.277"/>
</g>
<!-- Node8 -->
<g id="node14" class="node"><title>Node8</title>
<a xlink:href="classprtx_1_1_shared_ptr_builder.html" target="_top" xlink:title="prtx::SharedPtrBuilder\l\&lt; Material \&gt;">
<polygon fill="none" stroke="black" points="191.5,-0 191.5,-34 304.5,-34 304.5,-0 191.5,-0"/>
<text text-anchor="start" x="199.5" y="-21" font-family="Helvetica,sans-Serif" font-size="10.00">prtx::SharedPtrBuilder</text>
<text text-anchor="middle" x="248" y="-8" font-family="Helvetica,sans-Serif" font-size="10.00">&lt; Material &gt;</text>
</a>
</g>
<!-- Node8&#45;&gt;Node3 -->
<g id="edge14" class="edge"><title>Node8&#45;&gt;Node3</title>
<path fill="none" stroke="midnightblue" d="M311.399,-37.1022C334.378,-44.3883 359.415,-52.3266 378.763,-58.4614"/>
<polygon fill="midnightblue" stroke="midnightblue" points="312.29,-33.7129 301.7,-34.0267 310.174,-40.3856 312.29,-33.7129"/>
</g>
</g>
</svg>
