<?xml version="1.0" encoding="UTF-8" standalone="no"?>
<!DOCTYPE svg PUBLIC "-//W3C//DTD SVG 1.1//EN"
 "http://www.w3.org/Graphics/SVG/1.1/DTD/svg11.dtd">
<!-- Generated by graphviz version 2.26.0 (20091210.2329)
 -->
<!-- Title: Graphical Class Hierarchy Pages: 1 -->
<svg width="360pt" height="350pt"
 viewBox="0.00 0.00 360.00 350.00" xmlns="http://www.w3.org/2000/svg" xmlns:xlink="http://www.w3.org/1999/xlink">
<g id="graph1" class="graph" transform="scale(1 1) rotate(0) translate(4 346)">
<title>Graphical Class Hierarchy</title>
<!-- Node1 -->
<g id="node1" class="node"><title>Node1</title>
<a xlink:href="classprtx_1_1_extension.html" target="_top" xlink:title="prtx::Extension">
<polygon fill="none" stroke="black" points="0.5,-200.5 0.5,-221.5 83.5,-221.5 83.5,-200.5 0.5,-200.5"/>
<text text-anchor="middle" x="42" y="-208.5" font-family="Helvetica,sans-Serif" font-size="10.00">prtx::Extension</text>
</a>
</g>
<!-- Node2 -->
<g id="node3" class="node"><title>Node2</title>
<a xlink:href="classprtx_1_1_adaptor.html" target="_top" xlink:title="prtx::Adaptor">
<polygon fill="none" stroke="black" points="121.5,-280.5 121.5,-301.5 194.5,-301.5 194.5,-280.5 121.5,-280.5"/>
<text text-anchor="middle" x="158" y="-288.5" font-family="Helvetica,sans-Serif" font-size="10.00">prtx::Adaptor</text>
</a>
</g>
<!-- Node1&#45;&gt;Node2 -->
<g id="edge2" class="edge"><title>Node1&#45;&gt;Node2</title>
<path fill="none" stroke="midnightblue" d="M66.1662,-227.666C89.1626,-243.526 123.07,-266.911 142.604,-280.382"/>
<polygon fill="midnightblue" stroke="midnightblue" points="67.8635,-224.585 57.6443,-221.789 63.8893,-230.348 67.8635,-224.585"/>
</g>
<!-- Node4 -->
<g id="node7" class="node"><title>Node4</title>
<a xlink:href="classprtx_1_1_decoder.html" target="_top" xlink:title="prtx::Decoder">
<polygon fill="none" stroke="black" points="120,-200.5 120,-221.5 196,-221.5 196,-200.5 120,-200.5"/>
<text text-anchor="middle" x="158" y="-208.5" font-family="Helvetica,sans-Serif" font-size="10.00">prtx::Decoder</text>
</a>
</g>
<!-- Node1&#45;&gt;Node4 -->
<g id="edge6" class="edge"><title>Node1&#45;&gt;Node4</title>
<path fill="none" stroke="midnightblue" d="M93.7213,-211C102.503,-211 111.478,-211 119.83,-211"/>
<polygon fill="midnightblue" stroke="midnightblue" points="93.5511,-207.5 83.551,-211 93.551,-214.5 93.5511,-207.5"/>
</g>
<!-- Node10 -->
<g id="node19" class="node"><title>Node10</title>
<a xlink:href="classprtx_1_1_encoder.html" target="_top" xlink:title="prtx::Encoder">
<polygon fill="none" stroke="black" points="120.5,-60.5 120.5,-81.5 195.5,-81.5 195.5,-60.5 120.5,-60.5"/>
<text text-anchor="middle" x="158" y="-68.5" font-family="Helvetica,sans-Serif" font-size="10.00">prtx::Encoder</text>
</a>
</g>
<!-- Node1&#45;&gt;Node10 -->
<g id="edge18" class="edge"><title>Node1&#45;&gt;Node10</title>
<path fill="none" stroke="midnightblue" d="M57.2841,-192.554C81.8914,-162.855 129.518,-105.375 149.18,-81.6449"/>
<polygon fill="midnightblue" stroke="midnightblue" points="54.404,-190.544 50.7189,-200.477 59.7942,-195.01 54.404,-190.544"/>
</g>
<!-- Node3 -->
<g id="node5" class="node"><title>Node3</title>
<a xlink:href="classprtx_1_1_stream_adaptor.html" target="_top" xlink:title="prtx::StreamAdaptor">
<polygon fill="none" stroke="black" points="240,-320.5 240,-341.5 344,-341.5 344,-320.5 240,-320.5"/>
<text text-anchor="middle" x="292" y="-328.5" font-family="Helvetica,sans-Serif" font-size="10.00">prtx::StreamAdaptor</text>
</a>
</g>
<!-- Node2&#45;&gt;Node3 -->
<g id="edge4" class="edge"><title>Node2&#45;&gt;Node3</title>
<path fill="none" stroke="midnightblue" d="M203.163,-304.481C220.575,-309.679 240.197,-315.537 256.563,-320.422"/>
<polygon fill="midnightblue" stroke="midnightblue" points="203.79,-301.016 193.207,-301.51 201.788,-307.724 203.79,-301.016"/>
</g>
<!-- Node5 -->
<g id="node9" class="node"><title>Node5</title>
<a xlink:href="classprtx_1_1_c_g_b_decoder.html" target="_top" xlink:title="prtx::CGBDecoder">
<polygon fill="none" stroke="black" points="243,-280.5 243,-301.5 341,-301.5 341,-280.5 243,-280.5"/>
<text text-anchor="middle" x="292" y="-288.5" font-family="Helvetica,sans-Serif" font-size="10.00">prtx::CGBDecoder</text>
</a>
</g>
<!-- Node4&#45;&gt;Node5 -->
<g id="edge8" class="edge"><title>Node4&#45;&gt;Node5</title>
<path fill="none" stroke="midnightblue" d="M176.171,-228.889C190.376,-242.05 211.148,-259.567 232,-271 238.643,-274.642 246.064,-277.774 253.361,-280.406"/>
<polygon fill="midnightblue" stroke="midnightblue" points="178.28,-226.066 168.616,-221.723 173.463,-231.144 178.28,-226.066"/>
</g>
<!-- Node6 -->
<g id="node11" class="node"><title>Node6</title>
<a xlink:href="classprtx_1_1_geometry_decoder.html" target="_top" xlink:title="prtx::GeometryDecoder">
<polygon fill="none" stroke="black" points="232.5,-240.5 232.5,-261.5 351.5,-261.5 351.5,-240.5 232.5,-240.5"/>
<text text-anchor="middle" x="292" y="-248.5" font-family="Helvetica,sans-Serif" font-size="10.00">prtx::GeometryDecoder</text>
</a>
</g>
<!-- Node4&#45;&gt;Node6 -->
<g id="edge10" class="edge"><title>Node4&#45;&gt;Node6</title>
<path fill="none" stroke="midnightblue" d="M203.163,-224.481C220.575,-229.679 240.197,-235.537 256.563,-240.422"/>
<polygon fill="midnightblue" stroke="midnightblue" points="203.79,-221.016 193.207,-221.51 201.788,-227.724 203.79,-221.016"/>
</g>
<!-- Node7 -->
<g id="node13" class="node"><title>Node7</title>
<a xlink:href="classprtx_1_1_material_decoder.html" target="_top" xlink:title="prtx::MaterialDecoder">
<polygon fill="none" stroke="black" points="237,-200.5 237,-221.5 347,-221.5 347,-200.5 237,-200.5"/>
<text text-anchor="middle" x="292" y="-208.5" font-family="Helvetica,sans-Serif" font-size="10.00">prtx::MaterialDecoder</text>
</a>
</g>
<!-- Node4&#45;&gt;Node7 -->
<g id="edge12" class="edge"><title>Node4&#45;&gt;Node7</title>
<path fill="none" stroke="midnightblue" d="M206.156,-211C216.113,-211 226.673,-211 236.857,-211"/>
<polygon fill="midnightblue" stroke="midnightblue" points="206.041,-207.5 196.041,-211 206.041,-214.5 206.041,-207.5"/>
</g>
<!-- Node8 -->
<g id="node15" class="node"><title>Node8</title>
<a xlink:href="classprtx_1_1_shader_decoder.html" target="_top" xlink:title="prtx::ShaderDecoder">
<polygon fill="none" stroke="black" points="238.5,-160.5 238.5,-181.5 345.5,-181.5 345.5,-160.5 238.5,-160.5"/>
<text text-anchor="middle" x="292" y="-168.5" font-family="Helvetica,sans-Serif" font-size="10.00">prtx::ShaderDecoder</text>
</a>
</g>
<!-- Node4&#45;&gt;Node8 -->
<g id="edge14" class="edge"><title>Node4&#45;&gt;Node8</title>
<path fill="none" stroke="midnightblue" d="M203.163,-197.519C220.575,-192.321 240.197,-186.463 256.563,-181.578"/>
<polygon fill="midnightblue" stroke="midnightblue" points="201.788,-194.276 193.207,-200.49 203.79,-200.984 201.788,-194.276"/>
</g>
<!-- Node9 -->
<g id="node17" class="node"><title>Node9</title>
<a xlink:href="classprtx_1_1_texture_decoder.html" target="_top" xlink:title="prtx::TextureDecoder">
<polygon fill="none" stroke="black" points="237.5,-120.5 237.5,-141.5 346.5,-141.5 346.5,-120.5 237.5,-120.5"/>
<text text-anchor="middle" x="292" y="-128.5" font-family="Helvetica,sans-Serif" font-size="10.00">prtx::TextureDecoder</text>
</a>
</g>
<!-- Node4&#45;&gt;Node9 -->
<g id="edge16" class="edge"><title>Node4&#45;&gt;Node9</title>
<path fill="none" stroke="midnightblue" d="M176.171,-193.111C190.376,-179.95 211.148,-162.433 232,-151 238.643,-147.358 246.064,-144.226 253.361,-141.594"/>
<polygon fill="midnightblue" stroke="midnightblue" points="173.463,-190.856 168.616,-200.277 178.28,-195.934 173.463,-190.856"/>
</g>
<!-- Node11 -->
<g id="node21" class="node"><title>Node11</title>
<a xlink:href="classprtx_1_1_geometry_encoder.html" target="_top" xlink:title="prtx::GeometryEncoder">
<polygon fill="none" stroke="black" points="233,-80.5 233,-101.5 351,-101.5 351,-80.5 233,-80.5"/>
<text text-anchor="middle" x="292" y="-88.5" font-family="Helvetica,sans-Serif" font-size="10.00">prtx::GeometryEncoder</text>
</a>
</g>
<!-- Node10&#45;&gt;Node11 -->
<g id="edge20" class="edge"><title>Node10&#45;&gt;Node11</title>
<path fill="none" stroke="midnightblue" d="M205.717,-78.122C214.488,-79.431 223.74,-80.812 232.8,-82.1641"/>
<polygon fill="midnightblue" stroke="midnightblue" points="206.09,-74.639 195.683,-76.6243 205.057,-81.5623 206.09,-74.639"/>
</g>
<!-- Node12 -->
<g id="node23" class="node"><title>Node12</title>
<a xlink:href="classprtx_1_1_material_encoder.html" target="_top" xlink:title="prtx::MaterialEncoder">
<polygon fill="none" stroke="black" points="237,-40.5 237,-61.5 347,-61.5 347,-40.5 237,-40.5"/>
<text text-anchor="middle" x="292" y="-48.5" font-family="Helvetica,sans-Serif" font-size="10.00">prtx::MaterialEncoder</text>
</a>
</g>
<!-- Node10&#45;&gt;Node12 -->
<g id="edge22" class="edge"><title>Node10&#45;&gt;Node12</title>
<path fill="none" stroke="midnightblue" d="M205.873,-63.8548C215.908,-62.357 226.569,-60.7659 236.845,-59.2321"/>
<polygon fill="midnightblue" stroke="midnightblue" points="205.057,-60.4377 195.683,-65.3757 206.09,-67.361 205.057,-60.4377"/>
</g>
<!-- Node13 -->
<g id="node25" class="node"><title>Node13</title>
<a xlink:href="classprtx_1_1_texture_encoder.html" target="_top" xlink:title="prtx::TextureEncoder">
<polygon fill="none" stroke="black" points="238,-0.5 238,-21.5 346,-21.5 346,-0.5 238,-0.5"/>
<text text-anchor="middle" x="292" y="-8.5" font-family="Helvetica,sans-Serif" font-size="10.00">prtx::TextureEncoder</text>
</a>
</g>
<!-- Node10&#45;&gt;Node13 -->
<g id="edge24" class="edge"><title>Node10&#45;&gt;Node13</title>
<path fill="none" stroke="midnightblue" d="M184.482,-55.2314C198.348,-47.3517 215.776,-38.0255 232,-31 239.96,-27.5531 248.721,-24.3289 257.031,-21.5184"/>
<polygon fill="midnightblue" stroke="midnightblue" points="182.422,-52.3792 175.511,-60.4094 185.922,-58.4418 182.422,-52.3792"/>
</g>
</g>
</svg>
