<?xml version="1.0" encoding="UTF-8" standalone="no"?>
<!DOCTYPE svg PUBLIC "-//W3C//DTD SVG 1.1//EN"
 "http://www.w3.org/Graphics/SVG/1.1/DTD/svg11.dtd">
<!-- Generated by graphviz version 2.40.1 (0)
 -->
<!-- Title: Graphical Class Hierarchy Pages: 1 -->
<svg width="298pt" height="137pt"
 viewBox="0.00 0.00 298.00 137.00" xmlns="http://www.w3.org/2000/svg" xmlns:xlink="http://www.w3.org/1999/xlink">
<g id="graph0" class="graph" transform="scale(1 1) rotate(0) translate(4 133)">
<title>Graphical Class Hierarchy</title>
<!-- Node0 -->
<g id="node1" class="node">
<title>Node0</title>
<g id="a_node1"><a xlink:href="classprtx_1_1_reporting_strategy.html" target="_top" xlink:title="prtx::ReportingStrategy">
<polygon fill="none" stroke="#000000" points="0,-55 0,-74 118,-74 118,-55 0,-55"/>
<text text-anchor="middle" x="59" y="-62" font-family="Helvetica,sans-Serif" font-size="10.00" fill="#000000">prtx::ReportingStrategy</text>
</a>
</g>
</g>
<!-- Node1 -->
<g id="node2" class="node">
<title>Node1</title>
<g id="a_node2"><a xlink:href="classprtx_1_1_all_shapes_reporting_strategy.html" target="_top" xlink:title="prtx::AllShapesReporting\lStrategy">
<polygon fill="none" stroke="#000000" points="159.5,-98.5 159.5,-128.5 284.5,-128.5 284.5,-98.5 159.5,-98.5"/>
<text text-anchor="start" x="167.5" y="-116.5" font-family="Helvetica,sans-Serif" font-size="10.00" fill="#000000">prtx::AllShapesReporting</text>
<text text-anchor="middle" x="222" y="-105.5" font-family="Helvetica,sans-Serif" font-size="10.00" fill="#000000">Strategy</text>
</a>
</g>
</g>
<!-- Node0&#45;&gt;Node1 -->
<g id="edge1" class="edge">
<title>Node0&#45;&gt;Node1</title>
<path fill="none" stroke="#191970" d="M100.4289,-76.9541C122.2015,-83.4992 149.0536,-91.5713 171.9791,-98.463"/>
<polygon fill="#191970" stroke="#191970" points="101.3993,-73.5911 90.815,-74.064 99.384,-80.2948 101.3993,-73.5911"/>
</g>
<!-- Node2 -->
<g id="node3" class="node">
<title>Node2</title>
<g id="a_node3"><a xlink:href="classprtx_1_1_leaf_shape_reporting_strategy.html" target="_top" xlink:title="prtx::LeafShapeReporting\lStrategy">
<polygon fill="none" stroke="#000000" points="158,-49.5 158,-79.5 286,-79.5 286,-49.5 158,-49.5"/>
<text text-anchor="start" x="166" y="-67.5" font-family="Helvetica,sans-Serif" font-size="10.00" fill="#000000">prtx::LeafShapeReporting</text>
<text text-anchor="middle" x="222" y="-56.5" font-family="Helvetica,sans-Serif" font-size="10.00" fill="#000000">Strategy</text>
</a>
</g>
</g>
<!-- Node0&#45;&gt;Node2 -->
<g id="edge2" class="edge">
<title>Node0&#45;&gt;Node2</title>
<path fill="none" stroke="#191970" d="M128.3691,-64.5C138.1294,-64.5 148.1272,-64.5 157.7856,-64.5"/>
<polygon fill="#191970" stroke="#191970" points="128.3079,-61.0001 118.3078,-64.5 128.3078,-68.0001 128.3079,-61.0001"/>
</g>
<!-- Node3 -->
<g id="node4" class="node">
<title>Node3</title>
<g id="a_node4"><a xlink:href="classprtx_1_1_single_shape_reporting_strategy.html" target="_top" xlink:title="prtx::SingleShapeReporting\lStrategy">
<polygon fill="none" stroke="#000000" points="154,-.5 154,-30.5 290,-30.5 290,-.5 154,-.5"/>
<text text-anchor="start" x="162" y="-18.5" font-family="Helvetica,sans-Serif" font-size="10.00" fill="#000000">prtx::SingleShapeReporting</text>
<text text-anchor="middle" x="222" y="-7.5" font-family="Helvetica,sans-Serif" font-size="10.00" fill="#000000">Strategy</text>
</a>
</g>
</g>
<!-- Node0&#45;&gt;Node3 -->
<g id="edge3" class="edge">
<title>Node0&#45;&gt;Node3</title>
<path fill="none" stroke="#191970" d="M100.4289,-52.0459C122.2015,-45.5008 149.0536,-37.4287 171.9791,-30.537"/>
<polygon fill="#191970" stroke="#191970" points="99.384,-48.7052 90.815,-54.936 101.3993,-55.4089 99.384,-48.7052"/>
</g>
</g>
</svg>
