<?xml version="1.0" encoding="UTF-8" standalone="no"?>
<!DOCTYPE svg PUBLIC "-//W3C//DTD SVG 1.1//EN"
 "http://www.w3.org/Graphics/SVG/1.1/DTD/svg11.dtd">
<!-- Generated by graphviz version 2.26.0 (20091210.2329)
 -->
<!-- Title: Graphical Class Hierarchy Pages: 1 -->
<svg width="568pt" height="670pt"
 viewBox="0.00 0.00 568.00 670.00" xmlns="http://www.w3.org/2000/svg" xmlns:xlink="http://www.w3.org/1999/xlink">
<g id="graph1" class="graph" transform="scale(1 1) rotate(0) translate(4 666)">
<title>Graphical Class Hierarchy</title>
<!-- Node1 -->
<g id="node1" class="node"><title>Node1</title>
<a xlink:href="classprt_1_1_attributable.html" target="_top" xlink:title="prt::Attributable">
<polygon fill="none" stroke="black" points="141.5,-620.5 141.5,-641.5 224.5,-641.5 224.5,-620.5 141.5,-620.5"/>
<text text-anchor="middle" x="183" y="-628.5" font-family="Helvetica,sans-Serif" font-size="10.00">prt::Attributable</text>
</a>
</g>
<!-- Node2 -->
<g id="node3" class="node"><title>Node2</title>
<a xlink:href="classprt_1_1_attribute_map.html" target="_top" xlink:title="prt::AttributeMap">
<polygon fill="none" stroke="black" points="314.5,-600.5 314.5,-621.5 403.5,-621.5 403.5,-600.5 314.5,-600.5"/>
<text text-anchor="middle" x="359" y="-608.5" font-family="Helvetica,sans-Serif" font-size="10.00">prt::AttributeMap</text>
</a>
</g>
<!-- Node1&#45;&gt;Node2 -->
<g id="edge2" class="edge"><title>Node1&#45;&gt;Node2</title>
<path fill="none" stroke="midnightblue" d="M234.824,-625.111C260.02,-622.248 290.008,-618.84 314.202,-616.091"/>
<polygon fill="midnightblue" stroke="midnightblue" points="234.25,-621.653 224.71,-626.26 235.041,-628.609 234.25,-621.653"/>
</g>
<!-- Node3 -->
<g id="node5" class="node"><title>Node3</title>
<a xlink:href="classprt_1_1_resolve_map.html" target="_top" xlink:title="prt::ResolveMap">
<polygon fill="none" stroke="black" points="314.5,-640.5 314.5,-661.5 403.5,-661.5 403.5,-640.5 314.5,-640.5"/>
<text text-anchor="middle" x="359" y="-648.5" font-family="Helvetica,sans-Serif" font-size="10.00">prt::ResolveMap</text>
</a>
</g>
<!-- Node1&#45;&gt;Node3 -->
<g id="edge4" class="edge"><title>Node1&#45;&gt;Node3</title>
<path fill="none" stroke="midnightblue" d="M234.824,-636.889C260.02,-639.752 290.008,-643.16 314.202,-645.909"/>
<polygon fill="midnightblue" stroke="midnightblue" points="235.041,-633.391 224.71,-635.74 234.25,-640.347 235.041,-633.391"/>
</g>
<!-- Node4 -->
<g id="node7" class="node"><title>Node4</title>
<a xlink:href="classprtx_1_1_resolve_map.html" target="_top" xlink:title="prtx::ResolveMap">
<polygon fill="none" stroke="black" points="466,-640.5 466,-661.5 560,-661.5 560,-640.5 466,-640.5"/>
<text text-anchor="middle" x="513" y="-648.5" font-family="Helvetica,sans-Serif" font-size="10.00">prtx::ResolveMap</text>
</a>
</g>
<!-- Node3&#45;&gt;Node4 -->
<g id="edge6" class="edge"><title>Node3&#45;&gt;Node4</title>
<path fill="none" stroke="midnightblue" d="M413.889,-651C430.885,-651 449.452,-651 465.873,-651"/>
<polygon fill="midnightblue" stroke="midnightblue" points="413.543,-647.5 403.543,-651 413.543,-654.5 413.543,-647.5"/>
</g>
<!-- Node5 -->
<g id="node8" class="node"><title>Node5</title>
<a xlink:href="classprt_1_1_attributable_setter.html" target="_top" xlink:title="prt::AttributableSetter">
<polygon fill="none" stroke="black" points="128,-560.5 128,-581.5 238,-581.5 238,-560.5 128,-560.5"/>
<text text-anchor="middle" x="183" y="-568.5" font-family="Helvetica,sans-Serif" font-size="10.00">prt::AttributableSetter</text>
</a>
</g>
<!-- Node6 -->
<g id="node10" class="node"><title>Node6</title>
<a xlink:href="classprt_1_1_attribute_map_builder.html" target="_top" xlink:title="prt::AttributeMapBuilder">
<polygon fill="none" stroke="black" points="299.5,-560.5 299.5,-581.5 418.5,-581.5 418.5,-560.5 299.5,-560.5"/>
<text text-anchor="middle" x="359" y="-568.5" font-family="Helvetica,sans-Serif" font-size="10.00">prt::AttributeMapBuilder</text>
</a>
</g>
<!-- Node5&#45;&gt;Node6 -->
<g id="edge8" class="edge"><title>Node5&#45;&gt;Node6</title>
<path fill="none" stroke="midnightblue" d="M248.434,-571C265.144,-571 283.017,-571 299.415,-571"/>
<polygon fill="midnightblue" stroke="midnightblue" points="248.205,-567.5 238.205,-571 248.205,-574.5 248.205,-567.5"/>
</g>
<!-- Node7 -->
<g id="node11" class="node"><title>Node7</title>
<a xlink:href="classprt_1_1_cache.html" target="_top" xlink:title="prt::Cache">
<polygon fill="none" stroke="black" points="152,-520.5 152,-541.5 214,-541.5 214,-520.5 152,-520.5"/>
<text text-anchor="middle" x="183" y="-528.5" font-family="Helvetica,sans-Serif" font-size="10.00">prt::Cache</text>
</a>
</g>
<!-- Node8 -->
<g id="node13" class="node"><title>Node8</title>
<a xlink:href="classprt_1_1_cache_object.html" target="_top" xlink:title="prt::CacheObject">
<polygon fill="none" stroke="black" points="313.5,-520.5 313.5,-541.5 404.5,-541.5 404.5,-520.5 313.5,-520.5"/>
<text text-anchor="middle" x="359" y="-528.5" font-family="Helvetica,sans-Serif" font-size="10.00">prt::CacheObject</text>
</a>
</g>
<!-- Node7&#45;&gt;Node8 -->
<g id="edge10" class="edge"><title>Node7&#45;&gt;Node8</title>
<path fill="none" stroke="midnightblue" d="M224.241,-531C250.972,-531 285.816,-531 313.376,-531"/>
<polygon fill="midnightblue" stroke="midnightblue" points="224.06,-527.5 214.06,-531 224.06,-534.5 224.06,-527.5"/>
</g>
<!-- Node9 -->
<g id="node14" class="node"><title>Node9</title>
<a xlink:href="classprt_1_1_callbacks.html" target="_top" xlink:title="prt::Callbacks">
<polygon fill="none" stroke="black" points="0.5,-460.5 0.5,-481.5 77.5,-481.5 77.5,-460.5 0.5,-460.5"/>
<text text-anchor="middle" x="39" y="-468.5" font-family="Helvetica,sans-Serif" font-size="10.00">prt::Callbacks</text>
</a>
</g>
<!-- Node10 -->
<g id="node16" class="node"><title>Node10</title>
<a xlink:href="classprt_1_1_simple_output_callbacks.html" target="_top" xlink:title="prt::SimpleOutputCallbacks">
<polygon fill="none" stroke="black" points="114.5,-460.5 114.5,-481.5 251.5,-481.5 251.5,-460.5 114.5,-460.5"/>
<text text-anchor="middle" x="183" y="-468.5" font-family="Helvetica,sans-Serif" font-size="10.00">prt::SimpleOutputCallbacks</text>
</a>
</g>
<!-- Node9&#45;&gt;Node10 -->
<g id="edge12" class="edge"><title>Node9&#45;&gt;Node10</title>
<path fill="none" stroke="midnightblue" d="M87.7327,-471C96.2784,-471 105.314,-471 114.282,-471"/>
<polygon fill="midnightblue" stroke="midnightblue" points="87.5894,-467.5 77.5894,-471 87.5893,-474.5 87.5894,-467.5"/>
</g>
<!-- Node11 -->
<g id="node18" class="node"><title>Node11</title>
<a xlink:href="classprt_1_1_file_output_callbacks.html" target="_top" xlink:title="prt::FileOutputCallbacks">
<polygon fill="none" stroke="black" points="298,-440.5 298,-461.5 420,-461.5 420,-440.5 298,-440.5"/>
<text text-anchor="middle" x="359" y="-448.5" font-family="Helvetica,sans-Serif" font-size="10.00">prt::FileOutputCallbacks</text>
</a>
</g>
<!-- Node10&#45;&gt;Node11 -->
<g id="edge14" class="edge"><title>Node10&#45;&gt;Node11</title>
<path fill="none" stroke="midnightblue" d="M261.655,-462.062C273.777,-460.684 286.137,-459.28 297.803,-457.954"/>
<polygon fill="midnightblue" stroke="midnightblue" points="261.091,-458.603 251.55,-463.21 261.881,-465.559 261.091,-458.603"/>
</g>
<!-- Node12 -->
<g id="node20" class="node"><title>Node12</title>
<a xlink:href="classprt_1_1_memory_output_callbacks.html" target="_top" xlink:title="prt::MemoryOutputCallbacks">
<polygon fill="none" stroke="black" points="288,-480.5 288,-501.5 430,-501.5 430,-480.5 288,-480.5"/>
<text text-anchor="middle" x="359" y="-488.5" font-family="Helvetica,sans-Serif" font-size="10.00">prt::MemoryOutputCallbacks</text>
</a>
</g>
<!-- Node10&#45;&gt;Node12 -->
<g id="edge16" class="edge"><title>Node10&#45;&gt;Node12</title>
<path fill="none" stroke="midnightblue" d="M261.664,-479.939C270.346,-480.926 279.15,-481.926 287.733,-482.901"/>
<polygon fill="midnightblue" stroke="midnightblue" points="261.881,-476.441 251.55,-478.79 261.091,-483.397 261.881,-476.441"/>
</g>
<!-- Node13 -->
<g id="node21" class="node"><title>Node13</title>
<a xlink:href="classprt_1_1_log_handler.html" target="_top" xlink:title="prt::LogHandler">
<polygon fill="none" stroke="black" points="141.5,-20.5 141.5,-41.5 224.5,-41.5 224.5,-20.5 141.5,-20.5"/>
<text text-anchor="middle" x="183" y="-28.5" font-family="Helvetica,sans-Serif" font-size="10.00">prt::LogHandler</text>
</a>
</g>
<!-- Node14 -->
<g id="node23" class="node"><title>Node14</title>
<a xlink:href="classprt_1_1_console_log_handler.html" target="_top" xlink:title="prt::ConsoleLogHandler">
<polygon fill="none" stroke="black" points="299.5,-0.5 299.5,-21.5 418.5,-21.5 418.5,-0.5 299.5,-0.5"/>
<text text-anchor="middle" x="359" y="-8.5" font-family="Helvetica,sans-Serif" font-size="10.00">prt::ConsoleLogHandler</text>
</a>
</g>
<!-- Node13&#45;&gt;Node14 -->
<g id="edge18" class="edge"><title>Node13&#45;&gt;Node14</title>
<path fill="none" stroke="midnightblue" d="M234.682,-25.1271C254.935,-22.8256 278.301,-20.1704 299.271,-17.7874"/>
<polygon fill="midnightblue" stroke="midnightblue" points="234.25,-21.6535 224.71,-26.2603 235.041,-28.6087 234.25,-21.6535"/>
</g>
<!-- Node15 -->
<g id="node25" class="node"><title>Node15</title>
<a xlink:href="classprt_1_1_file_log_handler.html" target="_top" xlink:title="prt::FileLogHandler">
<polygon fill="none" stroke="black" points="309.5,-40.5 309.5,-61.5 408.5,-61.5 408.5,-40.5 309.5,-40.5"/>
<text text-anchor="middle" x="359" y="-48.5" font-family="Helvetica,sans-Serif" font-size="10.00">prt::FileLogHandler</text>
</a>
</g>
<!-- Node13&#45;&gt;Node15 -->
<g id="edge20" class="edge"><title>Node13&#45;&gt;Node15</title>
<path fill="none" stroke="midnightblue" d="M234.868,-36.8941C258.433,-39.5719 286.18,-42.725 309.458,-45.3702"/>
<polygon fill="midnightblue" stroke="midnightblue" points="235.041,-33.3913 224.71,-35.7397 234.25,-40.3465 235.041,-33.3913"/>
</g>
<!-- Node16 -->
<g id="node26" class="node"><title>Node16</title>
<a xlink:href="classprt_1_1_object.html" target="_top" xlink:title="prt::Object">
<polygon fill="none" stroke="black" points="152,-320.5 152,-341.5 214,-341.5 214,-320.5 152,-320.5"/>
<text text-anchor="middle" x="183" y="-328.5" font-family="Helvetica,sans-Serif" font-size="10.00">prt::Object</text>
</a>
</g>
<!-- Node16&#45;&gt;Node2 -->
<g id="edge26" class="edge"><title>Node16&#45;&gt;Node2</title>
<path fill="none" stroke="midnightblue" d="M196.251,-350.228C211.592,-373.257 236.703,-413.442 252,-451 276.233,-510.501 243.094,-545.054 288,-591 295.071,-598.235 304.54,-602.909 314.252,-605.914"/>
<polygon fill="midnightblue" stroke="midnightblue" points="199.015,-348.066 190.518,-341.738 193.214,-351.984 199.015,-348.066"/>
</g>
<!-- Node16&#45;&gt;Node3 -->
<g id="edge52" class="edge"><title>Node16&#45;&gt;Node3</title>
<path fill="none" stroke="midnightblue" d="M196.608,-350.088C212.29,-372.983 237.729,-413.04 252,-451 280.711,-527.366 232.58,-571.128 288,-631 294.959,-638.518 304.503,-643.291 314.335,-646.299"/>
<polygon fill="midnightblue" stroke="midnightblue" points="199.322,-347.86 190.737,-341.652 193.577,-351.859 199.322,-347.86"/>
</g>
<!-- Node16&#45;&gt;Node6 -->
<g id="edge28" class="edge"><title>Node16&#45;&gt;Node6</title>
<path fill="none" stroke="midnightblue" d="M195.413,-350.13C210.146,-373.353 234.87,-414.009 252,-451 271.85,-493.864 253.434,-518.805 288,-551 292.123,-554.84 296.926,-557.952 302.054,-560.471"/>
<polygon fill="midnightblue" stroke="midnightblue" points="198.278,-348.113 189.938,-341.579 192.383,-351.888 198.278,-348.113"/>
</g>
<!-- Node16&#45;&gt;Node8 -->
<g id="edge30" class="edge"><title>Node16&#45;&gt;Node8</title>
<path fill="none" stroke="midnightblue" d="M194.198,-350.412C220.889,-396.654 286.18,-509.592 288,-511 295.393,-516.722 304.343,-520.807 313.361,-523.723"/>
<polygon fill="midnightblue" stroke="midnightblue" points="197.155,-348.533 189.125,-341.621 191.092,-352.032 197.155,-348.533"/>
</g>
<!-- Node16&#45;&gt;Node11 -->
<g id="edge40" class="edge"><title>Node16&#45;&gt;Node11</title>
<path fill="none" stroke="midnightblue" d="M197.336,-349.303C215.902,-371.784 250.372,-409.566 288,-431 294.676,-434.803 302.123,-437.922 309.613,-440.469"/>
<polygon fill="midnightblue" stroke="midnightblue" points="200.036,-347.075 191.026,-341.502 194.594,-351.478 200.036,-347.075"/>
</g>
<!-- Node16&#45;&gt;Node12 -->
<g id="edge48" class="edge"><title>Node16&#45;&gt;Node12</title>
<path fill="none" stroke="midnightblue" d="M192.486,-350.85C208.087,-381.353 242.071,-439.515 288,-471 293.598,-474.838 299.922,-477.943 306.43,-480.456"/>
<polygon fill="midnightblue" stroke="midnightblue" points="195.495,-349.041 187.909,-341.645 189.227,-352.157 195.495,-349.041"/>
</g>
<!-- Node16&#45;&gt;Node14 -->
<g id="edge32" class="edge"><title>Node16&#45;&gt;Node14</title>
<path fill="none" stroke="midnightblue" d="M183.955,-310.303C187.597,-256.127 205.034,-108.968 288,-31 292.013,-27.229 296.681,-24.1605 301.67,-21.665"/>
<polygon fill="midnightblue" stroke="midnightblue" points="180.454,-310.207 183.368,-320.394 187.443,-310.614 180.454,-310.207"/>
</g>
<!-- Node16&#45;&gt;Node15 -->
<g id="edge38" class="edge"><title>Node16&#45;&gt;Node15</title>
<path fill="none" stroke="midnightblue" d="M185.203,-310.453C191.571,-261.442 214.517,-136.864 288,-71 294.103,-65.5297 301.592,-61.5445 309.393,-58.6438"/>
<polygon fill="midnightblue" stroke="midnightblue" points="181.718,-310.122 184,-320.468 188.668,-310.956 181.718,-310.122"/>
</g>
<!-- Node17 -->
<g id="node28" class="node"><title>Node17</title>
<a xlink:href="classprt_1_1_annotation.html" target="_top" xlink:title="prt::Annotation">
<polygon fill="none" stroke="black" points="319,-160.5 319,-181.5 399,-181.5 399,-160.5 319,-160.5"/>
<text text-anchor="middle" x="359" y="-168.5" font-family="Helvetica,sans-Serif" font-size="10.00">prt::Annotation</text>
</a>
</g>
<!-- Node16&#45;&gt;Node17 -->
<g id="edge22" class="edge"><title>Node16&#45;&gt;Node17</title>
<path fill="none" stroke="midnightblue" d="M192.486,-311.15C208.087,-280.647 242.071,-222.485 288,-191 297.084,-184.773 308.077,-180.473 318.672,-177.507"/>
<polygon fill="midnightblue" stroke="midnightblue" points="189.227,-309.843 187.909,-320.355 195.495,-312.959 189.227,-309.843"/>
</g>
<!-- Node18 -->
<g id="node30" class="node"><title>Node18</title>
<a xlink:href="classprt_1_1_annotation_argument.html" target="_top" xlink:title="prt::AnnotationArgument">
<polygon fill="none" stroke="black" points="298,-120.5 298,-141.5 420,-141.5 420,-120.5 298,-120.5"/>
<text text-anchor="middle" x="359" y="-128.5" font-family="Helvetica,sans-Serif" font-size="10.00">prt::AnnotationArgument</text>
</a>
</g>
<!-- Node16&#45;&gt;Node18 -->
<g id="edge24" class="edge"><title>Node16&#45;&gt;Node18</title>
<path fill="none" stroke="midnightblue" d="M189.275,-310.338C201.757,-272.785 233.316,-193.322 288,-151 292.962,-147.159 298.626,-144.056 304.541,-141.549"/>
<polygon fill="midnightblue" stroke="midnightblue" points="185.847,-309.566 186.133,-320.157 192.514,-311.7 185.847,-309.566"/>
</g>
<!-- Node19 -->
<g id="node36" class="node"><title>Node19</title>
<a xlink:href="classprt_1_1_decoder_info.html" target="_top" xlink:title="prt::DecoderInfo">
<polygon fill="none" stroke="black" points="315.5,-80.5 315.5,-101.5 402.5,-101.5 402.5,-80.5 315.5,-80.5"/>
<text text-anchor="middle" x="359" y="-88.5" font-family="Helvetica,sans-Serif" font-size="10.00">prt::DecoderInfo</text>
</a>
</g>
<!-- Node16&#45;&gt;Node19 -->
<g id="edge34" class="edge"><title>Node16&#45;&gt;Node19</title>
<path fill="none" stroke="midnightblue" d="M186.888,-310.409C196.209,-266.844 223.981,-164.927 288,-111 295.738,-104.482 305.461,-100.083 315.208,-97.1145"/>
<polygon fill="midnightblue" stroke="midnightblue" points="183.422,-309.893 184.862,-320.389 190.282,-311.286 183.422,-309.893"/>
</g>
<!-- Node20 -->
<g id="node38" class="node"><title>Node20</title>
<a xlink:href="classprt_1_1_encoder_info.html" target="_top" xlink:title="prt::EncoderInfo">
<polygon fill="none" stroke="black" points="316,-400.5 316,-421.5 402,-421.5 402,-400.5 316,-400.5"/>
<text text-anchor="middle" x="359" y="-408.5" font-family="Helvetica,sans-Serif" font-size="10.00">prt::EncoderInfo</text>
</a>
</g>
<!-- Node16&#45;&gt;Node20 -->
<g id="edge36" class="edge"><title>Node16&#45;&gt;Node20</title>
<path fill="none" stroke="midnightblue" d="M207.23,-347.126C227.969,-360.362 258.988,-378.841 288,-391 296.858,-394.712 306.62,-397.966 315.996,-400.711"/>
<polygon fill="midnightblue" stroke="midnightblue" points="209.036,-344.126 198.738,-341.632 205.233,-350.003 209.036,-344.126"/>
</g>
<!-- Node21 -->
<g id="node42" class="node"><title>Node21</title>
<a xlink:href="classprt_1_1_initial_shape.html" target="_top" xlink:title="prt::InitialShape">
<polygon fill="none" stroke="black" points="316.5,-360.5 316.5,-381.5 401.5,-381.5 401.5,-360.5 316.5,-360.5"/>
<text text-anchor="middle" x="359" y="-368.5" font-family="Helvetica,sans-Serif" font-size="10.00">prt::InitialShape</text>
</a>
</g>
<!-- Node16&#45;&gt;Node21 -->
<g id="edge42" class="edge"><title>Node16&#45;&gt;Node21</title>
<path fill="none" stroke="midnightblue" d="M223.852,-340.285C251.607,-346.593 288.242,-354.919 316.367,-361.311"/>
<polygon fill="midnightblue" stroke="midnightblue" points="224.587,-336.862 214.06,-338.059 223.036,-343.688 224.587,-336.862"/>
</g>
<!-- Node23 -->
<g id="node46" class="node"><title>Node23</title>
<a xlink:href="classprt_1_1_initial_shape_builder.html" target="_top" xlink:title="prt::InitialShapeBuilder">
<polygon fill="none" stroke="black" points="301.5,-320.5 301.5,-341.5 416.5,-341.5 416.5,-320.5 301.5,-320.5"/>
<text text-anchor="middle" x="359" y="-328.5" font-family="Helvetica,sans-Serif" font-size="10.00">prt::InitialShapeBuilder</text>
</a>
</g>
<!-- Node16&#45;&gt;Node23 -->
<g id="edge46" class="edge"><title>Node16&#45;&gt;Node23</title>
<path fill="none" stroke="midnightblue" d="M224.146,-331C247.094,-331 276.043,-331 301.23,-331"/>
<polygon fill="midnightblue" stroke="midnightblue" points="224.06,-327.5 214.06,-331 224.06,-334.5 224.06,-327.5"/>
</g>
<!-- Node24 -->
<g id="node49" class="node"><title>Node24</title>
<a xlink:href="classprt_1_1_occlusion_set.html" target="_top" xlink:title="prt::OcclusionSet">
<polygon fill="none" stroke="black" points="313,-280.5 313,-301.5 405,-301.5 405,-280.5 313,-280.5"/>
<text text-anchor="middle" x="359" y="-288.5" font-family="Helvetica,sans-Serif" font-size="10.00">prt::OcclusionSet</text>
</a>
</g>
<!-- Node16&#45;&gt;Node24 -->
<g id="edge50" class="edge"><title>Node16&#45;&gt;Node24</title>
<path fill="none" stroke="midnightblue" d="M223.813,-321.724C250.383,-315.686 285.103,-307.795 312.703,-301.522"/>
<polygon fill="midnightblue" stroke="midnightblue" points="223.036,-318.312 214.06,-323.941 224.587,-325.138 223.036,-318.312"/>
</g>
<!-- Node25 -->
<g id="node52" class="node"><title>Node25</title>
<a xlink:href="classprt_1_1_resolve_map_builder.html" target="_top" xlink:title="prt::ResolveMapBuilder">
<polygon fill="none" stroke="black" points="299.5,-240.5 299.5,-261.5 418.5,-261.5 418.5,-240.5 299.5,-240.5"/>
<text text-anchor="middle" x="359" y="-248.5" font-family="Helvetica,sans-Serif" font-size="10.00">prt::ResolveMapBuilder</text>
</a>
</g>
<!-- Node16&#45;&gt;Node25 -->
<g id="edge54" class="edge"><title>Node16&#45;&gt;Node25</title>
<path fill="none" stroke="midnightblue" d="M207.23,-314.874C227.969,-301.638 258.988,-283.159 288,-271 296.622,-267.387 306.1,-264.208 315.245,-261.509"/>
<polygon fill="midnightblue" stroke="midnightblue" points="205.233,-311.997 198.738,-320.368 209.036,-317.874 205.233,-311.997"/>
</g>
<!-- Node26 -->
<g id="node54" class="node"><title>Node26</title>
<a xlink:href="classprt_1_1_rule_file_info.html" target="_top" xlink:title="prt::RuleFileInfo">
<polygon fill="none" stroke="black" points="316,-200.5 316,-221.5 402,-221.5 402,-200.5 316,-200.5"/>
<text text-anchor="middle" x="359" y="-208.5" font-family="Helvetica,sans-Serif" font-size="10.00">prt::RuleFileInfo</text>
</a>
</g>
<!-- Node16&#45;&gt;Node26 -->
<g id="edge56" class="edge"><title>Node16&#45;&gt;Node26</title>
<path fill="none" stroke="midnightblue" d="M197.336,-312.697C215.902,-290.216 250.372,-252.434 288,-231 296.568,-226.119 306.405,-222.365 315.973,-219.502"/>
<polygon fill="midnightblue" stroke="midnightblue" points="194.594,-310.522 191.026,-320.498 200.036,-314.925 194.594,-310.522"/>
</g>
<!-- Node22 -->
<g id="node44" class="node"><title>Node22</title>
<a xlink:href="classprtx_1_1_initial_shape.html" target="_top" xlink:title="prtx::InitialShape">
<polygon fill="none" stroke="black" points="468,-360.5 468,-381.5 558,-381.5 558,-360.5 468,-360.5"/>
<text text-anchor="middle" x="513" y="-368.5" font-family="Helvetica,sans-Serif" font-size="10.00">prtx::InitialShape</text>
</a>
</g>
<!-- Node21&#45;&gt;Node22 -->
<g id="edge44" class="edge"><title>Node21&#45;&gt;Node22</title>
<path fill="none" stroke="midnightblue" d="M412.056,-371C430.246,-371 450.416,-371 467.915,-371"/>
<polygon fill="midnightblue" stroke="midnightblue" points="411.898,-367.5 401.898,-371 411.898,-374.5 411.898,-367.5"/>
</g>
</g>
</svg>
