<?xml version="1.0" encoding="UTF-8" standalone="no"?>
<!DOCTYPE svg PUBLIC "-//W3C//DTD SVG 1.1//EN"
 "http://www.w3.org/Graphics/SVG/1.1/DTD/svg11.dtd">
<!-- Generated by graphviz version 2.40.1 (0)
 -->
<!-- Title: Graphical Class Hierarchy Pages: 1 -->
<svg width="531pt" height="94pt"
 viewBox="0.00 0.00 531.00 93.50" xmlns="http://www.w3.org/2000/svg" xmlns:xlink="http://www.w3.org/1999/xlink">
<g id="graph0" class="graph" transform="scale(1 1) rotate(0) translate(4 89.5)">
<title>Graphical Class Hierarchy</title>
<!-- Node0 -->
<g id="node1" class="node">
<title>Node0</title>
<g id="a_node1"><a xlink:href="classprtx_1_1_reports_accumulator.html" target="_top" xlink:title="prtx::ReportsAccumulator">
<polygon fill="none" stroke="#000000" points="0,-19.5 0,-38.5 128,-38.5 128,-19.5 0,-19.5"/>
<text text-anchor="middle" x="64" y="-26.5" font-family="Helvetica,sans-Serif" font-size="10.00" fill="#000000">prtx::ReportsAccumulator</text>
</a>
</g>
</g>
<!-- Node1 -->
<g id="node2" class="node">
<title>Node1</title>
<g id="a_node2"><a xlink:href="classprtx_1_1_appending_reports_accumulator.html" target="_top" xlink:title="prtx::AppendingReportsAccumulator">
<polygon fill="none" stroke="#000000" points="164,-38.5 164,-57.5 338,-57.5 338,-38.5 164,-38.5"/>
<text text-anchor="middle" x="251" y="-45.5" font-family="Helvetica,sans-Serif" font-size="10.00" fill="#000000">prtx::AppendingReportsAccumulator</text>
</a>
</g>
</g>
<!-- Node0&#45;&gt;Node1 -->
<g id="edge1" class="edge">
<title>Node0&#45;&gt;Node1</title>
<path fill="none" stroke="#191970" d="M138.2338,-36.5425C146.6519,-37.3978 155.2877,-38.2752 163.8521,-39.1454"/>
<polygon fill="#191970" stroke="#191970" points="138.3958,-33.041 128.0932,-35.5121 137.6881,-40.0051 138.3958,-33.041"/>
</g>
<!-- Node4 -->
<g id="node5" class="node">
<title>Node4</title>
<g id="a_node5"><a xlink:href="classprtx_1_1_write_first_reports_accumulator.html" target="_top" xlink:title="prtx::WriteFirstReportsAccumulator">
<polygon fill="none" stroke="#000000" points="165.5,-.5 165.5,-19.5 336.5,-19.5 336.5,-.5 165.5,-.5"/>
<text text-anchor="middle" x="251" y="-7.5" font-family="Helvetica,sans-Serif" font-size="10.00" fill="#000000">prtx::WriteFirstReportsAccumulator</text>
</a>
</g>
</g>
<!-- Node0&#45;&gt;Node4 -->
<g id="edge4" class="edge">
<title>Node0&#45;&gt;Node4</title>
<path fill="none" stroke="#191970" d="M138.323,-21.4485C147.1474,-20.5519 156.21,-19.6311 165.1777,-18.7199"/>
<polygon fill="#191970" stroke="#191970" points="137.6881,-17.9949 128.0932,-22.4879 138.3958,-24.959 137.6881,-17.9949"/>
</g>
<!-- Node2 -->
<g id="node3" class="node">
<title>Node2</title>
<g id="a_node3"><a xlink:href="classprtx_1_1_summarizing_reports_accumulator.html" target="_top" xlink:title="prtx::SummarizingReports\lAccumulator">
<polygon fill="none" stroke="#000000" points="383,-55 383,-85 514,-85 514,-55 383,-55"/>
<text text-anchor="start" x="391" y="-73" font-family="Helvetica,sans-Serif" font-size="10.00" fill="#000000">prtx::SummarizingReports</text>
<text text-anchor="middle" x="448.5" y="-62" font-family="Helvetica,sans-Serif" font-size="10.00" fill="#000000">Accumulator</text>
</a>
</g>
</g>
<!-- Node1&#45;&gt;Node2 -->
<g id="edge2" class="edge">
<title>Node1&#45;&gt;Node2</title>
<path fill="none" stroke="#191970" d="M346.7191,-58.6624C358.9482,-60.0246 371.2394,-61.3938 382.8415,-62.6861"/>
<polygon fill="#191970" stroke="#191970" points="346.8037,-55.1502 336.4777,-57.5216 346.0287,-62.1072 346.8037,-55.1502"/>
</g>
<!-- Node3 -->
<g id="node4" class="node">
<title>Node3</title>
<g id="a_node4"><a xlink:href="classprtx_1_1_sum_reports_accumulator.html" target="_top" xlink:title="prtx::SumReportsAccumulator">
<polygon fill="none" stroke="#000000" points="374,-16.5 374,-35.5 523,-35.5 523,-16.5 374,-16.5"/>
<text text-anchor="middle" x="448.5" y="-23.5" font-family="Helvetica,sans-Serif" font-size="10.00" fill="#000000">prtx::SumReportsAccumulator</text>
</a>
</g>
</g>
<!-- Node1&#45;&gt;Node3 -->
<g id="edge3" class="edge">
<title>Node1&#45;&gt;Node3</title>
<path fill="none" stroke="#191970" d="M346.7019,-37.3395C355.785,-36.3277 364.9026,-35.3121 373.7468,-34.3269"/>
<polygon fill="#191970" stroke="#191970" points="346.0287,-33.8928 336.4777,-38.4784 346.8037,-40.8498 346.0287,-33.8928"/>
</g>
</g>
</svg>
