<?xml version="1.0" encoding="UTF-8" standalone="no"?>
<!DOCTYPE svg PUBLIC "-//W3C//DTD SVG 1.1//EN"
 "http://www.w3.org/Graphics/SVG/1.1/DTD/svg11.dtd">
<!-- Generated by graphviz version 2.30.1 (20170916.1124)
 -->
<!-- Title: Graphical Class Hierarchy Pages: 1 -->
<svg width="298pt" height="154pt"
 viewBox="0.00 0.00 298.00 154.00" xmlns="http://www.w3.org/2000/svg" xmlns:xlink="http://www.w3.org/1999/xlink">
<g id="graph0" class="graph" transform="scale(1 1) rotate(0) translate(4 150)">
<title>Graphical Class Hierarchy</title>
<!-- Node1 -->
<g id="node1" class="node"><title>Node1</title>
<g id="a_node1"><a xlink:href="classprtx_1_1_extension_factory.html" target="_top" xlink:title="prtx::ExtensionFactory">
<polygon fill="none" stroke="black" points="0,-66.5 0,-85.5 116,-85.5 116,-66.5 0,-66.5"/>
<text text-anchor="middle" x="58" y="-73.5" font-family="Helvetica,sans-Serif" font-size="10.00">prtx::ExtensionFactory</text>
</a>
</g>
</g>
<!-- Node2 -->
<g id="node2" class="node"><title>Node2</title>
<g id="a_node2"><a xlink:href="classprtx_1_1_decoder_factory.html" target="_top" xlink:title="prtx::DecoderFactory">
<polygon fill="none" stroke="black" points="166.5,-126.5 166.5,-145.5 275.5,-145.5 275.5,-126.5 166.5,-126.5"/>
<text text-anchor="middle" x="221" y="-133.5" font-family="Helvetica,sans-Serif" font-size="10.00">prtx::DecoderFactory</text>
</a>
</g>
</g>
<!-- Node1&#45;&gt;Node2 -->
<g id="edge1" class="edge"><title>Node1&#45;&gt;Node2</title>
<path fill="none" stroke="midnightblue" d="M88.0414,-90.0851C106.168,-98.5534 130.134,-109.17 152,-117 161.694,-120.471 172.347,-123.71 182.287,-126.495"/>
<polygon fill="midnightblue" stroke="midnightblue" points="89.1591,-86.7422 78.6225,-85.6329 86.1676,-93.0708 89.1591,-86.7422"/>
</g>
<!-- Node3 -->
<g id="node3" class="node"><title>Node3</title>
<g id="a_node3"><a xlink:href="classprtx_1_1_encoder_factory.html" target="_top" xlink:title="prtx::EncoderFactory">
<polygon fill="none" stroke="black" points="167,-88.5 167,-107.5 275,-107.5 275,-88.5 167,-88.5"/>
<text text-anchor="middle" x="221" y="-95.5" font-family="Helvetica,sans-Serif" font-size="10.00">prtx::EncoderFactory</text>
</a>
</g>
</g>
<!-- Node1&#45;&gt;Node3 -->
<g id="edge2" class="edge"><title>Node1&#45;&gt;Node3</title>
<path fill="none" stroke="midnightblue" d="M126.39,-85.2085C139.856,-87.0486 153.825,-88.9575 166.735,-90.7216"/>
<polygon fill="midnightblue" stroke="midnightblue" points="126.598,-81.7045 116.216,-83.8183 125.65,-88.6401 126.598,-81.7045"/>
</g>
<!-- Node4 -->
<g id="node4" class="node"><title>Node4</title>
<g id="a_node4"><a xlink:href="classprtx_1_1_resolve_map_provider_factory.html" target="_top" xlink:title="prtx::ResolveMapProvider\lFactory">
<polygon fill="none" stroke="black" points="156,-39 156,-69 286,-69 286,-39 156,-39"/>
<text text-anchor="start" x="164" y="-57" font-family="Helvetica,sans-Serif" font-size="10.00">prtx::ResolveMapProvider</text>
<text text-anchor="middle" x="221" y="-46" font-family="Helvetica,sans-Serif" font-size="10.00">Factory</text>
</a>
</g>
</g>
<!-- Node1&#45;&gt;Node4 -->
<g id="edge3" class="edge"><title>Node1&#45;&gt;Node4</title>
<path fill="none" stroke="midnightblue" d="M126.29,-66.8051C136.073,-65.4682 146.125,-64.0947 155.844,-62.7666"/>
<polygon fill="midnightblue" stroke="midnightblue" points="125.65,-63.3599 116.216,-68.1817 126.598,-70.2955 125.65,-63.3599"/>
</g>
<!-- Node5 -->
<g id="node5" class="node"><title>Node5</title>
<g id="a_node5"><a xlink:href="classprtx_1_1_stream_adaptor_factory.html" target="_top" xlink:title="prtx::StreamAdaptorFactory">
<polygon fill="none" stroke="black" points="152.5,-0.5 152.5,-19.5 289.5,-19.5 289.5,-0.5 152.5,-0.5"/>
<text text-anchor="middle" x="221" y="-7.5" font-family="Helvetica,sans-Serif" font-size="10.00">prtx::StreamAdaptorFactory</text>
</a>
</g>
</g>
<!-- Node1&#45;&gt;Node5 -->
<g id="edge4" class="edge"><title>Node1&#45;&gt;Node5</title>
<path fill="none" stroke="midnightblue" d="M84.9855,-61.6293C103.338,-51.8591 128.714,-39.1042 152,-30 161.971,-26.1017 173.018,-22.5432 183.259,-19.5437"/>
<polygon fill="midnightblue" stroke="midnightblue" points="83.2185,-58.6056 76.0765,-66.4313 86.5399,-64.7675 83.2185,-58.6056"/>
</g>
</g>
</svg>
