<?xml version="1.0" encoding="UTF-8" standalone="no"?>
<!DOCTYPE svg PUBLIC "-//W3C//DTD SVG 1.1//EN"
 "http://www.w3.org/Graphics/SVG/1.1/DTD/svg11.dtd">
<!-- Generated by graphviz version 2.30.1 (20140821.0912)
 -->
<!-- Title: Graphical Class Hierarchy Pages: 1 -->
<svg width="270pt" height="104pt"
 viewBox="0.00 0.00 270.00 104.00" xmlns="http://www.w3.org/2000/svg" xmlns:xlink="http://www.w3.org/1999/xlink">
<g id="graph0" class="graph" transform="scale(1 1) rotate(0) translate(4 100)">
<title>Graphical Class Hierarchy</title>
<!-- Node1 -->
<g id="node1" class="node"><title>Node1</title>
<g id="a_node1"><a xlink:href="classprtx_1_1_extension_factory.html" target="_top" xlink:title="prtx::ExtensionFactory">
<polygon fill="none" stroke="black" points="0,-38.5 0,-57.5 116,-57.5 116,-38.5 0,-38.5"/>
<text text-anchor="middle" x="58" y="-45.5" font-family="Helvetica,sans-Serif" font-size="10.00">prtx::ExtensionFactory</text>
</a>
</g>
</g>
<!-- Node2 -->
<g id="node2" class="node"><title>Node2</title>
<g id="a_node2"><a xlink:href="classprtx_1_1_adaptor_factory.html" target="_top" xlink:title="prtx::AdaptorFactory">
<polygon fill="none" stroke="black" points="154,-76.5 154,-95.5 260,-95.5 260,-76.5 154,-76.5"/>
<text text-anchor="middle" x="207" y="-83.5" font-family="Helvetica,sans-Serif" font-size="10.00">prtx::AdaptorFactory</text>
</a>
</g>
</g>
<!-- Node1&#45;&gt;Node2 -->
<g id="edge1" class="edge"><title>Node1&#45;&gt;Node2</title>
<path fill="none" stroke="midnightblue" d="M105.855,-60.1121C126.328,-65.4044 149.99,-71.5213 169.172,-76.4799"/>
<polygon fill="midnightblue" stroke="midnightblue" points="106.652,-56.7032 96.0943,-57.589 104.9,-63.4805 106.652,-56.7032"/>
</g>
<!-- Node3 -->
<g id="node3" class="node"><title>Node3</title>
<g id="a_node3"><a xlink:href="classprtx_1_1_decoder_factory.html" target="_top" xlink:title="prtx::DecoderFactory">
<polygon fill="none" stroke="black" points="152.5,-38.5 152.5,-57.5 261.5,-57.5 261.5,-38.5 152.5,-38.5"/>
<text text-anchor="middle" x="207" y="-45.5" font-family="Helvetica,sans-Serif" font-size="10.00">prtx::DecoderFactory</text>
</a>
</g>
</g>
<!-- Node1&#45;&gt;Node3 -->
<g id="edge2" class="edge"><title>Node1&#45;&gt;Node3</title>
<path fill="none" stroke="midnightblue" d="M126.296,-48C134.919,-48 143.656,-48 152.029,-48"/>
<polygon fill="midnightblue" stroke="midnightblue" points="126.255,-44.5001 116.255,-48 126.255,-51.5001 126.255,-44.5001"/>
</g>
<!-- Node4 -->
<g id="node4" class="node"><title>Node4</title>
<g id="a_node4"><a xlink:href="classprtx_1_1_encoder_factory.html" target="_top" xlink:title="prtx::EncoderFactory">
<polygon fill="none" stroke="black" points="153,-0.5 153,-19.5 261,-19.5 261,-0.5 153,-0.5"/>
<text text-anchor="middle" x="207" y="-7.5" font-family="Helvetica,sans-Serif" font-size="10.00">prtx::EncoderFactory</text>
</a>
</g>
</g>
<!-- Node1&#45;&gt;Node4 -->
<g id="edge3" class="edge"><title>Node1&#45;&gt;Node4</title>
<path fill="none" stroke="midnightblue" d="M105.855,-35.8879C126.328,-30.5956 149.99,-24.4787 169.172,-19.5201"/>
<polygon fill="midnightblue" stroke="midnightblue" points="104.9,-32.5195 96.0943,-38.411 106.652,-39.2968 104.9,-32.5195"/>
</g>
</g>
</svg>
