<?xml version="1.0" encoding="UTF-8" standalone="no"?>
<!DOCTYPE svg PUBLIC "-//W3C//DTD SVG 1.1//EN"
 "http://www.w3.org/Graphics/SVG/1.1/DTD/svg11.dtd">
<!-- Generated by graphviz version 2.40.1 (0)
 -->
<!-- Title: Graphical Class Hierarchy Pages: 1 -->
<svg width="283pt" height="294pt"
 viewBox="0.00 0.00 283.00 294.00" xmlns="http://www.w3.org/2000/svg" xmlns:xlink="http://www.w3.org/1999/xlink">
<g id="graph0" class="graph" transform="scale(1 1) rotate(0) translate(4 290)">
<title>Graphical Class Hierarchy</title>
<!-- Node0 -->
<g id="node1" class="node">
<title>Node0</title>
<g id="a_node1"><a xlink:href="classprtx_1_1_shape_iterator.html" target="_top" xlink:title="prtx::ShapeIterator">
<polygon fill="none" stroke="#000000" points="0,-133.5 0,-152.5 98,-152.5 98,-133.5 0,-133.5"/>
<text text-anchor="middle" x="49" y="-140.5" font-family="Helvetica,sans-Serif" font-size="10.00" fill="#000000">prtx::ShapeIterator</text>
</a>
</g>
</g>
<!-- Node1 -->
<g id="node2" class="node">
<title>Node1</title>
<g id="a_node2"><a xlink:href="classprtx_1_1_breadth_first_iterator.html" target="_top" xlink:title="prtx::BreadthFirstIterator">
<polygon fill="none" stroke="#000000" points="143,-266.5 143,-285.5 266,-285.5 266,-266.5 143,-266.5"/>
<text text-anchor="middle" x="204.5" y="-273.5" font-family="Helvetica,sans-Serif" font-size="10.00" fill="#000000">prtx::BreadthFirstIterator</text>
</a>
</g>
</g>
<!-- Node0&#45;&gt;Node1 -->
<g id="edge1" class="edge">
<title>Node0&#45;&gt;Node1</title>
<path fill="none" stroke="#191970" d="M57.8625,-161.6617C70.9224,-187.1221 97.7626,-232.3849 134,-257 139.7672,-260.9175 146.3105,-264.0287 153.0301,-266.4993"/>
<polygon fill="#191970" stroke="#191970" points="60.9789,-160.0678 53.4004,-152.664 54.7077,-163.1779 60.9789,-160.0678"/>
</g>
<!-- Node2 -->
<g id="node3" class="node">
<title>Node2</title>
<g id="a_node3"><a xlink:href="classprtx_1_1_c_g_a_error_iterator.html" target="_top" xlink:title="prtx::CGAErrorIterator">
<polygon fill="none" stroke="#000000" points="148,-228.5 148,-247.5 261,-247.5 261,-228.5 148,-228.5"/>
<text text-anchor="middle" x="204.5" y="-235.5" font-family="Helvetica,sans-Serif" font-size="10.00" fill="#000000">prtx::CGAErrorIterator</text>
</a>
</g>
</g>
<!-- Node0&#45;&gt;Node2 -->
<g id="edge2" class="edge">
<title>Node0&#45;&gt;Node2</title>
<path fill="none" stroke="#191970" d="M63.9381,-160.4553C79.6788,-177.771 106.0277,-203.8491 134,-219 141.1336,-222.8639 149.1067,-225.9833 157.0536,-228.489"/>
<polygon fill="#191970" stroke="#191970" points="66.3553,-157.9058 57.1024,-152.7449 61.1174,-162.5496 66.3553,-157.9058"/>
</g>
<!-- Node3 -->
<g id="node4" class="node">
<title>Node3</title>
<g id="a_node4"><a xlink:href="classprtx_1_1_c_g_a_print_iterator.html" target="_top" xlink:title="prtx::CGAPrintIterator">
<polygon fill="none" stroke="#000000" points="148.5,-190.5 148.5,-209.5 260.5,-209.5 260.5,-190.5 148.5,-190.5"/>
<text text-anchor="middle" x="204.5" y="-197.5" font-family="Helvetica,sans-Serif" font-size="10.00" fill="#000000">prtx::CGAPrintIterator</text>
</a>
</g>
</g>
<!-- Node0&#45;&gt;Node3 -->
<g id="edge3" class="edge">
<title>Node0&#45;&gt;Node3</title>
<path fill="none" stroke="#191970" d="M77.6995,-157.1865C93.9616,-164.8791 114.8302,-174.1795 134,-181 143.7932,-184.4843 154.5459,-187.6859 164.6387,-190.4284"/>
<polygon fill="#191970" stroke="#191970" points="78.7558,-153.8113 68.2257,-152.641 75.7277,-160.1224 78.7558,-153.8113"/>
</g>
<!-- Node4 -->
<g id="node5" class="node">
<title>Node4</title>
<g id="a_node5"><a xlink:href="classprtx_1_1_c_g_a_report_iterator.html" target="_top" xlink:title="prtx::CGAReportIterator">
<polygon fill="none" stroke="#000000" points="144,-152.5 144,-171.5 265,-171.5 265,-152.5 144,-152.5"/>
<text text-anchor="middle" x="204.5" y="-159.5" font-family="Helvetica,sans-Serif" font-size="10.00" fill="#000000">prtx::CGAReportIterator</text>
</a>
</g>
</g>
<!-- Node0&#45;&gt;Node4 -->
<g id="edge4" class="edge">
<title>Node0&#45;&gt;Node4</title>
<path fill="none" stroke="#191970" d="M108.2675,-150.2417C119.9271,-151.6663 132.1753,-153.1629 143.8787,-154.5929"/>
<polygon fill="#191970" stroke="#191970" points="108.5519,-146.7505 98.2012,-149.0117 107.7028,-153.6988 108.5519,-146.7505"/>
</g>
<!-- Node5 -->
<g id="node6" class="node">
<title>Node5</title>
<g id="a_node6"><a xlink:href="classprtx_1_1_depth_first_iterator.html" target="_top" xlink:title="prtx::DepthFirstIterator">
<polygon fill="none" stroke="#000000" points="146.5,-114.5 146.5,-133.5 262.5,-133.5 262.5,-114.5 146.5,-114.5"/>
<text text-anchor="middle" x="204.5" y="-121.5" font-family="Helvetica,sans-Serif" font-size="10.00" fill="#000000">prtx::DepthFirstIterator</text>
</a>
</g>
</g>
<!-- Node0&#45;&gt;Node5 -->
<g id="edge5" class="edge">
<title>Node0&#45;&gt;Node5</title>
<path fill="none" stroke="#191970" d="M108.4604,-135.7347C120.895,-134.2154 133.9912,-132.6152 146.3764,-131.1019"/>
<polygon fill="#191970" stroke="#191970" points="107.7028,-132.3012 98.2012,-136.9883 108.5519,-139.2495 107.7028,-132.3012"/>
</g>
<!-- Node6 -->
<g id="node7" class="node">
<title>Node6</title>
<g id="a_node7"><a xlink:href="classprtx_1_1_initial_shape_iterator.html" target="_top" xlink:title="prtx::InitialShapeIterator">
<polygon fill="none" stroke="#000000" points="144,-76.5 144,-95.5 265,-95.5 265,-76.5 144,-76.5"/>
<text text-anchor="middle" x="204.5" y="-83.5" font-family="Helvetica,sans-Serif" font-size="10.00" fill="#000000">prtx::InitialShapeIterator</text>
</a>
</g>
</g>
<!-- Node0&#45;&gt;Node6 -->
<g id="edge6" class="edge">
<title>Node0&#45;&gt;Node6</title>
<path fill="none" stroke="#191970" d="M77.6995,-128.8135C93.9616,-121.1209 114.8302,-111.8205 134,-105 143.7932,-101.5157 154.5459,-98.3141 164.6387,-95.5716"/>
<polygon fill="#191970" stroke="#191970" points="75.7277,-125.8776 68.2257,-133.359 78.7558,-132.1887 75.7277,-125.8776"/>
</g>
<!-- Node7 -->
<g id="node8" class="node">
<title>Node7</title>
<g id="a_node8"><a xlink:href="classprtx_1_1_leaf_iterator.html" target="_top" xlink:title="prtx::LeafIterator">
<polygon fill="none" stroke="#000000" points="160,-38.5 160,-57.5 249,-57.5 249,-38.5 160,-38.5"/>
<text text-anchor="middle" x="204.5" y="-45.5" font-family="Helvetica,sans-Serif" font-size="10.00" fill="#000000">prtx::LeafIterator</text>
</a>
</g>
</g>
<!-- Node0&#45;&gt;Node7 -->
<g id="edge7" class="edge">
<title>Node0&#45;&gt;Node7</title>
<path fill="none" stroke="#191970" d="M63.9381,-125.5447C79.6788,-108.229 106.0277,-82.1509 134,-67 141.9139,-62.7135 150.8608,-59.3432 159.6591,-56.7107"/>
<polygon fill="#191970" stroke="#191970" points="61.1174,-123.4504 57.1024,-133.2551 66.3553,-128.0942 61.1174,-123.4504"/>
</g>
<!-- Node8 -->
<g id="node9" class="node">
<title>Node8</title>
<g id="a_node9"><a xlink:href="classprtx_1_1_selected_shapes_iterator.html" target="_top" xlink:title="prtx::SelectedShapesIterator">
<polygon fill="none" stroke="#000000" points="134,-.5 134,-19.5 275,-19.5 275,-.5 134,-.5"/>
<text text-anchor="middle" x="204.5" y="-7.5" font-family="Helvetica,sans-Serif" font-size="10.00" fill="#000000">prtx::SelectedShapesIterator</text>
</a>
</g>
</g>
<!-- Node0&#45;&gt;Node8 -->
<g id="edge8" class="edge">
<title>Node0&#45;&gt;Node8</title>
<path fill="none" stroke="#191970" d="M57.8625,-124.3383C70.9224,-98.8779 97.7626,-53.6151 134,-29 139.7672,-25.0825 146.3105,-21.9713 153.0301,-19.5007"/>
<polygon fill="#191970" stroke="#191970" points="54.7077,-122.8221 53.4004,-133.336 60.9789,-125.9322 54.7077,-122.8221"/>
</g>
</g>
</svg>
