<?xml version="1.0" encoding="UTF-8" standalone="no"?>
<!DOCTYPE svg PUBLIC "-//W3C//DTD SVG 1.1//EN"
 "http://www.w3.org/Graphics/SVG/1.1/DTD/svg11.dtd">
<!-- Generated by graphviz version 2.30.1 (20170916.1124)
 -->
<!-- Title: Graphical Class Hierarchy Pages: 1 -->
<svg width="476pt" height="175pt"
 viewBox="0.00 0.00 476.00 175.00" xmlns="http://www.w3.org/2000/svg" xmlns:xlink="http://www.w3.org/1999/xlink">
<g id="graph0" class="graph" transform="scale(1 1) rotate(0) translate(4 171)">
<title>Graphical Class Hierarchy</title>
<!-- Node1 -->
<g id="node1" class="node"><title>Node1</title>
<g id="a_node1"><a xlink:href="classprtx_1_1_attributable_setter.html" target="_top" xlink:title="prtx::AttributableSetter">
<polygon fill="none" stroke="black" points="190.5,-98.5 190.5,-117.5 305.5,-117.5 305.5,-98.5 190.5,-98.5"/>
<text text-anchor="middle" x="248" y="-105.5" font-family="Helvetica,sans-Serif" font-size="10.00">prtx::AttributableSetter</text>
</a>
</g>
</g>
<!-- Node2 -->
<g id="node2" class="node"><title>Node2</title>
<g id="a_node2"><a xlink:href="classprtx_1_1_geometry_builder.html" target="_top" xlink:title="prtx::GeometryBuilder">
<polygon fill="none" stroke="black" points="356,-139.5 356,-158.5 468,-158.5 468,-139.5 356,-139.5"/>
<text text-anchor="middle" x="412" y="-146.5" font-family="Helvetica,sans-Serif" font-size="10.00">prtx::GeometryBuilder</text>
</a>
</g>
</g>
<!-- Node1&#45;&gt;Node2 -->
<g id="edge1" class="edge"><title>Node1&#45;&gt;Node2</title>
<path fill="none" stroke="midnightblue" d="M296.392,-119.994C320.907,-126.199 350.415,-133.667 373.35,-139.471"/>
<polygon fill="midnightblue" stroke="midnightblue" points="297.126,-116.57 286.573,-117.509 295.409,-123.356 297.126,-116.57"/>
</g>
<!-- Node3 -->
<g id="node3" class="node"><title>Node3</title>
<g id="a_node3"><a xlink:href="classprtx_1_1_material_builder.html" target="_top" xlink:title="prtx::MaterialBuilder">
<polygon fill="none" stroke="black" points="360,-54.5 360,-73.5 464,-73.5 464,-54.5 360,-54.5"/>
<text text-anchor="middle" x="412" y="-61.5" font-family="Helvetica,sans-Serif" font-size="10.00">prtx::MaterialBuilder</text>
</a>
</g>
</g>
<!-- Node1&#45;&gt;Node3 -->
<g id="edge2" class="edge"><title>Node1&#45;&gt;Node3</title>
<path fill="none" stroke="midnightblue" d="M294.094,-95.7522C319.958,-88.7276 351.944,-80.04 375.917,-73.5287"/>
<polygon fill="midnightblue" stroke="midnightblue" points="292.885,-92.4539 284.152,-98.4527 294.719,-99.2091 292.885,-92.4539"/>
</g>
<!-- Node4 -->
<g id="node4" class="node"><title>Node4</title>
<g id="a_node4"><a xlink:href="classprtx_1_1_texture_builder.html" target="_top" xlink:title="prtx::TextureBuilder">
<polygon fill="none" stroke="black" points="361,-98.5 361,-117.5 463,-117.5 463,-98.5 361,-98.5"/>
<text text-anchor="middle" x="412" y="-105.5" font-family="Helvetica,sans-Serif" font-size="10.00">prtx::TextureBuilder</text>
</a>
</g>
</g>
<!-- Node1&#45;&gt;Node4 -->
<g id="edge3" class="edge"><title>Node1&#45;&gt;Node4</title>
<path fill="none" stroke="midnightblue" d="M315.93,-108C330.957,-108 346.65,-108 360.855,-108"/>
<polygon fill="midnightblue" stroke="midnightblue" points="315.66,-104.5 305.66,-108 315.66,-111.5 315.66,-104.5"/>
</g>
<!-- Node5 -->
<g id="node5" class="node"><title>Node5</title>
<g id="a_node5"><a xlink:href="classprtx_1_1_builtin_attributes_setters.html" target="_top" xlink:title="prtx::BuiltinAttributesSetters">
<polygon fill="none" stroke="black" points="0,-54.5 0,-73.5 140,-73.5 140,-54.5 0,-54.5"/>
<text text-anchor="middle" x="70" y="-61.5" font-family="Helvetica,sans-Serif" font-size="10.00">prtx::BuiltinAttributesSetters</text>
</a>
</g>
</g>
<!-- Node6 -->
<g id="node6" class="node"><title>Node6</title>
<g id="a_node6"><a xlink:href="classprtx_1_1_builtin_material_attributes_builder.html" target="_top" xlink:title="prtx::BuiltinMaterialAttributes\lBuilder">
<polygon fill="none" stroke="black" points="176.5,-49 176.5,-79 319.5,-79 319.5,-49 176.5,-49"/>
<text text-anchor="start" x="184.5" y="-67" font-family="Helvetica,sans-Serif" font-size="10.00">prtx::BuiltinMaterialAttributes</text>
<text text-anchor="middle" x="248" y="-56" font-family="Helvetica,sans-Serif" font-size="10.00">Builder</text>
</a>
</g>
</g>
<!-- Node5&#45;&gt;Node6 -->
<g id="edge4" class="edge"><title>Node5&#45;&gt;Node6</title>
<path fill="none" stroke="midnightblue" d="M150.226,-64C158.953,-64 167.796,-64 176.408,-64"/>
<polygon fill="midnightblue" stroke="midnightblue" points="150.055,-60.5001 140.055,-64 150.055,-67.5001 150.055,-60.5001"/>
</g>
<!-- Node6&#45;&gt;Node3 -->
<g id="edge5" class="edge"><title>Node6&#45;&gt;Node3</title>
<path fill="none" stroke="midnightblue" d="M329.738,-64C339.917,-64 350.101,-64 359.648,-64"/>
<polygon fill="midnightblue" stroke="midnightblue" points="329.584,-60.5001 319.584,-64 329.584,-67.5001 329.584,-60.5001"/>
</g>
<!-- Node7 -->
<g id="node7" class="node"><title>Node7</title>
<g id="a_node7"><a xlink:href="classprtx_1_1_shared_ptr_builder.html" target="_top" xlink:title="prtx::SharedPtrBuilder\l\&lt; Geometry \&gt;">
<polygon fill="none" stroke="black" points="191.5,-137 191.5,-167 304.5,-167 304.5,-137 191.5,-137"/>
<text text-anchor="start" x="199.5" y="-155" font-family="Helvetica,sans-Serif" font-size="10.00">prtx::SharedPtrBuilder</text>
<text text-anchor="middle" x="248" y="-144" font-family="Helvetica,sans-Serif" font-size="10.00">&lt; Geometry &gt;</text>
</a>
</g>
</g>
<!-- Node7&#45;&gt;Node2 -->
<g id="edge6" class="edge"><title>Node7&#45;&gt;Node2</title>
<path fill="none" stroke="midnightblue" d="M315.013,-150.778C328.617,-150.526 342.804,-150.263 355.969,-150.019"/>
<polygon fill="midnightblue" stroke="midnightblue" points="314.685,-147.283 304.751,-150.968 314.814,-154.282 314.685,-147.283"/>
</g>
<!-- Node8 -->
<g id="node8" class="node"><title>Node8</title>
<g id="a_node8"><a xlink:href="classprtx_1_1_shared_ptr_builder.html" target="_top" xlink:title="prtx::SharedPtrBuilder\l\&lt; Material \&gt;">
<polygon fill="none" stroke="black" points="191.5,-0 191.5,-30 304.5,-30 304.5,-0 191.5,-0"/>
<text text-anchor="start" x="199.5" y="-18" font-family="Helvetica,sans-Serif" font-size="10.00">prtx::SharedPtrBuilder</text>
<text text-anchor="middle" x="248" y="-7" font-family="Helvetica,sans-Serif" font-size="10.00">&lt; Material &gt;</text>
</a>
</g>
</g>
<!-- Node8&#45;&gt;Node3 -->
<g id="edge7" class="edge"><title>Node8&#45;&gt;Node3</title>
<path fill="none" stroke="midnightblue" d="M308.652,-33.043C332.609,-40.2891 359.248,-48.3467 379.343,-54.4246"/>
<polygon fill="midnightblue" stroke="midnightblue" points="309.512,-29.6466 298.927,-30.1014 307.486,-36.3468 309.512,-29.6466"/>
</g>
</g>
</svg>
