<?xml version="1.0" encoding="UTF-8" standalone="no"?>
<!DOCTYPE svg PUBLIC "-//W3C//DTD SVG 1.1//EN"
 "http://www.w3.org/Graphics/SVG/1.1/DTD/svg11.dtd">
<!-- Generated by graphviz version 2.26.0 (20091210.2329)
 -->
<!-- Title: Graphical Class Hierarchy Pages: 1 -->
<svg width="686pt" height="1052pt"
 viewBox="0.00 0.00 686.00 1052.00" xmlns="http://www.w3.org/2000/svg" xmlns:xlink="http://www.w3.org/1999/xlink">
<g id="graph1" class="graph" transform="scale(1 1) rotate(0) translate(4 1048)">
<title>Graphical Class Hierarchy</title>
<!-- Node1 -->
<g id="node1" class="node"><title>Node1</title>
<a xlink:href="classprtx_1_1_attributable.html" target="_top" xlink:title="prtx::Attributable">
<polygon fill="none" stroke="black" points="378.5,-800.5 378.5,-821.5 467.5,-821.5 467.5,-800.5 378.5,-800.5"/>
<text text-anchor="middle" x="423" y="-808.5" font-family="Helvetica,sans-Serif" font-size="10.00">prtx::Attributable</text>
</a>
</g>
<!-- Node2 -->
<g id="node3" class="node"><title>Node2</title>
<a xlink:href="classprtx_1_1_geometry.html" target="_top" xlink:title="prtx::Geometry">
<polygon fill="none" stroke="black" points="571,-761.5 571,-782.5 653,-782.5 653,-761.5 571,-761.5"/>
<text text-anchor="middle" x="612" y="-769.5" font-family="Helvetica,sans-Serif" font-size="10.00">prtx::Geometry</text>
</a>
</g>
<!-- Node1&#45;&gt;Node2 -->
<g id="edge2" class="edge"><title>Node1&#45;&gt;Node2</title>
<path fill="none" stroke="midnightblue" d="M477.594,-799.735C507.294,-793.606 543.437,-786.148 570.76,-780.51"/>
<polygon fill="midnightblue" stroke="midnightblue" points="476.877,-796.309 467.79,-801.758 478.291,-803.164 476.877,-796.309"/>
</g>
<!-- Node3 -->
<g id="node5" class="node"><title>Node3</title>
<a xlink:href="classprtx_1_1_material.html" target="_top" xlink:title="prtx::Material">
<polygon fill="none" stroke="black" points="575,-801.5 575,-822.5 649,-822.5 649,-801.5 575,-801.5"/>
<text text-anchor="middle" x="612" y="-809.5" font-family="Helvetica,sans-Serif" font-size="10.00">prtx::Material</text>
</a>
</g>
<!-- Node1&#45;&gt;Node3 -->
<g id="edge4" class="edge"><title>Node1&#45;&gt;Node3</title>
<path fill="none" stroke="midnightblue" d="M478.052,-811.291C509.171,-811.456 547.247,-811.657 574.838,-811.803"/>
<polygon fill="midnightblue" stroke="midnightblue" points="477.809,-807.79 467.79,-811.237 477.772,-814.79 477.809,-807.79"/>
</g>
<!-- Node4 -->
<g id="node7" class="node"><title>Node4</title>
<a xlink:href="classprtx_1_1_shape.html" target="_top" xlink:title="prtx::Shape">
<polygon fill="none" stroke="black" points="578.5,-860.5 578.5,-881.5 645.5,-881.5 645.5,-860.5 578.5,-860.5"/>
<text text-anchor="middle" x="612" y="-868.5" font-family="Helvetica,sans-Serif" font-size="10.00">prtx::Shape</text>
</a>
</g>
<!-- Node1&#45;&gt;Node4 -->
<g id="edge6" class="edge"><title>Node1&#45;&gt;Node4</title>
<path fill="none" stroke="midnightblue" d="M477.426,-822.208C488.294,-824.811 499.571,-827.776 510,-831 537.259,-839.427 567.593,-851.712 588.039,-860.44"/>
<polygon fill="midnightblue" stroke="midnightblue" points="478.129,-818.779 467.596,-819.922 476.543,-825.597 478.129,-818.779"/>
</g>
<!-- Node5 -->
<g id="node9" class="node"><title>Node5</title>
<a xlink:href="classprtx_1_1_texture.html" target="_top" xlink:title="prtx::Texture">
<polygon fill="none" stroke="black" points="576,-701.5 576,-722.5 648,-722.5 648,-701.5 576,-701.5"/>
<text text-anchor="middle" x="612" y="-709.5" font-family="Helvetica,sans-Serif" font-size="10.00">prtx::Texture</text>
</a>
</g>
<!-- Node1&#45;&gt;Node5 -->
<g id="edge8" class="edge"><title>Node1&#45;&gt;Node5</title>
<path fill="none" stroke="midnightblue" d="M452.441,-795.579C491.243,-775.254 558.482,-740.033 591.919,-722.519"/>
<polygon fill="midnightblue" stroke="midnightblue" points="450.461,-792.665 443.226,-800.405 453.709,-798.866 450.461,-792.665"/>
</g>
<!-- Node6 -->
<g id="node10" class="node"><title>Node6</title>
<a xlink:href="classprtx_1_1_attributable_setter.html" target="_top" xlink:title="prtx::AttributableSetter">
<polygon fill="none" stroke="black" points="0.5,-774.5 0.5,-795.5 115.5,-795.5 115.5,-774.5 0.5,-774.5"/>
<text text-anchor="middle" x="58" y="-782.5" font-family="Helvetica,sans-Serif" font-size="10.00">prtx::AttributableSetter</text>
</a>
</g>
<!-- Node7 -->
<g id="node12" class="node"><title>Node7</title>
<a xlink:href="classprtx_1_1_geometry_builder.html" target="_top" xlink:title="prtx::GeometryBuilder">
<polygon fill="none" stroke="black" points="170,-817.5 170,-838.5 282,-838.5 282,-817.5 170,-817.5"/>
<text text-anchor="middle" x="226" y="-825.5" font-family="Helvetica,sans-Serif" font-size="10.00">prtx::GeometryBuilder</text>
</a>
</g>
<!-- Node6&#45;&gt;Node7 -->
<g id="edge10" class="edge"><title>Node6&#45;&gt;Node7</title>
<path fill="none" stroke="midnightblue" d="M108.859,-798.017C133.147,-804.234 161.837,-811.577 184.745,-817.441"/>
<polygon fill="midnightblue" stroke="midnightblue" points="109.653,-794.608 99.0974,-795.519 107.917,-801.389 109.653,-794.608"/>
</g>
<!-- Node8 -->
<g id="node14" class="node"><title>Node8</title>
<a xlink:href="classprtx_1_1_material_builder.html" target="_top" xlink:title="prtx::MaterialBuilder">
<polygon fill="none" stroke="black" points="560,-971.5 560,-992.5 664,-992.5 664,-971.5 560,-971.5"/>
<text text-anchor="middle" x="612" y="-979.5" font-family="Helvetica,sans-Serif" font-size="10.00">prtx::MaterialBuilder</text>
</a>
</g>
<!-- Node6&#45;&gt;Node8 -->
<g id="edge12" class="edge"><title>Node6&#45;&gt;Node8</title>
<path fill="none" stroke="midnightblue" d="M111.386,-800.973C113.017,-802.217 114.563,-803.556 116,-805 151.099,-840.263 115.916,-876.745 152,-911 263.934,-1017.26 464.903,-1004.48 559.742,-991.144"/>
<polygon fill="midnightblue" stroke="midnightblue" points="112.978,-797.842 102.639,-795.528 109.279,-803.785 112.978,-797.842"/>
</g>
<!-- Node9 -->
<g id="node16" class="node"><title>Node9</title>
<a xlink:href="classprtx_1_1_texture_builder.html" target="_top" xlink:title="prtx::TextureBuilder">
<polygon fill="none" stroke="black" points="175,-748.5 175,-769.5 277,-769.5 277,-748.5 175,-748.5"/>
<text text-anchor="middle" x="226" y="-756.5" font-family="Helvetica,sans-Serif" font-size="10.00">prtx::TextureBuilder</text>
</a>
</g>
<!-- Node6&#45;&gt;Node9 -->
<g id="edge14" class="edge"><title>Node6&#45;&gt;Node9</title>
<path fill="none" stroke="midnightblue" d="M125.858,-774.498C142.199,-771.969 159.387,-769.309 174.821,-766.921"/>
<polygon fill="midnightblue" stroke="midnightblue" points="125.163,-771.064 115.816,-776.052 126.234,-777.982 125.163,-771.064"/>
</g>
<!-- Node10 -->
<g id="node17" class="node"><title>Node10</title>
<a xlink:href="classprtx_1_1_builtin_attributes.html" target="_top" xlink:title="prtx::BuiltinAttributes">
<polygon fill="none" stroke="black" points="4,-899.5 4,-920.5 112,-920.5 112,-899.5 4,-899.5"/>
<text text-anchor="middle" x="58" y="-907.5" font-family="Helvetica,sans-Serif" font-size="10.00">prtx::BuiltinAttributes</text>
</a>
</g>
<!-- Node11 -->
<g id="node19" class="node"><title>Node11</title>
<a xlink:href="classprtx_1_1_builtin_attributes_getters.html" target="_top" xlink:title="prtx::BuiltinAttributesGetters">
<polygon fill="none" stroke="black" points="156,-880.5 156,-901.5 296,-901.5 296,-880.5 156,-880.5"/>
<text text-anchor="middle" x="226" y="-888.5" font-family="Helvetica,sans-Serif" font-size="10.00">prtx::BuiltinAttributesGetters</text>
</a>
</g>
<!-- Node10&#45;&gt;Node11 -->
<g id="edge16" class="edge"><title>Node10&#45;&gt;Node11</title>
<path fill="none" stroke="midnightblue" d="M122.044,-902.757C133.068,-901.51 144.578,-900.208 155.755,-898.944"/>
<polygon fill="midnightblue" stroke="midnightblue" points="121.624,-899.282 112.081,-903.884 122.411,-906.238 121.624,-899.282"/>
</g>
<!-- Node14 -->
<g id="node27" class="node"><title>Node14</title>
<a xlink:href="classprtx_1_1_builtin_attributes_setters.html" target="_top" xlink:title="prtx::BuiltinAttributesSetters">
<polygon fill="none" stroke="black" points="156,-1013.5 156,-1034.5 296,-1034.5 296,-1013.5 156,-1013.5"/>
<text text-anchor="middle" x="226" y="-1021.5" font-family="Helvetica,sans-Serif" font-size="10.00">prtx::BuiltinAttributesSetters</text>
</a>
</g>
<!-- Node10&#45;&gt;Node14 -->
<g id="edge26" class="edge"><title>Node10&#45;&gt;Node14</title>
<path fill="none" stroke="midnightblue" d="M73.8428,-928.106C91.35,-947.185 121.171,-977.041 152,-996 163.701,-1003.2 177.552,-1009.04 190.088,-1013.5"/>
<polygon fill="midnightblue" stroke="midnightblue" points="76.4209,-925.739 67.1266,-920.653 71.2207,-930.425 76.4209,-925.739"/>
</g>
<!-- Node12 -->
<g id="node21" class="node"><title>Node12</title>
<a xlink:href="classprtx_1_1_builtin_material_attributes.html" target="_top" xlink:title="prtx::BuiltinMaterialAttributes">
<polygon fill="none" stroke="black" points="351.5,-840.5 351.5,-861.5 494.5,-861.5 494.5,-840.5 351.5,-840.5"/>
<text text-anchor="middle" x="423" y="-848.5" font-family="Helvetica,sans-Serif" font-size="10.00">prtx::BuiltinMaterialAttributes</text>
</a>
</g>
<!-- Node11&#45;&gt;Node12 -->
<g id="edge18" class="edge"><title>Node11&#45;&gt;Node12</title>
<path fill="none" stroke="midnightblue" d="M287.809,-878.45C314.623,-873.005 345.671,-866.701 371.245,-861.509"/>
<polygon fill="midnightblue" stroke="midnightblue" points="286.863,-875.071 277.759,-880.49 288.256,-881.931 286.863,-875.071"/>
</g>
<!-- Node13 -->
<g id="node24" class="node"><title>Node13</title>
<a xlink:href="classprtx_1_1_builtin_shape_attributes.html" target="_top" xlink:title="prtx::BuiltinShapeAttributes">
<polygon fill="none" stroke="black" points="355,-880.5 355,-901.5 491,-901.5 491,-880.5 355,-880.5"/>
<text text-anchor="middle" x="423" y="-888.5" font-family="Helvetica,sans-Serif" font-size="10.00">prtx::BuiltinShapeAttributes</text>
</a>
</g>
<!-- Node11&#45;&gt;Node13 -->
<g id="edge22" class="edge"><title>Node11&#45;&gt;Node13</title>
<path fill="none" stroke="midnightblue" d="M306.456,-891C322.528,-891 339.262,-891 354.87,-891"/>
<polygon fill="midnightblue" stroke="midnightblue" points="306.01,-887.5 296.01,-891 306.009,-894.5 306.01,-887.5"/>
</g>
<!-- Node12&#45;&gt;Node3 -->
<g id="edge20" class="edge"><title>Node12&#45;&gt;Node3</title>
<path fill="none" stroke="midnightblue" d="M484.077,-838.397C514.003,-832.222 549.062,-824.987 574.902,-819.655"/>
<polygon fill="midnightblue" stroke="midnightblue" points="483.232,-834.997 474.146,-840.446 484.647,-841.853 483.232,-834.997"/>
</g>
<!-- Node13&#45;&gt;Node4 -->
<g id="edge24" class="edge"><title>Node13&#45;&gt;Node4</title>
<path fill="none" stroke="midnightblue" d="M501.42,-882.702C528.275,-879.86 556.916,-876.829 578.32,-874.564"/>
<polygon fill="midnightblue" stroke="midnightblue" points="500.809,-879.247 491.233,-883.78 501.546,-886.208 500.809,-879.247"/>
</g>
<!-- Node15 -->
<g id="node29" class="node"><title>Node15</title>
<a xlink:href="classprtx_1_1_builtin_material_attributes_builder.html" target="_top" xlink:title="prtx::BuiltinMaterialAttributes\lBuilder">
<polygon fill="none" stroke="black" points="351.5,-1010 351.5,-1044 494.5,-1044 494.5,-1010 351.5,-1010"/>
<text text-anchor="start" x="359.5" y="-1031" font-family="Helvetica,sans-Serif" font-size="10.00">prtx::BuiltinMaterialAttributes</text>
<text text-anchor="middle" x="423" y="-1018" font-family="Helvetica,sans-Serif" font-size="10.00">Builder</text>
</a>
</g>
<!-- Node14&#45;&gt;Node15 -->
<g id="edge28" class="edge"><title>Node14&#45;&gt;Node15</title>
<path fill="none" stroke="midnightblue" d="M306.215,-1025.22C321.115,-1025.45 336.593,-1025.68 351.221,-1025.91"/>
<polygon fill="midnightblue" stroke="midnightblue" points="306.062,-1021.72 296.01,-1025.07 305.955,-1028.72 306.062,-1021.72"/>
</g>
<!-- Node15&#45;&gt;Node8 -->
<g id="edge30" class="edge"><title>Node15&#45;&gt;Node8</title>
<path fill="none" stroke="midnightblue" d="M504.383,-1007.62C526.179,-1002.43 548.925,-997.018 567.859,-992.51"/>
<polygon fill="midnightblue" stroke="midnightblue" points="503.37,-1004.27 494.453,-1009.99 504.992,-1011.08 503.37,-1004.27"/>
</g>
<!-- Node16 -->
<g id="node31" class="node"><title>Node16</title>
<polygon fill="none" stroke="#bfbfbf" points="22.5,-338.5 22.5,-359.5 93.5,-359.5 93.5,-338.5 22.5,-338.5"/>
<text text-anchor="middle" x="58" y="-346.5" font-family="Helvetica,sans-Serif" font-size="10.00">noncopyable</text>
</g>
<!-- Node16&#45;&gt;Node9 -->
<g id="edge120" class="edge"><title>Node16&#45;&gt;Node9</title>
<path fill="none" stroke="#8b1a1a" d="M61.2596,-369.64C72.3808,-438.087 110.45,-656.451 152,-713 163.823,-729.091 183.128,-740.818 199.056,-748.404"/>
<polygon fill="#8b1a1a" stroke="#8b1a1a" points="64.6978,-368.976 59.6569,-359.657 57.7863,-370.085 64.6978,-368.976"/>
</g>
<!-- Node17 -->
<g id="node33" class="node"><title>Node17</title>
<a xlink:href="classprtx_1_1_builder.html" target="_top" xlink:title="prtx::Builder\&lt; const\l prt::Annotation \&gt;">
<polygon fill="none" stroke="black" points="175,-332 175,-366 277,-366 277,-332 175,-332"/>
<text text-anchor="start" x="183" y="-353" font-family="Helvetica,sans-Serif" font-size="10.00">prtx::Builder&lt; const</text>
<text text-anchor="middle" x="226" y="-340" font-family="Helvetica,sans-Serif" font-size="10.00"> prt::Annotation &gt;</text>
</a>
</g>
<!-- Node16&#45;&gt;Node17 -->
<g id="edge32" class="edge"><title>Node16&#45;&gt;Node17</title>
<path fill="none" stroke="#8b1a1a" d="M103.708,-349C125.697,-349 152.14,-349 174.803,-349"/>
<polygon fill="#8b1a1a" stroke="#8b1a1a" points="103.629,-345.5 93.6285,-349 103.628,-352.5 103.629,-345.5"/>
</g>
<!-- Node19 -->
<g id="node37" class="node"><title>Node19</title>
<a xlink:href="classprtx_1_1_builder.html" target="_top" xlink:title="prtx::Builder\&lt; const\l prt::EncoderInfo \&gt;">
<polygon fill="none" stroke="black" points="175,-280 175,-314 277,-314 277,-280 175,-280"/>
<text text-anchor="start" x="183" y="-301" font-family="Helvetica,sans-Serif" font-size="10.00">prtx::Builder&lt; const</text>
<text text-anchor="middle" x="226" y="-288" font-family="Helvetica,sans-Serif" font-size="10.00"> prt::EncoderInfo &gt;</text>
</a>
</g>
<!-- Node16&#45;&gt;Node19 -->
<g id="edge36" class="edge"><title>Node16&#45;&gt;Node19</title>
<path fill="none" stroke="#8b1a1a" d="M101.582,-335.51C123.984,-328.576 151.421,-320.084 174.825,-312.84"/>
<polygon fill="#8b1a1a" stroke="#8b1a1a" points="100.515,-332.177 91.9973,-338.477 102.585,-338.864 100.515,-332.177"/>
</g>
<!-- Node21 -->
<g id="node41" class="node"><title>Node21</title>
<a xlink:href="classprtx_1_1_builder.html" target="_top" xlink:title="prtx::Builder\&lt; C \&gt;">
<polygon fill="none" stroke="black" points="178.5,-240.5 178.5,-261.5 273.5,-261.5 273.5,-240.5 178.5,-240.5"/>
<text text-anchor="middle" x="226" y="-248.5" font-family="Helvetica,sans-Serif" font-size="10.00">prtx::Builder&lt; C &gt;</text>
</a>
</g>
<!-- Node16&#45;&gt;Node21 -->
<g id="edge40" class="edge"><title>Node16&#45;&gt;Node21</title>
<path fill="none" stroke="#8b1a1a" d="M74.8924,-331.051C92.5329,-313.324 121.797,-286.659 152,-271 160.152,-266.773 169.286,-263.372 178.279,-260.659"/>
<polygon fill="#8b1a1a" stroke="#8b1a1a" points="72.1124,-328.889 67.6436,-338.496 77.1276,-333.773 72.1124,-328.889"/>
</g>
<!-- Node22 -->
<g id="node43" class="node"><title>Node22</title>
<a xlink:href="classprtx_1_1_content.html" target="_top" xlink:title="prtx::Content">
<polygon fill="none" stroke="black" points="189,-682.5 189,-703.5 263,-703.5 263,-682.5 189,-682.5"/>
<text text-anchor="middle" x="226" y="-690.5" font-family="Helvetica,sans-Serif" font-size="10.00">prtx::Content</text>
</a>
</g>
<!-- Node16&#45;&gt;Node22 -->
<g id="edge42" class="edge"><title>Node16&#45;&gt;Node22</title>
<path fill="none" stroke="#8b1a1a" d="M62.983,-369.427C74.4042,-414.066 105.148,-522.813 152,-604 170.079,-635.328 199.319,-666.601 215.087,-682.409"/>
<polygon fill="#8b1a1a" stroke="#8b1a1a" points="66.3248,-368.363 60.4976,-359.515 59.535,-370.066 66.3248,-368.363"/>
</g>
<!-- Node27 -->
<g id="node56" class="node"><title>Node27</title>
<a xlink:href="classprtx_1_1_encode_options_annotator.html" target="_top" xlink:title="prtx::EncodeOptionsAnnotator">
<polygon fill="none" stroke="black" points="152,-200.5 152,-221.5 300,-221.5 300,-200.5 152,-200.5"/>
<text text-anchor="middle" x="226" y="-208.5" font-family="Helvetica,sans-Serif" font-size="10.00">prtx::EncodeOptionsAnnotator</text>
</a>
</g>
<!-- Node16&#45;&gt;Node27 -->
<g id="edge58" class="edge"><title>Node16&#45;&gt;Node27</title>
<path fill="none" stroke="#8b1a1a" d="M68.3966,-329.25C83.332,-302.828 113.368,-256.368 152,-231 157.785,-227.201 164.272,-224.121 170.939,-221.623"/>
<polygon fill="#8b1a1a" stroke="#8b1a1a" points="65.1676,-327.86 63.4254,-338.31 71.3044,-331.227 65.1676,-327.86"/>
</g>
<!-- Node28 -->
<g id="node58" class="node"><title>Node28</title>
<a xlink:href="classprtx_1_1_encode_preparator.html" target="_top" xlink:title="prtx::EncodePreparator">
<polygon fill="none" stroke="black" points="167.5,-160.5 167.5,-181.5 284.5,-181.5 284.5,-160.5 167.5,-160.5"/>
<text text-anchor="middle" x="226" y="-168.5" font-family="Helvetica,sans-Serif" font-size="10.00">prtx::EncodePreparator</text>
</a>
</g>
<!-- Node16&#45;&gt;Node28 -->
<g id="edge60" class="edge"><title>Node16&#45;&gt;Node28</title>
<path fill="none" stroke="#8b1a1a" d="M64.4827,-328.498C76.2753,-294.598 104.504,-227.034 152,-191 157.089,-187.139 162.871,-184.023 168.908,-181.508"/>
<polygon fill="#8b1a1a" stroke="#8b1a1a" points="61.0775,-327.646 61.2279,-338.239 67.7167,-329.864 61.0775,-327.646"/>
</g>
<!-- Node29 -->
<g id="node60" class="node"><title>Node29</title>
<a xlink:href="classprtx_1_1_extension.html" target="_top" xlink:title="prtx::Extension">
<polygon fill="none" stroke="black" points="184.5,-120.5 184.5,-141.5 267.5,-141.5 267.5,-120.5 184.5,-120.5"/>
<text text-anchor="middle" x="226" y="-128.5" font-family="Helvetica,sans-Serif" font-size="10.00">prtx::Extension</text>
</a>
</g>
<!-- Node16&#45;&gt;Node29 -->
<g id="edge62" class="edge"><title>Node16&#45;&gt;Node29</title>
<path fill="none" stroke="#8b1a1a" d="M61.8733,-328.233C70.5219,-287.806 95.2802,-198.365 152,-151 161.091,-143.408 172.805,-138.678 184.22,-135.737"/>
<polygon fill="#8b1a1a" stroke="#8b1a1a" points="58.4405,-327.55 59.8885,-338.046 65.3015,-328.938 58.4405,-327.55"/>
</g>
<!-- Node42 -->
<g id="node86" class="node"><title>Node42</title>
<a xlink:href="classprtx_1_1_extension_factory.html" target="_top" xlink:title="prtx::ExtensionFactory">
<polygon fill="none" stroke="black" points="168,-80.5 168,-101.5 284,-101.5 284,-80.5 168,-80.5"/>
<text text-anchor="middle" x="226" y="-88.5" font-family="Helvetica,sans-Serif" font-size="10.00">prtx::ExtensionFactory</text>
</a>
</g>
<!-- Node16&#45;&gt;Node42 -->
<g id="edge88" class="edge"><title>Node16&#45;&gt;Node42</title>
<path fill="none" stroke="#8b1a1a" d="M60.0149,-328.322C65.6405,-282.176 85.7464,-170.208 152,-111 156.664,-106.832 162.109,-103.52 167.893,-100.891"/>
<polygon fill="#8b1a1a" stroke="#8b1a1a" points="56.529,-328.002 58.901,-338.327 63.4861,-328.776 56.529,-328.002"/>
</g>
<!-- Node46 -->
<g id="node94" class="node"><title>Node46</title>
<a xlink:href="classprtx_1_1_generate_context.html" target="_top" xlink:title="prtx::GenerateContext">
<polygon fill="none" stroke="black" points="169.5,-40.5 169.5,-61.5 282.5,-61.5 282.5,-40.5 169.5,-40.5"/>
<text text-anchor="middle" x="226" y="-48.5" font-family="Helvetica,sans-Serif" font-size="10.00">prtx::GenerateContext</text>
</a>
</g>
<!-- Node16&#45;&gt;Node46 -->
<g id="edge96" class="edge"><title>Node16&#45;&gt;Node46</title>
<path fill="none" stroke="#8b1a1a" d="M62.3284,-328.431C74.9196,-270.454 113.11,-107.547 152,-71 156.946,-66.352 162.858,-62.7623 169.155,-59.9935"/>
<polygon fill="#8b1a1a" stroke="#8b1a1a" points="58.8928,-327.76 60.2196,-338.272 65.7374,-329.227 58.8928,-327.76"/>
</g>
<!-- Node47 -->
<g id="node96" class="node"><title>Node47</title>
<a xlink:href="classprtx_1_1_name_preparator.html" target="_top" xlink:title="prtx::NamePreparator">
<polygon fill="none" stroke="black" points="171,-573.5 171,-594.5 281,-594.5 281,-573.5 171,-573.5"/>
<text text-anchor="middle" x="226" y="-581.5" font-family="Helvetica,sans-Serif" font-size="10.00">prtx::NamePreparator</text>
</a>
</g>
<!-- Node16&#45;&gt;Node47 -->
<g id="edge98" class="edge"><title>Node16&#45;&gt;Node47</title>
<path fill="none" stroke="#8b1a1a" d="M64.3693,-369.343C76.5946,-405.875 106.261,-483.573 152,-535 166.643,-551.464 188.017,-564.824 204.033,-573.411"/>
<polygon fill="#8b1a1a" stroke="#8b1a1a" points="67.6839,-368.218 61.2601,-359.793 61.0278,-370.385 67.6839,-368.218"/>
</g>
<!-- Node49 -->
<g id="node100" class="node"><title>Node49</title>
<a xlink:href="classprtx_1_1_reporting_strategy.html" target="_top" xlink:title="prtx::ReportingStrategy">
<polygon fill="none" stroke="black" points="167,-504.5 167,-525.5 285,-525.5 285,-504.5 167,-504.5"/>
<text text-anchor="middle" x="226" y="-512.5" font-family="Helvetica,sans-Serif" font-size="10.00">prtx::ReportingStrategy</text>
</a>
</g>
<!-- Node16&#45;&gt;Node49 -->
<g id="edge102" class="edge"><title>Node16&#45;&gt;Node49</title>
<path fill="none" stroke="#8b1a1a" d="M65.4612,-369.288C78.1963,-401.04 107.18,-462.227 152,-495 157.264,-498.849 163.224,-501.957 169.42,-504.467"/>
<polygon fill="#8b1a1a" stroke="#8b1a1a" points="68.6371,-367.796 61.7659,-359.732 62.1082,-370.321 68.6371,-367.796"/>
</g>
<!-- Node53 -->
<g id="node108" class="node"><title>Node53</title>
<a xlink:href="classprtx_1_1_reports_accumulator.html" target="_top" xlink:title="prtx::ReportsAccumulator">
<polygon fill="none" stroke="black" points="162,-464.5 162,-485.5 290,-485.5 290,-464.5 162,-464.5"/>
<text text-anchor="middle" x="226" y="-472.5" font-family="Helvetica,sans-Serif" font-size="10.00">prtx::ReportsAccumulator</text>
</a>
</g>
<!-- Node16&#45;&gt;Node53 -->
<g id="edge110" class="edge"><title>Node16&#45;&gt;Node53</title>
<path fill="none" stroke="#8b1a1a" d="M69.8202,-368.122C85.6053,-392.046 115.821,-432.586 152,-455 158.109,-458.785 164.933,-461.863 171.9,-464.363"/>
<polygon fill="#8b1a1a" stroke="#8b1a1a" points="72.6662,-366.077 64.3167,-359.555 66.7766,-369.86 72.6662,-366.077"/>
</g>
<!-- Node57 -->
<g id="node116" class="node"><title>Node57</title>
<a xlink:href="classprtx_1_1_singleton.html" target="_top" xlink:title="prtx::Singleton\&lt; S \&gt;">
<polygon fill="none" stroke="black" points="174,-424.5 174,-445.5 278,-445.5 278,-424.5 174,-424.5"/>
<text text-anchor="middle" x="226" y="-432.5" font-family="Helvetica,sans-Serif" font-size="10.00">prtx::Singleton&lt; S &gt;</text>
</a>
</g>
<!-- Node16&#45;&gt;Node57 -->
<g id="edge118" class="edge"><title>Node16&#45;&gt;Node57</title>
<path fill="none" stroke="#8b1a1a" d="M78.3072,-366.43C96.52,-381.256 124.533,-402.134 152,-415 159.954,-418.726 168.725,-421.86 177.364,-424.46"/>
<polygon fill="#8b1a1a" stroke="#8b1a1a" points="80.1288,-363.393 70.1989,-359.699 75.6578,-368.78 80.1288,-363.393"/>
</g>
<!-- Node58 -->
<g id="node119" class="node"><title>Node58</title>
<a xlink:href="classprtx_1_1_trim_plane.html" target="_top" xlink:title="prtx::TrimPlane">
<polygon fill="none" stroke="black" points="184.5,-384.5 184.5,-405.5 267.5,-405.5 267.5,-384.5 184.5,-384.5"/>
<text text-anchor="middle" x="226" y="-392.5" font-family="Helvetica,sans-Serif" font-size="10.00">prtx::TrimPlane</text>
</a>
</g>
<!-- Node16&#45;&gt;Node58 -->
<g id="edge122" class="edge"><title>Node16&#45;&gt;Node58</title>
<path fill="none" stroke="midnightblue" d="M103.503,-361.644C118.897,-365.906 136.19,-370.677 152,-375 163.297,-378.089 175.571,-381.417 186.816,-384.456"/>
<polygon fill="midnightblue" stroke="midnightblue" points="104.267,-358.224 93.6955,-358.926 102.398,-364.97 104.267,-358.224"/>
</g>
<!-- Node18 -->
<g id="node35" class="node"><title>Node18</title>
<a xlink:href="classprtx_1_1_annotation_builder.html" target="_top" xlink:title="prtx::AnnotationBuilder">
<polygon fill="none" stroke="black" points="365,-326.5 365,-347.5 481,-347.5 481,-326.5 365,-326.5"/>
<text text-anchor="middle" x="423" y="-334.5" font-family="Helvetica,sans-Serif" font-size="10.00">prtx::AnnotationBuilder</text>
</a>
</g>
<!-- Node17&#45;&gt;Node18 -->
<g id="edge34" class="edge"><title>Node17&#45;&gt;Node18</title>
<path fill="none" stroke="midnightblue" d="M287.227,-345.27C311.93,-343.766 340.301,-342.037 364.7,-340.551"/>
<polygon fill="midnightblue" stroke="midnightblue" points="287.014,-341.777 277.245,-345.878 287.44,-348.764 287.014,-341.777"/>
</g>
<!-- Node20 -->
<g id="node39" class="node"><title>Node20</title>
<a xlink:href="classprtx_1_1_encoder_info_builder.html" target="_top" xlink:title="prtx::EncoderInfoBuilder">
<polygon fill="none" stroke="black" points="362,-286.5 362,-307.5 484,-307.5 484,-286.5 362,-286.5"/>
<text text-anchor="middle" x="423" y="-294.5" font-family="Helvetica,sans-Serif" font-size="10.00">prtx::EncoderInfoBuilder</text>
</a>
</g>
<!-- Node19&#45;&gt;Node20 -->
<g id="edge38" class="edge"><title>Node19&#45;&gt;Node20</title>
<path fill="none" stroke="midnightblue" d="M287.516,-297C311.193,-297 338.205,-297 361.848,-297"/>
<polygon fill="midnightblue" stroke="midnightblue" points="287.245,-293.5 277.245,-297 287.245,-300.5 287.245,-293.5"/>
</g>
<!-- Node22&#45;&gt;Node2 -->
<g id="edge54" class="edge"><title>Node22&#45;&gt;Node2</title>
<path fill="none" stroke="midnightblue" d="M248.793,-709.271C270.189,-723.581 303.659,-743.559 336,-753 416.685,-776.555 516.033,-776.784 570.825,-774.572"/>
<polygon fill="midnightblue" stroke="midnightblue" points="250.632,-706.288 240.401,-703.532 246.68,-712.066 250.632,-706.288"/>
</g>
<!-- Node23 -->
<g id="node45" class="node"><title>Node23</title>
<a xlink:href="classprtx_1_1_c_g_b.html" target="_top" xlink:title="prtx::CGB">
<polygon fill="none" stroke="black" points="392.5,-722.5 392.5,-743.5 453.5,-743.5 453.5,-722.5 392.5,-722.5"/>
<text text-anchor="middle" x="423" y="-730.5" font-family="Helvetica,sans-Serif" font-size="10.00">prtx::CGB</text>
</a>
</g>
<!-- Node22&#45;&gt;Node23 -->
<g id="edge44" class="edge"><title>Node22&#45;&gt;Node23</title>
<path fill="none" stroke="midnightblue" d="M273.089,-702.561C310.018,-710.06 360.344,-720.278 392.258,-726.758"/>
<polygon fill="midnightblue" stroke="midnightblue" points="273.551,-699.084 263.054,-700.524 272.158,-705.944 273.551,-699.084"/>
</g>
<!-- Node24 -->
<g id="node47" class="node"><title>Node24</title>
<a xlink:href="classprtx_1_1_comparable_content.html" target="_top" xlink:title="prtx::ComparableContent">
<polygon fill="none" stroke="black" points="360,-642.5 360,-663.5 486,-663.5 486,-642.5 360,-642.5"/>
<text text-anchor="middle" x="423" y="-650.5" font-family="Helvetica,sans-Serif" font-size="10.00">prtx::ComparableContent</text>
</a>
</g>
<!-- Node22&#45;&gt;Node24 -->
<g id="edge46" class="edge"><title>Node22&#45;&gt;Node24</title>
<path fill="none" stroke="midnightblue" d="M273.128,-683.431C302.695,-677.427 340.838,-669.683 371.245,-663.509"/>
<polygon fill="midnightblue" stroke="midnightblue" points="272.158,-680.056 263.054,-685.476 273.551,-686.916 272.158,-680.056"/>
</g>
<!-- Node26 -->
<g id="node54" class="node"><title>Node26</title>
<a xlink:href="classprtx_1_1_mesh.html" target="_top" xlink:title="prtx::Mesh">
<polygon fill="none" stroke="black" points="391.5,-682.5 391.5,-703.5 454.5,-703.5 454.5,-682.5 391.5,-682.5"/>
<text text-anchor="middle" x="423" y="-690.5" font-family="Helvetica,sans-Serif" font-size="10.00">prtx::Mesh</text>
</a>
</g>
<!-- Node22&#45;&gt;Node26 -->
<g id="edge56" class="edge"><title>Node22&#45;&gt;Node26</title>
<path fill="none" stroke="midnightblue" d="M273.465,-693C309.997,-693 359.469,-693 391.314,-693"/>
<polygon fill="midnightblue" stroke="midnightblue" points="273.054,-689.5 263.054,-693 273.054,-696.5 273.054,-689.5"/>
</g>
<!-- Node24&#45;&gt;Node3 -->
<g id="edge48" class="edge"><title>Node24&#45;&gt;Node3</title>
<path fill="none" stroke="midnightblue" d="M495.926,-663.299C501.046,-665.906 505.824,-669.098 510,-673 550.374,-710.725 506.937,-752.919 546,-792 553.702,-799.706 564.268,-804.461 574.689,-807.388"/>
<polygon fill="midnightblue" stroke="midnightblue" points="496.967,-659.937 486.397,-659.212 494.209,-666.37 496.967,-659.937"/>
</g>
<!-- Node24&#45;&gt;Node5 -->
<g id="edge52" class="edge"><title>Node24&#45;&gt;Node5</title>
<path fill="none" stroke="midnightblue" d="M484.155,-665.925C492.881,-668.097 501.706,-670.474 510,-673 536.842,-681.173 566.739,-692.931 587.188,-701.397"/>
<polygon fill="midnightblue" stroke="midnightblue" points="484.921,-662.509 474.378,-663.562 483.276,-669.313 484.921,-662.509"/>
</g>
<!-- Node25 -->
<g id="node50" class="node"><title>Node25</title>
<a xlink:href="classprtx_1_1_shader.html" target="_top" xlink:title="prtx::Shader">
<polygon fill="none" stroke="black" points="577,-642.5 577,-663.5 647,-663.5 647,-642.5 577,-642.5"/>
<text text-anchor="middle" x="612" y="-650.5" font-family="Helvetica,sans-Serif" font-size="10.00">prtx::Shader</text>
</a>
</g>
<!-- Node24&#45;&gt;Node25 -->
<g id="edge50" class="edge"><title>Node24&#45;&gt;Node25</title>
<path fill="none" stroke="midnightblue" d="M496.281,-653C524.019,-653 554.329,-653 576.969,-653"/>
<polygon fill="midnightblue" stroke="midnightblue" points="496.197,-649.5 486.197,-653 496.197,-656.5 496.197,-649.5"/>
</g>
<!-- Node30 -->
<g id="node62" class="node"><title>Node30</title>
<a xlink:href="classprtx_1_1_adaptor.html" target="_top" xlink:title="prtx::Adaptor">
<polygon fill="none" stroke="black" points="386.5,-245.5 386.5,-266.5 459.5,-266.5 459.5,-245.5 386.5,-245.5"/>
<text text-anchor="middle" x="423" y="-253.5" font-family="Helvetica,sans-Serif" font-size="10.00">prtx::Adaptor</text>
</a>
</g>
<!-- Node29&#45;&gt;Node30 -->
<g id="edge64" class="edge"><title>Node29&#45;&gt;Node30</title>
<path fill="none" stroke="midnightblue" d="M277.301,-138.383C285.541,-141.309 293.487,-145.371 300,-151 330.421,-177.294 305.366,-207.955 336,-234 349.887,-245.807 369.253,-251.417 386.189,-254.028"/>
<polygon fill="midnightblue" stroke="midnightblue" points="278.147,-134.982 267.562,-135.443 276.124,-141.683 278.147,-134.982"/>
</g>
<!-- Node32 -->
<g id="node66" class="node"><title>Node32</title>
<a xlink:href="classprtx_1_1_decoder.html" target="_top" xlink:title="prtx::Decoder">
<polygon fill="none" stroke="black" points="385,-203.5 385,-224.5 461,-224.5 461,-203.5 385,-203.5"/>
<text text-anchor="middle" x="423" y="-211.5" font-family="Helvetica,sans-Serif" font-size="10.00">prtx::Decoder</text>
</a>
</g>
<!-- Node29&#45;&gt;Node32 -->
<g id="edge68" class="edge"><title>Node29&#45;&gt;Node32</title>
<path fill="none" stroke="midnightblue" d="M277.262,-143.351C284.968,-145.639 292.755,-148.201 300,-151 338.942,-166.044 381.77,-189.742 405.211,-203.38"/>
<polygon fill="midnightblue" stroke="midnightblue" points="278.167,-139.97 267.591,-140.603 276.254,-146.703 278.167,-139.97"/>
</g>
<!-- Node38 -->
<g id="node78" class="node"><title>Node38</title>
<a xlink:href="classprtx_1_1_encoder.html" target="_top" xlink:title="prtx::Encoder">
<polygon fill="none" stroke="black" points="385.5,-120.5 385.5,-141.5 460.5,-141.5 460.5,-120.5 385.5,-120.5"/>
<text text-anchor="middle" x="423" y="-128.5" font-family="Helvetica,sans-Serif" font-size="10.00">prtx::Encoder</text>
</a>
</g>
<!-- Node29&#45;&gt;Node38 -->
<g id="edge80" class="edge"><title>Node29&#45;&gt;Node38</title>
<path fill="none" stroke="midnightblue" d="M277.915,-131C311.637,-131 354.821,-131 385.279,-131"/>
<polygon fill="midnightblue" stroke="midnightblue" points="277.779,-127.5 267.779,-131 277.779,-134.5 277.779,-127.5"/>
</g>
<!-- Node31 -->
<g id="node64" class="node"><title>Node31</title>
<a xlink:href="classprtx_1_1_stream_adaptor.html" target="_top" xlink:title="prtx::StreamAdaptor">
<polygon fill="none" stroke="black" points="560,-360.5 560,-381.5 664,-381.5 664,-360.5 560,-360.5"/>
<text text-anchor="middle" x="612" y="-368.5" font-family="Helvetica,sans-Serif" font-size="10.00">prtx::StreamAdaptor</text>
</a>
</g>
<!-- Node30&#45;&gt;Node31 -->
<g id="edge66" class="edge"><title>Node30&#45;&gt;Node31</title>
<path fill="none" stroke="midnightblue" d="M469.686,-259.573C483.82,-262.566 498.602,-267.831 510,-277 538.498,-299.925 518.171,-327.267 546,-351 550.464,-354.807 555.637,-357.889 561.084,-360.385"/>
<polygon fill="midnightblue" stroke="midnightblue" points="470.024,-256.078 459.565,-257.772 468.798,-262.97 470.024,-256.078"/>
</g>
<!-- Node33 -->
<g id="node68" class="node"><title>Node33</title>
<a xlink:href="classprtx_1_1_c_g_b_decoder.html" target="_top" xlink:title="prtx::CGBDecoder">
<polygon fill="none" stroke="black" points="563,-320.5 563,-341.5 661,-341.5 661,-320.5 563,-320.5"/>
<text text-anchor="middle" x="612" y="-328.5" font-family="Helvetica,sans-Serif" font-size="10.00">prtx::CGBDecoder</text>
</a>
</g>
<!-- Node32&#45;&gt;Node33 -->
<g id="edge70" class="edge"><title>Node32&#45;&gt;Node33</title>
<path fill="none" stroke="midnightblue" d="M471.19,-218.459C484.881,-221.659 499.033,-227.032 510,-236 538.623,-259.406 517.93,-286.934 546,-311 550.908,-315.208 556.683,-318.531 562.739,-321.155"/>
<polygon fill="midnightblue" stroke="midnightblue" points="471.846,-215.021 461.354,-216.492 470.474,-221.885 471.846,-215.021"/>
</g>
<!-- Node34 -->
<g id="node70" class="node"><title>Node34</title>
<a xlink:href="classprtx_1_1_geometry_decoder.html" target="_top" xlink:title="prtx::GeometryDecoder">
<polygon fill="none" stroke="black" points="552.5,-280.5 552.5,-301.5 671.5,-301.5 671.5,-280.5 552.5,-280.5"/>
<text text-anchor="middle" x="612" y="-288.5" font-family="Helvetica,sans-Serif" font-size="10.00">prtx::GeometryDecoder</text>
</a>
</g>
<!-- Node32&#45;&gt;Node34 -->
<g id="edge72" class="edge"><title>Node32&#45;&gt;Node34</title>
<path fill="none" stroke="midnightblue" d="M470.919,-221.387C484.12,-224.66 498.078,-229.339 510,-236 529.481,-246.884 526.778,-259.665 546,-271 552.394,-274.77 559.563,-277.888 566.755,-280.447"/>
<polygon fill="midnightblue" stroke="midnightblue" points="471.543,-217.94 461.017,-219.149 469.999,-224.768 471.543,-217.94"/>
</g>
<!-- Node35 -->
<g id="node72" class="node"><title>Node35</title>
<a xlink:href="classprtx_1_1_material_decoder.html" target="_top" xlink:title="prtx::MaterialDecoder">
<polygon fill="none" stroke="black" points="557,-240.5 557,-261.5 667,-261.5 667,-240.5 557,-240.5"/>
<text text-anchor="middle" x="612" y="-248.5" font-family="Helvetica,sans-Serif" font-size="10.00">prtx::MaterialDecoder</text>
</a>
</g>
<!-- Node32&#45;&gt;Node35 -->
<g id="edge74" class="edge"><title>Node32&#45;&gt;Node35</title>
<path fill="none" stroke="midnightblue" d="M471.073,-223.411C497.608,-228.606 530.64,-235.072 558.054,-240.439"/>
<polygon fill="midnightblue" stroke="midnightblue" points="471.733,-219.974 461.247,-221.488 470.388,-226.844 471.733,-219.974"/>
</g>
<!-- Node36 -->
<g id="node74" class="node"><title>Node36</title>
<a xlink:href="classprtx_1_1_shader_decoder.html" target="_top" xlink:title="prtx::ShaderDecoder">
<polygon fill="none" stroke="black" points="558.5,-200.5 558.5,-221.5 665.5,-221.5 665.5,-200.5 558.5,-200.5"/>
<text text-anchor="middle" x="612" y="-208.5" font-family="Helvetica,sans-Serif" font-size="10.00">prtx::ShaderDecoder</text>
</a>
</g>
<!-- Node32&#45;&gt;Node36 -->
<g id="edge76" class="edge"><title>Node32&#45;&gt;Node36</title>
<path fill="none" stroke="midnightblue" d="M471.465,-213.231C498.049,-212.809 531.064,-212.285 558.413,-211.851"/>
<polygon fill="midnightblue" stroke="midnightblue" points="471.19,-209.735 461.247,-213.393 471.301,-216.734 471.19,-209.735"/>
</g>
<!-- Node37 -->
<g id="node76" class="node"><title>Node37</title>
<a xlink:href="classprtx_1_1_texture_decoder.html" target="_top" xlink:title="prtx::TextureDecoder">
<polygon fill="none" stroke="black" points="557.5,-160.5 557.5,-181.5 666.5,-181.5 666.5,-160.5 557.5,-160.5"/>
<text text-anchor="middle" x="612" y="-168.5" font-family="Helvetica,sans-Serif" font-size="10.00">prtx::TextureDecoder</text>
</a>
</g>
<!-- Node32&#45;&gt;Node37 -->
<g id="edge78" class="edge"><title>Node32&#45;&gt;Node37</title>
<path fill="none" stroke="midnightblue" d="M471.179,-203.039C500.249,-196.425 537.088,-188.043 565.796,-181.512"/>
<polygon fill="midnightblue" stroke="midnightblue" points="470.221,-199.667 461.247,-205.298 471.774,-206.493 470.221,-199.667"/>
</g>
<!-- Node39 -->
<g id="node80" class="node"><title>Node39</title>
<a xlink:href="classprtx_1_1_geometry_encoder.html" target="_top" xlink:title="prtx::GeometryEncoder">
<polygon fill="none" stroke="black" points="553,-120.5 553,-141.5 671,-141.5 671,-120.5 553,-120.5"/>
<text text-anchor="middle" x="612" y="-128.5" font-family="Helvetica,sans-Serif" font-size="10.00">prtx::GeometryEncoder</text>
</a>
</g>
<!-- Node38&#45;&gt;Node39 -->
<g id="edge82" class="edge"><title>Node38&#45;&gt;Node39</title>
<path fill="none" stroke="midnightblue" d="M471.056,-131C495.884,-131 526.405,-131 552.689,-131"/>
<polygon fill="midnightblue" stroke="midnightblue" points="470.793,-127.5 460.793,-131 470.793,-134.5 470.793,-127.5"/>
</g>
<!-- Node40 -->
<g id="node82" class="node"><title>Node40</title>
<a xlink:href="classprtx_1_1_material_encoder.html" target="_top" xlink:title="prtx::MaterialEncoder">
<polygon fill="none" stroke="black" points="557,-80.5 557,-101.5 667,-101.5 667,-80.5 557,-80.5"/>
<text text-anchor="middle" x="612" y="-88.5" font-family="Helvetica,sans-Serif" font-size="10.00">prtx::MaterialEncoder</text>
</a>
</g>
<!-- Node38&#45;&gt;Node40 -->
<g id="edge84" class="edge"><title>Node38&#45;&gt;Node40</title>
<path fill="none" stroke="midnightblue" d="M470.718,-120.901C498.625,-114.995 533.81,-107.548 562.086,-101.564"/>
<polygon fill="midnightblue" stroke="midnightblue" points="469.851,-117.507 460.793,-123.002 471.301,-124.355 469.851,-117.507"/>
</g>
<!-- Node41 -->
<g id="node84" class="node"><title>Node41</title>
<a xlink:href="classprtx_1_1_texture_encoder.html" target="_top" xlink:title="prtx::TextureEncoder">
<polygon fill="none" stroke="black" points="558,-40.5 558,-61.5 666,-61.5 666,-40.5 558,-40.5"/>
<text text-anchor="middle" x="612" y="-48.5" font-family="Helvetica,sans-Serif" font-size="10.00">prtx::TextureEncoder</text>
</a>
</g>
<!-- Node38&#45;&gt;Node41 -->
<g id="edge86" class="edge"><title>Node38&#45;&gt;Node41</title>
<path fill="none" stroke="midnightblue" d="M470.837,-125.448C484.149,-122.489 498.186,-117.953 510,-111 530.612,-98.8682 525.814,-83.8282 546,-71 551.962,-67.2112 558.682,-64.1065 565.493,-61.5718"/>
<polygon fill="midnightblue" stroke="midnightblue" points="469.98,-122.05 460.846,-127.418 471.334,-128.918 469.98,-122.05"/>
</g>
<!-- Node43 -->
<g id="node88" class="node"><title>Node43</title>
<a xlink:href="classprtx_1_1_adaptor_factory.html" target="_top" xlink:title="prtx::AdaptorFactory">
<polygon fill="none" stroke="black" points="370,-80.5 370,-101.5 476,-101.5 476,-80.5 370,-80.5"/>
<text text-anchor="middle" x="423" y="-88.5" font-family="Helvetica,sans-Serif" font-size="10.00">prtx::AdaptorFactory</text>
</a>
</g>
<!-- Node42&#45;&gt;Node43 -->
<g id="edge90" class="edge"><title>Node42&#45;&gt;Node43</title>
<path fill="none" stroke="midnightblue" d="M294.094,-91C318.854,-91 346.456,-91 369.746,-91"/>
<polygon fill="midnightblue" stroke="midnightblue" points="294.041,-87.5001 284.041,-91 294.041,-94.5001 294.041,-87.5001"/>
</g>
<!-- Node44 -->
<g id="node90" class="node"><title>Node44</title>
<a xlink:href="classprtx_1_1_decoder_factory.html" target="_top" xlink:title="prtx::DecoderFactory">
<polygon fill="none" stroke="black" points="368.5,-40.5 368.5,-61.5 477.5,-61.5 477.5,-40.5 368.5,-40.5"/>
<text text-anchor="middle" x="423" y="-48.5" font-family="Helvetica,sans-Serif" font-size="10.00">prtx::DecoderFactory</text>
</a>
</g>
<!-- Node42&#45;&gt;Node44 -->
<g id="edge92" class="edge"><title>Node42&#45;&gt;Node44</title>
<path fill="none" stroke="midnightblue" d="M287.809,-78.45C314.623,-73.0054 345.671,-66.7014 371.245,-61.5087"/>
<polygon fill="midnightblue" stroke="midnightblue" points="286.863,-75.0705 277.759,-80.4905 288.256,-81.9305 286.863,-75.0705"/>
</g>
<!-- Node45 -->
<g id="node92" class="node"><title>Node45</title>
<a xlink:href="classprtx_1_1_encoder_factory.html" target="_top" xlink:title="prtx::EncoderFactory">
<polygon fill="none" stroke="black" points="369,-0.5 369,-21.5 477,-21.5 477,-0.5 369,-0.5"/>
<text text-anchor="middle" x="423" y="-8.5" font-family="Helvetica,sans-Serif" font-size="10.00">prtx::EncoderFactory</text>
</a>
</g>
<!-- Node42&#45;&gt;Node45 -->
<g id="edge94" class="edge"><title>Node42&#45;&gt;Node45</title>
<path fill="none" stroke="midnightblue" d="M289.207,-76.6596C292.959,-74.9748 296.59,-73.0956 300,-71 320.378,-58.4788 315.388,-43.1318 336,-31 345.884,-25.1827 357.323,-21.0574 368.592,-18.132"/>
<polygon fill="midnightblue" stroke="midnightblue" points="287.677,-73.5017 279.687,-80.4595 290.272,-80.0029 287.677,-73.5017"/>
</g>
<!-- Node48 -->
<g id="node98" class="node"><title>Node48</title>
<a xlink:href="classprtx_1_1_default_name_preparator.html" target="_top" xlink:title="prtx::DefaultNamePreparator">
<polygon fill="none" stroke="black" points="352,-602.5 352,-623.5 494,-623.5 494,-602.5 352,-602.5"/>
<text text-anchor="middle" x="423" y="-610.5" font-family="Helvetica,sans-Serif" font-size="10.00">prtx::DefaultNamePreparator</text>
</a>
</g>
<!-- Node47&#45;&gt;Node48 -->
<g id="edge100" class="edge"><title>Node47&#45;&gt;Node48</title>
<path fill="none" stroke="midnightblue" d="M291.139,-593.589C310.646,-596.461 332.133,-599.624 351.998,-602.548"/>
<polygon fill="midnightblue" stroke="midnightblue" points="291.541,-590.11 281.137,-592.117 290.521,-597.036 291.541,-590.11"/>
</g>
<!-- Node50 -->
<g id="node102" class="node"><title>Node50</title>
<a xlink:href="classprtx_1_1_all_shapes_reporting_strategy.html" target="_top" xlink:title="prtx::AllShapesReporting\lStrategy">
<polygon fill="none" stroke="black" points="360.5,-550 360.5,-584 485.5,-584 485.5,-550 360.5,-550"/>
<text text-anchor="start" x="368.5" y="-571" font-family="Helvetica,sans-Serif" font-size="10.00">prtx::AllShapesReporting</text>
<text text-anchor="middle" x="423" y="-558" font-family="Helvetica,sans-Serif" font-size="10.00">Strategy</text>
</a>
</g>
<!-- Node49&#45;&gt;Node50 -->
<g id="edge104" class="edge"><title>Node49&#45;&gt;Node50</title>
<path fill="none" stroke="midnightblue" d="M275.751,-528.132C301.418,-534.907 332.99,-543.241 360.308,-550.452"/>
<polygon fill="midnightblue" stroke="midnightblue" points="276.428,-524.691 265.866,-525.523 274.641,-531.459 276.428,-524.691"/>
</g>
<!-- Node51 -->
<g id="node104" class="node"><title>Node51</title>
<a xlink:href="classprtx_1_1_leaf_shape_reporting_strategy.html" target="_top" xlink:title="prtx::LeafShapeReporting\lStrategy">
<polygon fill="none" stroke="black" points="359,-498 359,-532 487,-532 487,-498 359,-498"/>
<text text-anchor="start" x="367" y="-519" font-family="Helvetica,sans-Serif" font-size="10.00">prtx::LeafShapeReporting</text>
<text text-anchor="middle" x="423" y="-506" font-family="Helvetica,sans-Serif" font-size="10.00">Strategy</text>
</a>
</g>
<!-- Node49&#45;&gt;Node51 -->
<g id="edge106" class="edge"><title>Node49&#45;&gt;Node51</title>
<path fill="none" stroke="midnightblue" d="M295.38,-515C316.005,-515 338.501,-515 358.782,-515"/>
<polygon fill="midnightblue" stroke="midnightblue" points="295.107,-511.5 285.106,-515 295.106,-518.5 295.107,-511.5"/>
</g>
<!-- Node52 -->
<g id="node106" class="node"><title>Node52</title>
<a xlink:href="classprtx_1_1_single_shape_reporting_strategy.html" target="_top" xlink:title="prtx::SingleShapeReporting\lStrategy">
<polygon fill="none" stroke="black" points="355,-446 355,-480 491,-480 491,-446 355,-446"/>
<text text-anchor="start" x="363" y="-467" font-family="Helvetica,sans-Serif" font-size="10.00">prtx::SingleShapeReporting</text>
<text text-anchor="middle" x="423" y="-454" font-family="Helvetica,sans-Serif" font-size="10.00">Strategy</text>
</a>
</g>
<!-- Node49&#45;&gt;Node52 -->
<g id="edge108" class="edge"><title>Node49&#45;&gt;Node52</title>
<path fill="none" stroke="midnightblue" d="M275.539,-501.924C300.642,-495.298 331.434,-487.17 358.375,-480.058"/>
<polygon fill="midnightblue" stroke="midnightblue" points="274.641,-498.541 265.866,-504.477 276.428,-505.309 274.641,-498.541"/>
</g>
<!-- Node54 -->
<g id="node110" class="node"><title>Node54</title>
<a xlink:href="classprtx_1_1_appending_reports_accumulator.html" target="_top" xlink:title="prtx::AppendingReportsAccumulator">
<polygon fill="none" stroke="black" points="336,-406.5 336,-427.5 510,-427.5 510,-406.5 336,-406.5"/>
<text text-anchor="middle" x="423" y="-414.5" font-family="Helvetica,sans-Serif" font-size="10.00">prtx::AppendingReportsAccumulator</text>
</a>
</g>
<!-- Node53&#45;&gt;Node54 -->
<g id="edge112" class="edge"><title>Node53&#45;&gt;Node54</title>
<path fill="none" stroke="midnightblue" d="M280.399,-461.638C287.066,-459.608 293.733,-457.386 300,-455 316.718,-448.635 319.164,-443.047 336,-437 346.21,-433.333 357.341,-430.176 368.127,-427.524"/>
<polygon fill="midnightblue" stroke="midnightblue" points="279.3,-458.312 270.678,-464.47 281.258,-465.033 279.3,-458.312"/>
</g>
<!-- Node56 -->
<g id="node114" class="node"><title>Node56</title>
<a xlink:href="classprtx_1_1_write_first_reports_accumulator.html" target="_top" xlink:title="prtx::WriteFirstReportsAccumulator">
<polygon fill="none" stroke="black" points="337.5,-366.5 337.5,-387.5 508.5,-387.5 508.5,-366.5 337.5,-366.5"/>
<text text-anchor="middle" x="423" y="-374.5" font-family="Helvetica,sans-Serif" font-size="10.00">prtx::WriteFirstReportsAccumulator</text>
</a>
</g>
<!-- Node53&#45;&gt;Node56 -->
<g id="edge116" class="edge"><title>Node53&#45;&gt;Node56</title>
<path fill="none" stroke="midnightblue" d="M292.124,-460.045C294.876,-458.523 297.518,-456.847 300,-455 324.342,-436.89 311.318,-414.644 336,-397 341.295,-393.215 347.195,-390.133 353.358,-387.626"/>
<polygon fill="midnightblue" stroke="midnightblue" points="290.533,-456.926 283.021,-464.397 293.552,-463.241 290.533,-456.926"/>
</g>
<!-- Node55 -->
<g id="node112" class="node"><title>Node55</title>
<a xlink:href="classprtx_1_1_summarizing_reports_accumulator.html" target="_top" xlink:title="prtx::SummarizingReports\lAccumulator">
<polygon fill="none" stroke="black" points="546.5,-400 546.5,-434 677.5,-434 677.5,-400 546.5,-400"/>
<text text-anchor="start" x="554.5" y="-421" font-family="Helvetica,sans-Serif" font-size="10.00">prtx::SummarizingReports</text>
<text text-anchor="middle" x="612" y="-408" font-family="Helvetica,sans-Serif" font-size="10.00">Accumulator</text>
</a>
</g>
<!-- Node54&#45;&gt;Node55 -->
<g id="edge114" class="edge"><title>Node54&#45;&gt;Node55</title>
<path fill="none" stroke="midnightblue" d="M520.066,-417C528.957,-417 537.818,-417 546.333,-417"/>
<polygon fill="midnightblue" stroke="midnightblue" points="520.032,-413.5 510.032,-417 520.032,-420.5 520.032,-413.5"/>
</g>
<!-- Node59 -->
<g id="node120" class="node"><title>Node59</title>
<a xlink:href="classprtx_1_1_shared_ptr_builder.html" target="_top" xlink:title="prtx::SharedPtrBuilder\l\&lt; Geometry \&gt;">
<polygon fill="none" stroke="black" points="1.5,-814 1.5,-848 114.5,-848 114.5,-814 1.5,-814"/>
<text text-anchor="start" x="9.5" y="-835" font-family="Helvetica,sans-Serif" font-size="10.00">prtx::SharedPtrBuilder</text>
<text text-anchor="middle" x="58" y="-822" font-family="Helvetica,sans-Serif" font-size="10.00">&lt; Geometry &gt;</text>
</a>
</g>
<!-- Node59&#45;&gt;Node7 -->
<g id="edge124" class="edge"><title>Node59&#45;&gt;Node7</title>
<path fill="none" stroke="midnightblue" d="M125.002,-829.804C139.833,-829.539 155.401,-829.261 169.752,-829.004"/>
<polygon fill="midnightblue" stroke="midnightblue" points="124.813,-826.306 114.877,-829.984 124.938,-833.305 124.813,-826.306"/>
</g>
<!-- Node60 -->
<g id="node122" class="node"><title>Node60</title>
<a xlink:href="classprtx_1_1_shared_ptr_builder.html" target="_top" xlink:title="prtx::SharedPtrBuilder\l\&lt; Material \&gt;">
<polygon fill="none" stroke="black" points="366.5,-920 366.5,-954 479.5,-954 479.5,-920 366.5,-920"/>
<text text-anchor="start" x="374.5" y="-941" font-family="Helvetica,sans-Serif" font-size="10.00">prtx::SharedPtrBuilder</text>
<text text-anchor="middle" x="423" y="-928" font-family="Helvetica,sans-Serif" font-size="10.00">&lt; Material &gt;</text>
</a>
</g>
<!-- Node60&#45;&gt;Node8 -->
<g id="edge126" class="edge"><title>Node60&#45;&gt;Node8</title>
<path fill="none" stroke="midnightblue" d="M489.465,-952.825C515.37,-958.993 544.365,-965.896 567.645,-971.439"/>
<polygon fill="midnightblue" stroke="midnightblue" points="490.245,-949.413 479.706,-950.501 488.624,-956.223 490.245,-949.413"/>
</g>
</g>
</svg>
