<?xml version="1.0" encoding="UTF-8" standalone="no"?>
<!DOCTYPE svg PUBLIC "-//W3C//DTD SVG 1.1//EN"
 "http://www.w3.org/Graphics/SVG/1.1/DTD/svg11.dtd">
<!-- Generated by graphviz version 2.26.0 (20091210.2329)
 -->
<!-- Title: Graphical Class Hierarchy Pages: 1 -->
<svg width="270pt" height="110pt"
 viewBox="0.00 0.00 270.00 110.00" xmlns="http://www.w3.org/2000/svg" xmlns:xlink="http://www.w3.org/1999/xlink">
<g id="graph1" class="graph" transform="scale(1 1) rotate(0) translate(4 106)">
<title>Graphical Class Hierarchy</title>
<!-- Node1 -->
<g id="node1" class="node"><title>Node1</title>
<a xlink:href="classprtx_1_1_extension_factory.html" target="_top" xlink:title="prtx::ExtensionFactory">
<polygon fill="none" stroke="black" points="0,-40.5 0,-61.5 116,-61.5 116,-40.5 0,-40.5"/>
<text text-anchor="middle" x="58" y="-48.5" font-family="Helvetica,sans-Serif" font-size="10.00">prtx::ExtensionFactory</text>
</a>
</g>
<!-- Node2 -->
<g id="node3" class="node"><title>Node2</title>
<a xlink:href="classprtx_1_1_adaptor_factory.html" target="_top" xlink:title="prtx::AdaptorFactory">
<polygon fill="none" stroke="black" points="154,-80.5 154,-101.5 260,-101.5 260,-80.5 154,-80.5"/>
<text text-anchor="middle" x="207" y="-88.5" font-family="Helvetica,sans-Serif" font-size="10.00">prtx::AdaptorFactory</text>
</a>
</g>
<!-- Node1&#45;&gt;Node2 -->
<g id="edge2" class="edge"><title>Node1&#45;&gt;Node2</title>
<path fill="none" stroke="midnightblue" d="M106.905,-64.1288C126.68,-69.4375 149.194,-75.4816 167.855,-80.4913"/>
<polygon fill="midnightblue" stroke="midnightblue" points="107.714,-60.7221 97.148,-61.5095 105.899,-67.4827 107.714,-60.7221"/>
</g>
<!-- Node3 -->
<g id="node5" class="node"><title>Node3</title>
<a xlink:href="classprtx_1_1_decoder_factory.html" target="_top" xlink:title="prtx::DecoderFactory">
<polygon fill="none" stroke="black" points="152.5,-40.5 152.5,-61.5 261.5,-61.5 261.5,-40.5 152.5,-40.5"/>
<text text-anchor="middle" x="207" y="-48.5" font-family="Helvetica,sans-Serif" font-size="10.00">prtx::DecoderFactory</text>
</a>
</g>
<!-- Node1&#45;&gt;Node3 -->
<g id="edge4" class="edge"><title>Node1&#45;&gt;Node3</title>
<path fill="none" stroke="midnightblue" d="M126.211,-51C134.952,-51 143.808,-51 152.295,-51"/>
<polygon fill="midnightblue" stroke="midnightblue" points="126.034,-47.5001 116.034,-51 126.034,-54.5001 126.034,-47.5001"/>
</g>
<!-- Node4 -->
<g id="node7" class="node"><title>Node4</title>
<a xlink:href="classprtx_1_1_encoder_factory.html" target="_top" xlink:title="prtx::EncoderFactory">
<polygon fill="none" stroke="black" points="153,-0.5 153,-21.5 261,-21.5 261,-0.5 153,-0.5"/>
<text text-anchor="middle" x="207" y="-8.5" font-family="Helvetica,sans-Serif" font-size="10.00">prtx::EncoderFactory</text>
</a>
</g>
<!-- Node1&#45;&gt;Node4 -->
<g id="edge6" class="edge"><title>Node1&#45;&gt;Node4</title>
<path fill="none" stroke="midnightblue" d="M106.905,-37.8712C126.68,-32.5625 149.194,-26.5184 167.855,-21.5087"/>
<polygon fill="midnightblue" stroke="midnightblue" points="105.899,-34.5173 97.148,-40.4905 107.714,-41.2779 105.899,-34.5173"/>
</g>
</g>
</svg>
