<?xml version="1.0" encoding="UTF-8" standalone="no"?>
<!DOCTYPE svg PUBLIC "-//W3C//DTD SVG 1.1//EN"
 "http://www.w3.org/Graphics/SVG/1.1/DTD/svg11.dtd">
<!-- Generated by graphviz version 2.30.1 (20170916.1124)
 -->
<!-- Title: Graphical Class Hierarchy Pages: 1 -->
<svg width="590pt" height="294pt"
 viewBox="0.00 0.00 590.00 294.00" xmlns="http://www.w3.org/2000/svg" xmlns:xlink="http://www.w3.org/1999/xlink">
<g id="graph0" class="graph" transform="scale(1 1) rotate(0) translate(4 290)">
<title>Graphical Class Hierarchy</title>
<!-- Node1 -->
<g id="node1" class="node"><title>Node1</title>
<g id="a_node1"><a xlink:href="classprtx_1_1_attributable.html" target="_top" xlink:title="prtx::Attributable">
<polygon fill="none" stroke="black" points="347.5,-76.5 347.5,-95.5 436.5,-95.5 436.5,-76.5 347.5,-76.5"/>
<text text-anchor="middle" x="392" y="-83.5" font-family="Helvetica,sans-Serif" font-size="10.00">prtx::Attributable</text>
</a>
</g>
</g>
<!-- Node2 -->
<g id="node2" class="node"><title>Node2</title>
<g id="a_node2"><a xlink:href="classprtx_1_1_geometry.html" target="_top" xlink:title="prtx::Geometry">
<polygon fill="none" stroke="black" points="500,-38.5 500,-57.5 582,-57.5 582,-38.5 500,-38.5"/>
<text text-anchor="middle" x="541" y="-45.5" font-family="Helvetica,sans-Serif" font-size="10.00">prtx::Geometry</text>
</a>
</g>
</g>
<!-- Node1&#45;&gt;Node2 -->
<g id="edge1" class="edge"><title>Node1&#45;&gt;Node2</title>
<path fill="none" stroke="midnightblue" d="M439.855,-73.8879C460.328,-68.5956 483.99,-62.4787 503.172,-57.5201"/>
<polygon fill="midnightblue" stroke="midnightblue" points="438.9,-70.5195 430.094,-76.411 440.652,-77.2968 438.9,-70.5195"/>
</g>
<!-- Node3 -->
<g id="node3" class="node"><title>Node3</title>
<g id="a_node3"><a xlink:href="classprtx_1_1_material.html" target="_top" xlink:title="prtx::Material">
<polygon fill="none" stroke="black" points="504,-114.5 504,-133.5 578,-133.5 578,-114.5 504,-114.5"/>
<text text-anchor="middle" x="541" y="-121.5" font-family="Helvetica,sans-Serif" font-size="10.00">prtx::Material</text>
</a>
</g>
</g>
<!-- Node1&#45;&gt;Node3 -->
<g id="edge2" class="edge"><title>Node1&#45;&gt;Node3</title>
<path fill="none" stroke="midnightblue" d="M439.969,-98.1418C460.688,-103.498 484.655,-109.693 503.934,-114.677"/>
<polygon fill="midnightblue" stroke="midnightblue" points="440.652,-94.7032 430.094,-95.589 438.9,-101.48 440.652,-94.7032"/>
</g>
<!-- Node4 -->
<g id="node4" class="node"><title>Node4</title>
<g id="a_node4"><a xlink:href="classprtx_1_1_shape.html" target="_top" xlink:title="prtx::Shape">
<polygon fill="none" stroke="black" points="507.5,-0.5 507.5,-19.5 574.5,-19.5 574.5,-0.5 507.5,-0.5"/>
<text text-anchor="middle" x="541" y="-7.5" font-family="Helvetica,sans-Serif" font-size="10.00">prtx::Shape</text>
</a>
</g>
</g>
<!-- Node1&#45;&gt;Node4 -->
<g id="edge3" class="edge"><title>Node1&#45;&gt;Node4</title>
<path fill="none" stroke="midnightblue" d="M419.17,-71.6259C440.726,-59.891 472.161,-43.0175 500,-29 506.18,-25.8882 512.959,-22.6161 519.151,-19.6809"/>
<polygon fill="midnightblue" stroke="midnightblue" points="417.393,-68.6082 410.293,-76.472 420.747,-74.7522 417.393,-68.6082"/>
</g>
<!-- Node5 -->
<g id="node5" class="node"><title>Node5</title>
<g id="a_node5"><a xlink:href="classprtx_1_1_texture.html" target="_top" xlink:title="prtx::Texture">
<polygon fill="none" stroke="black" points="505,-76.5 505,-95.5 577,-95.5 577,-76.5 505,-76.5"/>
<text text-anchor="middle" x="541" y="-83.5" font-family="Helvetica,sans-Serif" font-size="10.00">prtx::Texture</text>
</a>
</g>
</g>
<!-- Node1&#45;&gt;Node5 -->
<g id="edge4" class="edge"><title>Node1&#45;&gt;Node5</title>
<path fill="none" stroke="midnightblue" d="M446.864,-86C466.115,-86 487.305,-86 504.603,-86"/>
<polygon fill="midnightblue" stroke="midnightblue" points="446.707,-82.5001 436.707,-86 446.707,-89.5001 446.707,-82.5001"/>
</g>
<!-- Node6 -->
<g id="node6" class="node"><title>Node6</title>
<g id="a_node6"><a xlink:href="classprtx_1_1_builtin_attributes.html" target="_top" xlink:title="prtx::BuiltinAttributes">
<polygon fill="none" stroke="black" points="0,-57.5 0,-76.5 108,-76.5 108,-57.5 0,-57.5"/>
<text text-anchor="middle" x="54" y="-64.5" font-family="Helvetica,sans-Serif" font-size="10.00">prtx::BuiltinAttributes</text>
</a>
</g>
</g>
<!-- Node7 -->
<g id="node7" class="node"><title>Node7</title>
<g id="a_node7"><a xlink:href="classprtx_1_1_builtin_attributes_getters.html" target="_top" xlink:title="prtx::BuiltinAttributesGetters">
<polygon fill="none" stroke="black" points="144,-57.5 144,-76.5 284,-76.5 284,-57.5 144,-57.5"/>
<text text-anchor="middle" x="214" y="-64.5" font-family="Helvetica,sans-Serif" font-size="10.00">prtx::BuiltinAttributesGetters</text>
</a>
</g>
</g>
<!-- Node6&#45;&gt;Node7 -->
<g id="edge5" class="edge"><title>Node6&#45;&gt;Node7</title>
<path fill="none" stroke="midnightblue" d="M118.181,-67C126.61,-67 135.289,-67 143.814,-67"/>
<polygon fill="midnightblue" stroke="midnightblue" points="118.051,-63.5001 108.051,-67 118.051,-70.5001 118.051,-63.5001"/>
</g>
<!-- Node8 -->
<g id="node8" class="node"><title>Node8</title>
<g id="a_node8"><a xlink:href="classprtx_1_1_builtin_material_attributes.html" target="_top" xlink:title="prtx::BuiltinMaterialAttributes">
<polygon fill="none" stroke="black" points="320.5,-114.5 320.5,-133.5 463.5,-133.5 463.5,-114.5 320.5,-114.5"/>
<text text-anchor="middle" x="392" y="-121.5" font-family="Helvetica,sans-Serif" font-size="10.00">prtx::BuiltinMaterialAttributes</text>
</a>
</g>
</g>
<!-- Node7&#45;&gt;Node8 -->
<g id="edge6" class="edge"><title>Node7&#45;&gt;Node8</title>
<path fill="none" stroke="midnightblue" d="M248.907,-80.1076C269.351,-87.8011 296,-97.461 320,-105 330.591,-108.327 342.184,-111.587 352.874,-114.441"/>
<polygon fill="midnightblue" stroke="midnightblue" points="249.999,-76.7785 239.407,-76.5066 247.517,-83.324 249.999,-76.7785"/>
</g>
<!-- Node9 -->
<g id="node9" class="node"><title>Node9</title>
<g id="a_node9"><a xlink:href="classprtx_1_1_builtin_shape_attributes.html" target="_top" xlink:title="prtx::BuiltinShapeAttributes">
<polygon fill="none" stroke="black" points="324,-0.5 324,-19.5 460,-19.5 460,-0.5 324,-0.5"/>
<text text-anchor="middle" x="392" y="-7.5" font-family="Helvetica,sans-Serif" font-size="10.00">prtx::BuiltinShapeAttributes</text>
</a>
</g>
</g>
<!-- Node7&#45;&gt;Node9 -->
<g id="edge8" class="edge"><title>Node7&#45;&gt;Node9</title>
<path fill="none" stroke="midnightblue" d="M254.077,-54.3442C286.521,-43.837 331.968,-29.1184 361.445,-19.5716"/>
<polygon fill="midnightblue" stroke="midnightblue" points="252.894,-51.0486 244.458,-57.4595 255.05,-57.7081 252.894,-51.0486"/>
</g>
<!-- Node8&#45;&gt;Node3 -->
<g id="edge7" class="edge"><title>Node8&#45;&gt;Node3</title>
<path fill="none" stroke="midnightblue" d="M473.939,-124C484.357,-124 494.573,-124 503.74,-124"/>
<polygon fill="midnightblue" stroke="midnightblue" points="473.917,-120.5 463.916,-124 473.916,-127.5 473.917,-120.5"/>
</g>
<!-- Node9&#45;&gt;Node4 -->
<g id="edge9" class="edge"><title>Node9&#45;&gt;Node4</title>
<path fill="none" stroke="midnightblue" d="M470.424,-10C483.358,-10 496.13,-10 507.13,-10"/>
<polygon fill="midnightblue" stroke="midnightblue" points="470.047,-6.5001 460.047,-10 470.047,-13.5001 470.047,-6.5001"/>
</g>
<!-- Node10 -->
<g id="node10" class="node"><title>Node10</title>
<g id="a_node10"><a xlink:href="classprtx_1_1_content.html" target="_top" xlink:title="prtx::Content">
<polygon fill="none" stroke="black" points="177,-190.5 177,-209.5 251,-209.5 251,-190.5 177,-190.5"/>
<text text-anchor="middle" x="214" y="-197.5" font-family="Helvetica,sans-Serif" font-size="10.00">prtx::Content</text>
</a>
</g>
</g>
<!-- Node11 -->
<g id="node11" class="node"><title>Node11</title>
<g id="a_node11"><a xlink:href="classprtx_1_1_c_g_b.html" target="_top" xlink:title="prtx::CGB">
<polygon fill="none" stroke="black" points="361.5,-152.5 361.5,-171.5 422.5,-171.5 422.5,-152.5 361.5,-152.5"/>
<text text-anchor="middle" x="392" y="-159.5" font-family="Helvetica,sans-Serif" font-size="10.00">prtx::CGB</text>
</a>
</g>
</g>
<!-- Node10&#45;&gt;Node11 -->
<g id="edge10" class="edge"><title>Node10&#45;&gt;Node11</title>
<path fill="none" stroke="midnightblue" d="M260.981,-190.072C292.719,-183.22 333.987,-174.31 361.427,-168.385"/>
<polygon fill="midnightblue" stroke="midnightblue" points="260.077,-186.687 251.041,-192.218 261.554,-193.529 260.077,-186.687"/>
</g>
<!-- Node12 -->
<g id="node12" class="node"><title>Node12</title>
<g id="a_node12"><a xlink:href="classprtx_1_1_comparable_content.html" target="_top" xlink:title="prtx::ComparableContent">
<polygon fill="none" stroke="black" points="329,-266.5 329,-285.5 455,-285.5 455,-266.5 329,-266.5"/>
<text text-anchor="middle" x="392" y="-273.5" font-family="Helvetica,sans-Serif" font-size="10.00">prtx::ComparableContent</text>
</a>
</g>
</g>
<!-- Node10&#45;&gt;Node12 -->
<g id="edge11" class="edge"><title>Node10&#45;&gt;Node12</title>
<path fill="none" stroke="midnightblue" d="M238.864,-215.074C259.649,-227.679 290.928,-245.408 320,-257 329.127,-260.639 339.186,-263.808 348.792,-266.46"/>
<polygon fill="midnightblue" stroke="midnightblue" points="240.45,-211.941 230.099,-209.684 236.784,-217.903 240.45,-211.941"/>
</g>
<!-- Node14 -->
<g id="node14" class="node"><title>Node14</title>
<g id="a_node14"><a xlink:href="classprtx_1_1_c_t_string.html" target="_top" xlink:title="prtx::CTString">
<polygon fill="none" stroke="black" points="353,-228.5 353,-247.5 431,-247.5 431,-228.5 353,-228.5"/>
<text text-anchor="middle" x="392" y="-235.5" font-family="Helvetica,sans-Serif" font-size="10.00">prtx::CTString</text>
</a>
</g>
</g>
<!-- Node10&#45;&gt;Node14 -->
<g id="edge15" class="edge"><title>Node10&#45;&gt;Node14</title>
<path fill="none" stroke="midnightblue" d="M261.185,-209.972C289.744,-216.138 325.958,-223.957 352.876,-229.769"/>
<polygon fill="midnightblue" stroke="midnightblue" points="261.554,-206.471 251.041,-207.782 260.077,-213.313 261.554,-206.471"/>
</g>
<!-- Node10&#45;&gt;Node2 -->
<g id="edge16" class="edge"><title>Node10&#45;&gt;Node2</title>
<path fill="none" stroke="midnightblue" d="M223.654,-181.024C238.53,-150.885 272.047,-92.8447 320,-67 376.695,-36.4434 453.724,-37.8097 499.982,-42.3598"/>
<polygon fill="midnightblue" stroke="midnightblue" points="220.317,-179.89 219.176,-190.423 226.637,-182.9 220.317,-179.89"/>
</g>
<!-- Node15 -->
<g id="node15" class="node"><title>Node15</title>
<g id="a_node15"><a xlink:href="classprtx_1_1_mesh.html" target="_top" xlink:title="prtx::Mesh">
<polygon fill="none" stroke="black" points="360.5,-190.5 360.5,-209.5 423.5,-209.5 423.5,-190.5 360.5,-190.5"/>
<text text-anchor="middle" x="392" y="-197.5" font-family="Helvetica,sans-Serif" font-size="10.00">prtx::Mesh</text>
</a>
</g>
</g>
<!-- Node10&#45;&gt;Node15 -->
<g id="edge17" class="edge"><title>Node10&#45;&gt;Node15</title>
<path fill="none" stroke="midnightblue" d="M261.261,-200C292.527,-200 332.941,-200 360.293,-200"/>
<polygon fill="midnightblue" stroke="midnightblue" points="261.041,-196.5 251.041,-200 261.041,-203.5 261.041,-196.5"/>
</g>
<!-- Node12&#45;&gt;Node3 -->
<g id="edge12" class="edge"><title>Node12&#45;&gt;Node3</title>
<path fill="none" stroke="midnightblue" d="M456.194,-262.117C458.932,-260.586 461.552,-258.886 464,-257 507.184,-223.722 529.941,-158.455 537.295,-133.77"/>
<polygon fill="midnightblue" stroke="midnightblue" points="454.629,-258.986 447.116,-266.456 457.647,-265.301 454.629,-258.986"/>
</g>
<!-- Node13 -->
<g id="node13" class="node"><title>Node13</title>
<g id="a_node13"><a xlink:href="classprtx_1_1_shader.html" target="_top" xlink:title="prtx::Shader">
<polygon fill="none" stroke="black" points="506,-266.5 506,-285.5 576,-285.5 576,-266.5 506,-266.5"/>
<text text-anchor="middle" x="541" y="-273.5" font-family="Helvetica,sans-Serif" font-size="10.00">prtx::Shader</text>
</a>
</g>
</g>
<!-- Node12&#45;&gt;Node13 -->
<g id="edge13" class="edge"><title>Node12&#45;&gt;Node13</title>
<path fill="none" stroke="midnightblue" d="M465.495,-276C479.491,-276 493.536,-276 505.599,-276"/>
<polygon fill="midnightblue" stroke="midnightblue" points="465.341,-272.5 455.341,-276 465.341,-279.5 465.341,-272.5"/>
</g>
<!-- Node12&#45;&gt;Node5 -->
<g id="edge14" class="edge"><title>Node12&#45;&gt;Node5</title>
<path fill="none" stroke="midnightblue" d="M459.527,-261.016C461.103,-259.778 462.6,-258.441 464,-257 512.375,-207.205 456.349,-158.985 500,-105 503.094,-101.174 507.141,-98.0734 511.471,-95.5747"/>
<polygon fill="midnightblue" stroke="midnightblue" points="457.606,-258.09 451.065,-266.425 461.376,-263.988 457.606,-258.09"/>
</g>
</g>
</svg>
