<?xml version="1.0" encoding="UTF-8" standalone="no"?>
<!DOCTYPE svg PUBLIC "-//W3C//DTD SVG 1.1//EN"
 "http://www.w3.org/Graphics/SVG/1.1/DTD/svg11.dtd">
<!-- Generated by graphviz version 2.30.1 (20170916.1124)
 -->
<!-- Title: Graphical Class Hierarchy Pages: 1 -->
<svg width="590pt" height="318pt"
 viewBox="0.00 0.00 590.00 318.02" xmlns="http://www.w3.org/2000/svg" xmlns:xlink="http://www.w3.org/1999/xlink">
<g id="graph0" class="graph" transform="scale(1 1) rotate(0) translate(4 314.018)">
<title>Graphical Class Hierarchy</title>
<!-- Node1 -->
<g id="node1" class="node"><title>Node1</title>
<g id="a_node1"><a xlink:href="classprtx_1_1_attributable.html" target="_top" xlink:title="prtx::Attributable">
<polygon fill="none" stroke="black" points="347.5,-76.5 347.5,-95.5 436.5,-95.5 436.5,-76.5 347.5,-76.5"/>
<text text-anchor="middle" x="392" y="-83.5" font-family="Helvetica,sans-Serif" font-size="10.00">prtx::Attributable</text>
</a>
</g>
</g>
<!-- Node2 -->
<g id="node2" class="node"><title>Node2</title>
<g id="a_node2"><a xlink:href="classprtx_1_1_geometry.html" target="_top" xlink:title="prtx::Geometry">
<polygon fill="none" stroke="black" points="500,-228.5 500,-247.5 582,-247.5 582,-228.5 500,-228.5"/>
<text text-anchor="middle" x="541" y="-235.5" font-family="Helvetica,sans-Serif" font-size="10.00">prtx::Geometry</text>
</a>
</g>
</g>
<!-- Node1&#45;&gt;Node2 -->
<g id="edge1" class="edge"><title>Node1&#45;&gt;Node2</title>
<path fill="none" stroke="midnightblue" d="M446.685,-95.3692C452.883,-97.861 458.826,-101.013 464,-105 507.184,-138.278 529.941,-203.545 537.295,-228.23"/>
<polygon fill="midnightblue" stroke="midnightblue" points="447.403,-91.9151 436.809,-91.9719 445.126,-98.5344 447.403,-91.9151"/>
</g>
<!-- Node3 -->
<g id="node3" class="node"><title>Node3</title>
<g id="a_node3"><a xlink:href="classprtx_1_1_material.html" target="_top" xlink:title="prtx::Material">
<polygon fill="none" stroke="black" points="504,-0.5 504,-19.5 578,-19.5 578,-0.5 504,-0.5"/>
<text text-anchor="middle" x="541" y="-7.5" font-family="Helvetica,sans-Serif" font-size="10.00">prtx::Material</text>
</a>
</g>
</g>
<!-- Node1&#45;&gt;Node3 -->
<g id="edge2" class="edge"><title>Node1&#45;&gt;Node3</title>
<path fill="none" stroke="midnightblue" d="M446.329,-75.2139C452.499,-72.9634 458.531,-70.2553 464,-67 483.991,-55.0999 481.173,-42.6673 500,-29 504.853,-25.4771 510.462,-22.3371 515.916,-19.6738"/>
<polygon fill="midnightblue" stroke="midnightblue" points="445.009,-71.9629 436.584,-78.3866 447.176,-78.6191 445.009,-71.9629"/>
</g>
<!-- Node4 -->
<g id="node4" class="node"><title>Node4</title>
<g id="a_node4"><a xlink:href="classprtx_1_1_shape.html" target="_top" xlink:title="prtx::Shape">
<polygon fill="none" stroke="black" points="507.5,-114.5 507.5,-133.5 574.5,-133.5 574.5,-114.5 507.5,-114.5"/>
<text text-anchor="middle" x="541" y="-121.5" font-family="Helvetica,sans-Serif" font-size="10.00">prtx::Shape</text>
</a>
</g>
</g>
<!-- Node1&#45;&gt;Node4 -->
<g id="edge3" class="edge"><title>Node1&#45;&gt;Node4</title>
<path fill="none" stroke="midnightblue" d="M439.91,-98.1264C461.91,-103.814 487.585,-110.45 507.422,-115.578"/>
<polygon fill="midnightblue" stroke="midnightblue" points="440.652,-94.7032 430.094,-95.589 438.9,-101.48 440.652,-94.7032"/>
</g>
<!-- Node5 -->
<g id="node5" class="node"><title>Node5</title>
<g id="a_node5"><a xlink:href="classprtx_1_1_texture.html" target="_top" xlink:title="prtx::Texture">
<polygon fill="none" stroke="black" points="505,-76.5 505,-95.5 577,-95.5 577,-76.5 505,-76.5"/>
<text text-anchor="middle" x="541" y="-83.5" font-family="Helvetica,sans-Serif" font-size="10.00">prtx::Texture</text>
</a>
</g>
</g>
<!-- Node1&#45;&gt;Node5 -->
<g id="edge4" class="edge"><title>Node1&#45;&gt;Node5</title>
<path fill="none" stroke="midnightblue" d="M446.864,-86C466.115,-86 487.305,-86 504.603,-86"/>
<polygon fill="midnightblue" stroke="midnightblue" points="446.707,-82.5001 436.707,-86 446.707,-89.5001 446.707,-82.5001"/>
</g>
<!-- Node6 -->
<g id="node6" class="node"><title>Node6</title>
<g id="a_node6"><a xlink:href="classprtx_1_1_builtin_attributes.html" target="_top" xlink:title="prtx::BuiltinAttributes">
<polygon fill="none" stroke="black" points="0,-57.5 0,-76.5 108,-76.5 108,-57.5 0,-57.5"/>
<text text-anchor="middle" x="54" y="-64.5" font-family="Helvetica,sans-Serif" font-size="10.00">prtx::BuiltinAttributes</text>
</a>
</g>
</g>
<!-- Node7 -->
<g id="node7" class="node"><title>Node7</title>
<g id="a_node7"><a xlink:href="classprtx_1_1_builtin_attributes_getters.html" target="_top" xlink:title="prtx::BuiltinAttributesGetters">
<polygon fill="none" stroke="black" points="144,-57.5 144,-76.5 284,-76.5 284,-57.5 144,-57.5"/>
<text text-anchor="middle" x="214" y="-64.5" font-family="Helvetica,sans-Serif" font-size="10.00">prtx::BuiltinAttributesGetters</text>
</a>
</g>
</g>
<!-- Node6&#45;&gt;Node7 -->
<g id="edge5" class="edge"><title>Node6&#45;&gt;Node7</title>
<path fill="none" stroke="midnightblue" d="M118.181,-67C126.61,-67 135.289,-67 143.814,-67"/>
<polygon fill="midnightblue" stroke="midnightblue" points="118.051,-63.5001 108.051,-67 118.051,-70.5001 118.051,-63.5001"/>
</g>
<!-- Node8 -->
<g id="node8" class="node"><title>Node8</title>
<g id="a_node8"><a xlink:href="classprtx_1_1_builtin_material_attributes.html" target="_top" xlink:title="prtx::BuiltinMaterialAttributes">
<polygon fill="none" stroke="black" points="320.5,-0.5 320.5,-19.5 463.5,-19.5 463.5,-0.5 320.5,-0.5"/>
<text text-anchor="middle" x="392" y="-7.5" font-family="Helvetica,sans-Serif" font-size="10.00">prtx::BuiltinMaterialAttributes</text>
</a>
</g>
</g>
<!-- Node7&#45;&gt;Node8 -->
<g id="edge6" class="edge"><title>Node7&#45;&gt;Node8</title>
<path fill="none" stroke="midnightblue" d="M248.907,-53.8924C269.351,-46.1989 296,-36.539 320,-29 330.591,-25.6731 342.184,-22.4131 352.874,-19.5587"/>
<polygon fill="midnightblue" stroke="midnightblue" points="247.517,-50.676 239.407,-57.4934 249.999,-57.2215 247.517,-50.676"/>
</g>
<!-- Node9 -->
<g id="node9" class="node"><title>Node9</title>
<g id="a_node9"><a xlink:href="classprtx_1_1_builtin_shape_attributes.html" target="_top" xlink:title="prtx::BuiltinShapeAttributes">
<polygon fill="none" stroke="black" points="324,-114.5 324,-133.5 460,-133.5 460,-114.5 324,-114.5"/>
<text text-anchor="middle" x="392" y="-121.5" font-family="Helvetica,sans-Serif" font-size="10.00">prtx::BuiltinShapeAttributes</text>
</a>
</g>
</g>
<!-- Node7&#45;&gt;Node9 -->
<g id="edge8" class="edge"><title>Node7&#45;&gt;Node9</title>
<path fill="none" stroke="midnightblue" d="M248.907,-80.1076C269.351,-87.8011 296,-97.461 320,-105 330.591,-108.327 342.184,-111.587 352.874,-114.441"/>
<polygon fill="midnightblue" stroke="midnightblue" points="249.999,-76.7785 239.407,-76.5066 247.517,-83.324 249.999,-76.7785"/>
</g>
<!-- Node8&#45;&gt;Node3 -->
<g id="edge7" class="edge"><title>Node8&#45;&gt;Node3</title>
<path fill="none" stroke="midnightblue" d="M473.939,-10C484.357,-10 494.573,-10 503.74,-10"/>
<polygon fill="midnightblue" stroke="midnightblue" points="473.917,-6.5001 463.916,-10 473.916,-13.5001 473.917,-6.5001"/>
</g>
<!-- Node9&#45;&gt;Node4 -->
<g id="edge9" class="edge"><title>Node9&#45;&gt;Node4</title>
<path fill="none" stroke="midnightblue" d="M470.424,-124C483.358,-124 496.13,-124 507.13,-124"/>
<polygon fill="midnightblue" stroke="midnightblue" points="470.047,-120.5 460.047,-124 470.047,-127.5 470.047,-120.5"/>
</g>
<!-- Node10 -->
<g id="node10" class="node"><title>Node10</title>
<g id="a_node10"><a xlink:href="classprtx_1_1_content.html" target="_top" xlink:title="prtx::Content">
<polygon fill="none" stroke="black" points="177,-209.5 177,-228.5 251,-228.5 251,-209.5 177,-209.5"/>
<text text-anchor="middle" x="214" y="-216.5" font-family="Helvetica,sans-Serif" font-size="10.00">prtx::Content</text>
</a>
</g>
</g>
<!-- Node11 -->
<g id="node11" class="node"><title>Node11</title>
<g id="a_node11"><a xlink:href="classprtx_1_1_c_g_b.html" target="_top" xlink:title="prtx::CGB">
<polygon fill="none" stroke="black" points="361.5,-190.5 361.5,-209.5 422.5,-209.5 422.5,-190.5 361.5,-190.5"/>
<text text-anchor="middle" x="392" y="-197.5" font-family="Helvetica,sans-Serif" font-size="10.00">prtx::CGB</text>
</a>
</g>
</g>
<!-- Node10&#45;&gt;Node11 -->
<g id="edge10" class="edge"><title>Node10&#45;&gt;Node11</title>
<path fill="none" stroke="midnightblue" d="M261.394,-213.992C293.076,-210.571 334.105,-206.142 361.427,-203.193"/>
<polygon fill="midnightblue" stroke="midnightblue" points="260.607,-210.556 251.041,-215.109 261.359,-217.516 260.607,-210.556"/>
</g>
<!-- Node12 -->
<g id="node12" class="node"><title>Node12</title>
<g id="a_node12"><a xlink:href="classprtx_1_1_comparable_content.html" target="_top" xlink:title="prtx::ComparableContent">
<polygon fill="none" stroke="black" points="329,-38.5 329,-57.5 455,-57.5 455,-38.5 329,-38.5"/>
<text text-anchor="middle" x="392" y="-45.5" font-family="Helvetica,sans-Serif" font-size="10.00">prtx::ComparableContent</text>
</a>
</g>
</g>
<!-- Node10&#45;&gt;Node12 -->
<g id="edge11" class="edge"><title>Node10&#45;&gt;Node12</title>
<path fill="none" stroke="midnightblue" d="M222.722,-200.18C236.978,-167.839 270.557,-101.843 320,-67 325.528,-63.1043 331.81,-60.0073 338.298,-57.5452"/>
<polygon fill="midnightblue" stroke="midnightblue" points="219.487,-198.845 218.777,-209.416 225.924,-201.594 219.487,-198.845"/>
</g>
<!-- Node14 -->
<g id="node14" class="node"><title>Node14</title>
<g id="a_node14"><a xlink:href="classprtx_1_1_c_t_string.html" target="_top" xlink:title="prtx::CTString">
<polygon fill="none" stroke="black" points="353,-152.5 353,-171.5 431,-171.5 431,-152.5 353,-152.5"/>
<text text-anchor="middle" x="392" y="-159.5" font-family="Helvetica,sans-Serif" font-size="10.00">prtx::CTString</text>
</a>
</g>
</g>
<!-- Node10&#45;&gt;Node14 -->
<g id="edge15" class="edge"><title>Node10&#45;&gt;Node14</title>
<path fill="none" stroke="midnightblue" d="M248.907,-205.892C269.351,-198.199 296,-188.539 320,-181 330.591,-177.673 342.184,-174.413 352.874,-171.559"/>
<polygon fill="midnightblue" stroke="midnightblue" points="247.517,-202.676 239.407,-209.493 249.999,-209.222 247.517,-202.676"/>
</g>
<!-- Node10&#45;&gt;Node2 -->
<g id="edge16" class="edge"><title>Node10&#45;&gt;Node2</title>
<path fill="none" stroke="midnightblue" d="M231.242,-235.929C250.408,-254.562 284.222,-283.41 320,-295 380.885,-314.723 403.284,-315.239 464,-295 492.164,-285.612 518.296,-261.246 531.329,-247.606"/>
<polygon fill="midnightblue" stroke="midnightblue" points="233.508,-233.245 223.962,-228.649 228.558,-238.195 233.508,-233.245"/>
</g>
<!-- Node15 -->
<g id="node15" class="node"><title>Node15</title>
<g id="a_node15"><a xlink:href="classprtx_1_1_mesh.html" target="_top" xlink:title="prtx::Mesh">
<polygon fill="none" stroke="black" points="360.5,-266.5 360.5,-285.5 423.5,-285.5 423.5,-266.5 360.5,-266.5"/>
<text text-anchor="middle" x="392" y="-273.5" font-family="Helvetica,sans-Serif" font-size="10.00">prtx::Mesh</text>
</a>
</g>
</g>
<!-- Node10&#45;&gt;Node15 -->
<g id="edge17" class="edge"><title>Node10&#45;&gt;Node15</title>
<path fill="none" stroke="midnightblue" d="M248.907,-232.108C269.351,-239.801 296,-249.461 320,-257 333.148,-261.13 347.838,-265.157 360.43,-268.433"/>
<polygon fill="midnightblue" stroke="midnightblue" points="249.999,-228.778 239.407,-228.507 247.517,-235.324 249.999,-228.778"/>
</g>
<!-- Node16 -->
<g id="node16" class="node"><title>Node16</title>
<g id="a_node16"><a xlink:href="classprtx_1_1_table.html" target="_top" xlink:title="prtx::Table">
<polygon fill="none" stroke="black" points="360.5,-228.5 360.5,-247.5 423.5,-247.5 423.5,-228.5 360.5,-228.5"/>
<text text-anchor="middle" x="392" y="-235.5" font-family="Helvetica,sans-Serif" font-size="10.00">prtx::Table</text>
</a>
</g>
</g>
<!-- Node10&#45;&gt;Node16 -->
<g id="edge18" class="edge"><title>Node10&#45;&gt;Node16</title>
<path fill="none" stroke="midnightblue" d="M261.261,-223.994C292.527,-227.369 332.941,-231.732 360.293,-234.685"/>
<polygon fill="midnightblue" stroke="midnightblue" points="261.359,-220.484 251.041,-222.891 260.607,-227.444 261.359,-220.484"/>
</g>
<!-- Node12&#45;&gt;Node3 -->
<g id="edge12" class="edge"><title>Node12&#45;&gt;Node3</title>
<path fill="none" stroke="midnightblue" d="M439.969,-35.8582C460.688,-30.5025 484.655,-24.307 503.934,-19.3232"/>
<polygon fill="midnightblue" stroke="midnightblue" points="438.9,-32.5195 430.094,-38.411 440.652,-39.2968 438.9,-32.5195"/>
</g>
<!-- Node13 -->
<g id="node13" class="node"><title>Node13</title>
<g id="a_node13"><a xlink:href="classprtx_1_1_shader.html" target="_top" xlink:title="prtx::Shader">
<polygon fill="none" stroke="black" points="506,-38.5 506,-57.5 576,-57.5 576,-38.5 506,-38.5"/>
<text text-anchor="middle" x="541" y="-45.5" font-family="Helvetica,sans-Serif" font-size="10.00">prtx::Shader</text>
</a>
</g>
</g>
<!-- Node12&#45;&gt;Node13 -->
<g id="edge13" class="edge"><title>Node12&#45;&gt;Node13</title>
<path fill="none" stroke="midnightblue" d="M465.495,-48C479.491,-48 493.536,-48 505.599,-48"/>
<polygon fill="midnightblue" stroke="midnightblue" points="465.341,-44.5001 455.341,-48 465.341,-51.5001 465.341,-44.5001"/>
</g>
<!-- Node12&#45;&gt;Node5 -->
<g id="edge14" class="edge"><title>Node12&#45;&gt;Node5</title>
<path fill="none" stroke="midnightblue" d="M439.836,-60.1072C460.947,-65.5645 485.453,-71.8995 504.942,-76.9373"/>
<polygon fill="midnightblue" stroke="midnightblue" points="440.652,-56.7032 430.094,-57.589 438.9,-63.4805 440.652,-56.7032"/>
</g>
</g>
</svg>
