<?xml version="1.0" encoding="UTF-8" standalone="no"?>
<!DOCTYPE svg PUBLIC "-//W3C//DTD SVG 1.1//EN"
 "http://www.w3.org/Graphics/SVG/1.1/DTD/svg11.dtd">
<!-- Generated by graphviz version 2.30.1 (20140821.0912)
 -->
<!-- Title: Graphical Class Hierarchy Pages: 1 -->
<svg width="360pt" height="332pt"
 viewBox="0.00 0.00 360.00 332.00" xmlns="http://www.w3.org/2000/svg" xmlns:xlink="http://www.w3.org/1999/xlink">
<g id="graph0" class="graph" transform="scale(1 1) rotate(0) translate(4 328)">
<title>Graphical Class Hierarchy</title>
<!-- Node1 -->
<g id="node1" class="node"><title>Node1</title>
<g id="a_node1"><a xlink:href="classprtx_1_1_extension.html" target="_top" xlink:title="prtx::Extension">
<polygon fill="none" stroke="black" points="0.5,-190.5 0.5,-209.5 83.5,-209.5 83.5,-190.5 0.5,-190.5"/>
<text text-anchor="middle" x="42" y="-197.5" font-family="Helvetica,sans-Serif" font-size="10.00">prtx::Extension</text>
</a>
</g>
</g>
<!-- Node2 -->
<g id="node2" class="node"><title>Node2</title>
<g id="a_node2"><a xlink:href="classprtx_1_1_adaptor.html" target="_top" xlink:title="prtx::Adaptor">
<polygon fill="none" stroke="black" points="121.5,-266.5 121.5,-285.5 194.5,-285.5 194.5,-266.5 121.5,-266.5"/>
<text text-anchor="middle" x="158" y="-273.5" font-family="Helvetica,sans-Serif" font-size="10.00">prtx::Adaptor</text>
</a>
</g>
</g>
<!-- Node1&#45;&gt;Node2 -->
<g id="edge1" class="edge"><title>Node1&#45;&gt;Node2</title>
<path fill="none" stroke="midnightblue" d="M65.8889,-215.259C88.8132,-230.542 123.382,-253.588 142.679,-266.453"/>
<polygon fill="midnightblue" stroke="midnightblue" points="67.7002,-212.26 57.4382,-209.625 63.8172,-218.085 67.7002,-212.26"/>
</g>
<!-- Node4 -->
<g id="node4" class="node"><title>Node4</title>
<g id="a_node4"><a xlink:href="classprtx_1_1_decoder.html" target="_top" xlink:title="prtx::Decoder">
<polygon fill="none" stroke="black" points="120,-190.5 120,-209.5 196,-209.5 196,-190.5 120,-190.5"/>
<text text-anchor="middle" x="158" y="-197.5" font-family="Helvetica,sans-Serif" font-size="10.00">prtx::Decoder</text>
</a>
</g>
</g>
<!-- Node1&#45;&gt;Node4 -->
<g id="edge3" class="edge"><title>Node1&#45;&gt;Node4</title>
<path fill="none" stroke="midnightblue" d="M93.6423,-200C102.393,-200 111.346,-200 119.662,-200"/>
<polygon fill="midnightblue" stroke="midnightblue" points="93.5132,-196.5 83.5131,-200 93.5131,-203.5 93.5132,-196.5"/>
</g>
<!-- Node10 -->
<g id="node10" class="node"><title>Node10</title>
<g id="a_node10"><a xlink:href="classprtx_1_1_encoder.html" target="_top" xlink:title="prtx::Encoder">
<polygon fill="none" stroke="black" points="120.5,-57.5 120.5,-76.5 195.5,-76.5 195.5,-57.5 120.5,-57.5"/>
<text text-anchor="middle" x="158" y="-64.5" font-family="Helvetica,sans-Serif" font-size="10.00">prtx::Encoder</text>
</a>
</g>
</g>
<!-- Node1&#45;&gt;Node10 -->
<g id="edge9" class="edge"><title>Node1&#45;&gt;Node10</title>
<path fill="none" stroke="midnightblue" d="M57.9343,-182.577C82.1909,-154.277 129.37,-99.2352 148.568,-76.8372"/>
<polygon fill="midnightblue" stroke="midnightblue" points="55.0491,-180.565 51.1986,-190.435 60.364,-185.12 55.0491,-180.565"/>
</g>
<!-- Node3 -->
<g id="node3" class="node"><title>Node3</title>
<g id="a_node3"><a xlink:href="classprtx_1_1_stream_adaptor.html" target="_top" xlink:title="prtx::StreamAdaptor">
<polygon fill="none" stroke="black" points="240,-304.5 240,-323.5 344,-323.5 344,-304.5 240,-304.5"/>
<text text-anchor="middle" x="292" y="-311.5" font-family="Helvetica,sans-Serif" font-size="10.00">prtx::StreamAdaptor</text>
</a>
</g>
</g>
<!-- Node2&#45;&gt;Node3 -->
<g id="edge2" class="edge"><title>Node2&#45;&gt;Node3</title>
<path fill="none" stroke="midnightblue" d="M202.041,-288.391C220.118,-293.594 240.819,-299.554 257.701,-304.414"/>
<polygon fill="midnightblue" stroke="midnightblue" points="202.887,-284.992 192.309,-285.589 200.951,-291.719 202.887,-284.992"/>
</g>
<!-- Node5 -->
<g id="node5" class="node"><title>Node5</title>
<g id="a_node5"><a xlink:href="classprtx_1_1_c_g_b_decoder.html" target="_top" xlink:title="prtx::CGBDecoder">
<polygon fill="none" stroke="black" points="243,-266.5 243,-285.5 341,-285.5 341,-266.5 243,-266.5"/>
<text text-anchor="middle" x="292" y="-273.5" font-family="Helvetica,sans-Serif" font-size="10.00">prtx::CGBDecoder</text>
</a>
</g>
</g>
<!-- Node4&#45;&gt;Node5 -->
<g id="edge4" class="edge"><title>Node4&#45;&gt;Node5</title>
<path fill="none" stroke="midnightblue" d="M176.52,-216.581C190.585,-229.142 211.334,-246.05 232,-257 239.037,-260.728 246.935,-263.889 254.609,-266.498"/>
<polygon fill="midnightblue" stroke="midnightblue" points="178.805,-213.928 169.062,-209.766 174.083,-219.096 178.805,-213.928"/>
</g>
<!-- Node6 -->
<g id="node6" class="node"><title>Node6</title>
<g id="a_node6"><a xlink:href="classprtx_1_1_geometry_decoder.html" target="_top" xlink:title="prtx::GeometryDecoder">
<polygon fill="none" stroke="black" points="232.5,-228.5 232.5,-247.5 351.5,-247.5 351.5,-228.5 232.5,-228.5"/>
<text text-anchor="middle" x="292" y="-235.5" font-family="Helvetica,sans-Serif" font-size="10.00">prtx::GeometryDecoder</text>
</a>
</g>
</g>
<!-- Node4&#45;&gt;Node6 -->
<g id="edge5" class="edge"><title>Node4&#45;&gt;Node6</title>
<path fill="none" stroke="midnightblue" d="M202.041,-212.391C220.118,-217.594 240.819,-223.554 257.701,-228.414"/>
<polygon fill="midnightblue" stroke="midnightblue" points="202.887,-208.992 192.309,-209.589 200.951,-215.719 202.887,-208.992"/>
</g>
<!-- Node7 -->
<g id="node7" class="node"><title>Node7</title>
<g id="a_node7"><a xlink:href="classprtx_1_1_material_decoder.html" target="_top" xlink:title="prtx::MaterialDecoder">
<polygon fill="none" stroke="black" points="237,-190.5 237,-209.5 347,-209.5 347,-190.5 237,-190.5"/>
<text text-anchor="middle" x="292" y="-197.5" font-family="Helvetica,sans-Serif" font-size="10.00">prtx::MaterialDecoder</text>
</a>
</g>
</g>
<!-- Node4&#45;&gt;Node7 -->
<g id="edge6" class="edge"><title>Node4&#45;&gt;Node7</title>
<path fill="none" stroke="midnightblue" d="M206.221,-200C216.169,-200 226.738,-200 236.916,-200"/>
<polygon fill="midnightblue" stroke="midnightblue" points="206.121,-196.5 196.121,-200 206.121,-203.5 206.121,-196.5"/>
</g>
<!-- Node8 -->
<g id="node8" class="node"><title>Node8</title>
<g id="a_node8"><a xlink:href="classprtx_1_1_shader_decoder.html" target="_top" xlink:title="prtx::ShaderDecoder">
<polygon fill="none" stroke="black" points="238.5,-152.5 238.5,-171.5 345.5,-171.5 345.5,-152.5 238.5,-152.5"/>
<text text-anchor="middle" x="292" y="-159.5" font-family="Helvetica,sans-Serif" font-size="10.00">prtx::ShaderDecoder</text>
</a>
</g>
</g>
<!-- Node4&#45;&gt;Node8 -->
<g id="edge7" class="edge"><title>Node4&#45;&gt;Node8</title>
<path fill="none" stroke="midnightblue" d="M202.041,-187.609C220.118,-182.406 240.819,-176.446 257.701,-171.586"/>
<polygon fill="midnightblue" stroke="midnightblue" points="200.951,-184.281 192.309,-190.411 202.887,-191.008 200.951,-184.281"/>
</g>
<!-- Node9 -->
<g id="node9" class="node"><title>Node9</title>
<g id="a_node9"><a xlink:href="classprtx_1_1_texture_decoder.html" target="_top" xlink:title="prtx::TextureDecoder">
<polygon fill="none" stroke="black" points="237.5,-114.5 237.5,-133.5 346.5,-133.5 346.5,-114.5 237.5,-114.5"/>
<text text-anchor="middle" x="292" y="-121.5" font-family="Helvetica,sans-Serif" font-size="10.00">prtx::TextureDecoder</text>
</a>
</g>
</g>
<!-- Node4&#45;&gt;Node9 -->
<g id="edge8" class="edge"><title>Node4&#45;&gt;Node9</title>
<path fill="none" stroke="midnightblue" d="M176.52,-183.419C190.585,-170.858 211.334,-153.95 232,-143 239.037,-139.272 246.935,-136.111 254.609,-133.502"/>
<polygon fill="midnightblue" stroke="midnightblue" points="174.083,-180.904 169.062,-190.234 178.805,-186.072 174.083,-180.904"/>
</g>
<!-- Node11 -->
<g id="node11" class="node"><title>Node11</title>
<g id="a_node11"><a xlink:href="classprtx_1_1_geometry_encoder.html" target="_top" xlink:title="prtx::GeometryEncoder">
<polygon fill="none" stroke="black" points="233,-76.5 233,-95.5 351,-95.5 351,-76.5 233,-76.5"/>
<text text-anchor="middle" x="292" y="-83.5" font-family="Helvetica,sans-Serif" font-size="10.00">prtx::GeometryEncoder</text>
</a>
</g>
</g>
<!-- Node10&#45;&gt;Node11 -->
<g id="edge10" class="edge"><title>Node10&#45;&gt;Node11</title>
<path fill="none" stroke="midnightblue" d="M205.8,-73.7364C214.574,-74.9993 223.844,-76.3337 232.912,-77.6389"/>
<polygon fill="midnightblue" stroke="midnightblue" points="206.166,-70.2531 195.769,-72.2926 205.169,-77.1817 206.166,-70.2531"/>
</g>
<!-- Node12 -->
<g id="node12" class="node"><title>Node12</title>
<g id="a_node12"><a xlink:href="classprtx_1_1_material_encoder.html" target="_top" xlink:title="prtx::MaterialEncoder">
<polygon fill="none" stroke="black" points="237,-38.5 237,-57.5 347,-57.5 347,-38.5 237,-38.5"/>
<text text-anchor="middle" x="292" y="-45.5" font-family="Helvetica,sans-Serif" font-size="10.00">prtx::MaterialEncoder</text>
</a>
</g>
</g>
<!-- Node10&#45;&gt;Node12 -->
<g id="edge11" class="edge"><title>Node10&#45;&gt;Node12</title>
<path fill="none" stroke="midnightblue" d="M205.88,-60.2522C215.843,-58.818 226.443,-57.2922 236.659,-55.8219"/>
<polygon fill="midnightblue" stroke="midnightblue" points="205.169,-56.8183 195.769,-61.7074 206.166,-63.7469 205.169,-56.8183"/>
</g>
<!-- Node13 -->
<g id="node13" class="node"><title>Node13</title>
<g id="a_node13"><a xlink:href="classprtx_1_1_texture_encoder.html" target="_top" xlink:title="prtx::TextureEncoder">
<polygon fill="none" stroke="black" points="238,-0.5 238,-19.5 346,-19.5 346,-0.5 238,-0.5"/>
<text text-anchor="middle" x="292" y="-7.5" font-family="Helvetica,sans-Serif" font-size="10.00">prtx::TextureEncoder</text>
</a>
</g>
</g>
<!-- Node10&#45;&gt;Node13 -->
<g id="edge12" class="edge"><title>Node10&#45;&gt;Node13</title>
<path fill="none" stroke="midnightblue" d="M184.339,-52.4652C198.157,-44.8853 215.718,-35.8023 232,-29 240.241,-25.5568 249.341,-22.3491 257.875,-19.5861"/>
<polygon fill="midnightblue" stroke="midnightblue" points="182.466,-49.5023 175.433,-57.4263 185.872,-55.6175 182.466,-49.5023"/>
</g>
</g>
</svg>
