<?xml version="1.0" encoding="UTF-8" standalone="no"?>
<!DOCTYPE svg PUBLIC "-//W3C//DTD SVG 1.1//EN"
 "http://www.w3.org/Graphics/SVG/1.1/DTD/svg11.dtd">
<!-- Generated by graphviz version 2.30.1 (20140821.0912)
 -->
<!-- Title: Graphical Class Hierarchy Pages: 1 -->
<svg width="298pt" height="136pt"
 viewBox="0.00 0.00 298.00 136.00" xmlns="http://www.w3.org/2000/svg" xmlns:xlink="http://www.w3.org/1999/xlink">
<g id="graph0" class="graph" transform="scale(1 1) rotate(0) translate(4 132)">
<title>Graphical Class Hierarchy</title>
<!-- Node1 -->
<g id="node1" class="node"><title>Node1</title>
<g id="a_node1"><a xlink:href="classprtx_1_1_reporting_strategy.html" target="_top" xlink:title="prtx::ReportingStrategy">
<polygon fill="none" stroke="black" points="0,-54.5 0,-73.5 118,-73.5 118,-54.5 0,-54.5"/>
<text text-anchor="middle" x="59" y="-61.5" font-family="Helvetica,sans-Serif" font-size="10.00">prtx::ReportingStrategy</text>
</a>
</g>
</g>
<!-- Node2 -->
<g id="node2" class="node"><title>Node2</title>
<g id="a_node2"><a xlink:href="classprtx_1_1_all_shapes_reporting_strategy.html" target="_top" xlink:title="prtx::AllShapesReporting\lStrategy">
<polygon fill="none" stroke="black" points="159.5,-98 159.5,-128 284.5,-128 284.5,-98 159.5,-98"/>
<text text-anchor="start" x="167.5" y="-116" font-family="Helvetica,sans-Serif" font-size="10.00">prtx::AllShapesReporting</text>
<text text-anchor="middle" x="222" y="-105" font-family="Helvetica,sans-Serif" font-size="10.00">Strategy</text>
</a>
</g>
</g>
<!-- Node1&#45;&gt;Node2 -->
<g id="edge1" class="edge"><title>Node1&#45;&gt;Node2</title>
<path fill="none" stroke="midnightblue" d="M101.211,-76.5426C122.665,-83.0719 149.051,-91.1024 171.593,-97.963"/>
<polygon fill="midnightblue" stroke="midnightblue" points="102.01,-73.1273 91.4246,-73.564 99.9723,-79.8241 102.01,-73.1273"/>
</g>
<!-- Node3 -->
<g id="node3" class="node"><title>Node3</title>
<g id="a_node3"><a xlink:href="classprtx_1_1_leaf_shape_reporting_strategy.html" target="_top" xlink:title="prtx::LeafShapeReporting\lStrategy">
<polygon fill="none" stroke="black" points="158,-49 158,-79 286,-79 286,-49 158,-49"/>
<text text-anchor="start" x="166" y="-67" font-family="Helvetica,sans-Serif" font-size="10.00">prtx::LeafShapeReporting</text>
<text text-anchor="middle" x="222" y="-56" font-family="Helvetica,sans-Serif" font-size="10.00">Strategy</text>
</a>
</g>
</g>
<!-- Node1&#45;&gt;Node3 -->
<g id="edge2" class="edge"><title>Node1&#45;&gt;Node3</title>
<path fill="none" stroke="midnightblue" d="M128.227,-64C138.032,-64 148.085,-64 157.787,-64"/>
<polygon fill="midnightblue" stroke="midnightblue" points="128.125,-60.5001 118.125,-64 128.125,-67.5001 128.125,-60.5001"/>
</g>
<!-- Node4 -->
<g id="node4" class="node"><title>Node4</title>
<g id="a_node4"><a xlink:href="classprtx_1_1_single_shape_reporting_strategy.html" target="_top" xlink:title="prtx::SingleShapeReporting\lStrategy">
<polygon fill="none" stroke="black" points="154,-0 154,-30 290,-30 290,-0 154,-0"/>
<text text-anchor="start" x="162" y="-18" font-family="Helvetica,sans-Serif" font-size="10.00">prtx::SingleShapeReporting</text>
<text text-anchor="middle" x="222" y="-7" font-family="Helvetica,sans-Serif" font-size="10.00">Strategy</text>
</a>
</g>
</g>
<!-- Node1&#45;&gt;Node4 -->
<g id="edge3" class="edge"><title>Node1&#45;&gt;Node4</title>
<path fill="none" stroke="midnightblue" d="M101.211,-51.4574C122.665,-44.9281 149.051,-36.8976 171.593,-30.037"/>
<polygon fill="midnightblue" stroke="midnightblue" points="99.9723,-48.1759 91.4246,-54.436 102.01,-54.8727 99.9723,-48.1759"/>
</g>
</g>
</svg>
