<?xml version="1.0" encoding="UTF-8" standalone="no"?>
<!DOCTYPE svg PUBLIC "-//W3C//DTD SVG 1.1//EN"
 "http://www.w3.org/Graphics/SVG/1.1/DTD/svg11.dtd">
<!-- Generated by graphviz version 2.30.1 (20170916.1124)
 -->
<!-- Title: Graphical Class Hierarchy Pages: 1 -->
<svg width="568pt" height="636pt"
 viewBox="0.00 0.00 568.00 636.00" xmlns="http://www.w3.org/2000/svg" xmlns:xlink="http://www.w3.org/1999/xlink">
<g id="graph0" class="graph" transform="scale(1 1) rotate(0) translate(4 632)">
<title>Graphical Class Hierarchy</title>
<!-- Node1 -->
<g id="node1" class="node"><title>Node1</title>
<g id="a_node1"><a xlink:href="classprt_1_1_attributable.html" target="_top" xlink:title="prt::Attributable">
<polygon fill="none" stroke="black" points="141.5,-589.5 141.5,-608.5 224.5,-608.5 224.5,-589.5 141.5,-589.5"/>
<text text-anchor="middle" x="183" y="-596.5" font-family="Helvetica,sans-Serif" font-size="10.00">prt::Attributable</text>
</a>
</g>
</g>
<!-- Node2 -->
<g id="node2" class="node"><title>Node2</title>
<g id="a_node2"><a xlink:href="classprt_1_1_attribute_map.html" target="_top" xlink:title="prt::AttributeMap">
<polygon fill="none" stroke="black" points="314.5,-570.5 314.5,-589.5 403.5,-589.5 403.5,-570.5 314.5,-570.5"/>
<text text-anchor="middle" x="359" y="-577.5" font-family="Helvetica,sans-Serif" font-size="10.00">prt::AttributeMap</text>
</a>
</g>
</g>
<!-- Node1&#45;&gt;Node2 -->
<g id="edge1" class="edge"><title>Node1&#45;&gt;Node2</title>
<path fill="none" stroke="midnightblue" d="M234.912,-593.441C260.135,-590.686 290.276,-587.395 314.419,-584.759"/>
<polygon fill="midnightblue" stroke="midnightblue" points="234.356,-589.98 224.795,-594.545 235.116,-596.939 234.356,-589.98"/>
</g>
<!-- Node3 -->
<g id="node3" class="node"><title>Node3</title>
<g id="a_node3"><a xlink:href="classprt_1_1_resolve_map.html" target="_top" xlink:title="prt::ResolveMap">
<polygon fill="none" stroke="black" points="314.5,-608.5 314.5,-627.5 403.5,-627.5 403.5,-608.5 314.5,-608.5"/>
<text text-anchor="middle" x="359" y="-615.5" font-family="Helvetica,sans-Serif" font-size="10.00">prt::ResolveMap</text>
</a>
</g>
</g>
<!-- Node1&#45;&gt;Node3 -->
<g id="edge2" class="edge"><title>Node1&#45;&gt;Node3</title>
<path fill="none" stroke="midnightblue" d="M234.912,-604.559C260.135,-607.314 290.276,-610.605 314.419,-613.241"/>
<polygon fill="midnightblue" stroke="midnightblue" points="235.116,-601.061 224.795,-603.455 234.356,-608.02 235.116,-601.061"/>
</g>
<!-- Node4 -->
<g id="node4" class="node"><title>Node4</title>
<g id="a_node4"><a xlink:href="classprtx_1_1_resolve_map.html" target="_top" xlink:title="prtx::ResolveMap">
<polygon fill="none" stroke="black" points="466,-608.5 466,-627.5 560,-627.5 560,-608.5 466,-608.5"/>
<text text-anchor="middle" x="513" y="-615.5" font-family="Helvetica,sans-Serif" font-size="10.00">prtx::ResolveMap</text>
</a>
</g>
</g>
<!-- Node3&#45;&gt;Node4 -->
<g id="edge3" class="edge"><title>Node3&#45;&gt;Node4</title>
<path fill="none" stroke="midnightblue" d="M413.875,-618C430.835,-618 449.406,-618 465.784,-618"/>
<polygon fill="midnightblue" stroke="midnightblue" points="413.557,-614.5 403.557,-618 413.557,-621.5 413.557,-614.5"/>
</g>
<!-- Node5 -->
<g id="node5" class="node"><title>Node5</title>
<g id="a_node5"><a xlink:href="classprt_1_1_attributable_setter.html" target="_top" xlink:title="prt::AttributableSetter">
<polygon fill="none" stroke="black" points="128,-532.5 128,-551.5 238,-551.5 238,-532.5 128,-532.5"/>
<text text-anchor="middle" x="183" y="-539.5" font-family="Helvetica,sans-Serif" font-size="10.00">prt::AttributableSetter</text>
</a>
</g>
</g>
<!-- Node6 -->
<g id="node6" class="node"><title>Node6</title>
<g id="a_node6"><a xlink:href="classprt_1_1_attribute_map_builder.html" target="_top" xlink:title="prt::AttributeMapBuilder">
<polygon fill="none" stroke="black" points="299.5,-532.5 299.5,-551.5 418.5,-551.5 418.5,-532.5 299.5,-532.5"/>
<text text-anchor="middle" x="359" y="-539.5" font-family="Helvetica,sans-Serif" font-size="10.00">prt::AttributeMapBuilder</text>
</a>
</g>
</g>
<!-- Node5&#45;&gt;Node6 -->
<g id="edge4" class="edge"><title>Node5&#45;&gt;Node6</title>
<path fill="none" stroke="midnightblue" d="M248.335,-542C265.061,-542 282.988,-542 299.4,-542"/>
<polygon fill="midnightblue" stroke="midnightblue" points="248.101,-538.5 238.101,-542 248.101,-545.5 248.101,-538.5"/>
</g>
<!-- Node7 -->
<g id="node7" class="node"><title>Node7</title>
<g id="a_node7"><a xlink:href="classprt_1_1_cache.html" target="_top" xlink:title="prt::Cache">
<polygon fill="none" stroke="black" points="152,-494.5 152,-513.5 214,-513.5 214,-494.5 152,-494.5"/>
<text text-anchor="middle" x="183" y="-501.5" font-family="Helvetica,sans-Serif" font-size="10.00">prt::Cache</text>
</a>
</g>
</g>
<!-- Node8 -->
<g id="node8" class="node"><title>Node8</title>
<g id="a_node8"><a xlink:href="classprt_1_1_cache_object.html" target="_top" xlink:title="prt::CacheObject">
<polygon fill="none" stroke="black" points="313.5,-494.5 313.5,-513.5 404.5,-513.5 404.5,-494.5 313.5,-494.5"/>
<text text-anchor="middle" x="359" y="-501.5" font-family="Helvetica,sans-Serif" font-size="10.00">prt::CacheObject</text>
</a>
</g>
</g>
<!-- Node7&#45;&gt;Node8 -->
<g id="edge5" class="edge"><title>Node7&#45;&gt;Node8</title>
<path fill="none" stroke="midnightblue" d="M224.437,-504C251.056,-504 285.92,-504 313.353,-504"/>
<polygon fill="midnightblue" stroke="midnightblue" points="224.309,-500.5 214.308,-504 224.308,-507.5 224.309,-500.5"/>
</g>
<!-- Node9 -->
<g id="node9" class="node"><title>Node9</title>
<g id="a_node9"><a xlink:href="classprt_1_1_callbacks.html" target="_top" xlink:title="prt::Callbacks">
<polygon fill="none" stroke="black" points="0.5,-19.5 0.5,-38.5 77.5,-38.5 77.5,-19.5 0.5,-19.5"/>
<text text-anchor="middle" x="39" y="-26.5" font-family="Helvetica,sans-Serif" font-size="10.00">prt::Callbacks</text>
</a>
</g>
</g>
<!-- Node10 -->
<g id="node10" class="node"><title>Node10</title>
<g id="a_node10"><a xlink:href="classprt_1_1_simple_output_callbacks.html" target="_top" xlink:title="prt::SimpleOutputCallbacks">
<polygon fill="none" stroke="black" points="114.5,-19.5 114.5,-38.5 251.5,-38.5 251.5,-19.5 114.5,-19.5"/>
<text text-anchor="middle" x="183" y="-26.5" font-family="Helvetica,sans-Serif" font-size="10.00">prt::SimpleOutputCallbacks</text>
</a>
</g>
</g>
<!-- Node9&#45;&gt;Node10 -->
<g id="edge6" class="edge"><title>Node9&#45;&gt;Node10</title>
<path fill="none" stroke="midnightblue" d="M87.8419,-29C96.4098,-29 105.483,-29 114.481,-29"/>
<polygon fill="midnightblue" stroke="midnightblue" points="87.6806,-25.5001 77.6806,-29 87.6805,-32.5001 87.6806,-25.5001"/>
</g>
<!-- Node11 -->
<g id="node11" class="node"><title>Node11</title>
<g id="a_node11"><a xlink:href="classprt_1_1_file_output_callbacks.html" target="_top" xlink:title="prt::FileOutputCallbacks">
<polygon fill="none" stroke="black" points="298,-0.5 298,-19.5 420,-19.5 420,-0.5 298,-0.5"/>
<text text-anchor="middle" x="359" y="-7.5" font-family="Helvetica,sans-Serif" font-size="10.00">prt::FileOutputCallbacks</text>
</a>
</g>
</g>
<!-- Node10&#45;&gt;Node11 -->
<g id="edge7" class="edge"><title>Node10&#45;&gt;Node11</title>
<path fill="none" stroke="midnightblue" d="M261.825,-20.5019C273.885,-19.1849 286.183,-17.842 297.778,-16.5759"/>
<polygon fill="midnightblue" stroke="midnightblue" points="261.332,-17.0348 251.771,-21.5997 262.092,-23.9934 261.332,-17.0348"/>
</g>
<!-- Node12 -->
<g id="node12" class="node"><title>Node12</title>
<g id="a_node12"><a xlink:href="classprt_1_1_memory_output_callbacks.html" target="_top" xlink:title="prt::MemoryOutputCallbacks">
<polygon fill="none" stroke="black" points="288,-38.5 288,-57.5 430,-57.5 430,-38.5 288,-38.5"/>
<text text-anchor="middle" x="359" y="-45.5" font-family="Helvetica,sans-Serif" font-size="10.00">prt::MemoryOutputCallbacks</text>
</a>
</g>
</g>
<!-- Node10&#45;&gt;Node12 -->
<g id="edge8" class="edge"><title>Node10&#45;&gt;Node12</title>
<path fill="none" stroke="midnightblue" d="M261.852,-37.5011C270.506,-38.446 279.281,-39.4043 287.831,-40.3379"/>
<polygon fill="midnightblue" stroke="midnightblue" points="262.092,-34.0066 251.771,-36.4003 261.332,-40.9652 262.092,-34.0066"/>
</g>
<!-- Node13 -->
<g id="node13" class="node"><title>Node13</title>
<g id="a_node13"><a xlink:href="classprt_1_1_log_handler.html" target="_top" xlink:title="prt::LogHandler">
<polygon fill="none" stroke="black" points="141.5,-95.5 141.5,-114.5 224.5,-114.5 224.5,-95.5 141.5,-95.5"/>
<text text-anchor="middle" x="183" y="-102.5" font-family="Helvetica,sans-Serif" font-size="10.00">prt::LogHandler</text>
</a>
</g>
</g>
<!-- Node14 -->
<g id="node14" class="node"><title>Node14</title>
<g id="a_node14"><a xlink:href="classprt_1_1_console_log_handler.html" target="_top" xlink:title="prt::ConsoleLogHandler">
<polygon fill="none" stroke="black" points="299.5,-76.5 299.5,-95.5 418.5,-95.5 418.5,-76.5 299.5,-76.5"/>
<text text-anchor="middle" x="359" y="-83.5" font-family="Helvetica,sans-Serif" font-size="10.00">prt::ConsoleLogHandler</text>
</a>
</g>
</g>
<!-- Node13&#45;&gt;Node14 -->
<g id="edge9" class="edge"><title>Node13&#45;&gt;Node14</title>
<path fill="none" stroke="midnightblue" d="M234.748,-99.4586C254.975,-97.2498 278.387,-94.6934 299.337,-92.4057"/>
<polygon fill="midnightblue" stroke="midnightblue" points="234.356,-95.9804 224.795,-100.545 235.116,-102.939 234.356,-95.9804"/>
</g>
<!-- Node15 -->
<g id="node15" class="node"><title>Node15</title>
<g id="a_node15"><a xlink:href="classprt_1_1_file_log_handler.html" target="_top" xlink:title="prt::FileLogHandler">
<polygon fill="none" stroke="black" points="309.5,-114.5 309.5,-133.5 408.5,-133.5 408.5,-114.5 309.5,-114.5"/>
<text text-anchor="middle" x="359" y="-121.5" font-family="Helvetica,sans-Serif" font-size="10.00">prt::FileLogHandler</text>
</a>
</g>
</g>
<!-- Node13&#45;&gt;Node15 -->
<g id="edge10" class="edge"><title>Node13&#45;&gt;Node15</title>
<path fill="none" stroke="midnightblue" d="M234.922,-110.56C258.429,-113.127 286.207,-116.161 309.419,-118.695"/>
<polygon fill="midnightblue" stroke="midnightblue" points="235.116,-107.061 224.795,-109.455 234.356,-114.02 235.116,-107.061"/>
</g>
<!-- Node16 -->
<g id="node16" class="node"><title>Node16</title>
<g id="a_node16"><a xlink:href="classprt_1_1_object.html" target="_top" xlink:title="prt::Object">
<polygon fill="none" stroke="black" points="152,-304.5 152,-323.5 214,-323.5 214,-304.5 152,-304.5"/>
<text text-anchor="middle" x="183" y="-311.5" font-family="Helvetica,sans-Serif" font-size="10.00">prt::Object</text>
</a>
</g>
</g>
<!-- Node17 -->
<g id="node17" class="node"><title>Node17</title>
<g id="a_node17"><a xlink:href="classprt_1_1_annotation.html" target="_top" xlink:title="prt::Annotation">
<polygon fill="none" stroke="black" points="319,-228.5 319,-247.5 399,-247.5 399,-228.5 319,-228.5"/>
<text text-anchor="middle" x="359" y="-235.5" font-family="Helvetica,sans-Serif" font-size="10.00">prt::Annotation</text>
</a>
</g>
</g>
<!-- Node16&#45;&gt;Node17 -->
<g id="edge11" class="edge"><title>Node16&#45;&gt;Node17</title>
<path fill="none" stroke="midnightblue" d="M207.627,-298.938C228.208,-286.341 259.186,-268.616 288,-257 297.811,-253.045 308.719,-249.64 318.95,-246.85"/>
<polygon fill="midnightblue" stroke="midnightblue" points="205.599,-296.078 198.948,-304.325 209.29,-302.025 205.599,-296.078"/>
</g>
<!-- Node18 -->
<g id="node18" class="node"><title>Node18</title>
<g id="a_node18"><a xlink:href="classprt_1_1_annotation_argument.html" target="_top" xlink:title="prt::AnnotationArgument">
<polygon fill="none" stroke="black" points="298,-190.5 298,-209.5 420,-209.5 420,-190.5 298,-190.5"/>
<text text-anchor="middle" x="359" y="-197.5" font-family="Helvetica,sans-Serif" font-size="10.00">prt::AnnotationArgument</text>
</a>
</g>
</g>
<!-- Node16&#45;&gt;Node18 -->
<g id="edge12" class="edge"><title>Node16&#45;&gt;Node18</title>
<path fill="none" stroke="midnightblue" d="M198.29,-296.628C216.804,-275.244 251.109,-239.28 288,-219 294.952,-215.178 302.722,-212.087 310.486,-209.598"/>
<polygon fill="midnightblue" stroke="midnightblue" points="195.581,-294.411 191.783,-304.302 200.92,-298.938 195.581,-294.411"/>
</g>
<!-- Node16&#45;&gt;Node2 -->
<g id="edge13" class="edge"><title>Node16&#45;&gt;Node2</title>
<path fill="none" stroke="midnightblue" d="M191.535,-333.16C213.87,-389.782 278.747,-552.906 288,-561 295.393,-567.467 304.779,-571.757 314.258,-574.596"/>
<polygon fill="midnightblue" stroke="midnightblue" points="194.694,-331.631 187.772,-323.61 188.181,-334.197 194.694,-331.631"/>
</g>
<!-- Node16&#45;&gt;Node6 -->
<g id="edge14" class="edge"><title>Node16&#45;&gt;Node6</title>
<path fill="none" stroke="midnightblue" d="M188.063,-333.574C197.715,-375.05 226.004,-472.138 288,-523 292.77,-526.914 298.279,-530.025 304.069,-532.498"/>
<polygon fill="midnightblue" stroke="midnightblue" points="191.444,-332.654 185.867,-323.646 184.61,-334.166 191.444,-332.654"/>
</g>
<!-- Node16&#45;&gt;Node8 -->
<g id="edge15" class="edge"><title>Node16&#45;&gt;Node8</title>
<path fill="none" stroke="midnightblue" d="M190.407,-333.637C203.098,-369.385 234.894,-445.07 288,-485 295.448,-490.6 304.439,-494.55 313.459,-497.336"/>
<polygon fill="midnightblue" stroke="midnightblue" points="193.627,-332.238 187.079,-323.909 187.004,-334.504 193.627,-332.238"/>
</g>
<!-- Node16&#45;&gt;Node14 -->
<g id="edge16" class="edge"><title>Node16&#45;&gt;Node14</title>
<path fill="none" stroke="midnightblue" d="M188.063,-294.426C197.715,-252.95 226.004,-155.862 288,-105 292.77,-101.086 298.279,-97.9749 304.069,-95.5018"/>
<polygon fill="midnightblue" stroke="midnightblue" points="184.61,-293.834 185.867,-304.354 191.444,-295.346 184.61,-293.834"/>
</g>
<!-- Node19 -->
<g id="node19" class="node"><title>Node19</title>
<g id="a_node19"><a xlink:href="classprt_1_1_decoder_info.html" target="_top" xlink:title="prt::DecoderInfo">
<polygon fill="none" stroke="black" points="315.5,-152.5 315.5,-171.5 402.5,-171.5 402.5,-152.5 315.5,-152.5"/>
<text text-anchor="middle" x="359" y="-159.5" font-family="Helvetica,sans-Serif" font-size="10.00">prt::DecoderInfo</text>
</a>
</g>
</g>
<!-- Node16&#45;&gt;Node19 -->
<g id="edge17" class="edge"><title>Node16&#45;&gt;Node19</title>
<path fill="none" stroke="midnightblue" d="M193.548,-295.141C209.229,-266.113 243.22,-210.731 288,-181 296.183,-175.567 305.878,-171.681 315.404,-168.904"/>
<polygon fill="midnightblue" stroke="midnightblue" points="190.329,-293.744 188.778,-304.225 196.526,-296.999 190.329,-293.744"/>
</g>
<!-- Node20 -->
<g id="node20" class="node"><title>Node20</title>
<g id="a_node20"><a xlink:href="classprt_1_1_encoder_info.html" target="_top" xlink:title="prt::EncoderInfo">
<polygon fill="none" stroke="black" points="316,-456.5 316,-475.5 402,-475.5 402,-456.5 316,-456.5"/>
<text text-anchor="middle" x="359" y="-463.5" font-family="Helvetica,sans-Serif" font-size="10.00">prt::EncoderInfo</text>
</a>
</g>
</g>
<!-- Node16&#45;&gt;Node20 -->
<g id="edge18" class="edge"><title>Node16&#45;&gt;Node20</title>
<path fill="none" stroke="midnightblue" d="M193.548,-332.859C209.229,-361.887 243.22,-417.269 288,-447 296.288,-452.502 306.127,-456.418 315.77,-459.203"/>
<polygon fill="midnightblue" stroke="midnightblue" points="196.526,-331.001 188.778,-323.775 190.329,-334.256 196.526,-331.001"/>
</g>
<!-- Node16&#45;&gt;Node15 -->
<g id="edge19" class="edge"><title>Node16&#45;&gt;Node15</title>
<path fill="none" stroke="midnightblue" d="M190.407,-294.363C203.098,-258.615 234.894,-182.93 288,-143 294.341,-138.232 301.8,-134.661 309.443,-131.985"/>
<polygon fill="midnightblue" stroke="midnightblue" points="187.004,-293.496 187.079,-304.091 193.627,-295.762 187.004,-293.496"/>
</g>
<!-- Node16&#45;&gt;Node11 -->
<g id="edge20" class="edge"><title>Node16&#45;&gt;Node11</title>
<path fill="none" stroke="midnightblue" d="M190.929,-294.647C213.771,-230.897 285.393,-31.3946 288,-29 292.173,-25.1667 297.042,-22.0939 302.234,-19.6327"/>
<polygon fill="midnightblue" stroke="midnightblue" points="187.555,-293.689 187.477,-304.284 194.145,-296.05 187.555,-293.689"/>
</g>
<!-- Node21 -->
<g id="node21" class="node"><title>Node21</title>
<g id="a_node21"><a xlink:href="classprt_1_1_initial_shape.html" target="_top" xlink:title="prt::InitialShape">
<polygon fill="none" stroke="black" points="316.5,-418.5 316.5,-437.5 401.5,-437.5 401.5,-418.5 316.5,-418.5"/>
<text text-anchor="middle" x="359" y="-425.5" font-family="Helvetica,sans-Serif" font-size="10.00">prt::InitialShape</text>
</a>
</g>
</g>
<!-- Node16&#45;&gt;Node21 -->
<g id="edge21" class="edge"><title>Node16&#45;&gt;Node21</title>
<path fill="none" stroke="midnightblue" d="M198.29,-331.372C216.804,-352.756 251.109,-388.72 288,-409 296.718,-413.792 306.721,-417.436 316.386,-420.184"/>
<polygon fill="midnightblue" stroke="midnightblue" points="200.92,-329.062 191.783,-323.698 195.581,-333.589 200.92,-329.062"/>
</g>
<!-- Node23 -->
<g id="node23" class="node"><title>Node23</title>
<g id="a_node23"><a xlink:href="classprt_1_1_initial_shape_builder.html" target="_top" xlink:title="prt::InitialShapeBuilder">
<polygon fill="none" stroke="black" points="301.5,-380.5 301.5,-399.5 416.5,-399.5 416.5,-380.5 301.5,-380.5"/>
<text text-anchor="middle" x="359" y="-387.5" font-family="Helvetica,sans-Serif" font-size="10.00">prt::InitialShapeBuilder</text>
</a>
</g>
</g>
<!-- Node16&#45;&gt;Node23 -->
<g id="edge23" class="edge"><title>Node16&#45;&gt;Node23</title>
<path fill="none" stroke="midnightblue" d="M207.627,-329.062C228.208,-341.659 259.186,-359.384 288,-371 296.993,-374.625 306.909,-377.789 316.379,-380.44"/>
<polygon fill="midnightblue" stroke="midnightblue" points="209.29,-325.975 198.948,-323.675 205.599,-331.922 209.29,-325.975"/>
</g>
<!-- Node16&#45;&gt;Node12 -->
<g id="edge24" class="edge"><title>Node16&#45;&gt;Node12</title>
<path fill="none" stroke="midnightblue" d="M190.951,-294.869C211.15,-239.686 269.573,-83.1182 288,-67 292.455,-63.1034 297.633,-59.9972 303.12,-57.5224"/>
<polygon fill="midnightblue" stroke="midnightblue" points="187.583,-293.888 187.444,-304.482 194.159,-296.287 187.583,-293.888"/>
</g>
<!-- Node24 -->
<g id="node24" class="node"><title>Node24</title>
<g id="a_node24"><a xlink:href="classprt_1_1_occlusion_set.html" target="_top" xlink:title="prt::OcclusionSet">
<polygon fill="none" stroke="black" points="313,-342.5 313,-361.5 405,-361.5 405,-342.5 313,-342.5"/>
<text text-anchor="middle" x="359" y="-349.5" font-family="Helvetica,sans-Serif" font-size="10.00">prt::OcclusionSet</text>
</a>
</g>
</g>
<!-- Node16&#45;&gt;Node24 -->
<g id="edge25" class="edge"><title>Node16&#45;&gt;Node24</title>
<path fill="none" stroke="midnightblue" d="M224.193,-322.778C251.164,-328.668 286.681,-336.425 314.345,-342.466"/>
<polygon fill="midnightblue" stroke="midnightblue" points="224.825,-319.333 214.308,-320.619 223.331,-326.172 224.825,-319.333"/>
</g>
<!-- Node16&#45;&gt;Node3 -->
<g id="edge26" class="edge"><title>Node16&#45;&gt;Node3</title>
<path fill="none" stroke="midnightblue" d="M192.005,-332.819C205.206,-364.133 232.063,-429.028 252,-485 269.828,-535.053 249.67,-562.204 288,-599 295.176,-605.889 304.59,-610.336 314.176,-613.191"/>
<polygon fill="midnightblue" stroke="midnightblue" points="195.202,-331.394 188.081,-323.549 188.756,-334.122 195.202,-331.394"/>
</g>
<!-- Node25 -->
<g id="node25" class="node"><title>Node25</title>
<g id="a_node25"><a xlink:href="classprt_1_1_resolve_map_builder.html" target="_top" xlink:title="prt::ResolveMapBuilder">
<polygon fill="none" stroke="black" points="299.5,-304.5 299.5,-323.5 418.5,-323.5 418.5,-304.5 299.5,-304.5"/>
<text text-anchor="middle" x="359" y="-311.5" font-family="Helvetica,sans-Serif" font-size="10.00">prt::ResolveMapBuilder</text>
</a>
</g>
</g>
<!-- Node16&#45;&gt;Node25 -->
<g id="edge27" class="edge"><title>Node16&#45;&gt;Node25</title>
<path fill="none" stroke="midnightblue" d="M224.399,-314C246.625,-314 274.607,-314 299.213,-314"/>
<polygon fill="midnightblue" stroke="midnightblue" points="224.309,-310.5 214.308,-314 224.308,-317.5 224.309,-310.5"/>
</g>
<!-- Node26 -->
<g id="node26" class="node"><title>Node26</title>
<g id="a_node26"><a xlink:href="classprt_1_1_rule_file_info.html" target="_top" xlink:title="prt::RuleFileInfo">
<polygon fill="none" stroke="black" points="316,-266.5 316,-285.5 402,-285.5 402,-266.5 316,-266.5"/>
<text text-anchor="middle" x="359" y="-273.5" font-family="Helvetica,sans-Serif" font-size="10.00">prt::RuleFileInfo</text>
</a>
</g>
</g>
<!-- Node16&#45;&gt;Node26 -->
<g id="edge28" class="edge"><title>Node16&#45;&gt;Node26</title>
<path fill="none" stroke="midnightblue" d="M224.375,-305.182C251.86,-299.18 288.157,-291.253 315.983,-285.176"/>
<polygon fill="midnightblue" stroke="midnightblue" points="223.331,-301.828 214.308,-307.381 224.825,-308.667 223.331,-301.828"/>
</g>
<!-- Node22 -->
<g id="node22" class="node"><title>Node22</title>
<g id="a_node22"><a xlink:href="classprtx_1_1_initial_shape.html" target="_top" xlink:title="prtx::InitialShape">
<polygon fill="none" stroke="black" points="468,-418.5 468,-437.5 558,-437.5 558,-418.5 468,-418.5"/>
<text text-anchor="middle" x="513" y="-425.5" font-family="Helvetica,sans-Serif" font-size="10.00">prtx::InitialShape</text>
</a>
</g>
</g>
<!-- Node21&#45;&gt;Node22 -->
<g id="edge22" class="edge"><title>Node21&#45;&gt;Node22</title>
<path fill="none" stroke="midnightblue" d="M411.712,-428C429.959,-428 450.294,-428 467.857,-428"/>
<polygon fill="midnightblue" stroke="midnightblue" points="411.535,-424.5 401.535,-428 411.535,-431.5 411.535,-424.5"/>
</g>
</g>
</svg>
