<?xml version="1.0" encoding="UTF-8" standalone="no"?>
<!DOCTYPE svg PUBLIC "-//W3C//DTD SVG 1.1//EN"
 "http://www.w3.org/Graphics/SVG/1.1/DTD/svg11.dtd">
<!-- Generated by graphviz version 2.30.1 (20140821.0912)
 -->
<!-- Title: Graphical Class Hierarchy Pages: 1 -->
<svg width="590pt" height="256pt"
 viewBox="0.00 0.00 590.00 256.00" xmlns="http://www.w3.org/2000/svg" xmlns:xlink="http://www.w3.org/1999/xlink">
<g id="graph0" class="graph" transform="scale(1 1) rotate(0) translate(4 252)">
<title>Graphical Class Hierarchy</title>
<!-- Node1 -->
<g id="node1" class="node"><title>Node1</title>
<g id="a_node1"><a xlink:href="classprtx_1_1_attributable.html" target="_top" xlink:title="prtx::Attributable">
<polygon fill="none" stroke="black" points="347.5,-76.5 347.5,-95.5 436.5,-95.5 436.5,-76.5 347.5,-76.5"/>
<text text-anchor="middle" x="392" y="-83.5" font-family="Helvetica,sans-Serif" font-size="10.00">prtx::Attributable</text>
</a>
</g>
</g>
<!-- Node2 -->
<g id="node2" class="node"><title>Node2</title>
<g id="a_node2"><a xlink:href="classprtx_1_1_geometry.html" target="_top" xlink:title="prtx::Geometry">
<polygon fill="none" stroke="black" points="500,-57.5 500,-76.5 582,-76.5 582,-57.5 500,-57.5"/>
<text text-anchor="middle" x="541" y="-64.5" font-family="Helvetica,sans-Serif" font-size="10.00">prtx::Geometry</text>
</a>
</g>
</g>
<!-- Node1&#45;&gt;Node2 -->
<g id="edge1" class="edge"><title>Node1&#45;&gt;Node2</title>
<path fill="none" stroke="midnightblue" d="M446.79,-79.0476C464.286,-76.7861 483.392,-74.3167 499.725,-72.2056"/>
<polygon fill="midnightblue" stroke="midnightblue" points="446.176,-75.5978 436.707,-80.3508 447.073,-82.54 446.176,-75.5978"/>
</g>
<!-- Node3 -->
<g id="node3" class="node"><title>Node3</title>
<g id="a_node3"><a xlink:href="classprtx_1_1_material.html" target="_top" xlink:title="prtx::Material">
<polygon fill="none" stroke="black" points="504,-114.5 504,-133.5 578,-133.5 578,-114.5 504,-114.5"/>
<text text-anchor="middle" x="541" y="-121.5" font-family="Helvetica,sans-Serif" font-size="10.00">prtx::Material</text>
</a>
</g>
</g>
<!-- Node1&#45;&gt;Node3 -->
<g id="edge2" class="edge"><title>Node1&#45;&gt;Node3</title>
<path fill="none" stroke="midnightblue" d="M439.969,-98.1418C460.688,-103.498 484.655,-109.693 503.934,-114.677"/>
<polygon fill="midnightblue" stroke="midnightblue" points="440.652,-94.7032 430.094,-95.589 438.9,-101.48 440.652,-94.7032"/>
</g>
<!-- Node4 -->
<g id="node4" class="node"><title>Node4</title>
<g id="a_node4"><a xlink:href="classprtx_1_1_shape.html" target="_top" xlink:title="prtx::Shape">
<polygon fill="none" stroke="black" points="507.5,-0.5 507.5,-19.5 574.5,-19.5 574.5,-0.5 507.5,-0.5"/>
<text text-anchor="middle" x="541" y="-7.5" font-family="Helvetica,sans-Serif" font-size="10.00">prtx::Shape</text>
</a>
</g>
</g>
<!-- Node1&#45;&gt;Node4 -->
<g id="edge3" class="edge"><title>Node1&#45;&gt;Node4</title>
<path fill="none" stroke="midnightblue" d="M420.575,-71.7435C450.093,-56.4826 496.1,-32.6966 521.534,-19.5473"/>
<polygon fill="midnightblue" stroke="midnightblue" points="418.893,-68.6728 411.618,-76.3745 422.108,-74.891 418.893,-68.6728"/>
</g>
<!-- Node5 -->
<g id="node5" class="node"><title>Node5</title>
<g id="a_node5"><a xlink:href="classprtx_1_1_texture.html" target="_top" xlink:title="prtx::Texture">
<polygon fill="none" stroke="black" points="505,-152.5 505,-171.5 577,-171.5 577,-152.5 505,-152.5"/>
<text text-anchor="middle" x="541" y="-159.5" font-family="Helvetica,sans-Serif" font-size="10.00">prtx::Texture</text>
</a>
</g>
</g>
<!-- Node1&#45;&gt;Node5 -->
<g id="edge4" class="edge"><title>Node1&#45;&gt;Node5</title>
<path fill="none" stroke="midnightblue" d="M446.329,-96.7861C452.499,-99.0366 458.531,-101.745 464,-105 483.991,-116.9 481.173,-129.333 500,-143 504.853,-146.523 510.462,-149.663 515.916,-152.326"/>
<polygon fill="midnightblue" stroke="midnightblue" points="447.176,-93.3809 436.584,-93.6134 445.009,-100.037 447.176,-93.3809"/>
</g>
<!-- Node6 -->
<g id="node6" class="node"><title>Node6</title>
<g id="a_node6"><a xlink:href="classprtx_1_1_builtin_attributes.html" target="_top" xlink:title="prtx::BuiltinAttributes">
<polygon fill="none" stroke="black" points="0,-57.5 0,-76.5 108,-76.5 108,-57.5 0,-57.5"/>
<text text-anchor="middle" x="54" y="-64.5" font-family="Helvetica,sans-Serif" font-size="10.00">prtx::BuiltinAttributes</text>
</a>
</g>
</g>
<!-- Node7 -->
<g id="node7" class="node"><title>Node7</title>
<g id="a_node7"><a xlink:href="classprtx_1_1_builtin_attributes_getters.html" target="_top" xlink:title="prtx::BuiltinAttributesGetters">
<polygon fill="none" stroke="black" points="144,-57.5 144,-76.5 284,-76.5 284,-57.5 144,-57.5"/>
<text text-anchor="middle" x="214" y="-64.5" font-family="Helvetica,sans-Serif" font-size="10.00">prtx::BuiltinAttributesGetters</text>
</a>
</g>
</g>
<!-- Node6&#45;&gt;Node7 -->
<g id="edge5" class="edge"><title>Node6&#45;&gt;Node7</title>
<path fill="none" stroke="midnightblue" d="M118.181,-67C126.61,-67 135.289,-67 143.814,-67"/>
<polygon fill="midnightblue" stroke="midnightblue" points="118.051,-63.5001 108.051,-67 118.051,-70.5001 118.051,-63.5001"/>
</g>
<!-- Node8 -->
<g id="node8" class="node"><title>Node8</title>
<g id="a_node8"><a xlink:href="classprtx_1_1_builtin_material_attributes.html" target="_top" xlink:title="prtx::BuiltinMaterialAttributes">
<polygon fill="none" stroke="black" points="320.5,-114.5 320.5,-133.5 463.5,-133.5 463.5,-114.5 320.5,-114.5"/>
<text text-anchor="middle" x="392" y="-121.5" font-family="Helvetica,sans-Serif" font-size="10.00">prtx::BuiltinMaterialAttributes</text>
</a>
</g>
</g>
<!-- Node7&#45;&gt;Node8 -->
<g id="edge6" class="edge"><title>Node7&#45;&gt;Node8</title>
<path fill="none" stroke="midnightblue" d="M248.907,-80.1076C269.351,-87.8011 296,-97.461 320,-105 330.591,-108.327 342.184,-111.587 352.874,-114.441"/>
<polygon fill="midnightblue" stroke="midnightblue" points="249.999,-76.7785 239.407,-76.5066 247.517,-83.324 249.999,-76.7785"/>
</g>
<!-- Node9 -->
<g id="node9" class="node"><title>Node9</title>
<g id="a_node9"><a xlink:href="classprtx_1_1_builtin_shape_attributes.html" target="_top" xlink:title="prtx::BuiltinShapeAttributes">
<polygon fill="none" stroke="black" points="324,-0.5 324,-19.5 460,-19.5 460,-0.5 324,-0.5"/>
<text text-anchor="middle" x="392" y="-7.5" font-family="Helvetica,sans-Serif" font-size="10.00">prtx::BuiltinShapeAttributes</text>
</a>
</g>
</g>
<!-- Node7&#45;&gt;Node9 -->
<g id="edge8" class="edge"><title>Node7&#45;&gt;Node9</title>
<path fill="none" stroke="midnightblue" d="M254.077,-54.3442C286.521,-43.837 331.968,-29.1184 361.445,-19.5716"/>
<polygon fill="midnightblue" stroke="midnightblue" points="252.894,-51.0486 244.458,-57.4595 255.05,-57.7081 252.894,-51.0486"/>
</g>
<!-- Node8&#45;&gt;Node3 -->
<g id="edge7" class="edge"><title>Node8&#45;&gt;Node3</title>
<path fill="none" stroke="midnightblue" d="M473.939,-124C484.357,-124 494.573,-124 503.74,-124"/>
<polygon fill="midnightblue" stroke="midnightblue" points="473.917,-120.5 463.916,-124 473.916,-127.5 473.917,-120.5"/>
</g>
<!-- Node9&#45;&gt;Node4 -->
<g id="edge9" class="edge"><title>Node9&#45;&gt;Node4</title>
<path fill="none" stroke="midnightblue" d="M470.424,-10C483.358,-10 496.13,-10 507.13,-10"/>
<polygon fill="midnightblue" stroke="midnightblue" points="470.047,-6.5001 460.047,-10 470.047,-13.5001 470.047,-6.5001"/>
</g>
<!-- Node10 -->
<g id="node10" class="node"><title>Node10</title>
<g id="a_node10"><a xlink:href="classprtx_1_1_content.html" target="_top" xlink:title="prtx::Content">
<polygon fill="none" stroke="black" points="177,-171.5 177,-190.5 251,-190.5 251,-171.5 177,-171.5"/>
<text text-anchor="middle" x="214" y="-178.5" font-family="Helvetica,sans-Serif" font-size="10.00">prtx::Content</text>
</a>
</g>
</g>
<!-- Node11 -->
<g id="node11" class="node"><title>Node11</title>
<g id="a_node11"><a xlink:href="classprtx_1_1_c_g_b.html" target="_top" xlink:title="prtx::CGB">
<polygon fill="none" stroke="black" points="361.5,-228.5 361.5,-247.5 422.5,-247.5 422.5,-228.5 361.5,-228.5"/>
<text text-anchor="middle" x="392" y="-235.5" font-family="Helvetica,sans-Serif" font-size="10.00">prtx::CGB</text>
</a>
</g>
</g>
<!-- Node10&#45;&gt;Node11 -->
<g id="edge10" class="edge"><title>Node10&#45;&gt;Node11</title>
<path fill="none" stroke="midnightblue" d="M248.907,-194.108C269.351,-201.801 296,-211.461 320,-219 333.513,-223.245 348.656,-227.38 361.475,-230.704"/>
<polygon fill="midnightblue" stroke="midnightblue" points="249.999,-190.778 239.407,-190.507 247.517,-197.324 249.999,-190.778"/>
</g>
<!-- Node12 -->
<g id="node12" class="node"><title>Node12</title>
<g id="a_node12"><a xlink:href="classprtx_1_1_comparable_content.html" target="_top" xlink:title="prtx::ComparableContent">
<polygon fill="none" stroke="black" points="329,-190.5 329,-209.5 455,-209.5 455,-190.5 329,-190.5"/>
<text text-anchor="middle" x="392" y="-197.5" font-family="Helvetica,sans-Serif" font-size="10.00">prtx::ComparableContent</text>
</a>
</g>
</g>
<!-- Node10&#45;&gt;Node12 -->
<g id="edge11" class="edge"><title>Node10&#45;&gt;Node12</title>
<path fill="none" stroke="midnightblue" d="M261.126,-185.98C281.762,-188.207 306.404,-190.867 328.649,-193.269"/>
<polygon fill="midnightblue" stroke="midnightblue" points="261.359,-182.484 251.041,-184.891 260.607,-189.444 261.359,-182.484"/>
</g>
<!-- Node10&#45;&gt;Node2 -->
<g id="edge15" class="edge"><title>Node10&#45;&gt;Node2</title>
<path fill="none" stroke="midnightblue" d="M225.325,-162.324C241.453,-135.338 275.447,-86.5358 320,-67 378.416,-41.3857 454.239,-49.19 499.899,-57.7124"/>
<polygon fill="midnightblue" stroke="midnightblue" points="222.178,-160.775 220.206,-171.185 228.239,-164.277 222.178,-160.775"/>
</g>
<!-- Node14 -->
<g id="node14" class="node"><title>Node14</title>
<g id="a_node14"><a xlink:href="classprtx_1_1_mesh.html" target="_top" xlink:title="prtx::Mesh">
<polygon fill="none" stroke="black" points="360.5,-152.5 360.5,-171.5 423.5,-171.5 423.5,-152.5 360.5,-152.5"/>
<text text-anchor="middle" x="392" y="-159.5" font-family="Helvetica,sans-Serif" font-size="10.00">prtx::Mesh</text>
</a>
</g>
</g>
<!-- Node10&#45;&gt;Node14 -->
<g id="edge16" class="edge"><title>Node10&#45;&gt;Node14</title>
<path fill="none" stroke="midnightblue" d="M261.261,-176.006C292.527,-172.631 332.941,-168.268 360.293,-165.315"/>
<polygon fill="midnightblue" stroke="midnightblue" points="260.607,-172.556 251.041,-177.109 261.359,-179.516 260.607,-172.556"/>
</g>
<!-- Node12&#45;&gt;Node3 -->
<g id="edge12" class="edge"><title>Node12&#45;&gt;Node3</title>
<path fill="none" stroke="midnightblue" d="M452.46,-186.798C456.473,-185.09 460.361,-183.166 464,-181 483.991,-169.1 481.173,-156.667 500,-143 504.853,-139.477 510.462,-136.337 515.916,-133.674"/>
<polygon fill="midnightblue" stroke="midnightblue" points="451.046,-183.591 442.932,-190.404 453.524,-190.138 451.046,-183.591"/>
</g>
<!-- Node13 -->
<g id="node13" class="node"><title>Node13</title>
<g id="a_node13"><a xlink:href="classprtx_1_1_shader.html" target="_top" xlink:title="prtx::Shader">
<polygon fill="none" stroke="black" points="506,-190.5 506,-209.5 576,-209.5 576,-190.5 506,-190.5"/>
<text text-anchor="middle" x="541" y="-197.5" font-family="Helvetica,sans-Serif" font-size="10.00">prtx::Shader</text>
</a>
</g>
</g>
<!-- Node12&#45;&gt;Node13 -->
<g id="edge13" class="edge"><title>Node12&#45;&gt;Node13</title>
<path fill="none" stroke="midnightblue" d="M465.495,-200C479.491,-200 493.536,-200 505.599,-200"/>
<polygon fill="midnightblue" stroke="midnightblue" points="465.341,-196.5 455.341,-200 465.341,-203.5 465.341,-196.5"/>
</g>
<!-- Node12&#45;&gt;Node5 -->
<g id="edge14" class="edge"><title>Node12&#45;&gt;Node5</title>
<path fill="none" stroke="midnightblue" d="M439.836,-187.893C460.947,-182.436 485.453,-176.101 504.942,-171.063"/>
<polygon fill="midnightblue" stroke="midnightblue" points="438.9,-184.52 430.094,-190.411 440.652,-191.297 438.9,-184.52"/>
</g>
</g>
</svg>
