<?xml version="1.0" encoding="UTF-8" standalone="no"?>
<!DOCTYPE svg PUBLIC "-//W3C//DTD SVG 1.1//EN"
 "http://www.w3.org/Graphics/SVG/1.1/DTD/svg11.dtd">
<!-- Generated by graphviz version 2.26.0 (20091210.2329)
 -->
<!-- Title: Graphical Class Hierarchy Pages: 1 -->
<svg width="514pt" height="76pt"
 viewBox="0.00 0.00 514.00 76.00" xmlns="http://www.w3.org/2000/svg" xmlns:xlink="http://www.w3.org/1999/xlink">
<g id="graph1" class="graph" transform="scale(1 1) rotate(0) translate(4 72)">
<title>Graphical Class Hierarchy</title>
<!-- Node1 -->
<g id="node1" class="node"><title>Node1</title>
<a xlink:href="classprtx_1_1_reports_accumulator.html" target="_top" xlink:title="prtx::ReportsAccumulator">
<polygon fill="none" stroke="black" points="0,-20.5 0,-41.5 128,-41.5 128,-20.5 0,-20.5"/>
<text text-anchor="middle" x="64" y="-28.5" font-family="Helvetica,sans-Serif" font-size="10.00">prtx::ReportsAccumulator</text>
</a>
</g>
<!-- Node2 -->
<g id="node3" class="node"><title>Node2</title>
<a xlink:href="classprtx_1_1_appending_reports_accumulator.html" target="_top" xlink:title="prtx::AppendingReportsAccumulator">
<polygon fill="none" stroke="black" points="164,-40.5 164,-61.5 338,-61.5 338,-40.5 164,-40.5"/>
<text text-anchor="middle" x="251" y="-48.5" font-family="Helvetica,sans-Serif" font-size="10.00">prtx::AppendingReportsAccumulator</text>
</a>
</g>
<!-- Node1&#45;&gt;Node2 -->
<g id="edge2" class="edge"><title>Node1&#45;&gt;Node2</title>
<path fill="none" stroke="midnightblue" d="M138.234,-38.9394C146.652,-39.8398 155.288,-40.7634 163.852,-41.6794"/>
<polygon fill="midnightblue" stroke="midnightblue" points="138.409,-35.4383 128.093,-37.8549 137.664,-42.3986 138.409,-35.4383"/>
</g>
<!-- Node4 -->
<g id="node7" class="node"><title>Node4</title>
<a xlink:href="classprtx_1_1_write_first_reports_accumulator.html" target="_top" xlink:title="prtx::WriteFirstReportsAccumulator">
<polygon fill="none" stroke="black" points="165.5,-0.5 165.5,-21.5 336.5,-21.5 336.5,-0.5 165.5,-0.5"/>
<text text-anchor="middle" x="251" y="-8.5" font-family="Helvetica,sans-Serif" font-size="10.00">prtx::WriteFirstReportsAccumulator</text>
</a>
</g>
<!-- Node1&#45;&gt;Node4 -->
<g id="edge6" class="edge"><title>Node1&#45;&gt;Node4</title>
<path fill="none" stroke="midnightblue" d="M138.323,-23.051C147.147,-22.1072 156.21,-21.138 165.178,-20.1789"/>
<polygon fill="midnightblue" stroke="midnightblue" points="137.664,-19.6014 128.093,-24.1451 138.409,-26.5617 137.664,-19.6014"/>
</g>
<!-- Node3 -->
<g id="node5" class="node"><title>Node3</title>
<a xlink:href="classprtx_1_1_summarizing_reports_accumulator.html" target="_top" xlink:title="prtx::SummarizingReports\lAccumulator">
<polygon fill="none" stroke="black" points="374.5,-34 374.5,-68 505.5,-68 505.5,-34 374.5,-34"/>
<text text-anchor="start" x="382.5" y="-55" font-family="Helvetica,sans-Serif" font-size="10.00">prtx::SummarizingReports</text>
<text text-anchor="middle" x="440" y="-42" font-family="Helvetica,sans-Serif" font-size="10.00">Accumulator</text>
</a>
</g>
<!-- Node2&#45;&gt;Node3 -->
<g id="edge4" class="edge"><title>Node2&#45;&gt;Node3</title>
<path fill="none" stroke="midnightblue" d="M348.066,-51C356.957,-51 365.818,-51 374.333,-51"/>
<polygon fill="midnightblue" stroke="midnightblue" points="348.032,-47.5001 338.032,-51 348.032,-54.5001 348.032,-47.5001"/>
</g>
</g>
</svg>
