<?xml version="1.0" encoding="UTF-8" standalone="no"?>
<!DOCTYPE svg PUBLIC "-//W3C//DTD SVG 1.1//EN"
 "http://www.w3.org/Graphics/SVG/1.1/DTD/svg11.dtd">
<!-- Generated by graphviz version 2.40.1 (0)
 -->
<!-- Title: Graphical Class Hierarchy Pages: 1 -->
<svg width="589pt" height="332pt"
 viewBox="0.00 0.00 589.00 332.00" xmlns="http://www.w3.org/2000/svg" xmlns:xlink="http://www.w3.org/1999/xlink">
<g id="graph0" class="graph" transform="scale(1 1) rotate(0) translate(4 328)">
<title>Graphical Class Hierarchy</title>
<!-- Node134 -->
<g id="node1" class="node">
<title>Node134</title>
<g id="a_node1"><a xlink:href="classprtx_1_1_attributable.html" target="_top" xlink:title="prtx::Attributable">
<polygon fill="none" stroke="#000000" points="347,-76.5 347,-95.5 436,-95.5 436,-76.5 347,-76.5"/>
<text text-anchor="middle" x="391.5" y="-83.5" font-family="Helvetica,sans-Serif" font-size="10.00" fill="#000000">prtx::Attributable</text>
</a>
</g>
</g>
<!-- Node7 -->
<g id="node2" class="node">
<title>Node7</title>
<g id="a_node2"><a xlink:href="classprtx_1_1_geometry.html" target="_top" xlink:title="prtx::Geometry">
<polygon fill="none" stroke="#000000" points="499,-209.5 499,-228.5 581,-228.5 581,-209.5 499,-209.5"/>
<text text-anchor="middle" x="540" y="-216.5" font-family="Helvetica,sans-Serif" font-size="10.00" fill="#000000">prtx::Geometry</text>
</a>
</g>
</g>
<!-- Node134&#45;&gt;Node7 -->
<g id="edge1" class="edge">
<title>Node134&#45;&gt;Node7</title>
<path fill="none" stroke="#191970" d="M445.7629,-95.8962C451.8797,-98.2998 457.7798,-101.2871 463,-105 483.0464,-119.2581 520.6898,-184.3871 534.6296,-209.2842"/>
<polygon fill="#191970" stroke="#191970" points="446.6333,-92.4951 436.0388,-92.5793 444.3734,-99.1203 446.6333,-92.4951"/>
</g>
<!-- Node3 -->
<g id="node3" class="node">
<title>Node3</title>
<g id="a_node3"><a xlink:href="classprtx_1_1_material.html" target="_top" xlink:title="prtx::Material">
<polygon fill="none" stroke="#000000" points="503,-38.5 503,-57.5 577,-57.5 577,-38.5 503,-38.5"/>
<text text-anchor="middle" x="540" y="-45.5" font-family="Helvetica,sans-Serif" font-size="10.00" fill="#000000">prtx::Material</text>
</a>
</g>
</g>
<!-- Node134&#45;&gt;Node3 -->
<g id="edge2" class="edge">
<title>Node134&#45;&gt;Node3</title>
<path fill="none" stroke="#191970" d="M438.8329,-73.8879C459.5146,-68.5956 483.4188,-62.4787 502.7966,-57.5201"/>
<polygon fill="#191970" stroke="#191970" points="437.793,-70.5411 428.9728,-76.411 439.5284,-77.3226 437.793,-70.5411"/>
</g>
<!-- Node124 -->
<g id="node4" class="node">
<title>Node124</title>
<g id="a_node4"><a xlink:href="classprtx_1_1_shape.html" target="_top" xlink:title="prtx::Shape">
<polygon fill="none" stroke="#000000" points="506.5,-114.5 506.5,-133.5 573.5,-133.5 573.5,-114.5 506.5,-114.5"/>
<text text-anchor="middle" x="540" y="-121.5" font-family="Helvetica,sans-Serif" font-size="10.00" fill="#000000">prtx::Shape</text>
</a>
</g>
</g>
<!-- Node134&#45;&gt;Node124 -->
<g id="edge3" class="edge">
<title>Node134&#45;&gt;Node124</title>
<path fill="none" stroke="#191970" d="M438.7428,-98.0891C460.6342,-103.6909 486.1519,-110.2207 506.094,-115.3237"/>
<polygon fill="#191970" stroke="#191970" points="439.5284,-94.6774 428.9728,-95.589 437.793,-101.4589 439.5284,-94.6774"/>
</g>
<!-- Node5 -->
<g id="node5" class="node">
<title>Node5</title>
<g id="a_node5"><a xlink:href="classprtx_1_1_texture.html" target="_top" xlink:title="prtx::Texture">
<polygon fill="none" stroke="#000000" points="504.5,-76.5 504.5,-95.5 575.5,-95.5 575.5,-76.5 504.5,-76.5"/>
<text text-anchor="middle" x="540" y="-83.5" font-family="Helvetica,sans-Serif" font-size="10.00" fill="#000000">prtx::Texture</text>
</a>
</g>
</g>
<!-- Node134&#45;&gt;Node5 -->
<g id="edge4" class="edge">
<title>Node134&#45;&gt;Node5</title>
<path fill="none" stroke="#191970" d="M446.3032,-86C465.7165,-86 487.0379,-86 504.4306,-86"/>
<polygon fill="#191970" stroke="#191970" points="446.0549,-82.5001 436.0549,-86 446.0549,-89.5001 446.0549,-82.5001"/>
</g>
<!-- Node120 -->
<g id="node6" class="node">
<title>Node120</title>
<g id="a_node6"><a xlink:href="classprtx_1_1_builtin_attributes.html" target="_top" xlink:title="prtx::BuiltinAttributes">
<polygon fill="none" stroke="#000000" points="0,-57.5 0,-76.5 108,-76.5 108,-57.5 0,-57.5"/>
<text text-anchor="middle" x="54" y="-64.5" font-family="Helvetica,sans-Serif" font-size="10.00" fill="#000000">prtx::BuiltinAttributes</text>
</a>
</g>
</g>
<!-- Node121 -->
<g id="node7" class="node">
<title>Node121</title>
<g id="a_node7"><a xlink:href="classprtx_1_1_builtin_attributes_getters.html" target="_top" xlink:title="prtx::BuiltinAttributesGetters">
<polygon fill="none" stroke="#000000" points="144,-57.5 144,-76.5 284,-76.5 284,-57.5 144,-57.5"/>
<text text-anchor="middle" x="214" y="-64.5" font-family="Helvetica,sans-Serif" font-size="10.00" fill="#000000">prtx::BuiltinAttributesGetters</text>
</a>
</g>
</g>
<!-- Node120&#45;&gt;Node121 -->
<g id="edge5" class="edge">
<title>Node120&#45;&gt;Node121</title>
<path fill="none" stroke="#191970" d="M118.2458,-67C126.6263,-67 135.2469,-67 143.7198,-67"/>
<polygon fill="#191970" stroke="#191970" points="118.1687,-63.5001 108.1687,-67 118.1687,-70.5001 118.1687,-63.5001"/>
</g>
<!-- Node122 -->
<g id="node8" class="node">
<title>Node122</title>
<g id="a_node8"><a xlink:href="classprtx_1_1_builtin_material_attributes.html" target="_top" xlink:title="prtx::BuiltinMaterialAttributes">
<polygon fill="none" stroke="#000000" points="320,-.5 320,-19.5 463,-19.5 463,-.5 320,-.5"/>
<text text-anchor="middle" x="391.5" y="-7.5" font-family="Helvetica,sans-Serif" font-size="10.00" fill="#000000">prtx::BuiltinMaterialAttributes</text>
</a>
</g>
</g>
<!-- Node121&#45;&gt;Node122 -->
<g id="edge6" class="edge">
<title>Node121&#45;&gt;Node122</title>
<path fill="none" stroke="#191970" d="M248.2356,-53.8967C268.8773,-46.2046 295.7793,-36.5448 320,-29 330.6687,-25.6767 342.3438,-22.4178 353.1091,-19.5634"/>
<polygon fill="#191970" stroke="#191970" points="246.7767,-50.7058 238.6445,-57.4968 249.2367,-57.2593 246.7767,-50.7058"/>
</g>
<!-- Node123 -->
<g id="node9" class="node">
<title>Node123</title>
<g id="a_node9"><a xlink:href="classprtx_1_1_builtin_shape_attributes.html" target="_top" xlink:title="prtx::BuiltinShapeAttributes">
<polygon fill="none" stroke="#000000" points="323.5,-114.5 323.5,-133.5 459.5,-133.5 459.5,-114.5 323.5,-114.5"/>
<text text-anchor="middle" x="391.5" y="-121.5" font-family="Helvetica,sans-Serif" font-size="10.00" fill="#000000">prtx::BuiltinShapeAttributes</text>
</a>
</g>
</g>
<!-- Node121&#45;&gt;Node123 -->
<g id="edge8" class="edge">
<title>Node121&#45;&gt;Node123</title>
<path fill="none" stroke="#191970" d="M248.2356,-80.1033C268.8773,-87.7954 295.7793,-97.4552 320,-105 330.6687,-108.3233 342.3438,-111.5822 353.1091,-114.4366"/>
<polygon fill="#191970" stroke="#191970" points="249.2367,-76.7407 238.6445,-76.5032 246.7767,-83.2942 249.2367,-76.7407"/>
</g>
<!-- Node122&#45;&gt;Node3 -->
<g id="edge7" class="edge">
<title>Node122&#45;&gt;Node3</title>
<path fill="none" stroke="#191970" d="M438.8329,-22.1121C459.5146,-27.4044 483.4188,-33.5213 502.7966,-38.4799"/>
<polygon fill="#191970" stroke="#191970" points="439.5284,-18.6774 428.9728,-19.589 437.793,-25.4589 439.5284,-18.6774"/>
</g>
<!-- Node123&#45;&gt;Node124 -->
<g id="edge9" class="edge">
<title>Node123&#45;&gt;Node124</title>
<path fill="none" stroke="#191970" d="M469.9169,-124C482.6918,-124 495.3017,-124 506.2276,-124"/>
<polygon fill="#191970" stroke="#191970" points="469.6653,-120.5001 459.6653,-124 469.6652,-127.5001 469.6653,-120.5001"/>
</g>
<!-- Node0 -->
<g id="node10" class="node">
<title>Node0</title>
<g id="a_node10"><a xlink:href="classprtx_1_1_content.html" target="_top" xlink:title="prtx::Content">
<polygon fill="none" stroke="#000000" points="177,-209.5 177,-228.5 251,-228.5 251,-209.5 177,-209.5"/>
<text text-anchor="middle" x="214" y="-216.5" font-family="Helvetica,sans-Serif" font-size="10.00" fill="#000000">prtx::Content</text>
</a>
</g>
</g>
<!-- Node0&#45;&gt;Node7 -->
<g id="edge16" class="edge">
<title>Node0&#45;&gt;Node7</title>
<path fill="none" stroke="#191970" d="M243.4136,-232.6428C264.2828,-241.545 293.2298,-252.3466 320,-257 382.6166,-267.8846 401.1068,-271.4409 463,-257 486.373,-251.5466 510.8024,-237.9227 525.7149,-228.5622"/>
<polygon fill="#191970" stroke="#191970" points="244.7113,-229.3903 234.1469,-228.5882 241.9053,-235.8033 244.7113,-229.3903"/>
</g>
<!-- Node1 -->
<g id="node11" class="node">
<title>Node1</title>
<g id="a_node11"><a xlink:href="classprtx_1_1_c_g_b.html" target="_top" xlink:title="prtx::CGB">
<polygon fill="none" stroke="#000000" points="361,-152.5 361,-171.5 422,-171.5 422,-152.5 361,-152.5"/>
<text text-anchor="middle" x="391.5" y="-159.5" font-family="Helvetica,sans-Serif" font-size="10.00" fill="#000000">prtx::CGB</text>
</a>
</g>
</g>
<!-- Node0&#45;&gt;Node1 -->
<g id="edge10" class="edge">
<title>Node0&#45;&gt;Node1</title>
<path fill="none" stroke="#191970" d="M248.2356,-205.8967C268.8773,-198.2046 295.7793,-188.5448 320,-181 333.2438,-176.8745 348.0387,-172.8483 360.7187,-169.5719"/>
<polygon fill="#191970" stroke="#191970" points="246.7767,-202.7058 238.6445,-209.4968 249.2367,-209.2593 246.7767,-202.7058"/>
</g>
<!-- Node2 -->
<g id="node12" class="node">
<title>Node2</title>
<g id="a_node12"><a xlink:href="classprtx_1_1_comparable_content.html" target="_top" xlink:title="prtx::ComparableContent">
<polygon fill="none" stroke="#000000" points="328.5,-38.5 328.5,-57.5 454.5,-57.5 454.5,-38.5 328.5,-38.5"/>
<text text-anchor="middle" x="391.5" y="-45.5" font-family="Helvetica,sans-Serif" font-size="10.00" fill="#000000">prtx::ComparableContent</text>
</a>
</g>
</g>
<!-- Node0&#45;&gt;Node2 -->
<g id="edge11" class="edge">
<title>Node0&#45;&gt;Node2</title>
<path fill="none" stroke="#191970" d="M221.8398,-200.1706C236.2984,-167.8152 270.2967,-101.7967 320,-67 325.5765,-63.0959 331.9087,-59.994 338.4445,-57.5294"/>
<polygon fill="#191970" stroke="#191970" points="218.6005,-198.8432 217.8369,-209.4105 225.0237,-201.6259 218.6005,-198.8432"/>
</g>
<!-- Node6 -->
<g id="node14" class="node">
<title>Node6</title>
<g id="a_node14"><a xlink:href="classprtx_1_1_c_t_string.html" target="_top" xlink:title="prtx::CTString">
<polygon fill="none" stroke="#000000" points="352.5,-304.5 352.5,-323.5 430.5,-323.5 430.5,-304.5 352.5,-304.5"/>
<text text-anchor="middle" x="391.5" y="-311.5" font-family="Helvetica,sans-Serif" font-size="10.00" fill="#000000">prtx::CTString</text>
</a>
</g>
</g>
<!-- Node0&#45;&gt;Node6 -->
<g id="edge15" class="edge">
<title>Node0&#45;&gt;Node6</title>
<path fill="none" stroke="#191970" d="M234.0742,-234.8308C254.6897,-250.4997 288.1728,-274.3496 320,-290 331.6326,-295.7201 344.961,-300.6053 356.934,-304.4459"/>
<polygon fill="#191970" stroke="#191970" points="236.127,-231.9941 226.0691,-228.6641 231.8551,-237.5395 236.127,-231.9941"/>
</g>
<!-- Node8 -->
<g id="node15" class="node">
<title>Node8</title>
<g id="a_node15"><a xlink:href="classprtx_1_1_mesh.html" target="_top" xlink:title="prtx::Mesh">
<polygon fill="none" stroke="#000000" points="360,-228.5 360,-247.5 423,-247.5 423,-228.5 360,-228.5"/>
<text text-anchor="middle" x="391.5" y="-235.5" font-family="Helvetica,sans-Serif" font-size="10.00" fill="#000000">prtx::Mesh</text>
</a>
</g>
</g>
<!-- Node0&#45;&gt;Node8 -->
<g id="edge17" class="edge">
<title>Node0&#45;&gt;Node8</title>
<path fill="none" stroke="#191970" d="M261.4269,-224.0767C292.6377,-227.4176 332.6263,-231.698 359.9751,-234.6255"/>
<polygon fill="#191970" stroke="#191970" points="261.5256,-220.5673 251.2098,-222.983 260.7805,-227.5276 261.5256,-220.5673"/>
</g>
<!-- Node9 -->
<g id="node16" class="node">
<title>Node9</title>
<g id="a_node16"><a xlink:href="classprtx_1_1_table.html" target="_top" xlink:title="prtx::Table">
<polygon fill="none" stroke="#000000" points="360.5,-190.5 360.5,-209.5 422.5,-209.5 422.5,-190.5 360.5,-190.5"/>
<text text-anchor="middle" x="391.5" y="-197.5" font-family="Helvetica,sans-Serif" font-size="10.00" fill="#000000">prtx::Table</text>
</a>
</g>
</g>
<!-- Node0&#45;&gt;Node9 -->
<g id="edge18" class="edge">
<title>Node0&#45;&gt;Node9</title>
<path fill="none" stroke="#191970" d="M261.4603,-213.9197C292.7758,-210.5677 332.917,-206.2709 360.2627,-203.3437"/>
<polygon fill="#191970" stroke="#191970" points="260.7805,-210.4724 251.2098,-215.017 261.5256,-217.4327 260.7805,-210.4724"/>
</g>
<!-- Node2&#45;&gt;Node3 -->
<g id="edge12" class="edge">
<title>Node2&#45;&gt;Node3</title>
<path fill="none" stroke="#191970" d="M464.9617,-48C478.1532,-48 491.3779,-48 502.97,-48"/>
<polygon fill="#191970" stroke="#191970" points="464.9081,-44.5001 454.9081,-48 464.9081,-51.5001 464.9081,-44.5001"/>
</g>
<!-- Node2&#45;&gt;Node5 -->
<g id="edge14" class="edge">
<title>Node2&#45;&gt;Node5</title>
<path fill="none" stroke="#191970" d="M438.776,-60.0976C460.0197,-65.5337 484.6727,-71.8422 504.3302,-76.8724"/>
<polygon fill="#191970" stroke="#191970" points="439.5284,-56.6774 428.9728,-57.589 437.793,-63.4589 439.5284,-56.6774"/>
</g>
<!-- Node4 -->
<g id="node13" class="node">
<title>Node4</title>
<g id="a_node13"><a xlink:href="classprtx_1_1_shader.html" target="_top" xlink:title="prtx::Shader">
<polygon fill="none" stroke="#000000" points="505,-.5 505,-19.5 575,-19.5 575,-.5 505,-.5"/>
<text text-anchor="middle" x="540" y="-7.5" font-family="Helvetica,sans-Serif" font-size="10.00" fill="#000000">prtx::Shader</text>
</a>
</g>
</g>
<!-- Node2&#45;&gt;Node4 -->
<g id="edge13" class="edge">
<title>Node2&#45;&gt;Node4</title>
<path fill="none" stroke="#191970" d="M438.8511,-35.8832C460.2608,-30.4047 485.1206,-24.0432 504.837,-18.9979"/>
<polygon fill="#191970" stroke="#191970" points="437.793,-32.5411 428.9728,-38.411 439.5284,-39.3226 437.793,-32.5411"/>
</g>
</g>
</svg>
